<svg xmlns="http://www.w3.org/2000/svg" width="13.772" height="13.702" viewBox="0 0 13.772 13.702">
  <g id="edit" transform="translate(-1535.228 -4166)">
    <path id="Path_50854" data-name="Path 50854" d="M55.228,105.813a1.717,1.717,0,0,0,1.715,1.715h9.624a1.717,1.717,0,0,0,1.715-1.715v-3.045a.343.343,0,1,0-.686,0v3.045a1.03,1.03,0,0,1-1.029,1.029H56.943a1.03,1.03,0,0,1-1.029-1.029V96.876a1.03,1.03,0,0,1,1.029-1.029h3.045a.343.343,0,1,0,0-.686H56.943a1.717,1.717,0,0,0-1.715,1.715Z" transform="translate(1480 4072.174)" fill="#919191"/>
    <path id="Path_50855" data-name="Path 50855" d="M171.532,56.249a1.533,1.533,0,0,0-1.091.452l-6.119,6.119a.343.343,0,0,0-.088.151l-.8,2.9a.343.343,0,0,0,.422.422l2.9-.8a.343.343,0,0,0,.151-.088l6.119-6.119a1.543,1.543,0,0,0,0-2.183l-.4-.4h0A1.534,1.534,0,0,0,171.532,56.249Zm-6.463,6.794,5.008-5.008,1.615,1.615-5.008,5.008Zm-.323.647,1.29,1.29-1.785.494Zm8.046-5.5a.852.852,0,0,1-.251.606l-.364.364-1.615-1.615.364-.364a.857.857,0,0,1,1.213,0l.4.4A.852.852,0,0,1,172.792,58.195Z" transform="translate(1375.522 4109.751)" fill="#919191"/>
  </g>
</svg>
