<svg xmlns="http://www.w3.org/2000/svg" width="21" height="21" viewBox="0 0 21 21">
  <path id="search-blue" d="M1426.616-1277.333a1.047,1.047,0,0,1-.743-.308l-3.858-3.859a9.377,9.377,0,0,1-5.9,2.066,9.389,9.389,0,0,1-6.682-2.768,9.389,9.389,0,0,1-2.768-6.682,9.389,9.389,0,0,1,2.768-6.682,9.389,9.389,0,0,1,6.682-2.768,9.388,9.388,0,0,1,6.682,2.768,9.389,9.389,0,0,1,2.767,6.682,9.38,9.38,0,0,1-2.065,5.9l3.858,3.859a1.047,1.047,0,0,1,.308.743,1.046,1.046,0,0,1-.308.742A1.047,1.047,0,0,1,1426.616-1277.333Zm-10.5-18.9a7.358,7.358,0,0,0-7.35,7.35,7.359,7.359,0,0,0,7.35,7.35,7.3,7.3,0,0,0,5.2-2.153,7.3,7.3,0,0,0,2.153-5.2A7.358,7.358,0,0,0,1416.116-1296.233Z" transform="translate(-1406.666 1298.333)" fill="#5e70ef"/>
</svg>
