<svg id="com-1" xmlns="http://www.w3.org/2000/svg" width="40" height="40" viewBox="0 0 40 40">
  <rect id="Rectangle_4649" data-name="Rectangle 4649" width="40" height="40" rx="6" fill="#fff" opacity="0"/>
  <g id="Group_61343" data-name="Group 61343">
    <rect id="Rectangle_4649-2" data-name="Rectangle 4649" width="40" height="40" rx="6" fill="#fff"/>
    <g id="dash" transform="translate(-92.599 -44)">
      <path id="Path_52497" data-name="Path 52497" d="M112.45,56a8.857,8.857,0,0,0-8.85,8.85,9.063,9.063,0,0,0,2.986,6.839l.383.314a.391.391,0,0,0,.251.088.4.4,0,0,0,.27-.1,2.158,2.158,0,0,0,.226-.3,5.848,5.848,0,0,1,9.466,0,2.15,2.15,0,0,0,.226.3.4.4,0,0,0,.27.1.392.392,0,0,0,.251-.088l.383-.314a9.063,9.063,0,0,0,2.986-6.839A8.857,8.857,0,0,0,112.45,56Zm0,.8A8.04,8.04,0,0,1,120.5,64.85a8.255,8.255,0,0,1-2.778,6.273,6.556,6.556,0,0,0-10.535,0A8.255,8.255,0,0,1,104.4,64.85,8.04,8.04,0,0,1,112.45,56.8Zm4.262,3.369a.407.407,0,0,0-.277.126L113.7,63.027a2.189,2.189,0,1,0,.572.566L117,60.865a.406.406,0,0,0,.094-.44A.421.421,0,0,0,116.712,60.174Zm-4.262,3.269a1.408,1.408,0,1,1-1.408,1.408A1.4,1.4,0,0,1,112.45,63.442Z" transform="translate(0 0)" fill="#2d62ed" stroke="#2d62ed" stroke-width="0.6"/>
    </g>
  </g>
</svg>
