<svg xmlns="http://www.w3.org/2000/svg" width="11.571" height="14.847" viewBox="0 0 11.571 14.847">
  <g id="delete" transform="translate(-680.334 -262)">
    <path id="Path_50913" data-name="Path 50913" d="M214.959,210.615H204.026a.319.319,0,1,0,0,.639h.757v10.974a1.16,1.16,0,0,0,1.158,1.158h7.1a1.16,1.16,0,0,0,1.158-1.158V211.254h.757a.319.319,0,0,0,0-.639Zm-1.4,11.613a.52.52,0,0,1-.52.52h-7.1a.52.52,0,0,1-.52-.52V211.333h8.142Z" transform="translate(476.627 53.46)" fill="#919191"/>
    <path id="Path_50914" data-name="Path 50914" d="M253.437,179.336a.319.319,0,0,1-.319-.319.511.511,0,0,0-.511-.511h-3.688a.511.511,0,0,0-.511.511.319.319,0,1,1-.639,0,1.15,1.15,0,0,1,1.149-1.149h3.688a1.15,1.15,0,0,1,1.149,1.149A.319.319,0,0,1,253.437,179.336Z" transform="translate(435.356 84.132)" fill="#919191"/>
    <path id="Path_50915" data-name="Path 50915" d="M290.281,247.423a.319.319,0,0,1-.319-.319v-8.461a.319.319,0,0,1,.639,0V247.1A.319.319,0,0,1,290.281,247.423Z" transform="translate(395.838 27.508)" fill="#919191"/>
    <path id="Path_50916" data-name="Path 50916" d="M255.016,247.423a.319.319,0,0,1-.319-.319v-8.461a.319.319,0,0,1,.639,0V247.1A.319.319,0,0,1,255.016,247.423Z" transform="translate(428.868 27.508)" fill="#919191"/>
    <path id="Path_50917" data-name="Path 50917" d="M325.546,247.423a.319.319,0,0,1-.319-.319v-8.461a.319.319,0,0,1,.639,0V247.1A.319.319,0,0,1,325.546,247.423Z" transform="translate(362.808 27.508)" fill="#919191"/>
  </g>
</svg>
