<svg xmlns="http://www.w3.org/2000/svg" width="81" height="35.999" viewBox="0 0 81 35.999">
  <g id="Emarlogo_mobileversion" transform="translate(-34.998 -43.388)">
    <g id="Group_45676" data-name="Group 45676" transform="translate(34.998 62.424)">
      <text id="PM_Connect" data-name="PM Connect" transform="translate(0 13.964)" fill="#fcfcfc" font-size="13" font-family="SegoeUI, Segoe UI"><tspan x="0" y="0">PM CONNECT</tspan></text>
    </g>
    <path id="Fill-399" d="M42.407,11.565a6.426,6.426,0,0,0,1.681,2.257H40.95L38.59,8.759H33.842l-2.33,5.062H29.66A7.26,7.26,0,0,0,30.865,11.9L36.368,0h.621Zm-3.93-3.886L36.455,3.839,34.469,7.679Zm19.16,3.886a6.427,6.427,0,0,0,1.681,2.257H56.18L53.82,8.759H49.07l-2.329,5.062H44.89a7.319,7.319,0,0,0,1.2-1.924L51.6,0h.62Zm-3.93-3.886L51.684,3.839,49.7,7.679Zm12.3-.32,6.938,6.463H70.007a57.325,57.325,0,0,1-5.665-5.574,2.027,2.027,0,0,0-1.447-.86v4.251a4.642,4.642,0,0,0,.408,2.174H60.121a4.373,4.373,0,0,0,.4-2.174V2.175A4.361,4.361,0,0,0,60.121,0h3.124c2.134,0,7.171-.184,7.171,3.787,0,2.1-1.748,3.226-3.8,3.512Zm-2.681-.477a11.6,11.6,0,0,0,3.094-.172c.041-.019.062-.026.062-.026l-.006.006A2.793,2.793,0,0,0,68.134,3.86C68.087,2.833,67.645.6,63.327.778ZM10.394,12.443l.027-.119a4.484,4.484,0,0,1-1.937.517H2.715V7.425H8.8l.315-1.062h-6.4V.951H8.168a3.844,3.844,0,0,1,1.322.256c.138.059.287.122.474.2L9.947,0H0A4.447,4.447,0,0,1,.394,2.176v9.468A4.464,4.464,0,0,1,0,13.821H10.191l.214-1.378Zm15.439,1.378A7.875,7.875,0,0,0,25.86,11.4l-.907-6.512L20,13.815h-.946L14.02,4.481l-.977,7.06a9.066,9.066,0,0,0-.048,2.281H11.223a5.736,5.736,0,0,0,.587-2.175L13.41,0h.817L20.1,10.869,25.971,0h.614L28.24,11.622a6.152,6.152,0,0,0,.618,2.2Z" transform="translate(34.998 43.388)" fill="#fff" fill-rule="evenodd"/>
  </g>
</svg>
