<svg xmlns="http://www.w3.org/2000/svg" width="38" height="38" viewBox="0 0 38 38">
  <g id="Group_61625" data-name="Group 61625" transform="translate(-44 -302)">
    <circle id="Ellipse_1767" data-name="Ellipse 1767" cx="19" cy="19" r="19" transform="translate(44 302)" fill="#2d62ed" opacity="0.1"/>
    <g id="noun_Project_3558766" transform="translate(53.224 310.691)">
      <path id="Path_50802" data-name="Path 50802" d="M18.788,15.666V4.337a2.828,2.828,0,0,0-5.283-1.4H1.192a.433.433,0,0,0-.433.447V18.675a.433.433,0,0,0,.433.433H16.485A2.308,2.308,0,0,0,18.794,16.8V15.645ZM15.957,2.372a1.965,1.965,0,0,1,1.965,1.965v10.8a3.07,3.07,0,0,0-3.927,0V4.337a1.965,1.965,0,0,1,1.962-1.965Zm.531,15.87H1.625V3.815H13.181a2.969,2.969,0,0,0-.052.537V16.367a.288.288,0,0,0,0,.049.072.072,0,0,0,0,.023.462.462,0,0,0,.014.061v.017a.349.349,0,0,0,.026.058v.02a.24.24,0,0,0,.066.061l.017.02a.248.248,0,0,0,.04.038l.02.017.052.032h.017l.055.02h.312l.063-.04a.052.052,0,0,1,.02,0,.415.415,0,0,0,.043-.04h.017l.038-.049v-.02a.316.316,0,0,0,.023-.04,2.216,2.216,0,0,1,3.968-.072v.317A1.443,1.443,0,0,1,16.488,18.242Z" transform="translate(0 0)" fill="#2d62ed" stroke="#2d62ed" stroke-width="0.2"/>
      <path id="Path_50803" data-name="Path 50803" d="M9.166,42.75a1.9,1.9,0,1,0,1.9,1.9A1.9,1.9,0,0,0,9.166,42.75Zm0,2.926a1.03,1.03,0,1,1,1.03-1.03A1.03,1.03,0,0,1,9.166,45.676Z" transform="translate(-4.632 -29.341)" fill="#2d62ed" stroke="#2d62ed" stroke-width="0.2"/>
      <path id="Path_50804" data-name="Path 50804" d="M9.166,14.41a1.9,1.9,0,1,0,1.9,1.9,1.9,1.9,0,0,0-1.9-1.9Zm0,2.923a1.03,1.03,0,1,1,1.03-1.021A1.03,1.03,0,0,1,9.166,17.333Z" transform="translate(-4.632 -9.178)" fill="#2d62ed" stroke="#2d62ed" stroke-width="0.2"/>
      <path id="Path_50805" data-name="Path 50805" d="M27.778,19.38H23.45v.866h3.91v7.37H25.126l.433-.366a.439.439,0,0,0-.577-.661l-1.324,1.131a.43.43,0,0,0,0,.658l1.324,1.131a.439.439,0,0,0,.289.1.433.433,0,0,0,.289-.765l-.43-.366h2.649a.433.433,0,0,0,.433-.433V19.813a.433.433,0,0,0-.433-.433Z" transform="translate(-16.143 -12.714)" fill="#2d62ed" stroke="#2d62ed" stroke-width="0.2"/>
    </g>
  </g>
</svg>
