<svg xmlns="http://www.w3.org/2000/svg" width="23.202" height="19.513" viewBox="0 0 23.202 19.513">
  <path id="Path_51027" data-name="Path 51027" d="M63.088,63.283c-3.144-3.189-7.624-3.719-9.331-3.8V55.422a.523.523,0,0,0-.871-.383l-8.464,7.867a.523.523,0,0,0,0,.765l8.457,7.867a.523.523,0,0,0,.871-.383V66.973a15.33,15.33,0,0,1,11.744,6.194.523.523,0,0,0,.439.239.507.507,0,0,0,.145-.019.523.523,0,0,0,.378-.5C66.507,68.835,65.371,65.6,63.088,63.283Zm-9.851,2.636h0a.523.523,0,0,0-.523.523v3.513l-7.171-6.672,7.168-6.663v3.369a.523.523,0,0,0,.523.523c.949,0,5.844.19,9.11,3.506a11.23,11.23,0,0,1,3.027,7.3,16.233,16.233,0,0,0-12.134-5.4Z" transform="translate(-43.755 -54.393)" fill="#707070" stroke="rgba(0,0,0,0)" stroke-width="1" opacity="0.8"/>
</svg>
