<svg xmlns="http://www.w3.org/2000/svg" width="40" height="40" viewBox="0 0 40 40">
  <g id="Projectlist-Blue" transform="translate(-759 -298)">
    <rect id="Bg-white" width="40" height="40" rx="6" transform="translate(759 298)" fill="#fff"/>
    <path id="projectlist-blue-2" data-name="projectlist-blue" d="M2963.691-1480.793a6.081,6.081,0,0,1-1.793-4.329,6.152,6.152,0,0,1,.275-1.825h-2.293a.78.78,0,0,1-.728-.823.78.78,0,0,1,.728-.822h2.672a.661.661,0,0,1,.353.1,6.158,6.158,0,0,1,.787-.964,6.08,6.08,0,0,1,4.328-1.792,6.083,6.083,0,0,1,4.33,1.792,6.081,6.081,0,0,1,1.792,4.329,6.08,6.08,0,0,1-1.792,4.329,6.083,6.083,0,0,1-4.33,1.793A6.081,6.081,0,0,1,2963.691-1480.793Zm1.2-7.451a4.386,4.386,0,0,0-1.294,3.124A4.386,4.386,0,0,0,2964.9-1482a4.387,4.387,0,0,0,3.124,1.294,4.39,4.39,0,0,0,3.125-1.294,4.389,4.389,0,0,0,1.293-3.124,4.391,4.391,0,0,0-1.293-3.124,4.39,4.39,0,0,0-3.125-1.294A4.387,4.387,0,0,0,2964.9-1488.245Zm-14.226,7.427a1.593,1.593,0,0,1-1.127-.467,1.584,1.584,0,0,1-.469-1.127V-1499.4a1.593,1.593,0,0,1,.467-1.127,1.586,1.586,0,0,1,1.128-.469h17.6a1.594,1.594,0,0,1,1.127.467,1.587,1.587,0,0,1,.469,1.128v6.257a.823.823,0,0,1-.822.822.822.822,0,0,1-.822-.822v-6.207h-17.5v16.894h10.114a.823.823,0,0,1,.822.822.823.823,0,0,1-.822.822Zm19.262-1.944-2.235-1.325a.851.851,0,0,1-.455-.754v-2.988a.854.854,0,0,1,.853-.853.854.854,0,0,1,.853.853v2.505l1.851,1.1a.844.844,0,0,1,.391.519.849.849,0,0,1-.092.648.852.852,0,0,1-.732.418A.854.854,0,0,1,2969.932-1482.762Zm-16.787-4.876a1.916,1.916,0,0,1,1.916-1.916,1.916,1.916,0,0,1,1.917,1.916,1.916,1.916,0,0,1-1.917,1.916A1.915,1.915,0,0,1,2953.145-1487.638Zm1.462-4.751-1.491-1.491a.718.718,0,0,1,0-1.016.717.717,0,0,1,1.016,0l.983.982,1.845-1.845a.718.718,0,0,1,1.017,0,.719.719,0,0,1,0,1.016l-2.354,2.354a.714.714,0,0,1-.508.21A.713.713,0,0,1,2954.607-1492.389Zm4.951-.627a.78.78,0,0,1-.728-.822.779.779,0,0,1,.728-.822h5.992a.78.78,0,0,1,.728.822.78.78,0,0,1-.728.822Z" transform="translate(-2183.074 1808)" fill="#5e70ef"/>
  </g>
</svg>
