<svg xmlns="http://www.w3.org/2000/svg" width="16.971" height="16.075" viewBox="0 0 16.971 16.075">
  <g id="upload_Grey" transform="translate(-0.476 -0.075)">
    <path id="Union_143" data-name="Union 143" d="M.23,9.31c-.777-.4.662-1.822.662-3.365A3.48,3.48,0,0,1,4.523,2.64a4.04,4.04,0,0,1,.617.048A3.979,3.979,0,0,1,8.813,0a4.135,4.135,0,0,1,3.962,4.291c0,.115,0,.23-.012.344a3.446,3.446,0,0,1,3.316,3.292,3.046,3.046,0,0,1-.1.784,1.431,1.431,0,0,1,.1.533c0,1.826-3.548,3.3-7.924,3.3C3.83,12.547.315,11.105.23,9.31Z" transform="translate(0.476 0.075)" fill="#fff" opacity="0.1"/>
    <g id="Group_2286" data-name="Group 2286" transform="translate(2.162 2)">
      <path id="Union_154" data-name="Union 154" d="M7.086,13.517V6.8L5.7,8.184a.475.475,0,0,1-.34.143.484.484,0,0,1-.34-.825L7.229,5.3a.475.475,0,0,1,.34-.143.485.485,0,0,1,.34.143L10.115,7.5a.483.483,0,0,1-.341.825.472.472,0,0,1-.339-.142L8.051,6.8v6.717a.483.483,0,1,1-.965,0Zm-3.9-2.251A3.272,3.272,0,0,1,.914,10.127,3.608,3.608,0,0,1,0,7.742a3.379,3.379,0,0,1,1.357-2.7,2.624,2.624,0,0,1-.043-.465A2.447,2.447,0,0,1,3.759,2.135a2.562,2.562,0,0,1,.423.036,4.413,4.413,0,0,1,8.144,1.464,3.809,3.809,0,0,1,2,1.371,3.962,3.962,0,0,1,.809,2.377,3.911,3.911,0,0,1-1.023,2.636,3.757,3.757,0,0,1-2.518,1.243H9.269a.483.483,0,0,1,0-.965H11.54a2.936,2.936,0,0,0,.275-5.8.483.483,0,0,1-.4-.429A3.446,3.446,0,0,0,4.868,2.936a.486.486,0,0,1-.6.247,1.445,1.445,0,0,0-.5-.089,1.481,1.481,0,0,0-1.48,1.48,1.436,1.436,0,0,0,.088.508.487.487,0,0,1-.211.586A2.408,2.408,0,0,0,.965,7.739,2.564,2.564,0,0,0,3.224,10.3H5.863a.482.482,0,1,1,0,.965Z" transform="translate(0 0)" fill="#7f7f7f" stroke="#fff" stroke-linecap="round" stroke-width="0.3"/>
    </g>
  </g>
</svg>
