<svg xmlns="http://www.w3.org/2000/svg" width="12.686" height="13.815" viewBox="0 0 12.686 13.815">
  <g id="home_grey" transform="translate(0.4 0.415)">
    <path id="Path_50912" data-name="Path 50912" d="M23.943,967.362a.212.212,0,0,0-.116.035l-5.757,4.457A.189.189,0,0,0,18,972v8.171a.193.193,0,0,0,.186.186h3.9a.193.193,0,0,0,.186-.186v-4.643h3.343v4.643a.193.193,0,0,0,.186.186h3.9a.193.193,0,0,0,.186-.186V972a.189.189,0,0,0-.07-.151L24.059,967.4a.181.181,0,0,0-.116-.035Zm0,.418,5.571,4.318v7.893H25.986v-4.643a.193.193,0,0,0-.186-.186H22.086a.193.193,0,0,0-.186.186v4.643H18.372V972.1Z" transform="translate(-18 -967.362)" fill="#bcc0c7" stroke="#bcc0c7" stroke-width="0.8"/>
  </g>
</svg>
