<svg xmlns="http://www.w3.org/2000/svg" width="74.566" height="57.321" viewBox="0 0 74.566 57.321">
  <g id="live_Demo" data-name="live Demo" transform="translate(-252.869 -300.544)">
    <path id="Path_51350" data-name="Path 51350" d="M56.477,72.745A16.529,16.529,0,1,0,39.948,56.216,16.548,16.548,0,0,0,56.477,72.745Zm0-31.279a14.75,14.75,0,1,1-14.749,14.75A14.766,14.766,0,0,1,56.477,41.466Z" transform="translate(239.742 270.105)" fill="#2d62ed"/>
    <path id="Path_51351" data-name="Path 51351" d="M48.277,60.633a.892.892,0,0,0,.89,0L60.59,54.039a.89.89,0,0,0,0-1.541L49.167,45.9a.89.89,0,0,0-1.335.771v13.19A.889.889,0,0,0,48.277,60.633Zm1.335-12.419,8.753,5.053-8.753,5.053Z" transform="translate(243.554 273.053)" fill="#2d62ed"/>
    <path id="Path_51352" data-name="Path 51352" d="M26.964,88.995a3.319,3.319,0,0,1-3.315-3.315V81.129a11.3,11.3,0,0,1,7.255-10.5.89.89,0,0,0,.188-1.565,6.735,6.735,0,1,1,7.6,0,.89.89,0,0,0,.188,1.565,11.3,11.3,0,0,1,7.255,10.5V85.68a3.319,3.319,0,0,1-3.315,3.315.89.89,0,0,0-.89.89h0a.89.89,0,0,0,.89.889,5.1,5.1,0,0,0,5.1-5.094V81.13A13.1,13.1,0,0,0,40.87,69.57a8.513,8.513,0,0,0-4.155-14.382,8.9,8.9,0,0,0-.932-.142V38.708a3.478,3.478,0,0,1,3.474-3.476H91.182a3.479,3.479,0,0,1,3.474,3.476V79.752a3.479,3.479,0,0,1-3.474,3.476H51.4a.89.89,0,0,0-.89.889h0a.89.89,0,0,0,.89.89H91.182a5.259,5.259,0,0,0,5.253-5.255V38.708a5.259,5.259,0,0,0-5.253-5.255H39.258A5.261,5.261,0,0,0,34,38.708V55.055a8.5,8.5,0,0,0-5.084,14.514,13.1,13.1,0,0,0-7.05,11.561V85.68a5.1,5.1,0,0,0,5.1,5.094.89.89,0,0,0,.89-.889h0A.89.89,0,0,0,26.964,88.995Z" transform="translate(231 267.091)" fill="#2d62ed"/>
  </g>
</svg>
