<svg xmlns="http://www.w3.org/2000/svg" width="16.513" height="18" viewBox="0 0 16.513 18">
  <path id="notification-white" d="M25.579,15.235h0a3.968,3.968,0,0,1-.9-2.521v-2.1a6,6,0,0,0-5.229-5.937h-1.5a6,6,0,0,0-5.229,5.937v2.1a3.968,3.968,0,0,1-.9,2.521l-.917,1.125a1.968,1.968,0,0,0,1.521,3.208h2.875a3.432,3.432,0,0,0,6.833,0h2.875a1.968,1.968,0,0,0,1.521-3.208ZM18.7,21.173a1.926,1.926,0,0,1-1.9-1.625H20.6A1.926,1.926,0,0,1,18.7,21.173ZM25.412,17.8a.442.442,0,0,1-.417.271H12.412A.442.442,0,0,1,12,17.8a.46.46,0,0,1,.063-.5l.917-1.125A5.538,5.538,0,0,0,14.2,12.693V10.61a4.49,4.49,0,0,1,8.979-.021v2.1a5.538,5.538,0,0,0,1.229,3.479l.917,1.125A.436.436,0,0,1,25.412,17.8Z" transform="translate(-10.468 -4.673)" fill="#fff"/>
</svg>
