<svg xmlns="http://www.w3.org/2000/svg" width="22.002" height="22.004" viewBox="0 0 22.002 22.004">
  <path id="chart-blue" d="M24696,17427.684a9.327,9.327,0,0,1,9.322-9.318.913.913,0,0,1,.912.912v7.488h7.488a.917.917,0,0,1,.918.918,9.32,9.32,0,0,1-18.641,0Zm1.836,0a7.485,7.485,0,0,0,14.912.918h-7.426a.921.921,0,0,1-.918-.918v-7.432A7.5,7.5,0,0,0,24697.836,17427.684Zm10.844-2.451a.913.913,0,0,1-.918-.91v-8.406a.914.914,0,0,1,.918-.918,9.335,9.335,0,0,1,9.322,9.324.917.917,0,0,1-.918.91Zm.918-1.828h6.514a7.493,7.493,0,0,0-6.514-6.514Z" transform="translate(-24696 -17414.998)" fill="#5e70ef"/>
</svg>
