<svg xmlns="http://www.w3.org/2000/svg" width="12.043" height="13.887" viewBox="0 0 12.043 13.887">
  <g id="status" transform="translate(0.35 0.35)">
    <path id="Path_50919" data-name="Path 50919" d="M18,53.355v5.318a.355.355,0,1,0,.709,0V53.355a.355.355,0,0,0-.709,0Z" transform="translate(-18 -45.91)" fill="#2d62ed" stroke="#2d62ed" stroke-width="0.7"/>
    <path id="Path_50920" data-name="Path 50920" d="M33,28.355V38.1a.355.355,0,1,0,.709,0V28.355a.355.355,0,0,0-.709,0Z" transform="translate(-30.34 -25.342)" fill="#2d62ed" stroke="#2d62ed" stroke-width="0.7"/>
    <path id="Path_50921" data-name="Path 50921" d="M48.809,50.433V43.255a.355.355,0,0,0-.709,0v7.179a.355.355,0,1,0,.709,0Z" transform="translate(-42.764 -37.601)" fill="#2d62ed" stroke="#2d62ed" stroke-width="0.7"/>
    <path id="Path_50922" data-name="Path 50922" d="M63,13.355V25.762a.355.355,0,0,0,.709,0V13.355a.355.355,0,0,0-.709,0Z" transform="translate(-55.023 -13)" fill="#2d62ed" stroke="#2d62ed" stroke-width="0.7"/>
    <path id="Path_50923" data-name="Path 50923" d="M78.354,58a.356.356,0,0,0-.354.355v4.431a.354.354,0,1,0,.709,0V58.355A.356.356,0,0,0,78.354,58Z" transform="translate(-67.365 -50.023)" fill="#2d62ed" stroke="#2d62ed" stroke-width="0.7"/>
  </g>
</svg>
