<svg xmlns="http://www.w3.org/2000/svg" width="18.006" height="17.998" viewBox="0 0 18.006 17.998">
  <path id="cahart-white" d="M24696,17425.379a7.639,7.639,0,0,1,7.631-7.629.753.753,0,0,1,.75.75v6.127h6.121a.749.749,0,0,1,.75.752,7.626,7.626,0,0,1-15.252,0Zm1.5,0a6.127,6.127,0,0,0,12.207.75h-6.078a.751.751,0,0,1-.752-.75v-6.08A6.131,6.131,0,0,0,24697.5,17425.379Zm8.875-2a.75.75,0,0,1-.75-.75v-6.873a.749.749,0,0,1,.75-.75,7.634,7.634,0,0,1,7.629,7.623.753.753,0,0,1-.75.75Zm.752-1.5h5.326a6.137,6.137,0,0,0-5.326-5.328Z" transform="translate(-24695.996 -17415.002)" fill="#fff"/>
</svg>
