<svg xmlns="http://www.w3.org/2000/svg" width="40" height="40" viewBox="0 0 40 40">
  <g id="Help-Blue" transform="translate(-759 -704)">
    <rect id="Bg-white" width="40" height="40" rx="6" transform="translate(759 704)" fill="#fff"/>
    <path id="help-blue-2" data-name="help-blue" d="M2750-1820.354a11.661,11.661,0,0,1,11.65-11.646,11.659,11.659,0,0,1,11.646,11.646,11.664,11.664,0,0,1-11.646,11.655A11.665,11.665,0,0,1,2750-1820.354Zm2.011,0a9.655,9.655,0,0,0,9.644,9.643,9.56,9.56,0,0,0,6.808-2.824,9.589,9.589,0,0,0,2.823-6.818,9.641,9.641,0,0,0-9.63-9.63A9.648,9.648,0,0,0,2752.01-1820.357Zm8.409,5.634a1.334,1.334,0,0,1,1.333-1.323,1.323,1.323,0,0,1,1.32,1.323,1.322,1.322,0,0,1-1.32,1.32A1.329,1.329,0,0,1,2760.42-1814.723Zm.694-2.414a.15.15,0,0,1-.149-.15v-2.139a1.584,1.584,0,0,1,.841-1.511l0,0,1.288-.87,0,0a1.882,1.882,0,0,0,.8-1.394,1.693,1.693,0,0,0-.455-1.346,2.537,2.537,0,0,0-1.766-.677,2.837,2.837,0,0,0-.562.056,2.359,2.359,0,0,0-1.883,2.725.151.151,0,0,1-.15.15h-1.272a.149.149,0,0,1-.107-.045.151.151,0,0,1-.042-.109,4.068,4.068,0,0,1,1.136-3.2,3.57,3.57,0,0,1,2.762-1.15,5.583,5.583,0,0,1,1.121.12,3.769,3.769,0,0,1,2.953,3.506,3.236,3.236,0,0,1-1.891,2.851l-.084.052c-.049.031-.1.059-.137.087a1.905,1.905,0,0,0-.985,1.62v1.279a.151.151,0,0,1-.15.151Z" transform="translate(-1983 2544)" fill="#5e70ef"/>
  </g>
</svg>
