<svg xmlns="http://www.w3.org/2000/svg" width="62" height="48" viewBox="0 0 62 48">
  <g id="FAQ" transform="translate(-135 -199)">
    <rect id="Rectangle_12076" data-name="Rectangle 12076" width="62" height="48" rx="3" transform="translate(135 199)" fill="#2d62ed" opacity="0.1"/>
    <path id="Path_51337" data-name="Path 51337" d="M58.641,34.837l-7.609-7.609A.691.691,0,0,0,50.5,27H35.283A2.242,2.242,0,0,0,33,29.283V59.717A2.242,2.242,0,0,0,35.283,62h21.3a2.242,2.242,0,0,0,2.283-2.283V35.37A.691.691,0,0,0,58.641,34.837Zm-7.38-5.25,5.022,5.022H52.022a.719.719,0,0,1-.761-.761Zm6.087,30.13a.719.719,0,0,1-.761.761h-21.3a.719.719,0,0,1-.761-.761V57.435h13.7a.761.761,0,0,0,0-1.522h-13.7V45.261H36.8a.761.761,0,0,0,0-1.522H34.522V29.283a.719.719,0,0,1,.761-.761H49.739v5.326a2.242,2.242,0,0,0,2.283,2.283h5.326v7.609h-13.7a.761.761,0,0,0,0,1.522h13.7V55.913H55.065a.761.761,0,0,0,0,1.522h2.283Zm-4.565-3.043a.719.719,0,0,1-.761.761h-.761a.761.761,0,0,1,0-1.522h.761A.719.719,0,0,1,52.783,56.674ZM39.087,44.5a.719.719,0,0,1,.761-.761h.761a.761.761,0,0,1,0,1.522h-.761A.719.719,0,0,1,39.087,44.5Zm7.228,2.815a.756.756,0,0,0-.761-.533.827.827,0,0,0-.761.533l-1.9,6.087a.794.794,0,1,0,1.522.457l.3-.989h1.75l.3.989a.757.757,0,0,0,.761.533.786.786,0,0,0,.761-.989Zm-1.141,4.033.38-1.217.38,1.217Zm-2.283-3.8a.719.719,0,0,1-.761.761H39.848v1.522H41.37a.761.761,0,1,1,0,1.522H39.848V53.63a.761.761,0,1,1-1.522,0V47.543a.719.719,0,0,1,.761-.761H42.13A.719.719,0,0,1,42.891,47.543ZM54.076,53.1l-.609-.609a3.3,3.3,0,0,1,.076-.38V49.065a2.283,2.283,0,0,0-4.565,0v3.043a2.242,2.242,0,0,0,2.283,2.283,2.4,2.4,0,0,0,1.446-.533l.3.3A.753.753,0,0,0,54.076,53.1Zm-2.815-.228a.719.719,0,0,1-.761-.761V49.065a.761.761,0,1,1,1.522,0v2.283a.691.691,0,0,0-.533.228.737.737,0,0,0,0,1.065l.152.152C51.489,52.793,51.413,52.87,51.261,52.87Z" transform="translate(120 179)" fill="#2d62ed"/>
  </g>
</svg>
