<svg xmlns="http://www.w3.org/2000/svg" width="77.609" height="61.891" viewBox="0 0 77.609 61.891">
  <g id="video" transform="translate(-2.5 -8.335)">
    <path id="Path_51340" data-name="Path 51340" d="M8.281,20.88A1.32,1.32,0,0,1,9.6,19.56H25.442a1.32,1.32,0,1,1,0,2.64H9.6A1.32,1.32,0,0,1,8.281,20.88ZM71.647,40.6V67.085a2.643,2.643,0,0,1-2.64,2.64H5.64A2.643,2.643,0,0,1,3,67.085V16.92a2.643,2.643,0,0,1,2.64-2.64H50.051a17.144,17.144,0,1,1,21.6,26.32ZM5.64,16.92v7.921H45.311a17.03,17.03,0,0,1,2.657-7.921ZM69.007,42a17.139,17.139,0,0,1-23.7-14.518H5.64v39.6H69.007Zm7.921-15.838A14.522,14.522,0,1,0,62.406,40.683,14.522,14.522,0,0,0,76.928,26.161ZM25.442,40.683a5.281,5.281,0,1,1,5.281,5.281A5.281,5.281,0,0,1,25.442,40.683Zm2.64,0a2.64,2.64,0,1,0,2.64-2.64,2.64,2.64,0,0,0-2.64,2.64Zm13.2,15.1v3.383a2.643,2.643,0,0,1-2.64,2.64H22.8a2.643,2.643,0,0,1-2.64-2.64V55.782A7.187,7.187,0,0,1,27.34,48.6h6.766a7.187,7.187,0,0,1,7.178,7.178Zm-2.638,3.383,0-3.383a4.543,4.543,0,0,0-4.538-4.538H27.34A4.543,4.543,0,0,0,22.8,55.782v3.383Zm30.361-33a1.32,1.32,0,0,1-.665,1.146L59.1,32.588a1.276,1.276,0,0,1-1.317,0,1.318,1.318,0,0,1-.658-1.142V20.88A1.32,1.32,0,0,1,59.1,19.734l9.241,5.281A1.32,1.32,0,0,1,69.007,26.161Zm-3.981,0-5.26-3.005v6.01Z" fill="#2d62ed" stroke="#fff" stroke-width="1"/>
  </g>
</svg>
