<svg xmlns="http://www.w3.org/2000/svg" width="19.208" height="12.093" viewBox="0 0 19.208 12.093">
  <g id="Group_39679" data-name="Group 39679" transform="translate(0.853 0.75)">
    <path id="Path_41732" data-name="Path 41732" d="M19.857-19.182c-3.981,0-7.162,3.047-8.363,4.329a1.4,1.4,0,0,0,0,1.931c1.122,1.2,3.98,3.943,7.622,4.3a8.6,8.6,0,0,0,1.479,0c3.641-.351,6.5-3.09,7.626-4.291a1.4,1.4,0,0,0,0-1.931c-1.2-1.279-4.383-4.334-8.368-4.334Zm0,2.181a3.127,3.127,0,0,1,3.12,3.114,3.126,3.126,0,0,1-3.12,3.113,3.122,3.122,0,0,1-3.115-3.113A3.123,3.123,0,0,1,19.857-17Z" transform="translate(-11.106 19.182)" fill="none" stroke="#fff" stroke-width="1.5"/>
  </g>
</svg>
