<svg xmlns="http://www.w3.org/2000/svg" width="20.506" height="18.002" viewBox="0 0 20.506 18.002">
  <path id="Projectlist-white" d="M24707.957,17431.531a5.021,5.021,0,0,1-1.24-5.029h-1.875a.679.679,0,0,1,0-1.348h2.184a.549.549,0,0,1,.289.084,4.931,4.931,0,0,1,.643-.791,5.013,5.013,0,1,1,0,7.084Zm.986-6.092a3.617,3.617,0,1,0,2.561-1.061A3.571,3.571,0,0,0,24708.943,17425.439Zm-11.639,6.074a1.3,1.3,0,0,1-1.3-1.3v-13.9a1.32,1.32,0,0,1,.377-.924,1.3,1.3,0,0,1,.924-.385h14.4a1.314,1.314,0,0,1,1.309,1.309v5.119a.673.673,0,0,1-1.346,0v-5.082h-14.322v13.822h8.273a.673.673,0,1,1,0,1.346Zm15.764-1.6-1.83-1.078a.7.7,0,0,1-.373-.615v-2.449a.7.7,0,0,1,1.4,0v2.053l1.514.895a.708.708,0,0,1,.322.428.711.711,0,0,1-.676.873A.651.651,0,0,1,24713.068,17429.918Zm-13.74-3.98a1.569,1.569,0,1,1,1.568,1.563A1.567,1.567,0,0,1,24699.328,17425.938Zm1.2-3.891-1.217-1.221a.588.588,0,0,1,.832-.832l.8.807,1.514-1.514a.587.587,0,0,1,.83.83l-1.93,1.93a.58.58,0,0,1-.414.168A.6.6,0,0,1,24700.525,17422.047Zm4.051-.514a.679.679,0,0,1,0-1.348h4.906a.679.679,0,0,1,0,1.348Z" transform="translate(-24696.004 -17415)" fill="#fff"/>
</svg>
