<svg xmlns="http://www.w3.org/2000/svg" width="62" height="48" viewBox="0 0 62 48">
  <g id="Raise_the_Ticket" data-name="Raise the Ticket" transform="translate(-135 -290)">
    <rect id="Rectangle_12077" data-name="Rectangle 12077" width="62" height="48" rx="3" transform="translate(135 290)" fill="#2d62ed" opacity="0.1"/>
    <path id="Path_51338" data-name="Path 51338" d="M45.722,25.711V46.254a1.3,1.3,0,0,1-1.3,1.293H22.3A1.3,1.3,0,0,1,21,46.254V20.767a1.3,1.3,0,0,1,1.3-1.3h16.08a.463.463,0,0,1,0,.927H22.3a.371.371,0,0,0-.371.371V46.254a.371.371,0,0,0,.371.366H44.425a.371.371,0,0,0,.371-.366V25.711a.463.463,0,0,1,.927,0Zm-4.829,7.8a.927.927,0,0,1-.927.927H26.76a.927.927,0,0,1-.927-.927V25.044a.927.927,0,0,1,.927-.927H39.967a.927.927,0,0,1,.927.927Zm-.927-8.466H26.76V33.51H39.967Zm0,8.457h0m.927,4.268a.463.463,0,0,0-.463-.463H26.3a.463.463,0,0,0,0,.927H40.43a.463.463,0,0,0,.463-.454ZM26.3,41.939a.463.463,0,0,0,0,.927h9.5a.463.463,0,0,0,0-.927ZM47.729,19.6l-1.46,1.423.343,2.011a.463.463,0,0,1-.672.487L44.133,22.6l-1.807.927a.463.463,0,0,1-.672-.487L42,21.026,40.537,19.6a.463.463,0,0,1,.255-.792l2.02-.292.894-1.817a.463.463,0,0,1,.829,0l.9,1.83,2.02.292a.463.463,0,0,1,.273.788Zm-1.321,0-1.311-.19a.463.463,0,0,1-.348-.255l-.593-1.2-.593,1.2a.463.463,0,0,1-.348.255l-1.362.195.964.927a.463.463,0,0,1,.134.408l-.218,1.321,1.191-.626a.463.463,0,0,1,.431,0l1.2.626-.227-1.325a.463.463,0,0,1,.134-.408Z" transform="translate(131.5 282.054)" fill="#2d62ed" stroke="#2d62ed" stroke-width="0.6"/>
  </g>
</svg>
