<svg xmlns="http://www.w3.org/2000/svg" width="9.666" height="9.666" viewBox="0 0 9.666 9.666">
  <g id="Group_60906" data-name="Group 60906" transform="translate(-236 -893)">
    <g id="Path_51230" data-name="Path 51230" transform="translate(236 893)" fill="#fff">
      <path d="M 4.8330078125 9.266017913818359 C 2.388637781143188 9.266017913818359 0.3999978005886078 7.277377605438232 0.3999978005886078 4.8330078125 C 0.3999978005886078 2.388637781143188 2.388637781143188 0.3999978005886078 4.8330078125 0.3999978005886078 C 7.277377605438232 0.3999978005886078 9.266017913818359 2.388637781143188 9.266017913818359 4.8330078125 C 9.266017913818359 7.277377605438232 7.277377605438232 9.266017913818359 4.8330078125 9.266017913818359 Z" stroke="none"/>
      <path d="M 4.8330078125 0.7999982833862305 C 2.609197616577148 0.7999982833862305 0.7999982833862305 2.609197616577148 0.7999982833862305 4.8330078125 C 0.7999982833862305 7.056818008422852 2.609197616577148 8.866018295288086 4.8330078125 8.866018295288086 C 7.056818008422852 8.866018295288086 8.866018295288086 7.056818008422852 8.866018295288086 4.8330078125 C 8.866018295288086 2.609197616577148 7.056818008422852 0.7999982833862305 4.8330078125 0.7999982833862305 M 4.8330078125 -1.9073486328125e-06 C 7.50220775604248 -1.9073486328125e-06 9.666017532348633 2.16380786895752 9.666017532348633 4.8330078125 C 9.666017532348633 7.50220775604248 7.50220775604248 9.666017532348633 4.8330078125 9.666017532348633 C 2.16380786895752 9.666017532348633 -1.9073486328125e-06 7.50220775604248 -1.9073486328125e-06 4.8330078125 C -1.9073486328125e-06 2.16380786895752 2.16380786895752 -1.9073486328125e-06 4.8330078125 -1.9073486328125e-06 Z" stroke="none" fill="#2d62ed"/>
    </g>
    <path id="Path_51238" data-name="Path 51238" d="M-17413.334-8958.667l1.334,2-1.334,2" transform="translate(17653.834 9854.167)" fill="none" stroke="#2d62ed" stroke-linecap="round" stroke-width="1"/>
  </g>
</svg>
