<svg xmlns="http://www.w3.org/2000/svg" width="13.905" height="9.365" viewBox="0 0 13.905 9.365">
  <g id="Group_46806" data-name="Group 46806" transform="translate(-1263.667 -401.865)">
    <g id="Group_46108" data-name="Group 46108" transform="matrix(0.899, -0.438, 0.438, 0.899, 1264.335, 410.188)">
      <rect id="Rectangle_11195" data-name="Rectangle 11195" width="11.372" height="0.416" transform="translate(0 0)" fill="#bcc0c7" stroke="#bcc0c7" stroke-width="1"/>
    </g>
    <g id="Group_46109" data-name="Group 46109" transform="matrix(0.899, -0.438, 0.438, 0.899, 1272.24, 403.432)">
      <path id="Path_50932" data-name="Path 50932" d="M78.914,48.82a.3.3,0,0,1-.252-.171.507.507,0,0,1,.069-.577l1.981-1.909a.186.186,0,0,0,0-.305l-1.982-1.93a.508.508,0,0,1-.067-.578.264.264,0,0,1,.434-.09l1.982,1.93a1.174,1.174,0,0,1,0,1.642L79.1,48.741A.261.261,0,0,1,78.914,48.82Z" transform="translate(-78.603 -43.181)" fill="#bcc0c7" stroke="#bcc0c7" stroke-width="0.5"/>
    </g>
  </g>
</svg>
