<svg xmlns="http://www.w3.org/2000/svg" width="12.741" height="10.645" viewBox="0 0 12.741 10.645">
  <g id="Assigness" transform="translate(-1 -3.961)">
    <path id="Path_36684" data-name="Path 36684" d="M10.039,25.7V24.635A2.135,2.135,0,0,0,7.9,22.5H3.635A2.135,2.135,0,0,0,1.5,24.635V25.7" transform="translate(0 -11.596)" fill="none" stroke="#bcc0c7" stroke-linecap="round" stroke-linejoin="round" stroke-width="1"/>
    <path id="Path_36685" data-name="Path 36685" d="M11.77,6.635A2.135,2.135,0,1,1,9.635,4.5,2.135,2.135,0,0,1,11.77,6.635Z" transform="translate(-3.865)" fill="none" stroke="#bcc0c7" stroke-linecap="round" stroke-linejoin="round" stroke-width="1"/>
    <path id="Path_36686" data-name="Path 36686" d="M31.6,25.828V24.76A2.135,2.135,0,0,0,30,22.7" transform="translate(-18.36 -11.721)" fill="none" stroke="#bcc0c7" stroke-linecap="round" stroke-linejoin="round" stroke-width="1"/>
    <path id="Path_36687" data-name="Path 36687" d="M24,4.695a2.135,2.135,0,0,1,0,4.136" transform="translate(-14.495 -0.126)" fill="none" stroke="#bcc0c7" stroke-linecap="round" stroke-linejoin="round" stroke-width="1"/>
  </g>
</svg>
