<svg xmlns="http://www.w3.org/2000/svg" width="11.4" height="10.632" viewBox="0 0 11.4 10.632">
  <g id="calender" transform="translate(-40.8 -55.8)">
    <g id="Group_45494" data-name="Group 45494" transform="translate(41 56)">
      <g id="Group_45493" data-name="Group 45493" transform="translate(0 0)">
        <g id="Group_45492" data-name="Group 45492">
          <g id="Group_45488" data-name="Group 45488" transform="translate(0 3.07)">
            <path id="Path_50828" data-name="Path 50828" d="M49.186,176.512h-7.93a.256.256,0,1,1,0-.512h7.93a.256.256,0,1,1,0,.512Z" transform="translate(-41 -176)" fill="#2d62ed" stroke="#2d62ed" stroke-width="0.4"/>
          </g>
          <g id="Group_45489" data-name="Group 45489" transform="translate(0 1.023)">
            <path id="Path_50829" data-name="Path 50829" d="M49.584,105.209h-.026a.256.256,0,0,1,0-.512h.026a.256.256,0,1,1,0,.512Zm-1.3,0H42.407A1.409,1.409,0,0,1,41,103.8V98.693a.256.256,0,0,1,.512,0V103.8a.9.9,0,0,0,.9.9H48.28a.256.256,0,1,1,0,.512Zm2.581-.031a.256.256,0,0,1-.059-.5.892.892,0,0,0,.687-.871v-6.4a.9.9,0,0,0-.9-.9h-.384v.767a.256.256,0,0,1-.256.256H48.674a.256.256,0,0,1-.256-.256v-.767H44.581v.767a.256.256,0,0,1-.256.256H43.046a.256.256,0,0,1-.256-.256v-.767h-.384a.886.886,0,0,0-.385.087.256.256,0,1,1-.22-.462A1.4,1.4,0,0,1,42.407,96h.64a.256.256,0,0,1,.256.256v.767h.767v-.767A.256.256,0,0,1,44.325,96h4.349a.256.256,0,0,1,.256.256v.767H49.7v-.767A.256.256,0,0,1,49.953,96h.64A1.409,1.409,0,0,1,52,97.407v6.4a1.4,1.4,0,0,1-1.08,1.369A.255.255,0,0,1,50.86,105.178Zm-9.6-7.507A.256.256,0,0,1,41,97.414v-.007c0-.007,0-.015,0-.022a.256.256,0,0,1,.512.007v.022A.256.256,0,0,1,41.256,97.67Z" transform="translate(-41 -96)" fill="#2d62ed" stroke="#2d62ed" stroke-width="0.4"/>
          </g>
          <g id="Group_45490" data-name="Group 45490" transform="translate(1.791)">
            <path id="Path_50830" data-name="Path 50830" d="M112.535,58.558h-1.279A.256.256,0,0,1,111,58.3V56.9a.9.9,0,1,1,1.791,0V58.3A.256.256,0,0,1,112.535,58.558Zm-1.023-.512h.767V56.9a.384.384,0,1,0-.767,0Z" transform="translate(-111 -56)" fill="#2d62ed" stroke="#2d62ed" stroke-width="0.4"/>
          </g>
          <g id="Group_45491" data-name="Group 45491" transform="translate(7.418)">
            <path id="Path_50831" data-name="Path 50831" d="M332.535,58.558h-1.279A.256.256,0,0,1,331,58.3V56.9a.9.9,0,1,1,1.791,0V58.3A.256.256,0,0,1,332.535,58.558Zm-1.023-.512h.767V56.9a.384.384,0,1,0-.767,0Z" transform="translate(-331 -56)" fill="#2d62ed" stroke="#2d62ed" stroke-width="0.4"/>
          </g>
        </g>
      </g>
    </g>
  </g>
</svg>
