<svg xmlns="http://www.w3.org/2000/svg" width="9.106" height="10.571" viewBox="0 0 9.106 10.571">
  <g id="changemail" transform="translate(5727 -1865.302)">
    <g id="Group_45851" data-name="Group 45851" transform="translate(-5727 1865.302)">
      <path id="Icon_ionic-ios-arrow-round-forward" data-name="Icon ionic-ios-arrow-round-forward" d="M13.682,11.368a.413.413,0,0,0,0,.582L15.6,13.876H8.283a.411.411,0,0,0,0,.822H15.6l-1.923,1.926a.416.416,0,0,0,0,.582.409.409,0,0,0,.579,0l2.606-2.625h0a.462.462,0,0,0,.085-.13.392.392,0,0,0,.032-.158A.412.412,0,0,0,16.864,14l-2.606-2.625A.4.4,0,0,0,13.682,11.368Z" transform="translate(-7.875 -11.252)"/>
      <path id="Icon_ionic-ios-arrow-round-forward-2" data-name="Icon ionic-ios-arrow-round-forward" d="M11.174,11.368a.413.413,0,0,1,0,.582L9.254,13.876h7.319a.411.411,0,0,1,0,.822H9.257l1.923,1.926a.416.416,0,0,1,0,.582.409.409,0,0,1-.579,0L7.992,14.578h0a.462.462,0,0,1-.085-.13.392.392,0,0,1-.032-.158A.412.412,0,0,1,7.992,14L10.6,11.377A.4.4,0,0,1,11.174,11.368Z" transform="translate(-7.875 -6.753)"/>
    </g>
  </g>
</svg>
