<svg xmlns="http://www.w3.org/2000/svg" width="13.875" height="13.875" viewBox="0 0 13.875 13.875">
  <g id="clickmail" transform="translate(-4759.125 -157)">
    <path id="Icon_awesome-check-circle" data-name="Icon awesome-check-circle" d="M14.438,7.5A6.938,6.938,0,1,1,7.5.563,6.937,6.937,0,0,1,14.438,7.5ZM6.7,11.173l5.147-5.147a.448.448,0,0,0,0-.633l-.633-.633a.448.448,0,0,0-.633,0l-4.2,4.2L4.421,7a.448.448,0,0,0-.633,0l-.633.633a.448.448,0,0,0,0,.633l2.909,2.909a.448.448,0,0,0,.633,0Z" transform="translate(4758.563 156.438)"/>
  </g>
</svg>
