<svg xmlns="http://www.w3.org/2000/svg" xmlns:xlink="http://www.w3.org/1999/xlink" width="139" height="139" viewBox="0 0 139 139">
  <defs>
    <linearGradient id="linear-gradient" x1="0.5" x2="0.5" y2="1" gradientUnits="objectBoundingBox">
      <stop offset="0" stop-color="#fff"/>
      <stop offset="1" stop-color="#e5e8fa"/>
    </linearGradient>
    <linearGradient id="linear-gradient-2" x1="0.773" y1="0.118" x2="0.562" y2="0.667" gradientUnits="objectBoundingBox">
      <stop offset="0" stop-color="#e4e9f8" stop-opacity="0"/>
      <stop offset="1" stop-color="#dce0f8"/>
    </linearGradient>
    <clipPath id="clip-path">
      <circle id="Ellipse_1765" data-name="Ellipse 1765" cx="69.5" cy="69.5" r="69.5" transform="translate(0)" fill="url(#linear-gradient)"/>
    </clipPath>
  </defs>
  <g id="completeed_project" data-name="completeed project" transform="translate(-351 -96)">
    <circle id="Ellipse_1766" data-name="Ellipse 1766" cx="69.5" cy="69.5" r="69.5" transform="translate(351 96)" fill="url(#linear-gradient-2)"/>
    <g id="Mask_Group_223" data-name="Mask Group 223" transform="translate(351 96)" clip-path="url(#clip-path)">
      <g id="team_building" data-name="team building" transform="translate(21.013 22.97)">
        <g id="background" transform="translate(5.059 0.5)">
          <g id="details" transform="translate(0 0)">
            <path id="Path_50071" data-name="Path 50071" d="M53.769,176.84c1.152-2.75,4.6-1.871,6.732-1.084a25.455,25.455,0,0,0,6.139,1.889,10.39,10.39,0,0,0,5.262-1.086c1.98-.849,4.022-1.9,6.235-1.429.165.035.237-.217.07-.253-1.957-.417-3.781.3-5.553,1.07a20.111,20.111,0,0,1-3.424,1.28,8.594,8.594,0,0,1-4.062-.112c-3.038-.752-9.719-4.955-11.65-.351-.067.156.189.225.253.07Z" transform="translate(-49.977 -149.854)" fill="#e8e8e8"/>
            <path id="Path_50072" data-name="Path 50072" d="M141.368,431.824c3.662-4.6,10.846-4.024,16.019-3.294,5.66.8,11.287,1.871,16.8-.251a46.866,46.866,0,0,0,7.949-4.3c.142-.089.011-.317-.133-.228a48.175,48.175,0,0,1-7.6,4.159,20.737,20.737,0,0,1-8.9,1.373c-5.7-.3-11.358-2.143-17.1-1.27-2.689.409-5.483,1.433-7.224,3.622C141.077,431.769,141.261,431.957,141.368,431.824Z" transform="translate(-122.249 -355.257)" fill="#e8e8e8"/>
            <path id="Path_50073" data-name="Path 50073" d="M346.077,447.236a14.447,14.447,0,0,1,7.905-2.936,22.01,22.01,0,0,1,8.126,1.671,59.12,59.12,0,0,0,7.705,2.526,17.46,17.46,0,0,0,14.786-3.6c.132-.107-.056-.293-.186-.186a17.506,17.506,0,0,1-15.535,3.294c-4.993-1.289-9.748-4.209-15.049-3.966a14.727,14.727,0,0,0-7.893,2.966c-.135.1,0,.326.133.228Z" transform="translate(-291.07 -371.992)" fill="#e8e8e8"/>
            <path id="Path_50074" data-name="Path 50074" d="M354.82,379.833c3.176-1.228,6.565-.526,9.766.224a84.647,84.647,0,0,0,9.706,1.952c5.46.635,11.434-.119,15.587-4.034.123-.117-.063-.3-.186-.188-4.543,4.288-11.155,4.669-17.013,3.741-3.178-.5-6.276-1.361-9.417-2.036-2.806-.605-5.758-.972-8.508.093-.156.06-.088.314.07.253Z" transform="translate(-298.315 -317.34)" fill="#e8e8e8"/>
            <path id="Path_50075" data-name="Path 50075" d="M236.422,221.02c4.76-2.7,10.392-1.8,15.5-.823s10.152,1.728,15.2.012a21.033,21.033,0,0,0,6.781-3.859c.13-.109-.056-.295-.186-.186a20.674,20.674,0,0,1-8.782,4.385,26.35,26.35,0,0,1-10.478-.151c-5.953-1.052-12.539-2.806-18.164.388a.132.132,0,1,0,.132.228Z" transform="translate(-200.647 -184.068)" fill="#e8e8e8"/>
            <path id="Path_50076" data-name="Path 50076" d="M317.831,176.253c1.517.921,3.3.642,4.95.256a48.609,48.609,0,0,0,5.963-1.929c3.936-1.48,7.926-3.082,12.2-2.982a.132.132,0,1,0,0-.263c-3.89-.1-7.563,1.2-11.153,2.559-1.817.686-3.632,1.386-5.5,1.929-1.975.579-4.423,1.342-6.325.188-.146-.088-.277.14-.133.228Z" transform="translate(-267.894 -147.124)" fill="#e8e8e8"/>
            <path id="Path_50077" data-name="Path 50077" d="M214.626,45.532c6.6,1.694,12.52-2.548,18.48-4.6,6.811-2.345,13.812-.719,20.346,1.731.16.06.228-.195.07-.254-6.12-2.294-12.828-3.988-19.293-2.1-6.4,1.857-12.542,6.775-19.534,4.979a.132.132,0,0,0-.07.254Z" transform="translate(-182.756 -38.411)" fill="#e8e8e8"/>
            <path id="Path_50078" data-name="Path 50078" d="M164.093,144.646a.263.263,0,1,0-.263-.263A.263.263,0,0,0,164.093,144.646Z" transform="translate(-140.95 -124.686)" fill="#461eb8"/>
            <path id="Path_50079" data-name="Path 50079" d="M424.033,342.537a.733.733,0,0,1,.991-.433c.107.084.216.163.326.242a.765.765,0,0,0,.421.126c.34-.023.44-.3.684-.474.631-.461.7.128,1.228.246.351.081,1.228-.728,1.419-.3.07.153.3.019.226-.133-.175-.384-.57-.333-.9-.165s-.516.4-.931.175c-.117-.065-.186-.23-.31-.295a.558.558,0,0,0-.442-.074c-.254.06-.34.3-.526.435-.635.44-.724.081-1.24-.111-.549-.2-.893.205-1.166.635-.091.144.137.275.228.133Z" transform="translate(-355.314 -287.391)" fill="#461eb8"/>
            <path id="Path_50080" data-name="Path 50080" d="M440.118,349.869c.493-1.026,1.2.025,1.863-.212.135-.047.175-.165.274-.221.442-.242.8.012,1.163.214.426.237,1.03.484,1.21-.188a.132.132,0,0,0-.253-.07c-.191.7-1.228-.4-1.579-.46-.424-.068-.582.233-.963.305-.421.081-.7-.226-1.154-.144a1.052,1.052,0,0,0-.788.642C439.818,349.887,440.044,350.022,440.118,349.869Z" transform="translate(-368.58 -293.568)" fill="#461eb8"/>
            <path id="Path_50081" data-name="Path 50081" d="M41.567,208.554c.147-1.124,1.228.021,1.664-.14.514-.188.351-1.009,1.119-.582.232.128.351.381.658.275.088-.03.142-.132.214-.175a1.754,1.754,0,0,0,.1-.2c.505-.381.858-.326,1.052.158.095.14.323,0,.228-.132-.365-.535-.714-.807-1.319-.516-.079.039-.084.2-.147.233l-.6.175a2.022,2.022,0,0,0-.258-.232c-.175-.053-.214-.154-.419-.11-.242.051-.27.244-.409.4a.314.314,0,0,1-.339.272q-.261.237-.453-.032c-.165-.061-.228-.175-.405-.195a.852.852,0,0,0-.947.805c-.021.167.242.167.263,0Z" transform="translate(-39.913 -176.639)" fill="#461eb8"/>
            <path id="Path_50082" data-name="Path 50082" d="M56.814,217.805c.217-.675.991.235,1.342.175s.34-.4.581-.549c.661-.405.788.381,1.324.465a1.449,1.449,0,0,0,1-.409c.135-.1,0-.328-.133-.228a1.489,1.489,0,0,1-1.242.091c-.1-.054-.156-.216-.249-.284a.526.526,0,0,0-.633-.084c-.319.16-.186.3-.656.377-.552.095-1.293-.549-1.579.368-.051.161.2.232.254.07Z" transform="translate(-52.496 -184.712)" fill="#461eb8"/>
            <path id="Path_50083" data-name="Path 50083" d="M176.4,552.533c.651-.749,1.6.719,2.38.556.261-.054.309-.175.5-.325.5-.407.773-.331,1.321-.035a1.122,1.122,0,0,0,1.1.175c.13-.067.216-.253.335-.309.328-.158.509.03.772.121.212.072.265.139.5.095.175-.032.1-.286-.07-.254-.363.068-.6-.416-.961-.386-.242.019-.246.14-.43.239-.365.193-.54.351-.951.175-.175-.07-.333-.2-.5-.282a1.249,1.249,0,0,0-.638-.175.777.777,0,0,0-.477.223c-.391.337-.175.672-1.149.314a3.723,3.723,0,0,1-.526-.351c-.456-.272-1-.416-1.387.025-.11.128.074.316.186.186Z" transform="translate(-151.139 -461.074)" fill="#461eb8"/>
            <path id="Path_50084" data-name="Path 50084" d="M200.528,561.813c.647-.793,1.021.223,1.565.265.379.03.684-.4,1.065-.377.589.035.987.626,1.579.242.14-.091.009-.319-.133-.226-.491.319-1.052-.275-1.547-.3-.368-.016-.549.24-.909.239-.644,0-1.228-.74-1.8-.031-.105.132.079.317.186.186Z" transform="translate(-171.032 -468.712)" fill="#461eb8"/>
            <circle id="Ellipse_1744" data-name="Ellipse 1744" cx="1.831" cy="1.831" r="1.831" transform="translate(0 19.227)" fill="none" stroke="#461eb8" stroke-miterlimit="10" stroke-width="0.3"/>
            <circle id="Ellipse_1745" data-name="Ellipse 1745" cx="0.702" cy="0.702" r="0.702" transform="translate(46.763 66.353)" fill="none" stroke="#461eb8" stroke-miterlimit="10" stroke-width="0.3"/>
            <circle id="Ellipse_1746" data-name="Ellipse 1746" cx="1.177" cy="1.177" r="1.177" transform="translate(6.576 80.008)" fill="none" stroke="#461eb8" stroke-miterlimit="10" stroke-width="0.3"/>
            <circle id="Ellipse_1747" data-name="Ellipse 1747" cx="0.824" cy="0.824" r="0.824" transform="translate(87.509)" fill="none" stroke="#461eb8" stroke-miterlimit="10" stroke-width="0.3"/>
            <circle id="Ellipse_1748" data-name="Ellipse 1748" cx="0.442" cy="0.442" r="0.442" transform="translate(96.439 20.57)" fill="none" stroke="#461eb8" stroke-miterlimit="10" stroke-width="0.3"/>
            <circle id="Ellipse_1749" data-name="Ellipse 1749" cx="1.128" cy="1.128" r="1.128" transform="translate(22.678 18.913)" fill="#5e70ef"/>
            <circle id="Ellipse_1750" data-name="Ellipse 1750" cx="0.844" cy="0.844" r="0.844" transform="translate(22.678 4.26)" fill="#5e70ef"/>
            <circle id="Ellipse_1751" data-name="Ellipse 1751" cx="1.561" cy="1.561" r="1.561" transform="translate(68.302 81.185)" fill="#5e70ef"/>
            <circle id="Ellipse_1752" data-name="Ellipse 1752" cx="0.742" cy="0.742" r="0.742" transform="translate(56.468 56.873)" fill="#5e70ef"/>
            <circle id="Ellipse_1753" data-name="Ellipse 1753" cx="1.298" cy="1.298" r="1.298" transform="translate(14.426 85.51)" fill="none" stroke="#5e70ef" stroke-miterlimit="10" stroke-width="0.3"/>
            <path id="Path_50085" data-name="Path 50085" d="M255.5,484.526a.263.263,0,1,0-.263-.263A.263.263,0,0,0,255.5,484.526Z" transform="translate(-216.327 -404.954)" fill="#5e70ef"/>
            <path id="Path_50086" data-name="Path 50086" d="M474.188,426.341c-.07-.3,1.24.056,1.431,0,.312-.093.447-.337.8-.421a2.989,2.989,0,0,1,1.484.2,1.694,1.694,0,0,0,1,.054,2.457,2.457,0,0,1,1.342,0,1.753,1.753,0,0,0,.716.1c.175-.012.175-.275,0-.263-.674.049-1.177-.407-1.854-.267a2.492,2.492,0,0,1-1.133.119c-.175-.035-.351-.107-.526-.147a2.659,2.659,0,0,0-.977-.067c-.451.072-.7.37-1.159.328a6.2,6.2,0,0,0-.877-.175c-.363.025-.586.263-.507.605.037.165.291.095.254-.07Z" transform="translate(-396.643 -356.818)" fill="#5e70ef"/>
            <path id="Path_50087" data-name="Path 50087" d="M499.09,434.162c.675-.274,1.191.088,1.707.453a.135.135,0,0,0,.175-.047,1.154,1.154,0,0,1,1.4-.389c.131.044.242.13.375.175a1.741,1.741,0,0,0,.944,0c.165-.037.1-.291-.07-.254-.979.219-1.566-.877-2.429-.165-.509.417-.391.238-1.035-.014a1.359,1.359,0,0,0-1.138-.014c-.154.063-.086.317.07.253Z" transform="translate(-417.279 -363.467)" fill="#5e70ef"/>
          </g>
          <g id="papers" transform="translate(5.128 8.395)">
            <path id="Path_50088" data-name="Path 50088" d="M63.428,90.6a12.569,12.569,0,0,0-.061,2.243,8.532,8.532,0,0,0,1.389,4.708,6.646,6.646,0,0,0,1.052,1.156,9.943,9.943,0,0,0,2.773.407A11.773,11.773,0,0,0,73.667,97.8a18.349,18.349,0,0,0,3.976-2.436,7.841,7.841,0,0,0-.24-1.386,10.131,10.131,0,0,0-4.83-5.816,8.88,8.88,0,0,1-1.786,1.679,7.291,7.291,0,0,1-4.06,1.531A6.712,6.712,0,0,1,63.428,90.6Z" transform="translate(-63.215 -86.937)" fill="#fff"/>
            <path id="Path_50089" data-name="Path 50089" d="M224.24,82.555a10.877,10.877,0,0,1,1.386,1.4,8.621,8.621,0,0,1,1.677,2.85,7.605,7.605,0,0,1,.263,3.613,12.257,12.257,0,0,1,9.12,6.205,19.872,19.872,0,0,0,1.072-2.3,21.207,21.207,0,0,0,1.2-10.318,14.26,14.26,0,0,0-4.993-2.4A14.983,14.983,0,0,0,224.24,82.555Z" transform="translate(-195.893 -81.184)" fill="#fff"/>
            <path id="Path_50090" data-name="Path 50090" d="M275.463,478.528c.175.43.449,1.021.8,1.708a20.8,20.8,0,0,0,2.349,3.78,14.707,14.707,0,0,0,5.36,4,16.147,16.147,0,0,0,4.074,1.249,19.639,19.639,0,0,0,2.9-2.177,20.067,20.067,0,0,0,4.43-5.848,6.714,6.714,0,0,1-2.194-.479,7.523,7.523,0,0,1-3.082-2.478,13.354,13.354,0,0,1-2.691-6.139,14.8,14.8,0,0,0-11.948,6.395Z" transform="translate(-238.129 -403.569)" fill="#fff"/>
            <path id="Path_50091" data-name="Path 50091" d="M287.319,472a7.179,7.179,0,0,0-3.211,3.075,6.764,6.764,0,0,0-.6,5c.972,3,5.174,5.164,10.078,4.255a12.3,12.3,0,0,1-4.876,4.815,16.662,16.662,0,0,1-3.2-.9,16.236,16.236,0,0,1-5.5-3.552,15.1,15.1,0,0,1-3.746-6.49,15.35,15.35,0,0,1,5.66-4.751A15.192,15.192,0,0,1,287.319,472Z" transform="translate(-238.789 -403.453)" fill="#9e9e9e" opacity="0.14"/>
            <path id="Path_50092" data-name="Path 50092" d="M72.832,89.44a9.913,9.913,0,0,0-1.44,2.771,10.866,10.866,0,0,0,.389,7.437,8.945,8.945,0,0,1-5.649.118A8.791,8.791,0,0,1,64,91.546a5.65,5.65,0,0,0,2.385.973C69.966,93.058,72.653,89.672,72.832,89.44Z" transform="translate(-63.533 -87.992)" fill="#9e9e9e" opacity="0.14"/>
            <path id="Path_50093" data-name="Path 50093" d="M225.65,85.49a8.659,8.659,0,0,1,2.264,2.764,8.881,8.881,0,0,1,.877,2.738,9.887,9.887,0,0,1,.089,2.52,19.605,19.605,0,0,1,2.806.749,10.661,10.661,0,0,1,4.292,2.28,8.006,8.006,0,0,1,1.87,2.815,23.523,23.523,0,0,0-1.228-5.044,24.541,24.541,0,0,0-6.753-9.833Z" transform="translate(-197.055 -83.902)" fill="#9e9e9e" opacity="0.14"/>
            <path id="Path_50094" data-name="Path 50094" d="M62.7,101.488a11.751,11.751,0,0,0,2.1,8.2c.1.137.326,0,.228-.132a11.532,11.532,0,0,1-2.064-8.068c.019-.175-.244-.175-.263,0Z" transform="translate(-62.618 -97.821)"/>
            <path id="Path_50095" data-name="Path 50095" d="M64.554,91.033c1.212,1.079,3,.986,4.487.631a8.854,8.854,0,0,0,4.53-2.736c.112-.126-.074-.312-.186-.186a8.638,8.638,0,0,1-3.878,2.517c-1.5.463-3.508.7-4.769-.416-.126-.112-.312.072-.186.186Z" transform="translate(-64.178 -87.382)"/>
            <path id="Path_50096" data-name="Path 50096" d="M76.819,133.794c3.806,1.4,8.477-.761,11.532-2.982.137-.1,0-.328-.132-.228-3.006,2.189-7.584,4.332-11.33,2.961-.16-.058-.228.2-.07.254Z" transform="translate(-74.255 -121.899)"/>
            <path id="Path_50097" data-name="Path 50097" d="M115.283,87.678a8.866,8.866,0,0,1,5.006,7.088c.016.175.279.175.263,0a9.134,9.134,0,0,0-5.136-7.314C115.264,87.378,115.13,87.6,115.283,87.678Z" transform="translate(-105.99 -86.34)"/>
            <path id="Path_50098" data-name="Path 50098" d="M276.707,477.613c.858-1.966,3.178-3.38,4.979-4.385a11.876,11.876,0,0,1,6.556-1.668c.175.011.175-.253,0-.263a12.123,12.123,0,0,0-6.688,1.7c-1.829,1.026-4.209,2.489-5.074,4.485-.068.154.16.288.226.133Z" transform="translate(-238.96 -402.857)"/>
            <path id="Path_50099" data-name="Path 50099" d="M343.873,472.627c.563,3.976,3.4,8.891,7.917,8.994a.132.132,0,0,0,0-.263c-4.388-.1-7.117-4.948-7.663-8.807-.025-.167-.277-.1-.254.07Z" transform="translate(-294.542 -403.83)"/>
            <path id="Path_50100" data-name="Path 50100" d="M276.519,510.068a15.052,15.052,0,0,0,12.367,10.324c.167.021.165-.242,0-.263A14.783,14.783,0,0,1,276.773,510C276.722,509.836,276.468,509.9,276.519,510.068Z" transform="translate(-238.996 -434.71)"/>
            <path id="Path_50101" data-name="Path 50101" d="M346.726,533.83a19.679,19.679,0,0,0,7.053-7.579c.079-.151-.147-.284-.226-.133a19.427,19.427,0,0,1-6.96,7.484C346.451,533.692,346.582,533.92,346.726,533.83Z" transform="translate(-296.735 -448.025)"/>
            <path id="Path_50102" data-name="Path 50102" d="M226.119,91.712a7.512,7.512,0,0,1,2.824,7.156c-.028.165.226.237.253.07a7.787,7.787,0,0,0-2.943-7.452C226.117,91.383,225.986,91.611,226.119,91.712Z" transform="translate(-197.396 -89.658)"/>
            <path id="Path_50103" data-name="Path 50103" d="M231.328,84.025c4.56-1.019,9.861-1.263,13.454,2.264.121.119.307-.067.186-.186-3.66-3.594-9.052-3.366-13.711-2.333C231.093,83.807,231.163,84.062,231.328,84.025Z" transform="translate(-201.602 -82.77)"/>
            <path id="Path_50104" data-name="Path 50104" d="M246.878,106.11c3.315.747,7.06,2.035,8.266,5.565a.133.133,0,0,0,.24.032c2.142-3.7,2.238-8.04,2.268-12.2a.132.132,0,0,0-.263,0c-.03,4.109-.114,8.408-2.233,12.062l.24.032c-1.238-3.627-5.034-4.979-8.449-5.749-.165-.037-.235.217-.07.254Z" transform="translate(-214.482 -96.189)"/>
            <path id="Path_50105" data-name="Path 50105" d="M319.322,517.316a11.438,11.438,0,0,0,2.327-1.859c.118-.123-.068-.309-.186-.186a11.2,11.2,0,0,1-2.28,1.819c-.146.088-.012.316.132.226Z" transform="translate(-274.132 -439.102)" fill="#5e70ef"/>
            <path id="Path_50106" data-name="Path 50106" d="M322.843,516.07a7.892,7.892,0,0,0,1.659,2.143c.125.114.312-.072.186-.186a7.718,7.718,0,0,1-1.619-2.089C322.99,515.787,322.764,515.92,322.843,516.07Z" transform="translate(-277.187 -439.63)" fill="#5e70ef"/>
            <path id="Path_50107" data-name="Path 50107" d="M261.667,112a4.474,4.474,0,0,1,3.05,1.522c.112.126.3-.06.186-.186a4.748,4.748,0,0,0-3.236-1.6C261.491,111.723,261.5,111.987,261.667,112Z" transform="translate(-226.649 -106.378)" fill="#5e70ef"/>
            <path id="Path_50108" data-name="Path 50108" d="M270.344,104.736l-.351,2.68c-.023.175.242.165.263,0l.351-2.68C270.628,104.569,270.365,104.571,270.344,104.736Z" transform="translate(-233.62 -100.502)" fill="#5e70ef"/>
            <path id="Path_50109" data-name="Path 50109" d="M94.578,119.17a20.052,20.052,0,0,0,2.689-1.277.132.132,0,1,0-.133-.228,19.428,19.428,0,0,1-2.631,1.251c-.156.061-.089.316.068.254Z" transform="translate(-88.837 -111.252)" fill="#5e70ef"/>
            <path id="Path_50110" data-name="Path 50110" d="M99.68,113.263l1.728,2.538c.095.139.323,0,.228-.133l-1.729-2.538C99.812,112.991,99.584,113.13,99.68,113.263Z" transform="translate(-93.161 -107.479)" fill="#5e70ef"/>
          </g>
        </g>
        <g id="guy" transform="translate(0.92 31.506)">
          <g id="torso" transform="translate(16.721 17.54)">
            <path id="Path_50111" data-name="Path 50111" d="M112.676,310.1a40.946,40.946,0,0,0-4.264,7.623,41.963,41.963,0,0,0-3.278,17.617,11.991,11.991,0,0,0,4.911,3.683c5.262,2.085,10.134-.545,10.874-.961a50.693,50.693,0,0,1,.837-5.414c1.429-6.874,3.394-9.131,3.546-13.612a17.823,17.823,0,0,0-1.726-8.068Z" transform="translate(-105.114 -310.1)" fill="#eee"/>
          </g>
          <g id="head" transform="translate(24.138)">
            <path id="Path_50112" data-name="Path 50112" d="M148.418,217.79a5.086,5.086,0,0,1-.232-1.694,5.338,5.338,0,0,1,.724-2.464,5.773,5.773,0,0,1,3.794-2.55,5.93,5.93,0,0,1,4.346.972,7.291,7.291,0,0,1,2.4-.866c.886-.149,1.672-.281,2.143.175a2.057,2.057,0,0,1,.288,1.8c-.123.621-.451,1.382-1.9,2.7a11.468,11.468,0,0,1-4.29,2.82,19.444,19.444,0,0,1-3.878.547,3.7,3.7,0,0,1-2.1-.225A3.176,3.176,0,0,1,148.418,217.79Z" transform="translate(-148.047 -210.842)" fill="#5e70ef"/>
            <path id="Path_50113" data-name="Path 50113" d="M179.35,255.233a4.91,4.91,0,0,1,.837,1.244,7,7,0,0,1,.461,2.324,17,17,0,0,0,.921,3.845,4.543,4.543,0,0,0,1.052,1.9,3.986,3.986,0,0,0,2.671.91,3.166,3.166,0,0,0,2.019-.493,3.4,3.4,0,0,0,1.1-1.906,4.023,4.023,0,0,0,.216-2.557,3.555,3.555,0,0,0-1.266-1.777,3.915,3.915,0,0,0-2.017-.795q-1.261-.779-2.564-1.658-.789-.526-1.538-1.065Z" transform="translate(-173.746 -247.298)"/>
            <path id="Path_50114" data-name="Path 50114" d="M148.126,253.6c.037.277.089.686.14,1.179a34.036,34.036,0,0,1,.2,6.186,25.225,25.225,0,0,1-1.066,5.6A7.314,7.314,0,0,0,156.135,265l-.21-2.3a8.579,8.579,0,0,1-.7-1.377c-.649-1.656-.456-2.689-.819-4.351a11.116,11.116,0,0,0-1.009-2.759,8.631,8.631,0,0,1-5.276-.607Z" transform="translate(-147.4 -245.97)" fill="#fff"/>
            <path id="Path_50115" data-name="Path 50115" d="M191.24,247.551a7.474,7.474,0,0,0,.477,1.336,3.284,3.284,0,0,0,1.168,1.654,2.514,2.514,0,0,0,2.049.047h.661q-.175-.7-.412-1.433a28.91,28.91,0,0,0-1.163-3.076Z" transform="translate(-183.551 -239.769)" fill="#fff"/>
            <path id="Path_50116" data-name="Path 50116" d="M153.423,259.82a13.612,13.612,0,0,0-1.052,2.456,21.258,21.258,0,0,0-.684,4.066c-.225,1.315-.966,3.157-3.376,5.213a30.1,30.1,0,0,0,.726-3.713,30.439,30.439,0,0,0,.249-3.417,30.763,30.763,0,0,0-.137-3.454Z" transform="translate(-148.15 -251.099)" fill="#9e9e9e" opacity="0.17"/>
            <path id="Path_50117" data-name="Path 50117" d="M151.5,254.84c.054.351.132.851.212,1.461.491,3.75.27,5.086.684,5.234s1.452-.933,4.129-6.258a11.25,11.25,0,0,1-5.025-.437Z" transform="translate(-150.781 -246.992)"/>
            <path id="Path_50118" data-name="Path 50118" d="M207.475,249.287a21.225,21.225,0,0,1,1.37,3.82l.161-.163a4.387,4.387,0,0,0-.845-.067.132.132,0,1,0,0,.263,2.742,2.742,0,0,1,.775.058.133.133,0,0,0,.161-.161,21.542,21.542,0,0,0-1.394-3.88c-.072-.154-.3-.021-.228.132Z" transform="translate(-196.927 -242.25)"/>
            <path id="Path_50119" data-name="Path 50119" d="M190.243,254.259c.381.942.682,2.222,1.531,2.866a2.28,2.28,0,0,0,2.4.191c.153-.074.019-.3-.132-.228a1.978,1.978,0,0,1-2.475-.563,9.856,9.856,0,0,1-1.066-2.336C190.434,254.034,190.18,254.1,190.243,254.259Z" transform="translate(-182.72 -246.383)"/>
            <path id="Path_50120" data-name="Path 50120" d="M216.645,271.142c3.022.761,3.418,4.4,1.5,6.474-.116.123.07.31.186.186,2.056-2.22,1.6-6.1-1.612-6.914a.132.132,0,0,0-.07.254Z" transform="translate(-204.42 -260.221)"/>
            <path id="Path_50121" data-name="Path 50121" d="M181.672,258.73c1.661,2.829.526,6.921,3.317,9.152.13.105.317-.079.186-.186-2.741-2.2-1.629-6.3-3.276-9.1a.132.132,0,0,0-.226.133Z" transform="translate(-175.649 -250.043)"/>
            <path id="Path_50122" data-name="Path 50122" d="M148.135,254.23a30.412,30.412,0,0,1-.558,12.544.132.132,0,1,0,.254.07,30.718,30.718,0,0,0,.556-12.683C148.36,253.995,148.107,254.065,148.135,254.23Z" transform="translate(-147.542 -246.354)"/>
            <path id="Path_50123" data-name="Path 50123" d="M147.851,228.7a2.794,2.794,0,0,0,2.473,1.579,10.989,10.989,0,0,0,4.55-.351,11.273,11.273,0,0,0,6.695-5.428c.082-.147-.144-.281-.226-.132a10.864,10.864,0,0,1-9.471,5.742c-1.27.014-3.234-.056-3.76-1.475-.058-.156-.312-.089-.253.07Z" transform="translate(-147.77 -221.807)"/>
            <path id="Path_50124" data-name="Path 50124" d="M148.024,217.15a5.141,5.141,0,0,1,3.357-6.333,6.055,6.055,0,0,1,6.788,2.426c.1.137.326,0,.228-.133a6.3,6.3,0,0,0-7.338-2.456,5.4,5.4,0,0,0-3.289,6.567C147.819,217.382,148.074,217.313,148.024,217.15Z" transform="translate(-147.526 -210.237)"/>
            <path id="Path_50125" data-name="Path 50125" d="M200.342,211.375a6.739,6.739,0,0,1,2.217-.854c.507-.095,1.317-.244,1.754.146a1.755,1.755,0,0,1,.112,2.091c-.081.149.146.282.226.132.444-.83.512-2.3-.586-2.677-1.17-.405-2.875.351-3.859.937a.132.132,0,0,0,.133.226Z" transform="translate(-190.897 -210.098)"/>
            <path id="Path_50126" data-name="Path 50126" d="M200.48,252.174a1.628,1.628,0,0,1,.242.681l.246-.067a1.852,1.852,0,0,1-.342-.814c-.028-.175-.281-.1-.254.068a2.034,2.034,0,0,0,.368.877c.067.091.263.079.246-.067a1.971,1.971,0,0,0-.277-.814c-.089-.144-.317-.012-.228.133Z" transform="translate(-191.079 -244.547)"/>
            <path id="Path_50127" data-name="Path 50127" d="M176.168,264.187c-.77-.231-1.354.617-1.375,1.307a1.289,1.289,0,0,0,1.414,1.344c.167-.019.175-.282,0-.263-1.647.175-1.287-2.489-.109-2.135a.132.132,0,0,0,.07-.253Z" transform="translate(-169.988 -254.668)"/>
            <path id="Path_50128" data-name="Path 50128" d="M200.239,309.234c1.251.558,3.592.888,4.637-.286.112-.126-.074-.312-.188-.186-.958,1.077-3.182.751-4.316.246C200.22,308.939,200.085,309.165,200.239,309.234Z" transform="translate(-190.915 -291.422)"/>
            <path id="Path_50129" data-name="Path 50129" d="M200.7,257.31a.637.637,0,0,1,.635-.233c.165.035.235-.217.07-.254a.9.9,0,0,0-.891.3C200.407,257.254,200.591,257.442,200.7,257.31Z" transform="translate(-191.171 -248.609)"/>
            <path id="Path_50130" data-name="Path 50130" d="M194.953,304.821a6.459,6.459,0,0,0-.051,1.3c.01.175.274.175.263,0a6.138,6.138,0,0,1,.04-1.228c.023-.165-.23-.237-.253-.07Z" transform="translate(-186.56 -288.132)"/>
          </g>
          <g id="hand" transform="translate(31.96 15.275)">
            <path id="Path_50131" data-name="Path 50131" d="M193.53,301.908a5.086,5.086,0,0,1,1.8-1.282,5.9,5.9,0,0,1,3.59-.153,20.4,20.4,0,0,1,5.418,2.05,49.078,49.078,0,0,0,6.532,2.666c1.38-.726,2.845-1.568,4.36-2.547,1.187-.767,2.28-1.538,3.289-2.3a3.817,3.817,0,0,1,3.536-3.157,10.38,10.38,0,0,0,4.757,1.214c-.175.917-.249,1.531-.144,1.561s.316-.307.247-.426c-.146-.258-1.8.3-6.039,2.3-1.719,1.85-3.224,3.364-4.385,4.5a37.892,37.892,0,0,1-4.56,4.034c-.851.612-1.594,1.075-2.122,1.389a10.2,10.2,0,0,1-1.422.095,10.965,10.965,0,0,1-4.094-.851,66.336,66.336,0,0,0-7.619-2.252Z" transform="translate(-193.262 -297.19)" fill="#fff"/>
            <path id="Path_50132" data-name="Path 50132" d="M192,308.746c.575.479,1.465,1.207,2.573,2.059,6.167,4.746,9.361,7.142,12.453,6.574.716-.132,2.059-1.289,4.744-3.6,5.086-4.385,6.49-6.4,9.659-7.26a10.946,10.946,0,0,1,4.043-.288,1.25,1.25,0,0,1,.084,1.073c-.489,1.052-2.787.265-5.06,1.415-.433.217-.638.393-2.226,1.956-2.943,2.882-3.8,3.824-4.79,4.751a30.605,30.605,0,0,1-4.955,3.769c-1.228-.068-2.524-.2-3.89-.41a40.267,40.267,0,0,1-9.6-2.752Z" transform="translate(-192 -304.584)" fill="#9e9e9e" opacity="0.24"/>
            <path id="Path_50133" data-name="Path 50133" d="M197.744,315.23c2.464-1.829,5.492-.46,7.979.563l8.108,3.332c.156.063.224-.191.07-.254-3.018-1.242-6.034-2.5-9.059-3.724-2.3-.935-5.03-1.78-7.231-.146-.133.1,0,.328.133.226Z" transform="translate(-196.581 -311.116)"/>
            <path id="Path_50134" data-name="Path 50134" d="M286.09,305.979c2.27-1.368,4.6-2.641,6.867-4.011a6.411,6.411,0,0,0,2.031-1.729,8.734,8.734,0,0,0,.619-1.252,2.62,2.62,0,0,1,1.719-1.461.132.132,0,0,0-.068-.253,2.854,2.854,0,0,0-1.828,1.463,7.29,7.29,0,0,1-.97,1.745,6.537,6.537,0,0,1-1.4,1.121c-2.317,1.456-4.75,2.738-7.095,4.15a.132.132,0,0,0,.133.228Z" transform="translate(-269.428 -297.256)"/>
            <path id="Path_50135" data-name="Path 50135" d="M208.648,330a77.481,77.481,0,0,0,7.6,2.289q1.847.456,3.717.814a3.908,3.908,0,0,0,2.662-.128,16.622,16.622,0,0,0,2.615-1.921c.97-.793,1.9-1.628,2.806-2.489,1.821-1.728,3.534-3.564,5.248-5.4.114-.125-.072-.31-.188-.186-3.136,3.361-6.314,6.863-10.138,9.471-1.215.826-2.41.516-3.753.242q-1.784-.365-3.548-.814c-2.352-.6-4.673-1.314-6.96-2.129-.16-.056-.228.2-.068.254Z" transform="translate(-205.649 -318.42)"/>
            <path id="Path_50136" data-name="Path 50136" d="M360.661,298.578a8.124,8.124,0,0,0,2.121.693,7.789,7.789,0,0,0,.856.1c.437.026.5-.082.754.365a1.114,1.114,0,0,1,.068,1.079.132.132,0,0,0,.253.07c.156-.526.351-1.48-.277-1.754a1.962,1.962,0,0,0-.526-.018,8.29,8.29,0,0,1-1.061-.1,7.966,7.966,0,0,1-2.059-.666c-.153-.072-.286.154-.132.226Z" transform="translate(-331.019 -298.131)"/>
            <path id="Path_50137" data-name="Path 50137" d="M348.933,314.366c.752-1.052,2.924-.3,4.011-.463a2.168,2.168,0,0,0,1.782-1.414c.072-.153-.154-.286-.226-.132-.756,1.607-2.228,1.294-3.724,1.228a2.243,2.243,0,0,0-2.07.642c-.1.139.13.27.226.132Z" transform="translate(-321.202 -309.64)"/>
          </g>
          <g id="window" transform="translate(0 2.673)">
            <path id="Path_50138" data-name="Path 50138" d="M9.78,225.34c.107.277,5.137,36.564,5.137,36.564L46.651,280q-1.194-19.107-2.387-38.218Z" transform="translate(-9.78 -225.34)" fill="#fff" stroke="#000" stroke-miterlimit="10" stroke-width="0.3"/>
            <path id="Path_50139" data-name="Path 50139" d="M24.025,232.131a32.413,32.413,0,0,0-1.38,7.8C21.54,261.369,42.6,277.085,46.651,280L14.905,261.9Q12.35,243.623,9.78,225.34Z" transform="translate(-9.78 -225.34)" fill="#9e9e9e" opacity="0.18"/>
          </g>
        </g>
        <g id="girl" transform="translate(60.373 4.762)">
          <g id="window-2" data-name="window">
            <path id="Path_50140" data-name="Path 50140" d="M348.75,57.62c.619,2.038,1.184,4.185,1.67,6.435a84.407,84.407,0,0,1,.714,31.22l32.9,2.62.952-38.374Z" transform="translate(-348.75 -57.62)" fill="#fff" stroke="#000" stroke-miterlimit="10" stroke-width="0.3"/>
            <path id="Path_50141" data-name="Path 50141" d="M457.326,104.286a26.953,26.953,0,0,1,.309-6.2c.568-3.4.893-5.346,2.533-6.693a6.948,6.948,0,0,1,7.868-.328c2.806,1.836,2.12,6.514,1.968,10.164a65.585,65.585,0,0,0,3.508,23.375l-7.872-1.628c-.105-.365-.214-.728-.328-1.093a77.286,77.286,0,0,0-7.986-17.594Z" transform="translate(-438.234 -84.319)" fill="#9e9e9e" opacity="0.18"/>
          </g>
          <g id="hand_right" data-name="hand right" transform="translate(0.11 20.763)">
            <path id="Path_50142" data-name="Path 50142" d="M361.574,176c-.151.191-.365.47-.6.819a12.045,12.045,0,0,0-1.282,2.319,6.514,6.514,0,0,0-.224,3.083,51.192,51.192,0,0,0,1.052,6.512,32.431,32.431,0,0,0-2.58,2.217c-.972.926-1.073,1.137-2.021,1.987a12.617,12.617,0,0,1-2.764,2.113,13.874,13.874,0,0,0-1.766.91c-1.061.7-1.319,1.182-1.428,1.443-.237.579-.258,1.337,0,1.461s.847-.458,1.193-.814a5.2,5.2,0,0,0,.512-.61,3.671,3.671,0,0,0,2.184.819,3.618,3.618,0,0,0,1.687-.361,4.619,4.619,0,0,1,.495-1.228,7.128,7.128,0,0,1,2.6-2.28c1.764-1.172,2.643-1.815,2.852-1.968,1.535-1.128,2.031-1.635,2.391-2.35a5.689,5.689,0,0,0,.489-1.647,13.05,13.05,0,0,0,.117-3.357A31.932,31.932,0,0,0,361.574,176Z" transform="translate(-349.703 -176)" fill="#fff"/>
            <path id="Path_50143" data-name="Path 50143" d="M355.143,306.235a5.306,5.306,0,0,0,.575-.828,13.664,13.664,0,0,1,.8-1.382c.2-.253.453-.584.6-.526.2.074.095.781.061,1a.8.8,0,1,1,1.508.412c.391-.175.517-.091.56-.054.207.186-.081.817-.268,1.13a2.282,2.282,0,0,1-.691.756c-.31.207-.612.282-2.44.3-.893.009-1.228,0-1.272-.146S354.782,306.645,355.143,306.235Z" transform="translate(-353.66 -281.131)" fill="#fff"/>
            <path id="Path_50144" data-name="Path 50144" d="M380.232,188c.053.728.125,1.808.191,3.119a41.623,41.623,0,0,1,.128,4.23,10.4,10.4,0,0,1-2.571,5.907c-1.228,1.3-1.959,1.212-3.88,3.157a17.248,17.248,0,0,0-1.836,2.178,17.018,17.018,0,0,0-.973,1.542,1.461,1.461,0,0,0,.938.253,1.524,1.524,0,0,0,1.052-.589,5.5,5.5,0,0,1,.961-1.854,9.548,9.548,0,0,1,2.571-1.949,30.838,30.838,0,0,0,2.589-1.8,7.74,7.74,0,0,0,2.41-2.675,5.923,5.923,0,0,0,.363-3.227A35.87,35.87,0,0,0,380.232,188Z" transform="translate(-367.446 -185.895)" fill="#9e9e9e" opacity="0.2"/>
            <path id="Path_50145" data-name="Path 50145" d="M359.75,308.534a3.04,3.04,0,0,0,1.11-.5c1.307-.956,1.384-2.755,1.729-2.726.116.011.254.226.368,1.095.3-.119.482-.137.559-.054q.249.268-1.005,1.929Z" transform="translate(-357.931 -282.628)" fill="#9e9e9e" opacity="0.22"/>
            <path id="Path_50146" data-name="Path 50146" d="M405.627,179.907c-3.117,3.332-.724,8.142-.486,12.007.011.175.274.175.263,0-.233-3.782-2.631-8.564.409-11.822C405.929,179.971,405.743,179.783,405.627,179.907Z" transform="translate(-394.452 -179.188)"/>
            <path id="Path_50147" data-name="Path 50147" d="M360.52,248.508c-1.538.316-2.9,2.017-3.955,3.075a17.576,17.576,0,0,1-4.665,3.569c-1.182.581-2.666,1.5-2.512,3.038.175,1.794,1.649-.395,2.05-.877.109-.13-.077-.316-.186-.186-.237.282-1.133,1.742-1.566,1.249-.3-.351.16-1.258.351-1.549a3.243,3.243,0,0,1,.9-.854c1.082-.726,2.3-1.144,3.348-1.949a29.653,29.653,0,0,0,2.757-2.554c.947-.942,2.192-2.434,3.543-2.71.167-.035.1-.288-.07-.254Z" transform="translate(-349.377 -235.786)"/>
            <path id="Path_50148" data-name="Path 50148" d="M390.738,233.957a6.512,6.512,0,0,1-.795,4.227,12.34,12.34,0,0,1-3.234,2.647c-1.843,1.272-4.209,2.391-4.822,4.736a.132.132,0,1,0,.254.07c.416-1.61,1.612-2.442,2.913-3.332,1.186-.819,2.4-1.607,3.557-2.471a5.807,5.807,0,0,0,1.987-2.261,8.005,8.005,0,0,0,.4-3.6.132.132,0,1,0-.263,0Z" transform="translate(-376.181 -223.695)"/>
            <path id="Path_50149" data-name="Path 50149" d="M353.954,306.369a3.617,3.617,0,0,0,1.1-1.182c.247-.4.844-1.975,1.363-2,.175-.009.175-.272,0-.263-.481.028-.824.765-1.026,1.123a5.512,5.512,0,0,1-1.568,2.1c-.142.093-.01.319.132.226Z" transform="translate(-352.992 -280.658)"/>
            <path id="Path_50150" data-name="Path 50150" d="M363.972,302.979c.217.351-.225,1.2-.36,1.5a8.2,8.2,0,0,1-.572,1.052c-.091.144.137.275.228.133a8.431,8.431,0,0,0,.795-1.593c.137-.375.374-.851.135-1.228-.089-.144-.317-.012-.226.132Z" transform="translate(-360.627 -280.548)"/>
            <path id="Path_50151" data-name="Path 50151" d="M368.169,304.718a3.6,3.6,0,0,1,1.38-1.021l-.175-.047c.442.766-.268,1.891-.714,2.534-.1.139.132.27.228.132.505-.728,1.219-1.929.714-2.806a.137.137,0,0,0-.175-.047,3.735,3.735,0,0,0-1.433,1.063c-.109.128.075.316.186.186Z" transform="translate(-364.701 -281.094)"/>
            <path id="Path_50152" data-name="Path 50152" d="M369.16,304.689a12.133,12.133,0,0,1-1.266,2.524c-.095.14.133.274.226.132a12.405,12.405,0,0,0,1.3-2.585c.058-.16-.195-.228-.253-.07Z" transform="translate(-364.627 -282.044)"/>
            <path id="Path_50153" data-name="Path 50153" d="M375.665,310.186c.351-.014.463-.074.34-.175-.021.088-.046.175-.07.258a4.461,4.461,0,0,1-.23.589,4.749,4.749,0,0,1-.626.98c-.107.13.079.316.186.186a4.124,4.124,0,0,0,.994-1.943c.053-.5-.558-.26-.78-.074-.132.109.056.295.186.186Z" transform="translate(-370.545 -286.318)"/>
            <path id="Path_50154" data-name="Path 50154" d="M353.979,321.87c1.112.419,2.564.047,3.7-.1.165-.021.175-.286,0-.263-1.112.147-2.549.526-3.631.112C353.89,321.556,353.821,321.81,353.979,321.87Z" transform="translate(-353.098 -295.982)"/>
          </g>
          <g id="torso-2" data-name="torso" transform="translate(10.608 18.807)">
            <path id="Path_50155" data-name="Path 50155" d="M409.23,167.1c.258.71.658,1.863,1.052,3.313.91,3.3.688,4.034,1.57,5.418.772,1.21,1.052.823,3.055,3.062a11.764,11.764,0,0,1,2.406,3.332,8.307,8.307,0,0,1,.547,2.033l10.671,1.11a50.627,50.627,0,0,0-5.486-14.016,49.987,49.987,0,0,0-4.1-6.046,11.222,11.222,0,0,0-7.914.6,9.515,9.515,0,0,0-1.8,1.2Z" transform="translate(-409.23 -164.846)" fill="#dbdbdb"/>
          </g>
          <g id="hand_left" data-name="hand left" transform="translate(7.776 19.026)">
            <path id="Path_50156" data-name="Path 50156" d="M405.433,168.988a4.651,4.651,0,0,1,.765-.944A3.233,3.233,0,0,1,408.08,167a2.953,2.953,0,0,1,2.063.688,4.337,4.337,0,0,1,1.189,1.549,34.046,34.046,0,0,1,1.6,3.211c.777,1.975,1.166,2.964,1.754,4.851.51,1.64,1.114,3.776,1.678,6.328a2.967,2.967,0,0,1-.717,1.165,3.112,3.112,0,0,1-1.419.765,44.288,44.288,0,0,1-10.573,1.068c-.649-.018-1.579-.047-2.719-.105a2.653,2.653,0,0,1-1.11.077,5.652,5.652,0,0,1-1.512-.663,4.928,4.928,0,0,0-1.964-.386c-1.042.026-1.873.451-2.061.16a.4.4,0,0,1-.051-.233.589.589,0,0,1,.307-.41,2,2,0,0,1,.188-.268,1.953,1.953,0,0,1,.268-.27,1.9,1.9,0,0,1,.1-.351,2.01,2.01,0,0,1,.374-.581c.339-.342.93-.3,1.635-.249a7.257,7.257,0,0,1,1.594.31c.03-.333.112-.526.249-.579q.461-.175,1.74,1.754a20.245,20.245,0,0,0,2.917-.477,22.115,22.115,0,0,0,3.148-1.016,25.856,25.856,0,0,1,2.5-1.035,12.486,12.486,0,0,1,1.968-.435c-.54-1.37-1.012-2.512-1.366-3.354-1.489-3.532-2.713-6.069-3.045-6.751C406.261,170.607,405.775,169.65,405.433,168.988Z" transform="translate(-394.038 -166.832)" fill="#fff"/>
            <path id="Path_50157" data-name="Path 50157" d="M412.957,166.85a17.3,17.3,0,0,1,1.5,1.9c2.577,3.783,2.891,7.51,3.1,10.378.228,3.178-.253,3.874-.526,4.185-.614.693-1.2.6-4.515,1.119a66.119,66.119,0,0,1-7.468.97,15.964,15.964,0,0,1-1.777-.1c-.444-.056-.689-.123-.9-.142a8.864,8.864,0,0,0-3.125.274,5.979,5.979,0,0,1,3.012.242,5.764,5.764,0,0,1,1.6.868l1.356-.2c2.233.119,4.124.116,5.562.077a23.8,23.8,0,0,0,5.613-.579,17.16,17.16,0,0,0,3.341-1.254l.716-1.166c-.075-.342-.195-.877-.351-1.514a65.153,65.153,0,0,0-2.933-9.3c-1.4-3.469-1.417-2.484-2.264-4.313a2.5,2.5,0,0,0-.658-.9A2.59,2.59,0,0,0,412.957,166.85Z" transform="translate(-398.16 -166.718)" fill="#9e9e9e" opacity="0.21"/>
            <path id="Path_50158" data-name="Path 50158" d="M457.326,177.821a138.556,138.556,0,0,1,5.748,12.688c.061.156.316.088.254-.07a139.447,139.447,0,0,0-5.774-12.753c-.079-.151-.305-.019-.228.132Z" transform="translate(-446.045 -175.599)"/>
            <path id="Path_50159" data-name="Path 50159" d="M441.353,251.466a1.581,1.581,0,0,0-1.528-.146,20.032,20.032,0,0,0-3.024,1.114,23.841,23.841,0,0,1-6.825,1.657c-.167.016-.175.279,0,.263a23.992,23.992,0,0,0,5.549-1.161c.893-.305,1.754-.688,2.631-1.037.7-.284,2.356-1.1,3.015-.505.126.114.312-.072.186-.186Z" transform="translate(-423.4 -236.271)"/>
            <path id="Path_50160" data-name="Path 50160" d="M484.725,170.783a23.178,23.178,0,0,1,3.746,7.467,64.056,64.056,0,0,1,2.248,8.03c.035.165.289.1.254-.07a63.706,63.706,0,0,0-2.475-8.657,22.3,22.3,0,0,0-3.588-6.954C484.8,170.469,484.616,170.655,484.725,170.783Z" transform="translate(-468.624 -169.772)"/>
            <path id="Path_50161" data-name="Path 50161" d="M432.958,265.592a58.374,58.374,0,0,0,9.2-.175c1.943-.244,5.12-.479,6.079-2.534.07-.153-.156-.288-.228-.133a4.038,4.038,0,0,1-2.99,1.88,26.514,26.514,0,0,1-4.164.659,67.329,67.329,0,0,1-7.893.042.132.132,0,0,0,0,.263Z" transform="translate(-425.859 -245.741)"/>
            <path id="Path_50162" data-name="Path 50162" d="M400.524,272.863c-1.228.456-2.173-.617-3.3-.9a10.666,10.666,0,0,0-3.313.082c-.175.014-.175.277,0,.263,1.535-.121,2.883-.351,4.309.372a2.84,2.84,0,0,0,2.373.437C400.752,273.058,400.684,272.8,400.524,272.863Z" transform="translate(-393.658 -253.301)"/>
            <path id="Path_50163" data-name="Path 50163" d="M421.577,259.919a3.127,3.127,0,0,0-1.214-1.354c-.175-.107-.435-.272-.652-.189a.3.3,0,0,0-.184.395c.056.158.31.089.254-.07-.035-.1.293,0,.309.014a2.37,2.37,0,0,1,.233.135,2.684,2.684,0,0,1,.433.351,2.924,2.924,0,0,1,.591.845c.074.153.3.019.228-.132Z" transform="translate(-414.872 -242.172)"/>
            <path id="Path_50164" data-name="Path 50164" d="M406.335,260.76a4.674,4.674,0,0,0-4.765-1.2c-.161.051-.091.305.07.254a4.4,4.4,0,0,1,4.516,1.135c.119.121.305-.065.186-.186Z" transform="translate(-400.006 -242.985)"/>
            <path id="Path_50165" data-name="Path 50165" d="M393.33,269.287c.372-.6,1.535-.526,2.15-.609.167-.019.175-.282,0-.263-.737.089-1.929.01-2.377.738C393.014,269.3,393.242,269.431,393.33,269.287Z" transform="translate(-393.083 -250.468)"/>
            <path id="Path_50166" data-name="Path 50166" d="M395.378,266.354a3.155,3.155,0,0,1,2.184-.561.132.132,0,0,0,0-.263,3.378,3.378,0,0,0-2.37.638C395.066,266.282,395.252,266.467,395.378,266.354Z" transform="translate(-394.787 -248.09)"/>
            <path id="Path_50167" data-name="Path 50167" d="M397.975,263.5c.165-.551,1.356-.491,1.794-.468.175.009.175-.254,0-.263-.589-.032-1.829-.065-2.049.661C397.671,263.593,397.926,263.661,397.975,263.5Z" transform="translate(-396.902 -245.802)"/>
            <path id="Path_50168" data-name="Path 50168" d="M399.31,261.175a.538.538,0,0,1,.663-.314c.161.053.232-.2.07-.253a.8.8,0,0,0-.986.5C399,261.265,399.252,261.333,399.31,261.175Z" transform="translate(-398.002 -244.004)"/>
            <path id="Path_50169" data-name="Path 50169" d="M463.991,167.062a3.947,3.947,0,0,1,1.685-.688,2.619,2.619,0,0,1,1.754.693c.137.1.268-.128.132-.228a2.96,2.96,0,0,0-1.789-.742,4.113,4.113,0,0,0-1.915.737c-.144.088-.012.316.133.228Z" transform="translate(-451.393 -166.097)"/>
          </g>
          <g id="head-2" data-name="head" transform="translate(4.33 5.563)">
            <path id="Path_50170" data-name="Path 50170" d="M386.039,103.092a10.448,10.448,0,0,0-.04,2.857,8.363,8.363,0,0,0,1.091,3.28,8.123,8.123,0,0,0,2.806,2.789,6.488,6.488,0,0,0,.921-.165,6.73,6.73,0,0,0,1.84-.773,5.9,5.9,0,0,0,1,.681,6.007,6.007,0,0,0,2.6.7,10.79,10.79,0,0,0,1.831-3.157c.389-1.052,1.468-3.971.084-6.6a6.9,6.9,0,0,0-1.873-2.129c-1.465-1.249-3.38-2.883-5.788-2.426-2.669.507-4.132,3.234-4.385,4.446A4.78,4.78,0,0,0,386.039,103.092Z" transform="translate(-383.73 -96.539)" fill="#fff"/>
            <path id="Path_50171" data-name="Path 50171" d="M408.2,106.52a7.325,7.325,0,0,1,2.471,7.579,8.958,8.958,0,0,1-3.189,4.874c.5-.112,1.038-.254,1.6-.437.484-.154.935-.321,1.347-.489a5.964,5.964,0,0,0,1,.681,5.814,5.814,0,0,0,1.554.567,12.947,12.947,0,0,0,2.655-4.622c.51-1.589.97-3.026.332-4.473-.654-1.482-2.094-2.14-3.4-2.733A10.683,10.683,0,0,0,408.2,106.52Z" transform="translate(-401.509 -103.506)" fill="#9e9e9e" opacity="0.26"/>
            <path id="Path_50172" data-name="Path 50172" d="M375.834,95.4a9.527,9.527,0,0,1,4.118-3.508,6.754,6.754,0,0,0,.474,1.087,8.058,8.058,0,0,0,4.311,3.492,1.449,1.449,0,0,1,1.565-.545,1.531,1.531,0,0,1,.847,1.166,1.954,1.954,0,0,1-.2,1.331,2.173,2.173,0,0,1-2.084.986,4.048,4.048,0,0,0-1.7,2.55,3.979,3.979,0,0,0,1.7,3.874,4.194,4.194,0,0,0,4.818-.095,4.386,4.386,0,0,0,1.652-2.806,2.506,2.506,0,0,0,4.109-2.726c-.458-1.566-1.975-1.4-4.487-3.964a11.742,11.742,0,0,1-1.817-2.189c-1.14-1.819-1.023-2.982-2.806-3.906-3.473-1.8-7.349-.065-7.8.142a10.012,10.012,0,0,0-4.587,4.427,9.986,9.986,0,0,1,.526,3.59c-.105,2.392-1.052,3.1-1.04,5.292,0,.917.016,3.043,1.512,4.346a4.24,4.24,0,0,0,7.147-3.964l-2.373.845a7.893,7.893,0,0,1-2.315-1.929A9.348,9.348,0,0,1,375.834,95.4Z" transform="translate(-373.439 -89.338)" fill="#5e70ef"/>
            <path id="Path_50173" data-name="Path 50173" d="M385.851,123.273c-.44,3.585.468,7.435,3.643,9.52.14.093.274-.135.132-.228-3.094-2.031-3.939-5.807-3.508-9.3.021-.175-.242-.165-.263,0Z" transform="translate(-383.588 -117.213)"/>
            <path id="Path_50174" data-name="Path 50174" d="M407.967,169.679a6.253,6.253,0,0,0,3.564-1.621c.125-.114-.061-.3-.188-.186a5.944,5.944,0,0,1-3.376,1.543C407.8,169.435,407.791,169.7,407.967,169.679Z" transform="translate(-401.805 -154.068)"/>
            <path id="Path_50175" data-name="Path 50175" d="M400.347,129.893a23.775,23.775,0,0,0,.517,4.441.133.133,0,0,0,.221.058,7.532,7.532,0,0,0,.735-.931c.095-.14-.133-.274-.226-.133a7.18,7.18,0,0,1-.7.877l.219.058a23.334,23.334,0,0,1-.509-4.371.132.132,0,1,0-.263,0Z" transform="translate(-395.621 -122.67)"/>
            <path id="Path_50176" data-name="Path 50176" d="M403.956,155.624a3.859,3.859,0,0,0,2.885-1.119c.121-.119-.065-.305-.186-.186a3.576,3.576,0,0,1-2.694,1.042.132.132,0,1,0,0,.263Z" transform="translate(-398.5 -142.89)"/>
            <path id="Path_50177" data-name="Path 50177" d="M390.136,121.973a.658.658,0,0,1,1.091.018c.095.139.323,0,.228-.133a.919.919,0,0,0-1.5-.07C389.849,121.919,390.033,122.106,390.136,121.973Z" transform="translate(-387.03 -115.8)"/>
            <path id="Path_50178" data-name="Path 50178" d="M408.941,120.8a1.27,1.27,0,0,1,1.668-.082c.132.105.319-.081.188-.186a1.54,1.54,0,0,0-2.042.082C408.634,120.727,408.82,120.913,408.941,120.8Z" transform="translate(-402.529 -114.77)"/>
            <path id="Path_50179" data-name="Path 50179" d="M437.313,126.851a1.612,1.612,0,0,1,1.294-.526c.735.093.909.74.9,1.351a1.646,1.646,0,0,1-1.717,1.743c-.175.01-.175.274,0,.263a1.979,1.979,0,0,0,1.949-2.5c-.249-1.415-1.754-1.321-2.613-.526-.125.116.063.3.186.188Z" transform="translate(-425.923 -119.635)"/>
            <ellipse id="Ellipse_1754" data-name="Ellipse 1754" cx="0.23" cy="0.663" rx="0.23" ry="0.663" transform="translate(3.662 7.663)"/>
            <ellipse id="Ellipse_1755" data-name="Ellipse 1755" cx="0.23" cy="0.663" rx="0.23" ry="0.663" transform="translate(6.863 7.563)"/>
            <path id="Path_50180" data-name="Path 50180" d="M416.056,144.1h-.025a.132.132,0,0,0,0,.263h.025a.132.132,0,0,0,0-.263Z" transform="translate(-408.453 -134.495)"/>
            <path id="Path_50181" data-name="Path 50181" d="M422.582,140.663a.132.132,0,1,0-.132-.132A.132.132,0,0,0,422.582,140.663Z" transform="translate(-413.854 -131.444)"/>
            <path id="Path_50182" data-name="Path 50182" d="M422.722,146.763a.132.132,0,1,0-.132-.132A.132.132,0,0,0,422.722,146.763Z" transform="translate(-413.969 -136.474)"/>
            <path id="Path_50183" data-name="Path 50183" d="M423.565,171.748a8.771,8.771,0,0,0,2.361,1.324c.158.06.226-.195.068-.254a8.307,8.307,0,0,1-2.243-1.258c-.132-.1-.319.082-.186.188Z" transform="translate(-414.736 -157.115)"/>
          </g>
        </g>
      </g>
    </g>
  </g>
</svg>
