<svg xmlns="http://www.w3.org/2000/svg" width="266.726" height="190.971" viewBox="0 0 266.726 190.971">
  <g id="convert_currency" data-name="convert currency" transform="translate(-63.694 -56.878)">
    <g id="background" transform="translate(63.694 56.878)">
      <g id="Group_62552" data-name="Group 62552" transform="translate(5.129 136.366)">
        <g id="Group_62551" data-name="Group 62551">
          <path id="Path_52189" data-name="Path 52189" d="M91.639,793.456H211.826a.278.278,0,0,0,0-.556H91.639a.278.278,0,0,0,0,.556Z" transform="translate(-91.375 -792.9)" fill="#e8e8e8"/>
        </g>
      </g>
      <g id="Group_62554" data-name="Group 62554" transform="translate(31.097 151.419)">
        <g id="Group_62553" data-name="Group 62553">
          <path id="Path_52190" data-name="Path 52190" d="M231.624,874.623l2.649,2.649c.259.259.648-.148.389-.389l-2.649-2.649c-.259-.259-.648.148-.389.389Z" transform="translate(-231.538 -874.151)" fill="#e8e8e8"/>
        </g>
      </g>
      <g id="Group_62556" data-name="Group 62556" transform="translate(118.813 150.836)">
        <g id="Group_62555" data-name="Group 62555">
          <path id="Path_52191" data-name="Path 52191" d="M705.239,871.556H839.007a.278.278,0,0,0,0-.556H705.239a.278.278,0,0,0,0,.556Z" transform="translate(-704.975 -871)" fill="#e8e8e8"/>
        </g>
      </g>
      <g id="Group_62558" data-name="Group 62558" transform="translate(145.386 138.719)">
        <g id="Group_62557" data-name="Group 62557">
          <path id="Path_52192" data-name="Path 52192" d="M848.678,806.156h120.8a.278.278,0,0,0,0-.556h-120.8a.278.278,0,0,0,0,.556Z" transform="translate(-848.4 -805.6)" fill="#e8e8e8"/>
        </g>
      </g>
      <g id="Group_62560" data-name="Group 62560" transform="translate(13.688 179.479)">
        <g id="Group_62559" data-name="Group 62559">
          <path id="Path_52193" data-name="Path 52193" d="M137.839,1026.156h85.337a.278.278,0,0,0,0-.556H137.839a.278.278,0,0,0,0,.556Z" transform="translate(-137.575 -1025.6)" fill="#e8e8e8"/>
        </g>
      </g>
      <g id="Group_62562" data-name="Group 62562" transform="translate(0 98.913)">
        <g id="Group_62561" data-name="Group 62561">
          <path id="Path_52194" data-name="Path 52194" d="M72.236,627.7a13.545,13.545,0,0,1-3.465-5.873,4.274,4.274,0,0,0-.259.352l1.464-.111a.284.284,0,0,0,.148-.519,3.451,3.451,0,0,1-1.427-2.186,3.89,3.89,0,0,1,0-1.464c.093-.389.389-.741.463-1.093.111-.611-.593-1.556-.834-2.131-.463-1.075-.871-2.149-1.26-3.261a53.038,53.038,0,0,1-2.761-13.006,4.239,4.239,0,0,1-.352.259,2.929,2.929,0,0,1,1.353,1.019c.167.241.611.111.5-.222a20.99,20.99,0,0,1-.667-8.448c-.167.074-.315.13-.482.2a12.4,12.4,0,0,1,2.983,4.873c.76,2.038,1.427,4.132,2.112,6.207q2.14,6.531,4.095,13.1c.093.278.593.241.537-.074.259-.63.463-.778.593-.408l.222.445.445.889c.259.556.519,1.112.76,1.667.5,1.13,1.186,2.094,1.742,3.205a15.923,15.923,0,0,1,1.723,7.374.278.278,0,0,0,.556,0,16.76,16.76,0,0,0-1.538-7.1c-.537-1.149-1.334-2.149-1.816-3.3a41.723,41.723,0,0,0-1.871-3.891.251.251,0,0,0-.241-.13,1.094,1.094,0,0,0-1.149,1.26c.185-.018.371-.056.537-.074q-2.057-6.948-4.317-13.8c-1.186-3.594-2.112-7.967-5-10.635-.185-.185-.445-.037-.482.2a21.067,21.067,0,0,0,.686,8.6l.5-.222a3.523,3.523,0,0,0-1.686-1.278.275.275,0,0,0-.352.259,53.363,53.363,0,0,0,3.187,14.285c.408,1.075.852,2.149,1.334,3.205.259.574.333.7.111,1.26a4.057,4.057,0,0,0-.259,1.038,4.1,4.1,0,0,0,1.76,3.872c.056-.167.093-.352.148-.519l-1.464.111a.273.273,0,0,0-.259.352,13.9,13.9,0,0,0,3.613,6.114c.222.222.63-.167.371-.408Z" transform="translate(-63.694 -590.75)" fill="#e8e8e8"/>
        </g>
      </g>
      <g id="Group_62564" data-name="Group 62564" transform="translate(13.095 170.03)">
        <g id="Group_62563" data-name="Group 62563">
          <path id="Path_52195" data-name="Path 52195" d="M134.639,975.156a.278.278,0,0,0,0-.556.278.278,0,0,0,0,.556Z" transform="translate(-134.375 -974.6)" fill="#e8e8e8"/>
        </g>
      </g>
      <g id="Group_62566" data-name="Group 62566" transform="translate(6.448 161.896)">
        <g id="Group_62565" data-name="Group 62565">
          <path id="Path_52196" data-name="Path 52196" d="M111.447,938.481c-.426,1.427-3,.982-4.057.8a18.694,18.694,0,0,1-3.761-1.112,9.1,9.1,0,0,1-3.372-2.038c-.945-1-1.834-2.835-.686-4.039,1.742-1.834,5.447-.389,7.3.593,1.76.908,5.855,3.576,4.391,5.984a.278.278,0,0,0,.482.278c1.3-2.149-1.038-4.28-2.594-5.484a12.8,12.8,0,0,0-7.281-2.761c-2.3-.018-4,1.7-3.15,4.021.908,2.464,3.576,3.594,5.873,4.372a13.774,13.774,0,0,0,5.114.889,2.274,2.274,0,0,0,2.3-1.371.286.286,0,0,0-.556-.13Z" transform="translate(-98.496 -930.699)" fill="#e8e8e8"/>
        </g>
      </g>
      <g id="Group_62568" data-name="Group 62568" transform="translate(6.671 165.468)">
        <g id="Group_62567" data-name="Group 62567">
          <path id="Path_52197" data-name="Path 52197" d="M99.7,950.239c-.037,2.5,2.5,4.187,4.539,5.132a7.379,7.379,0,0,0,7.152-.13c.3-.185.019-.667-.278-.482a6.754,6.754,0,0,1-6.577.13c-1.834-.852-4.3-2.371-4.261-4.65-.019-.352-.574-.352-.574,0Z" transform="translate(-99.698 -949.975)" fill="#e8e8e8"/>
        </g>
      </g>
      <g id="Group_62570" data-name="Group 62570" transform="translate(10.847 163.863)">
        <g id="Group_62569" data-name="Group 62569">
          <path id="Path_52198" data-name="Path 52198" d="M122.584,941.443c-1.982,3.391,5.206,6.837,5.743,2.946.056-.352-.482-.5-.537-.148-.408,3.057-6.281.13-4.724-2.52a.279.279,0,0,0-.482-.278Z" transform="translate(-122.239 -941.316)" fill="#e8e8e8"/>
        </g>
      </g>
      <g id="Group_62572" data-name="Group 62572" transform="translate(11.62 165.482)">
        <g id="Group_62571" data-name="Group 62571">
          <path id="Path_52199" data-name="Path 52199" d="M126.93,952.748l1.167-2.279c.167-.315-.315-.593-.482-.278l-1.167,2.279c-.167.315.315.593.482.278Z" transform="translate(-126.413 -950.052)" fill="#e8e8e8"/>
        </g>
      </g>
      <g id="Group_62574" data-name="Group 62574" transform="translate(13.173 166.007)">
        <g id="Group_62573" data-name="Group 62573">
          <path id="Path_52200" data-name="Path 52200" d="M135.349,955.407a8.619,8.619,0,0,1,1.186-2.038c.222-.278-.167-.667-.389-.389a9.792,9.792,0,0,0-1.334,2.3c-.13.315.408.463.537.13Z" transform="translate(-134.792 -952.884)" fill="#e8e8e8"/>
        </g>
      </g>
      <g id="Group_62576" data-name="Group 62576" transform="translate(32.486 162.149)">
        <g id="Group_62575" data-name="Group 62575">
          <path id="Path_52201" data-name="Path 52201" d="M239.64,938.741c-.334-1.927.889-3.724,2.316-4.873a4.71,4.71,0,0,1,2.761-1.278c1.427.111,1.779,1.779,1.556,2.927a5.648,5.648,0,0,1-2.853,3.761,4.923,4.923,0,0,1-2.371.667c-1.26-.037-1.241-1.278-1.112-2.2.056-.352-.482-.5-.537-.148-.111.834-.222,1.945.519,2.557.723.611,1.927.333,2.761.056a6.21,6.21,0,0,0,4.187-4.928,2.95,2.95,0,0,0-1.075-2.853c-1.038-.723-2.223-.222-3.224.352-2.094,1.241-3.909,3.576-3.465,6.114.056.352.593.2.537-.148Z" transform="translate(-239.035 -932.064)" fill="#e8e8e8"/>
        </g>
      </g>
      <g id="Group_62578" data-name="Group 62578" transform="translate(34.496 164.167)">
        <g id="Group_62577" data-name="Group 62577">
          <path id="Path_52202" data-name="Path 52202" d="M253.463,943.131a1.5,1.5,0,0,0-1.667.2,5.939,5.939,0,0,0-1.7,1.76,1.29,1.29,0,0,0,.167,1.612,1.867,1.867,0,0,0,2.038.315c.333-.111.185-.648-.148-.537a1.343,1.343,0,0,1-1.482-.185c-.537-.574.019-1.13.408-1.556.463-.482,1.353-1.575,2.112-1.149a.27.27,0,1,0,.278-.463Z" transform="translate(-249.885 -942.956)" fill="#e8e8e8"/>
        </g>
      </g>
      <g id="Group_62580" data-name="Group 62580" transform="translate(34.371 165.309)">
        <g id="Group_62579" data-name="Group 62579">
          <path id="Path_52203" data-name="Path 52203" d="M249.41,949.671a3.393,3.393,0,0,1,1.167.63c.278.222.667-.167.389-.389a4.117,4.117,0,0,0-1.427-.778c-.333-.111-.482.426-.13.537Z" transform="translate(-249.207 -949.119)" fill="#e8e8e8"/>
        </g>
      </g>
      <g id="Group_62582" data-name="Group 62582" transform="translate(35.243 164.405)">
        <g id="Group_62581" data-name="Group 62581">
          <path id="Path_52204" data-name="Path 52204" d="M254.115,944.79a4.223,4.223,0,0,1,1.723.982c.259.241.648-.148.389-.389a5.1,5.1,0,0,0-1.964-1.13.279.279,0,0,0-.148.537Z" transform="translate(-253.914 -944.242)" fill="#e8e8e8"/>
        </g>
      </g>
      <g id="Group_62584" data-name="Group 62584" transform="translate(33.525 163.71)">
        <g id="Group_62583" data-name="Group 62583">
          <path id="Path_52205" data-name="Path 52205" d="M244.709,947c3.261,3.946,9.875-3.279,6.281-6.429-.259-.241-.667.148-.389.389,3.039,2.649-2.686,9.041-5.484,5.632-.241-.259-.63.13-.408.408Z" transform="translate(-244.643 -940.491)" fill="#e8e8e8"/>
        </g>
      </g>
      <g id="Group_62586" data-name="Group 62586" transform="translate(249.529 160.329)">
        <g id="Group_62585" data-name="Group 62585">
          <path id="Path_52206" data-name="Path 52206" d="M1411.151,927.087c-.482-1.76.778-3.168,2.279-3.891a3.076,3.076,0,0,1,2.779-.2,2.4,2.4,0,0,1,.908,2.631c-.315,1.482-1.482,3.168-3.057,3.446-2.075.352-2.761-1.575-2.835-3.242-.019-.352-.574-.352-.556,0,.074,1.964.927,4.057,3.261,3.817,2.112-.222,3.761-2.594,3.817-4.595.074-2.316-2-3.3-4-2.575-1.964.7-3.743,2.538-3.113,4.762a.27.27,0,1,0,.519-.148Z" transform="translate(-1410.504 -922.24)" fill="#e8e8e8"/>
        </g>
      </g>
      <g id="Group_62588" data-name="Group 62588" transform="translate(253.139 161.552)">
        <g id="Group_62587" data-name="Group 62587">
          <path id="Path_52207" data-name="Path 52207" d="M1431.067,928.924l-1,1.056c-.241.259.148.648.389.389l1-1.056a.275.275,0,0,0-.389-.389Z" transform="translate(-1429.991 -928.838)" fill="#e8e8e8"/>
        </g>
      </g>
      <g id="Group_62590" data-name="Group 62590" transform="translate(251.198 162.784)">
        <g id="Group_62589" data-name="Group 62589">
          <path id="Path_52208" data-name="Path 52208" d="M1422.626,935.735a1.619,1.619,0,0,0-2.223.63.279.279,0,0,0,.037.333c.13.13.926.426.723.685-.037.056-.389.093-.463.111a.964.964,0,0,1-.778-.167c-.3-.2-.574.278-.278.482a1.9,1.9,0,0,0,2.019-.056.6.6,0,0,0,.167-.686c-.185-.463-.667-.463-.982-.76a2.027,2.027,0,0,1,.037.333,1.064,1.064,0,0,1,1.464-.426c.3.185.574-.3.278-.482Z" transform="translate(-1419.516 -935.493)" fill="#e8e8e8"/>
        </g>
      </g>
      <g id="Group_62592" data-name="Group 62592" transform="translate(251.321 164.972)">
        <g id="Group_62591" data-name="Group 62591">
          <path id="Path_52209" data-name="Path 52209" d="M1420.791,947.376a2.986,2.986,0,0,0-.574.7.278.278,0,0,0,.482.278,2.5,2.5,0,0,1,.482-.593c.259-.222-.13-.63-.389-.389Z" transform="translate(-1420.175 -947.302)" fill="#e8e8e8"/>
        </g>
      </g>
      <g id="Group_62594" data-name="Group 62594" transform="translate(258.623 152.646)">
        <g id="Group_62593" data-name="Group 62593">
          <path id="Path_52210" data-name="Path 52210" d="M1463.185,886.8a5.13,5.13,0,0,1-2.687-2.427,2.007,2.007,0,0,1,1.982-3.039,3.6,3.6,0,0,1,2.927,2.612,2.729,2.729,0,0,1,.074,2.186,1.977,1.977,0,0,1-2.464.482c-.333-.13-.482.408-.148.537,1.742.63,3.557-.2,3.353-2.242a4.515,4.515,0,0,0-3.372-4.094,2.694,2.694,0,0,0-3.261,2.557c.074,1.649,1.945,3.5,3.465,3.965a.277.277,0,0,0,.13-.537Z" transform="translate(-1459.588 -880.771)" fill="#e8e8e8"/>
        </g>
      </g>
      <g id="Group_62596" data-name="Group 62596" transform="translate(260.154 153.721)">
        <g id="Group_62595" data-name="Group 62595">
          <path id="Path_52211" data-name="Path 52211" d="M1467.99,887.1c.278.222.556.426.834.648a.3.3,0,0,0,.389-.093.292.292,0,0,0-.093-.389c-.278-.222-.556-.426-.834-.648a.3.3,0,0,0-.389.093.276.276,0,0,0,.093.389Z" transform="translate(-1467.852 -886.574)" fill="#e8e8e8"/>
        </g>
      </g>
      <g id="Group_62598" data-name="Group 62598" transform="translate(261.04 154.032)">
        <g id="Group_62597" data-name="Group 62597">
          <path id="Path_52212" data-name="Path 52212" d="M1474.222,888.668a.634.634,0,0,0-1-.278,1.5,1.5,0,0,0-.574,1.315c.074.426.389.667.8.463.278-.148.519-.463.871-.463.2,0,.408.093.3.371-.093.222-.426.3-.648.333a.279.279,0,0,0,.148.537,1.362,1.362,0,0,0,1.037-.741.76.76,0,0,0-.3-.926,1.118,1.118,0,0,0-1-.037c-.111.037-.611.445-.667.426-.074-.037.148-.537.167-.556.037-.056.315-.426.352-.315.111.352.649.2.519-.13Z" transform="translate(-1472.635 -888.252)" fill="#e8e8e8"/>
        </g>
      </g>
      <g id="Group_62600" data-name="Group 62600" transform="translate(262.641 156.181)">
        <g id="Group_62599" data-name="Group 62599">
          <path id="Path_52213" data-name="Path 52213" d="M1481.316,900.268a3.279,3.279,0,0,0,.741.778.275.275,0,0,0,.389-.389,3.169,3.169,0,0,1-.649-.667.278.278,0,0,0-.482.278Z" transform="translate(-1481.274 -899.852)" fill="#e8e8e8"/>
        </g>
      </g>
      <g id="Group_62602" data-name="Group 62602" transform="translate(153.741 186.89)">
        <g id="Group_62601" data-name="Group 62601">
          <path id="Path_52214" data-name="Path 52214" d="M893.778,1066.156h79.89a.278.278,0,0,0,0-.556h-79.89a.278.278,0,1,0,0,.556Z" transform="translate(-893.5 -1065.6)" fill="#e8e8e8"/>
        </g>
      </g>
      <g id="Group_62604" data-name="Group 62604" transform="translate(138.836 91.657)">
        <g id="Group_62603" data-name="Group 62603">
          <path id="Path_52215" data-name="Path 52215" d="M814.541,593.572a9.107,9.107,0,0,1-.056-8.022l-.445.056c.5.408,1,.815,1.482,1.2.167.13.5.074.482-.2-.167-2.371-.278-5.558,1.649-7.318.3-.259.852-.426,1.019-.778a4.162,4.162,0,0,0,.13-1.075c.074-.537.148-1.056.222-1.593.241-1.612.537-3.205.871-4.8a76.62,76.62,0,0,1,6.855-19.065,4.622,4.622,0,0,1-.5-.074c.889,5.28.074,10.6-.76,15.841-.037.278.37.519.5.222a2.136,2.136,0,0,1,1.5-1.279,4.28,4.28,0,0,0-.352-.259,60.945,60.945,0,0,1-3.205,23.344.271.271,0,0,0,.333.334c.648-.185,1.315-.352,1.964-.537-.111-.056-.222-.13-.333-.185a5.026,5.026,0,0,1-.5,4.688c-.2.3.278.574.482.278a5.632,5.632,0,0,0,.556-5.114.259.259,0,0,0-.333-.185c-.648.185-1.315.352-1.964.537l.333.333a62.029,62.029,0,0,0,3.224-23.493.273.273,0,0,0-.352-.259,2.727,2.727,0,0,0-1.834,1.538l.5.222c.852-5.336,1.667-10.746.76-16.137a.274.274,0,0,0-.5-.074,77.412,77.412,0,0,0-7,19.676c-.371,1.76-.667,3.539-.908,5.317-.093.63-.019,1.315-.482,1.742a6.311,6.311,0,0,0-1.093,1.019c-1.519,1.964-1.482,4.817-1.315,7.17.167-.074.315-.13.482-.2-.5-.408-1-.815-1.482-1.2a.291.291,0,0,0-.445.056,9.694,9.694,0,0,0,.056,8.578c.148.3.63.018.463-.3Z" transform="translate(-813.049 -551.586)" fill="#e8e8e8"/>
        </g>
      </g>
      <circle id="Ellipse_2262" data-name="Ellipse 2262" cx="2.668" cy="2.668" r="2.668" transform="translate(16.657 45.582)" fill="#ec615b"/>
      <circle id="Ellipse_2263" data-name="Ellipse 2263" cx="1.908" cy="1.908" r="1.908" transform="translate(221.478 6.1)" fill="#ec615b"/>
      <circle id="Ellipse_2264" data-name="Ellipse 2264" cx="1.519" cy="1.519" r="1.519" transform="translate(256.494 51.881)" fill="#ec615b"/>
      <circle id="Ellipse_2265" data-name="Ellipse 2265" cx="1.093" cy="1.093" r="1.093" transform="translate(110.221 90.029)" fill="#ec615b"/>
      <circle id="Ellipse_2266" data-name="Ellipse 2266" cx="1.982" cy="1.982" r="1.982" transform="translate(23.716 55.086)" fill="#5e70ef"/>
      <circle id="Ellipse_2267" data-name="Ellipse 2267" cx="1.427" cy="1.427" r="1.427" transform="translate(75.908 8.008)" fill="#5222d0"/>
      <circle id="Ellipse_2268" data-name="Ellipse 2268" cx="2.816" cy="2.816" r="2.816" transform="translate(254.419 93.53)" fill="#5e70ef"/>
      <circle id="Ellipse_2269" data-name="Ellipse 2269" cx="2.686" cy="2.686" r="2.686" transform="translate(187.109 26.758)" fill="#5e70ef"/>
      <g id="Group_62606" data-name="Group 62606" transform="translate(167.986 0)">
        <g id="Group_62605" data-name="Group 62605">
          <path id="Path_52216" data-name="Path 52216" d="M970.849,58.549a2.1,2.1,0,0,1,1.89-.574c.8.167,1.093.741,1.63,1.26a1.839,1.839,0,0,0,1.834.519,7.883,7.883,0,0,0,2.094-1.2c1.038-.686,1.834-.963,2.816-.019,1.39,1.315,2.742.815,4.3.019.908-.463,1.964-1.13,3.039-.926,1.019.2,1.853,1.186,2.946,1.075a2,2,0,0,0,1.093-.593c.593-.574,1.019-.871,1.816-.408.778.445,1.408,1.093,2.371.945.352-.056.2-.593-.148-.537-1,.148-1.7-.963-2.631-1.186-.889-.2-1.26.389-1.871.889-1.167.926-2.334-.537-3.52-.723a4.3,4.3,0,0,0-2.52.574,8.768,8.768,0,0,1-2.816,1.186c-1.26.111-1.63-1.112-2.686-1.445-1.649-.537-2.89,1.371-4.317,1.816-1.334.408-1.8-1.26-2.909-1.649a2.7,2.7,0,0,0-2.779.611c-.278.222.111.611.37.371Z" transform="translate(-970.383 -56.878)" fill="#2d62ed"/>
        </g>
      </g>
      <g id="Group_62608" data-name="Group 62608" transform="translate(187.475 3.983)">
        <g id="Group_62607" data-name="Group 62607">
          <path id="Path_52217" data-name="Path 52217" d="M1076.117,80.324c.37-.519.963-1.26,1.63-1.371.908-.148,1.075.723,1.593,1.167a1.51,1.51,0,0,0,1.612.241c.834-.333,1.427-1.112,2.3-1.371,1.037-.315,1.945.519,2.853.871a2.149,2.149,0,0,0,2.038-.111,3.814,3.814,0,0,1,1.464-.815,2.506,2.506,0,0,1,1.352.352c1.3.648,2.594,1.945,4.169,1.427.333-.111.185-.648-.148-.537-1.8.593-3.224-1.556-4.928-1.779-.963-.13-1.427.445-2.186.871-1.149.648-2.112-.3-3.168-.7a2.478,2.478,0,0,0-2.168.13c-.815.426-1.871,1.723-2.816,1-.686-.519-.871-1.39-1.89-1.315a3.531,3.531,0,0,0-2.2,1.649c-.185.3.3.574.5.3Z" transform="translate(-1075.576 -78.374)" fill="#2d62ed"/>
        </g>
      </g>
      <g id="Group_62610" data-name="Group 62610" transform="translate(13.912 81.403)">
        <g id="Group_62609" data-name="Group 62609">
          <path id="Path_52218" data-name="Path 52218" d="M139.249,498.346a3.666,3.666,0,0,1,3.65-.834c.76.259,1.427,1.3,2.26,1.186a1.874,1.874,0,0,0,.963-.63,2.952,2.952,0,0,1,1.908-.982c1.241-.056,2.131.908,3.261,1.278a1.952,1.952,0,0,0,2.131-.519c.371-.389.667-.926,1.26-1.038a2.035,2.035,0,0,1,1.371.408c1.167.723,2.372,2.112,3.854,1.464.333-.148.037-.63-.278-.482-1.556.685-3-1.779-4.521-1.945a2.213,2.213,0,0,0-1.908,1.019c-1.241,1.371-2.446.074-3.743-.463a3.151,3.151,0,0,0-2.557,0,3.455,3.455,0,0,0-1.075.8c-.371.352-.7.648-1.278.278-.185-.111-.352-.315-.537-.445a4.168,4.168,0,0,0-5.132.519c-.278.241.111.63.371.389Z" transform="translate(-138.783 -496.242)" fill="#2d62ed"/>
        </g>
      </g>
      <g id="Group_62612" data-name="Group 62612" transform="translate(64.81 67.438)">
        <g id="Group_62611" data-name="Group 62611">
          <path id="Path_52219" data-name="Path 52219" d="M414.111,422.911c.333-2.575,4.372-.111,5.762-.2a3.022,3.022,0,0,0,1.816-.889c.815-.63,1.556-.333,2.372.111.852.463,1.871,1.241,2.909.926a1.877,1.877,0,0,0,.63-.389c.574-.445,1-.278,1.649-.093l3.168,1c.333.111.482-.426.148-.537-1.223-.389-2.427-.815-3.668-1.149a1.8,1.8,0,0,0-1.038-.074c-.408.148-.648.556-1.056.686-1.3.445-2.705-1.315-4.02-1.427a2.335,2.335,0,0,0-1.723.7c-1.315,1.056-2.631.278-4.02-.185-1.39-.445-3.316-.259-3.539,1.482a.308.308,0,0,0,.611.037Z" transform="translate(-413.5 -420.867)" fill="#2d62ed"/>
        </g>
      </g>
      <g id="Group_62614" data-name="Group 62614" transform="translate(73.738 63.81)">
        <g id="Group_62613" data-name="Group 62613">
          <path id="Path_52220" data-name="Path 52220" d="M462.211,403.811c.76-1.056,1.63-1.834,3.02-1.371a6.146,6.146,0,0,0,2.594.741c.834-.074,1.112-.686,1.742-1.112.63-.408,1.26-.056,1.927.167.648.2,1.278.389,1.927.593.352.111.482-.426.148-.537-.76-.222-1.519-.463-2.279-.686a3.722,3.722,0,0,0-1.612-.3,1.481,1.481,0,0,0-.8.482c-.2.2-.352.537-.611.685a1.818,1.818,0,0,1-1.427.037c-1-.3-1.908-1-3-.741a3.986,3.986,0,0,0-2.094,1.76c-.222.278.259.556.463.278Z" transform="translate(-461.69 -401.289)" fill="#2d62ed"/>
        </g>
      </g>
    </g>
    <g id="boy" transform="translate(80.713 60.013)">
      <g id="hand_left_1_" transform="translate(43.737 53.297)">
        <path id="Path_52231" data-name="Path 52231" d="M414.8,370.732a31.382,31.382,0,0,1,3.835,3.409c1.075,1.13,2.853,3.168,5.781,8.374,2.557,4.539,3.465,7.022,6.447,11.135a8.374,8.374,0,0,0,4.447,3.557c.222.056,2.964.76,4.15-.593a5.565,5.565,0,0,0,.76-2.612,22.014,22.014,0,0,0,.278-2.538c.13-4.335.093-8.652.352-11.95.167-2.186.778-4.595,1.964-9.412a10.568,10.568,0,0,1,3.057-5.3c1.037-.871,1.5-.7,1.612-.667.648.278.574,1.649.556,1.871-.056.815-.333,1.056-.945,2.52-.908,2.112-.815,2.761-.778,2.983a3.075,3.075,0,0,0,.963,1.7,37.523,37.523,0,0,1,7.04.834c3.576.76,4.761,1.556,5.391,2.094a8.886,8.886,0,0,1,2.39,3.113c-1.352-.111-2.724-.241-4.076-.352a18.1,18.1,0,0,1-.408,2.075,8.712,8.712,0,0,1-.778,2.3,5.142,5.142,0,0,1-1.427,1.779A5.494,5.494,0,0,1,452.8,386a7.51,7.51,0,0,1-1.353.074c-1.223.741-2.427,1.464-3.65,2.2.148,2.538.167,4.669.167,6.281-.018,5.077-.408,6.633-.834,7.819a10.282,10.282,0,0,1-2.149,3.835,9.638,9.638,0,0,1-5.262,2.89c-3.15.537-5.725-.926-7.448-1.945-7.467-4.391-11.765-13.673-13.062-16.675" transform="translate(-410.505 -363.611)" fill="#fff"/>
        <path id="Path_52232" data-name="Path 52232" d="M445,437a74.682,74.682,0,0,1,8.134,16.286,15.336,15.336,0,0,0,3.817,6.485c1.019,1,3.668,3.576,7.244,3.428,3.5-.13,6.744-2.835,8.337-6.725a13.079,13.079,0,0,1-.778,5.262,10.5,10.5,0,0,1-2.946,4.613,10.143,10.143,0,0,1-6.67,2.26c-3.891-.259-6.485-3.224-8.171-5.225C446.853,454.935,445.389,441.817,445,437Z" transform="translate(-435.11 -423.005)" fill="#aaa" opacity="0.17"/>
        <g id="Group_62632" data-name="Group 62632" transform="translate(0 4.734)">
          <g id="Group_62631" data-name="Group 62631">
            <path id="Path_52233" data-name="Path 52233" d="M391.82,387.552c6.021,1.686,9.894,7.059,12.728,12.321,1.593,2.946,2.983,6,4.687,8.875,1.427,2.409,3.131,5.076,5.54,6.633,2.2,1.427,5.428,1.556,7.1-.778.2-.3-.278-.574-.482-.278-1.982,2.779-5.744,1.371-7.726-.556a30.023,30.023,0,0,1-5.206-7.559c-2.724-5.077-4.984-10.542-9.115-14.692a16.638,16.638,0,0,0-7.355-4.484.273.273,0,1,0-.167.519Z" transform="translate(-391.62 -387.019)" fill="#161616"/>
          </g>
        </g>
        <g id="Group_62634" data-name="Group 62634" transform="translate(19.26 24.755)">
          <g id="Group_62633" data-name="Group 62633">
            <path id="Path_52234" data-name="Path 52234" d="M495.617,511.273a9.628,9.628,0,0,0,11.283,4.447c4.725-1.556,6.725-6,7.1-10.653.259-3.224.074-6.5.056-9.727a.278.278,0,0,0-.556,0c.037,3.094.185,6.207-.019,9.282-.185,2.927-.852,6-2.946,8.208a9.1,9.1,0,0,1-14.433-1.834c-.185-.3-.667-.018-.482.278Z" transform="translate(-495.575 -495.075)" fill="#161616"/>
          </g>
        </g>
        <g id="Group_62636" data-name="Group 62636" transform="translate(29.342)">
          <g id="Group_62635" data-name="Group 62635">
            <path id="Path_52235" data-name="Path 52235" d="M550.567,393.839c.8-6.17.185-12.413.963-18.583a29.414,29.414,0,0,1,2.112-8.134,19.236,19.236,0,0,1,1.89-3.353,10.294,10.294,0,0,1,.778-1c.074-.093.185-.278.3-.333a.491.491,0,0,0,.093-.111l1.167.445c.519.667-.259,2.26-.537,2.853-.8,1.686-2.075,4.3-.018,5.651.3.2.574-.278.278-.482-1.352-.889-.8-2.8-.222-4,.574-1.186,1.352-2.464,1.112-3.835-.13-.778-.852-1.816-1.76-1.39a3.609,3.609,0,0,0-1.093,1.149,19.864,19.864,0,0,0-1.149,1.63c-3.261,5.188-3.8,11.524-3.928,17.49a112.4,112.4,0,0,1-.556,11.987c-.037.371.519.371.574.019Z" transform="translate(-549.99 -361.465)" fill="#161616"/>
          </g>
        </g>
        <g id="Group_62638" data-name="Group 62638" transform="translate(36.433 9.085)">
          <g id="Group_62637" data-name="Group 62637">
            <path id="Path_52236" data-name="Path 52236" d="M588.529,411.054c4.224.426,9.078.8,12.691,3.279a6.148,6.148,0,0,1,1.167,1.019c.259.315.834,1.038.76,1.482-.074.426-.463.408-.741.371a4.3,4.3,0,0,1-1.056-.519c-.426-.222-.852-.445-1.3-.648a13.115,13.115,0,0,0-6.077-1c-.352.019-.352.574,0,.556a12.527,12.527,0,0,1,4.465.445,36.168,36.168,0,0,1,3.668,1.63c.556.222,1.445.445,1.612-.371a3.174,3.174,0,0,0-.963-2.353c-1.5-1.742-4.021-2.612-6.17-3.187a47.589,47.589,0,0,0-8.078-1.26c-.333-.019-.333.537.019.556Z" transform="translate(-588.262 -410.498)" fill="#161616"/>
          </g>
        </g>
        <g id="Group_62640" data-name="Group 62640" transform="translate(38.639 13.731)">
          <g id="Group_62639" data-name="Group 62639">
            <path id="Path_52237" data-name="Path 52237" d="M603.734,435.582c-1.353.185-3,.945-3.465,2.353-.445,1.371.7,1.945,1.871,1.908a16.731,16.731,0,0,0,5.558-1.075c.371-.148,2.631-1.389,1.519-1.908-.315-.148-.611.333-.278.482-.037-.019-.889.667-1.056.76a7.35,7.35,0,0,1-1.519.519,20.313,20.313,0,0,1-3.168.593c-.426.037-.871.093-1.315.093a1.293,1.293,0,0,1-1.167-.8c-.056-.2.185-.648.3-.834a4.033,4.033,0,0,1,2.872-1.556c.352-.056.2-.593-.148-.537Z" transform="translate(-600.172 -435.578)" fill="#161616"/>
          </g>
        </g>
        <g id="Group_62642" data-name="Group 62642" transform="translate(38.996 15.917)">
          <g id="Group_62641" data-name="Group 62641">
            <path id="Path_52238" data-name="Path 52238" d="M602.207,448.732a2.017,2.017,0,0,0,.667,2.223,4.652,4.652,0,0,0,3.409.63c2.149-.2,4.484-1.482,4.391-3.946-.018-.352-.574-.352-.556,0,.074,1.89-1.593,3-3.279,3.316-1.3.222-4.947.259-4.095-2.057.13-.352-.408-.5-.537-.167Z" transform="translate(-602.095 -447.375)" fill="#161616"/>
          </g>
        </g>
        <g id="Group_62644" data-name="Group 62644" transform="translate(39.346 17.999)">
          <g id="Group_62643" data-name="Group 62643">
            <path id="Path_52239" data-name="Path 52239" d="M604.137,459.908c-.76,2.149,1.5,3.539,3.39,3.279a5.034,5.034,0,0,0,4.15-4.224c.056-.352-.482-.5-.537-.148a4.573,4.573,0,0,1-2.649,3.52c-1.593.7-4.65.074-3.817-2.279.111-.334-.426-.482-.537-.148Z" transform="translate(-603.986 -458.614)" fill="#161616"/>
          </g>
        </g>
        <g id="Group_62646" data-name="Group 62646" transform="translate(37.046 21.86)">
          <g id="Group_62645" data-name="Group 62645">
            <path id="Path_52240" data-name="Path 52240" d="M592.1,482.351c.871-1.371,3-.982,3.817-2.483.167-.315-.315-.593-.482-.278-.778,1.408-2.927,1.075-3.817,2.483-.185.3.3.574.482.278Z" transform="translate(-591.575 -479.452)" fill="#161616"/>
          </g>
        </g>
      </g>
      <g id="leg_left_1_" transform="translate(38.045 90.982)">
        <path id="Path_52241" data-name="Path 52241" d="M513.352,854.6c-1.149,1.464-2.3,3.057-3.465,4.762-1.593,2.353-2.983,4.65-4.187,6.8a9.79,9.79,0,0,0,1.593,3.205c1.3,1.7,2.8,2.371,4.632,3.353.333.185,2.557,1.556,7.022,4.317,1.686,1.037,4.094,2.594,6.911,4.687a49.044,49.044,0,0,0-2.223-4.595,48.545,48.545,0,0,0-8.448-11.153c1.445-1.779,2.909-3.557,4.354-5.336Q516.4,857.638,513.352,854.6Z" transform="translate(-478.872 -800.92)"/>
        <path id="Path_52242" data-name="Path 52242" d="M360.9,586.906a24.068,24.068,0,0,1,9.319-5.781c10-3.316,18.805,1.408,20.547,2.372,4.335-2.409,7.763-4.447,9.986-5.762,7.911-4.743,10.987-7,16.99-9.412,4.576-1.834,7.226-2.3,9.838-2.242a15.3,15.3,0,0,1,8.523,2.26,13,13,0,0,1,5.614,7.207c.741,2.594.352,4.743-.148,7.226a33.321,33.321,0,0,1-4.057,10.412c-4.243,7.3-6.373,10.95-10.172,15.952a196.967,196.967,0,0,1-16.953,19.454,11.323,11.323,0,0,1-3.594-.167c-.926-.185-3.78-.889-9.115-6.373a56.3,56.3,0,0,1-5.28-6.281c1.667-2.112,3.353-4.224,5.021-6.336a33.493,33.493,0,0,1-6.688,1.742,35.09,35.09,0,0,1-10.616-.241C373.035,609.435,364.9,600.245,360.9,586.906Z" transform="translate(-360.9 -565.853)" fill="#fff"/>
        <path id="Path_52243" data-name="Path 52243" d="M477,681.047c2.649-1.3,5.354-2.761,8.1-4.354A130.186,130.186,0,0,0,515.722,651.7c-1.482,3.576-3.187,7.3-5.132,11.1A157.482,157.482,0,0,1,491.8,691.349a10.38,10.38,0,0,1-4-4.669,9.016,9.016,0,0,1-.556-1.853c1.482-1.76,2.983-3.539,4.465-5.3a22.336,22.336,0,0,1-10.931,2.149A23.273,23.273,0,0,1,477,681.047Z" transform="translate(-455.49 -635.612)" fill="#7a7a7a" opacity="0.15"/>
        <g id="Group_62648" data-name="Group 62648" transform="translate(28.9)">
          <g id="Group_62647" data-name="Group 62647">
            <path id="Path_52244" data-name="Path 52244" d="M517.295,583.235c3.928-2.3,7.874-4.595,11.8-6.911,3.761-2.2,7.485-4.484,11.32-6.54,6.6-3.539,14.451-6.244,21.64-2.724a11.777,11.777,0,0,1,6.355,7.115c1.2,4.113-.056,8.485-1.575,12.321a89.477,89.477,0,0,1-11.894,20.491,253.513,253.513,0,0,1-17.675,20.4c-.241.259.148.648.389.389,11.19-12.043,22.7-24.456,29.162-39.815,1.593-3.8,3.038-7.967,2.5-12.135a11.7,11.7,0,0,0-4.743-7.911c-6.021-4.428-13.8-3.465-20.269-.667a126.069,126.069,0,0,0-13.247,7.281c-4.669,2.742-9.356,5.466-14.025,8.208-.333.2-.056.685.259.5Z" transform="translate(-516.884 -564.869)" fill="#161616"/>
          </g>
        </g>
        <g id="Group_62650" data-name="Group 62650" transform="translate(31.708 16.465)">
          <g id="Group_62649" data-name="Group 62649">
            <path id="Path_52245" data-name="Path 52245" d="M560.1,653.824q-14.312,15.869-27.995,32.275c-.222.278.167.667.389.389q13.673-16.4,27.995-32.275c.241-.259-.148-.648-.389-.389Z" transform="translate(-532.042 -653.738)" fill="#161616"/>
          </g>
        </g>
        <g id="Group_62652" data-name="Group 62652" transform="translate(31.722 48.829)">
          <g id="Group_62651" data-name="Group 62651">
            <path id="Path_52246" data-name="Path 52246" d="M532.189,828.62c-.426,1.908,1.167,3.391,2.316,4.687a55.436,55.436,0,0,0,4.576,4.762c2.909,2.631,6.874,5.447,11.024,4.521.352-.074.2-.611-.148-.537-3.909.871-7.726-1.908-10.468-4.372a51.212,51.212,0,0,1-3.724-3.78c-1.167-1.315-3.465-3.168-3.039-5.114.074-.371-.445-.519-.537-.167Z" transform="translate(-532.119 -828.42)" fill="#161616"/>
          </g>
        </g>
        <g id="Group_62654" data-name="Group 62654" transform="translate(36.229 59.46)">
          <g id="Group_62653" data-name="Group 62653">
            <path id="Path_52247" data-name="Path 52247" d="M560.306,885.89c-1.26,1.538-2.52,3.094-3.8,4.632-.222.278.167.667.389.389,1.26-1.538,2.52-3.094,3.8-4.632.222-.259-.167-.667-.389-.389Z" transform="translate(-556.442 -885.797)" fill="#161616"/>
          </g>
        </g>
        <g id="Group_62656" data-name="Group 62656" transform="translate(30.688 53.516)">
          <g id="Group_62655" data-name="Group 62655">
            <path id="Path_52248" data-name="Path 52248" d="M529.918,853.843c-1.112,1.7-2.223,3.391-3.335,5.1-.2.3.278.574.482.278,1.112-1.7,2.223-3.39,3.335-5.1.185-.3-.3-.574-.482-.278Z" transform="translate(-526.534 -853.716)" fill="#161616"/>
          </g>
        </g>
        <g id="Group_62658" data-name="Group 62658" transform="translate(26.597 58.184)">
          <g id="Group_62657" data-name="Group 62657">
            <path id="Path_52249" data-name="Path 52249" d="M508.632,879.04c-1.019,1.519-2.019,3.02-3.038,4.539-.741,1.093-1.612,2.094-.834,3.391a20.23,20.23,0,0,0,5.614,5.54c4.595,3.316,9.894,5.558,14.248,9.227a.28.28,0,0,0,.463-.278c-1.945-6.559-7.448-11.042-10.876-16.767-.185-.315-.667-.018-.482.278,3.391,5.669,8.893,10.135,10.82,16.638.148-.093.315-.185.463-.278-3.891-3.279-8.541-5.447-12.784-8.226a27.655,27.655,0,0,1-5.855-4.928,6.1,6.1,0,0,1-1.39-1.982c-.222-.871.834-2,1.26-2.649.945-1.408,1.89-2.816,2.835-4.243.222-.278-.241-.556-.445-.259Z" transform="translate(-504.454 -878.913)" fill="#161616"/>
          </g>
        </g>
        <g id="Group_62660" data-name="Group 62660" transform="translate(23.433 43.678)">
          <g id="Group_62659" data-name="Group 62659">
            <path id="Path_52250" data-name="Path 52250" d="M487.639,803.394c4.076-.519,8.393-.852,12.284-2.223.333-.111.185-.649-.148-.537-3.835,1.353-8.134,1.686-12.135,2.186-.352.056-.352.611,0,.574Z" transform="translate(-487.375 -800.619)" fill="#161616"/>
          </g>
        </g>
      </g>
      <g id="torso" transform="translate(23.001 56.323)">
        <path id="Path_52251" data-name="Path 52251" d="M279.7,377.8c1.575.167,3.928.408,6.8.611,9.949.741,12.45.185,15.859,1.649,3.687,1.593,5.614,4.317,8.245,8.022,4.854,6.874,5.706,12.376,10.3,29.032,1.464,5.3,2.742,9.727,3.706,12.969-3.52-.926-16.008-3.78-27.587,3.094a31.242,31.242,0,0,0-7.819,6.6Q284.424,408.787,279.7,377.8Z" transform="translate(-279.7 -377.8)" fill="#d2d1d1"/>
      </g>
      <g id="hand_right_1_" transform="translate(0 56.075)">
        <path id="Path_52252" data-name="Path 52252" d="M180.4,378.3a6.74,6.74,0,0,0-3.409,1.982c-1.779,2.02-1.63,4.743-1.575,6.059.185,4.854-.537,9.764.241,14.563.537,3.3.537,9.949.519,23.252-.019,11.042-.537,13.08-.5,25.883.019,4.873.111,8.875.185,11.468a14.035,14.035,0,0,1-1.89-.445c-1.39-.445-1.927-.871-3.446-1.241a3.082,3.082,0,0,0-2-.093,2.829,2.829,0,0,0-1.223.945,5.051,5.051,0,0,0-2.464-.056,9.284,9.284,0,0,0-2.853,1.556c-1.223.815-2.02,1.464-2.372,1.723-1.871,1.519-2.2,2.149-2.39,2.594a3.83,3.83,0,0,0-.241,1.445c1.593-.408,3.353-.871,4.132-1.075,2.223-.574,3.187-.834,4.428-.5a3.347,3.347,0,0,1,1.908,1.167,3.12,3.12,0,0,1,.556,1.63,16.955,16.955,0,0,1-3.057,1.186c-1.019.278-1.723.389-1.871.852-.167.556.556,1.2.686,1.334a3.3,3.3,0,0,0,2.038.686,8.762,8.762,0,0,0,3.428-.593c1.686-.574,1.779-.963,2.872-1.056,1-.074,1.093.222,2.2.148a7.709,7.709,0,0,0,2.686-.8,14.807,14.807,0,0,0,2.668-1.63c1.7-1.223,2.538-1.834,3.057-2.89a4.83,4.83,0,0,0,.408-2.557c-.371-7.022,1.39-14.007,1.779-21.047.222-3.909.333-5.873.389-7.392.167-3.761.426-10.338.482-18.768.056-7.856-.074-12.747-.2-16.23-.259-6.6-.556-9.227-1.3-12.135A39.561,39.561,0,0,0,180.4,378.3Z" transform="translate(-156.717 -377.959)" fill="#fff"/>
        <path id="Path_52253" data-name="Path 52253" d="M260.084,379.1c-.259,2.816-.63,7.226-.778,12.6-.426,14.4,1,20.714,2.019,42.428.611,12.858.463,18.064-1.241,24.549a59.085,59.085,0,0,1-5.484,13.636,15.678,15.678,0,0,0,3.205-1.352c1.427-.778,3.465-1.89,4.5-3.872.778-1.464.667-2.724.63-4.669-.056-3.113.426-6.207.5-9.3.111-5.039.667-6.077,1.353-12.9.7-7.022.76-12.284.834-18.453.037-2.687-.093-7.3-.333-16.508-.222-8.949-.352-10.746-.8-13.247A46.828,46.828,0,0,0,260.084,379.1Z" transform="translate(-236.249 -378.611)" fill="#898989" opacity="0.14"/>
        <g id="Group_62662" data-name="Group 62662" transform="translate(18.299 0)">
          <g id="Group_62661" data-name="Group 62661">
            <path id="Path_52254" data-name="Path 52254" d="M259.784,376.543c-2.075-.537-3.668,1.7-4.354,3.372a20.715,20.715,0,0,0-1.075,7.3c-.185,6.262.463,12.487.723,18.731.537,12.58-.093,25.16-.3,37.74-.111,7.078-.074,14.155.371,21.232.019.352.574.352.556,0-.76-11.95-.333-23.937-.056-35.888.13-5.855.241-11.728.13-17.583-.111-5.966-.611-11.913-.834-17.86a71.323,71.323,0,0,1,.13-9.542,12.792,12.792,0,0,1,.963-4.15c.593-1.315,1.927-3.242,3.594-2.8a.288.288,0,0,0,.148-.556Z" transform="translate(-254.323 -376.462)" fill="#161616"/>
          </g>
        </g>
        <g id="Group_62664" data-name="Group 62664" transform="translate(23.552 0.207)">
          <g id="Group_62663" data-name="Group 62663">
            <path id="Path_52255" data-name="Path 52255" d="M282.716,377.992c2.835,4.41,4.057,9.542,4.595,14.711.574,5.354.574,10.8.63,16.174.13,11.876-.2,23.771-1,35.61q-.667,10.088-1.779,20.121c-.037.352.519.352.556,0,1.334-12.043,2.186-24.16,2.575-36.277q.278-9,.222-18.009c-.037-5.558-.037-11.172-.556-16.712-.5-5.577-1.7-11.153-4.78-15.915-.167-.278-.648,0-.463.3Z" transform="translate(-282.675 -377.581)" fill="#161616"/>
          </g>
        </g>
        <g id="Group_62666" data-name="Group 62666" transform="translate(6.459 88.889)">
          <g id="Group_62665" data-name="Group 62665">
            <path id="Path_52256" data-name="Path 52256" d="M198.974,856.283a18.19,18.19,0,0,1-3.557,2.112,29.821,29.821,0,0,1-3.835,1.223c-2,.574-1.149,2.742.5,3.131a7.427,7.427,0,0,0,3.316-.037c1.352-.315,2.464-1.371,3.872-1.445,1.908-.111,4.335.8,5.6-1.186.185-.3-.3-.574-.482-.278-1.112,1.76-3.613.778-5.28.908a5.308,5.308,0,0,0-2.2.815,6.866,6.866,0,0,1-3.3.834,5.242,5.242,0,0,1-1.519-.167c-.8-.241-1.834-1.334-.574-1.964a7.107,7.107,0,0,1,1.408-.352c.463-.13.926-.278,1.371-.426a18.439,18.439,0,0,0,4.965-2.686c.278-.2,0-.686-.278-.482Z" transform="translate(-190.417 -856.234)" fill="#161616"/>
          </g>
        </g>
        <g id="Group_62668" data-name="Group 62668" transform="translate(0 85.414)">
          <g id="Group_62667" data-name="Group 62667">
            <path id="Path_52257" data-name="Path 52257" d="M167.161,843.3c.037-1.853-1.686-3.038-3.391-3.187a11.808,11.808,0,0,0-3.761.574c-1.408.371-2.816.723-4.206,1.093a4.283,4.283,0,0,0,.352.259c-.241-1.853,1.612-2.668,3.076-3.113a27.641,27.641,0,0,1,4.039-.908c.352-.056.2-.593-.148-.537-2.372.352-8,1.038-7.541,4.558a.273.273,0,0,0,.352.259c1.945-.5,3.909-1.112,5.892-1.5,1.834-.352,4.817-.037,4.78,2.464a.279.279,0,0,0,.556.037Z" transform="translate(-155.555 -837.478)" fill="#161616"/>
          </g>
        </g>
        <g id="Group_62670" data-name="Group 62670" transform="translate(2.071 83.338)">
          <g id="Group_62669" data-name="Group 62669">
            <path id="Path_52258" data-name="Path 52258" d="M167.265,829.813a6.836,6.836,0,0,1,6.429-2.946c.352.037.352-.519,0-.556a7.406,7.406,0,0,0-6.911,3.224c-.2.3.278.574.482.278Z" transform="translate(-166.734 -826.269)" fill="#161616"/>
          </g>
        </g>
        <g id="Group_62672" data-name="Group 62672" transform="translate(5.704 82.313)">
          <g id="Group_62671" data-name="Group 62671">
            <path id="Path_52259" data-name="Path 52259" d="M186.816,822.51c1.8-1.982,4.576-1.13,6.744-.389.334.111.482-.426.148-.537-2.371-.815-5.354-1.612-7.3.537-.222.278.167.667.408.389Z" transform="translate(-186.343 -820.739)" fill="#161616"/>
          </g>
        </g>
        <g id="Group_62674" data-name="Group 62674" transform="translate(10.566 81.427)">
          <g id="Group_62673" data-name="Group 62673">
            <path id="Path_52260" data-name="Path 52260" d="M213.1,817.19c.556-1.186,2.7-.556,3.631-.3a11.705,11.705,0,0,1,3.465,1.649c.3.2.574-.278.278-.482a11.8,11.8,0,0,0-4.836-1.982c-1.038-.167-2.5-.333-3.038.815-.13.352.352.63.5.3Z" transform="translate(-212.582 -815.959)" fill="#161616"/>
          </g>
        </g>
        <g id="Group_62676" data-name="Group 62676" transform="translate(20.039 86.648)">
          <g id="Group_62675" data-name="Group 62675">
            <path id="Path_52261" data-name="Path 52261" d="M269.642,844.408c.185,1.649-.963,2.816-2.242,3.668-1.149.76-2.372,1.445-3.557,2.168-.3.185-.019.667.278.482,2.26-1.371,6.448-3.039,6.058-6.318-.019-.352-.574-.37-.537,0Z" transform="translate(-263.716 -844.137)" fill="#161616"/>
          </g>
        </g>
      </g>
      <g id="leg_right_1_" transform="translate(25.611 107.771)">
        <path id="Path_52262" data-name="Path 52262" d="M512.381,998.763c.111.371.3.389,1.593,1.871,1.2,1.39,1.5,1.89,3.131,3.965.685.871,1.667,2.112,2.927,3.594a11.3,11.3,0,0,0,2.353.3,11.02,11.02,0,0,0,4.484-1c.871-.371.463-.093,9.893-2.2,3.335-.741,8.356-1.89,15.4-3.576.2-.352.408-.7.611-1.038-.963-.167-2.409-.389-4.169-.556-3.594-.352-4.891-.13-8.43-.259a68.488,68.488,0,0,1-8.634-.926c-3.687-.593-5.558-.926-7.022-1.945A10.511,10.511,0,0,1,520.682,991C513.419,995.261,512.029,997.5,512.381,998.763Z" transform="translate(-471.841 -928.838)"/>
        <path id="Path_52263" data-name="Path 52263" d="M301.624,658.13a8.115,8.115,0,0,0-3.428,3.039,10.155,10.155,0,0,0-1.519,5.317,30.54,30.54,0,0,0,1.352,10.746A59.648,59.648,0,0,0,304.4,690.5c6.633,10.839,10.857,16.767,10.857,16.767,3.854,5.41,9.134,12.543,15.822,20.751a15.46,15.46,0,0,0,4.095-.482c3.65-.926,5.984-2.983,8.282-5.058a33.27,33.27,0,0,0,5.725-6.763c-1.3-2.52-3-5.762-5.077-9.486-1.093-1.964-4.372-7.819-9.171-15.452-2.724-4.335-5.206-7.985-10.153-15.285a100.777,100.777,0,0,0-8.671-11.19c-2.89-3.242-5.558-5.8-9.356-6.54A7.986,7.986,0,0,0,301.624,658.13Z" transform="translate(-296.1 -657.127)" fill="#fff"/>
        <path id="Path_52264" data-name="Path 52264" d="M301.144,660.9a32.018,32.018,0,0,0,.259,6.725,35.319,35.319,0,0,0,5.54,14.155c4.095,6.5,15.341,23.956,31.256,47.078a14.414,14.414,0,0,1-3.446,1.427,14.136,14.136,0,0,1-4.15.482c-1.371-1.7-3.335-4.206-5.688-7.263-7.633-9.949-12.728-17.36-14.933-20.6-5.743-8.5-8.059-12.617-9.894-16.471a52.188,52.188,0,0,1-3.835-13.469,12.274,12.274,0,0,1-.019-4.447A13.553,13.553,0,0,1,301.144,660.9Z" transform="translate(-295.621 -659.897)" fill="#a5a5a5" stroke="#a5a5a5" stroke-miterlimit="10" stroke-width="1" opacity="0.06"/>
        <path id="Path_52265" data-name="Path 52265" d="M380.4,1054.4" transform="translate(-364.353 -980.491)" fill="#a5a5a5" stroke="#a5a5a5" stroke-miterlimit="10" stroke-width="1"/>
        <g id="Group_62678" data-name="Group 62678">
          <g id="Group_62677" data-name="Group 62677">
            <path id="Path_52266" data-name="Path 52266" d="M329.2,726.021A262.749,262.749,0,0,1,310.039,700.9c-2.909-4.335-5.706-8.763-8.356-13.266a53.918,53.918,0,0,1-6.3-14.3c-1.2-4.873-2.075-10.95,1.723-14.952,3.872-4.076,9.764-2.094,13.414,1.186a45.059,45.059,0,0,1,4.8,5.317c1.667,2.056,3.279,4.132,4.854,6.262q4.669,6.281,8.912,12.877c6.373,9.838,12.135,20.028,17.9,30.218a.278.278,0,0,0,.482-.278c-5.428-9.6-10.857-19.194-16.8-28.5-2.927-4.595-5.984-9.115-9.208-13.506-1.556-2.131-3.15-4.224-4.8-6.281a61.365,61.365,0,0,0-5.077-5.873c-3.187-3.094-8-5.614-12.432-3.594-4.261,1.945-5.614,7-5.317,11.3a40.264,40.264,0,0,0,4.539,15.341c2.483,4.836,5.41,9.468,8.356,14.025a263.4,263.4,0,0,0,22.066,29.5c.259.315.648-.093.408-.352Z" transform="translate(-293.789 -655.484)" fill="#161616"/>
          </g>
        </g>
        <g id="Group_62680" data-name="Group 62680" transform="translate(34.718 58.323)">
          <g id="Group_62679" data-name="Group 62679">
            <path id="Path_52267" data-name="Path 52267" d="M481.439,983.122c8.226.315,13.84-6.54,18.361-12.45.222-.278-.259-.556-.482-.278-4.409,5.743-9.875,12.487-17.879,12.172-.352-.018-.352.537,0,.556Z" transform="translate(-481.175 -970.279)" fill="#161616"/>
          </g>
        </g>
        <g id="Group_62682" data-name="Group 62682" transform="translate(40.51 69.811)">
          <g id="Group_62681" data-name="Group 62681">
            <path id="Path_52268" data-name="Path 52268" d="M512.507,1032.769c1.186,1.519,2.39,3.02,3.576,4.539,1.149,1.464,2.223,3.038,3.483,4.41.963,1.056,2.038.889,3.316.611,1.927-.426,3.854-.852,5.762-1.278q11.367-2.529,22.715-5.077c.352-.074.2-.611-.148-.537q-10.644,2.362-21.269,4.743c-1.8.408-3.613.8-5.41,1.2-.815.185-1.649.408-2.464.556a2.35,2.35,0,0,1-2.483-1.038c-2.279-2.816-4.484-5.669-6.707-8.5-.2-.315-.593.092-.371.37Z" transform="translate(-512.441 -1032.284)" fill="#161616"/>
          </g>
        </g>
        <g id="Group_62684" data-name="Group 62684" transform="translate(49.244 63.04)">
          <g id="Group_62683" data-name="Group 62683">
            <path id="Path_52269" data-name="Path 52269" d="M559.582,996.08c.778,5.521,7,6.911,11.635,7.1a184.472,184.472,0,0,1,19.973,1.612c-.056-.111-.13-.222-.185-.333a1.44,1.44,0,0,1-1.538,1.186c-.352-.019-.352.537,0,.556a1.96,1.96,0,0,0,2.075-1.593.265.265,0,0,0-.185-.334,151.974,151.974,0,0,0-18.12-1.575c-4.836-.13-12.247-.593-13.1-6.744-.074-.37-.611-.222-.556.13Z" transform="translate(-559.578 -995.735)" fill="#161616"/>
          </g>
        </g>
      </g>
      <g id="head_1_" transform="translate(15.719)">
        <path id="Path_52270" data-name="Path 52270" d="M288.079,193.735a3.015,3.015,0,0,0-1.742-2,2.926,2.926,0,0,0-3.094,1.241,3.875,3.875,0,0,0-.371,3.316A5.869,5.869,0,0,0,284.615,199a3.611,3.611,0,0,0,1.315,1,3.423,3.423,0,0,0,2.26.019c.074.537.167,1.408.241,2.483a83.2,83.2,0,0,1-.185,11.172c-.037.686-.093,1.686-.185,2.909a3.189,3.189,0,0,0,.908,1.149,4.017,4.017,0,0,0,2.409.7,47.842,47.842,0,0,1,4.873.482,7.226,7.226,0,0,0,.871-1.2,7.625,7.625,0,0,0,.889-4.558,15.743,15.743,0,0,0,3.705.778,17.82,17.82,0,0,0,2.409.037,14.136,14.136,0,0,0,3.076-2.427,15.667,15.667,0,0,0,2.483-3.5,28.689,28.689,0,0,0,2.557-6.04,30.477,30.477,0,0,0,1.13-5.929,33.468,33.468,0,0,0-.2-7.226c-.371-2.8-.574-4.206-1.538-5.91a11.865,11.865,0,0,0-3.261-3.631,12.881,12.881,0,0,0-9.356-2.242C293.285,178.005,288.209,184.823,288.079,193.735Z" transform="translate(-274.831 -157.81)" fill="#fff"/>
        <path id="Path_52271" data-name="Path 52271" d="M293.218,208.656a21.281,21.281,0,0,0-1.167,3.854c-.352,1.686-.871,5.317.852,12.043a53.8,53.8,0,0,0,5.966,14.192c-.667-.222-1.315-.445-1.982-.667.408.778.8,1.723.463,2.057-.574.574-3.076-.945-4.484-2.094a15.375,15.375,0,0,1-5-7.819c-.111-1.649-.222-3.279-.352-4.928a3.769,3.769,0,0,1-1.982.111c-2.761-.63-3.483-4.558-3.52-4.78a4.884,4.884,0,0,1,.574-3.891c1.093-1.408,2.464-.648,3.8-1.871,2.02-1.853.445-5.039,2.149-6.392C289.179,207.952,290.439,207.582,293.218,208.656Z" transform="translate(-274.171 -183.107)" fill="#aaa" opacity="0.06"/>
        <path id="Path_52272" data-name="Path 52272" d="M280,447.1" transform="translate(-272.662 -377.937)" fill="#aaa"/>
        <path id="Path_52273" data-name="Path 52273" d="M253.976,118.47a13.11,13.11,0,0,1-6.021-5.039c-2.038-3.372-.241-4.576-2.446-10.1-1.445-3.631-2.538-6.392-4.465-8.93-.037-.037-.778-1.038-.63-1.167.315-.3,4.261,3.8,4.891,3.3.371-.3-.815-1.871-1.39-3.817-.648-2.186-.63-5.169,1.39-9.245a8.77,8.77,0,0,0,2.019,3.187,8.977,8.977,0,0,0,4.891,2.446,11.192,11.192,0,0,1-1.167-7,11.7,11.7,0,0,1,5.41-7.763c1.519,1.982,3.038,3.965,4.576,5.947a5.245,5.245,0,0,1,.315-4.354,5.145,5.145,0,0,1,2.557-2.131,20.661,20.661,0,0,0,3.3,6.577c2.686,3.539,4.78,3.761,8.282,7.967a19.084,19.084,0,0,1,3.724,5.743c1.7,4.521.63,9-.352,11.709a25.461,25.461,0,0,0-5.336-13.544c-1.427,1.39-2.853,2.8-4.28,4.187-1.8-.963-3.594-1.927-5.41-2.89-1.464,1.927-2.909,3.854-4.372,5.781-1.519.352-3.038.686-4.576,1.038-.148,1.853-.315,3.705-.463,5.558.167,2.724-.13,3.557-.519,3.668-.667.185-1.371-2.075-2.779-1.964-1.519.13-2.186,1.779-2.334,2.168a4,4,0,0,0,0,2.446,5.111,5.111,0,0,0,2.872,3.5,4.344,4.344,0,0,0,2.057.222C253.809,116.821,253.9,117.636,253.976,118.47Z" transform="translate(-240.394 -73.8)" fill="#2d62ed"/>
        <g id="Group_62686" data-name="Group 62686" transform="translate(13.374 42.301)">
          <g id="Group_62685" data-name="Group 62685" transform="translate(0 0)">
            <path id="Path_52274" data-name="Path 52274" d="M312.582,302.463a15.611,15.611,0,0,0,2,5.151,23.944,23.944,0,0,0,3.076,4.669c2.538,2.742,6.559,3.909,10.19,4.057.352.019.352-.537,0-.556-3.594-.148-7.578-1.315-10-4.113a23.638,23.638,0,0,1-2.779-4.335,15.134,15.134,0,0,1-1.945-5.021c-.056-.352-.593-.2-.537.148Z" transform="translate(-312.578 -302.114)" fill="#161616"/>
          </g>
        </g>
        <g id="Group_62688" data-name="Group 62688" transform="translate(28.654 24.841)">
          <g id="Group_62687" data-name="Group 62687">
            <path id="Path_52275" data-name="Path 52275" d="M402.9,208.215a30.072,30.072,0,0,1,1.13,17.008c-1.167,5.151-3.8,11.45-8.838,13.9-.315.148-.037.63.278.482,5.076-2.464,7.8-8.726,9.023-13.914a30.512,30.512,0,0,0-1.056-17.6c-.111-.352-.648-.222-.537.13Z" transform="translate(-395.052 -207.878)" fill="#161616"/>
          </g>
        </g>
        <g id="Group_62690" data-name="Group 62690" transform="translate(12.894 42.201)">
          <g id="Group_62689" data-name="Group 62689" transform="translate(0 0)">
            <path id="Path_52276" data-name="Path 52276" d="M310.231,301.839a76.136,76.136,0,0,1,.222,9.857c-.074,1.575-.2,3.168-.371,4.743-.111.945-.278,2.075.519,2.761.889.76,2.5.945,3.613,1.149a15.37,15.37,0,0,0,4,.389c.982-.074,1.2-.778,1.482-1.63a19.068,19.068,0,0,0,.834-4.428c.018-.352-.537-.352-.556,0a17.548,17.548,0,0,1-.667,3.8c-.2.686-.352,1.575-1.223,1.723a7.319,7.319,0,0,1-1.8-.093,21.286,21.286,0,0,1-3.576-.648,4.2,4.2,0,0,1-1.834-.723,2.263,2.263,0,0,1-.315-1.8,80.613,80.613,0,0,0,.2-15.1c0-.352-.556-.352-.537,0Z" transform="translate(-309.987 -301.575)" fill="#161616"/>
          </g>
        </g>
        <g id="Group_62692" data-name="Group 62692" transform="translate(7.577 33.577)">
          <g id="Group_62691" data-name="Group 62691">
            <path id="Path_52277" data-name="Path 52277" d="M287.168,263.214c-2.316,1.686-5.021-2.094-5.3-4.095a3.109,3.109,0,0,1,1.593-3.3,2.266,2.266,0,0,1,3.261,1.63c.056.352.593.2.537-.148a2.74,2.74,0,0,0-3.131-2.242,3.426,3.426,0,0,0-2.816,3.094c-.315,2.649,3.187,7.726,6.17,5.558.241-.222-.037-.7-.315-.5Z" transform="translate(-281.293 -255.031)" fill="#161616"/>
          </g>
        </g>
        <g id="Group_62694" data-name="Group 62694" transform="translate(20.13 25.931)">
          <g id="Group_62693" data-name="Group 62693">
            <path id="Path_52278" data-name="Path 52278" d="M349.609,216.974c.463-1.315,1.667-2.927,3.242-2.612,1.464.278,2.149,1.723,2.371,3.057.056.352.593.2.537-.148-.278-1.63-1.278-3.353-3.113-3.5-1.76-.13-3.057,1.556-3.594,3.057-.093.333.445.482.556.148Z" transform="translate(-349.042 -213.762)" fill="#161616"/>
          </g>
        </g>
        <g id="Group_62696" data-name="Group 62696" transform="translate(32.39 26.614)">
          <g id="Group_62695" data-name="Group 62695">
            <path id="Path_52279" data-name="Path 52279" d="M415.771,219.883a2.7,2.7,0,0,1,1.871-1.834,1.964,1.964,0,0,1,2.316,1.5c.074.352.611.2.537-.148a2.512,2.512,0,0,0-2.686-1.945,3.192,3.192,0,0,0-2.575,2.279.279.279,0,0,0,.537.148Z" transform="translate(-415.219 -217.446)" fill="#161616"/>
          </g>
        </g>
        <g id="Group_62698" data-name="Group 62698" transform="translate(27.989 30.846)">
          <g id="Group_62697" data-name="Group 62697">
            <path id="Path_52280" data-name="Path 52280" d="M394.045,240.549c.019,2.594-.074,5.206-.241,7.8-.093,1.26-.185,2.538-.333,3.8a7.743,7.743,0,0,1-.871,3.594,4.658,4.658,0,0,1,.5.074,21.372,21.372,0,0,1-1.093-3.668c-.074-.352-.611-.2-.537.148a22.6,22.6,0,0,0,1.093,3.668.28.28,0,0,0,.5.074,6.2,6.2,0,0,0,.815-2.8c.167-1.371.3-2.761.389-4.15.2-2.835.3-5.669.3-8.523a.26.26,0,1,0-.519-.019Z" transform="translate(-391.462 -240.287)" fill="#161616"/>
          </g>
        </g>
        <g id="Group_62700" data-name="Group 62700" transform="translate(21.606 44.722)">
          <g id="Group_62699" data-name="Group 62699">
            <path id="Path_52281" data-name="Path 52281" d="M357.048,315.595c.648,1.223,1.13,2.538,2.371,3.279a4.353,4.353,0,0,0,3.428.408.279.279,0,0,0-.148-.537,3.776,3.776,0,0,1-3.205-.482,7.567,7.567,0,0,1-1.964-2.927c-.167-.333-.648-.056-.482.259Z" transform="translate(-357.013 -315.184)" fill="#161616"/>
          </g>
        </g>
        <ellipse id="Ellipse_2274" data-name="Ellipse 2274" cx="0.926" cy="2.334" rx="0.926" ry="2.334" transform="translate(23.512 34.683)" fill="#161616"/>
        <ellipse id="Ellipse_2275" data-name="Ellipse 2275" cx="0.926" cy="2.334" rx="0.926" ry="2.334" transform="translate(34.073 34.683)" fill="#161616"/>
      </g>
    </g>
    <g id="girl" transform="translate(211.228 78.053)">
      <g id="leg_right" transform="translate(0 94.902)">
        <path id="Path_52282" data-name="Path 52282" d="M919.2,687.414c-5.132-.537-9.412-.945-12.45-1.241-22.363-2.094-16.8-.908-21.973-1.686a30.482,30.482,0,0,0-11.005-.222c-4.372.8-6.262,2.3-7.04,3a13.3,13.3,0,0,0-3.409,5.447,19.06,19.06,0,0,0-1.2,6.874,11.749,11.749,0,0,0,.5,4.669,10.611,10.611,0,0,0,2.909,4.113,44.152,44.152,0,0,0,8.523,6.225c11.839,6.281,8.5,4.928,12.932,6.985a196.42,196.42,0,0,0,22.418,8.838c.334-1.26.834-2.964,1.482-4.984a74.849,74.849,0,0,1,2.909-7.8,64.114,64.114,0,0,1,3.743-7.1c-2.872-1.2-5.447-2.372-5.354-2.612.13-.333,5.3,1.482,12.247,3.076,9.282,2.131,13.933,3.187,18.657,1.927,1.649-.445,10.561-3.039,12.4-10.283,1.538-6.04-2.816-11.468-3.335-12.117C946.179,683.32,933.024,682.115,919.2,687.414Z" transform="translate(-861.712 -683.763)" fill="#fff"/>
        <path id="Path_52283" data-name="Path 52283" d="M967.8,736.8a150.835,150.835,0,0,0,14.914,4.669c9.079,2.334,15.156,3,32.219,5.262,4.91.648,12.71,1.7,22.474,3.076q-.139,3.029-.278,6.058a104.286,104.286,0,0,1-12.784.056,105.461,105.461,0,0,1-26.049-4.836c1.779.871,3.576,1.742,5.355,2.612-.686,1.112-1.371,2.316-2.057,3.631a53.359,53.359,0,0,0-2.427,5.484Q983.493,749.778,967.8,736.8Z" transform="translate(-947.828 -726.905)" fill="#aaa" opacity="0.23"/>
        <path id="Path_52284" data-name="Path 52284" d="M1124.5,868.134a19.479,19.479,0,0,1,2.853.352,10.539,10.539,0,0,1,4.632,1.667c1.112.871,1.334,1.76,2.223,3.594a49.371,49.371,0,0,0,3.742,6.1c1.853,2.761,1.112,1.186,6.244,7.5.778.945,1.908,2.353,3.15,2.186a1.831,1.831,0,0,0,1.353-.945,2.645,2.645,0,0,0-.371-2.279c-1.76-3.279-1.945-7.207-3.409-10.635a94.1,94.1,0,0,1-4.28-12.562c-1.427-.611-2.613-1.019-3.428-1.278-2.687-.871-4.132-1-6.892-2-.908-.334-1.63-.648-2.094-.834C1126.983,862.02,1125.741,865.077,1124.5,868.134Z" transform="translate(-1075.495 -826.464)"/>
        <g id="Group_62702" data-name="Group 62702" transform="translate(0 0)">
          <g id="Group_62701" data-name="Group 62701">
            <path id="Path_52285" data-name="Path 52285" d="M860.556,702.161c.111-4.576.389-9.449,3.113-13.321,2.575-3.65,6.781-4.78,11.024-4.873,4.65-.093,9.356.482,13.988.815,4.891.371,9.8.741,14.692,1.149,5.632.463,11.246.964,16.879,1.482.352.037.352-.519,0-.556q-15.758-1.473-31.571-2.631c-4.817-.352-9.745-1-14.581-.8-3.965.167-7.874,1.278-10.431,4.484-3.205,4-3.539,9.319-3.668,14.229a.278.278,0,0,0,.556.019Z" transform="translate(-860 -683.391)" fill="#161616"/>
          </g>
        </g>
        <g id="Group_62704" data-name="Group 62704" transform="translate(0.091 18.911)">
          <g id="Group_62703" data-name="Group 62703">
            <path id="Path_52286" data-name="Path 52286" d="M860.512,785.8c2.26,6.373,8.745,9.894,14.266,13.08a158.287,158.287,0,0,0,20.769,10.153c2.038.8,4.076,1.556,6.151,2.26,1.056.352,2.131.7,3.205,1.019.482.148.963.3,1.445.426.278.074.537.148.815.222.111.037.222.056.315.093a.805.805,0,0,0,.741,0v.389a.257.257,0,0,0,.056-.074c.222-.278-.167-.667-.389-.389a.254.254,0,0,0-.056.074.286.286,0,0,0,0,.389c.611.556,1.075-.37.333-.76a13.686,13.686,0,0,0-2.649-.778c-1.019-.3-2.038-.63-3.039-.964q-6.031-2-11.839-4.595c-3.8-1.686-7.522-3.539-11.172-5.5-3.465-1.871-6.948-3.817-10.246-6-3.465-2.316-6.744-5.188-8.171-9.208-.13-.315-.667-.167-.537.167Z" transform="translate(-860.492 -785.463)" fill="#161616"/>
          </g>
        </g>
        <g id="Group_62706" data-name="Group 62706" transform="translate(19.697 9.62)">
          <g id="Group_62705" data-name="Group 62705">
            <path id="Path_52287" data-name="Path 52287" d="M966.457,735.83c11.691,6.17,24.419,10.208,35.851,16.9a2.958,2.958,0,0,1-.093-.389,65.8,65.8,0,0,0-7.948,19.787c-.074.352.463.5.537.148a65.023,65.023,0,0,1,7.893-19.639.3.3,0,0,0-.093-.389c-11.432-6.688-24.141-10.727-35.851-16.9-.333-.167-.63.315-.3.482Z" transform="translate(-966.311 -735.313)" fill="#161616"/>
          </g>
        </g>
        <g id="Group_62708" data-name="Group 62708" transform="translate(50.998 23.998)">
          <g id="Group_62707" data-name="Group 62707">
            <path id="Path_52288" data-name="Path 52288" d="M1135.45,813.471a103.423,103.423,0,0,0,38.129,4.687c.352-.018.352-.574,0-.556a102.289,102.289,0,0,1-37.981-4.669c-.352-.111-.482.426-.148.537Z" transform="translate(-1135.257 -812.919)" fill="#161616"/>
          </g>
        </g>
        <g id="Group_62710" data-name="Group 62710" transform="translate(52.602 32.507)">
          <g id="Group_62709" data-name="Group 62709">
            <path id="Path_52289" data-name="Path 52289" d="M1144.115,859.39q4.7,1.362,9.412,2.724c.63.185,1.3.333,1.927.574,1,.37,1.241,1.149,1.538,2.075.5,1.519.982,3.057,1.464,4.576q3,9.338,5.984,18.676c.111.333.649.185.537-.148q-3.224-10.06-6.447-20.1a31.857,31.857,0,0,0-1.427-4.317c-.537-1.112-1.649-1.352-2.742-1.668q-5.058-1.473-10.1-2.927a.279.279,0,0,0-.148.537Z" transform="translate(-1143.913 -858.842)" fill="#161616"/>
          </g>
        </g>
        <g id="Group_62712" data-name="Group 62712" transform="translate(48.743 41.391)">
          <g id="Group_62711" data-name="Group 62711">
            <path id="Path_52290" data-name="Path 52290" d="M1123.349,907.354a20.537,20.537,0,0,1,5.466,1.056,4.844,4.844,0,0,1,2.242,1.315,11.689,11.689,0,0,1,1.334,2.334,58.439,58.439,0,0,0,5.151,8.245,57.021,57.021,0,0,0,6.244,7.115c.76.723,1.816,1.63,2.946,1.241a1.489,1.489,0,0,0,.964-2.038c-.148-.315-.63-.037-.482.278.482,1.019-.908,1.39-1.5,1.2a3.209,3.209,0,0,1-1.093-.685,20.088,20.088,0,0,1-1.556-1.519c-.963-.982-1.89-2.02-2.779-3.076a59.83,59.83,0,0,1-5.114-7.041c-.76-1.223-1.464-2.464-2.131-3.742a9.616,9.616,0,0,0-2-3.15,8.608,8.608,0,0,0-3.335-1.408,21.568,21.568,0,0,0-4.336-.685.278.278,0,0,0-.018.556Z" transform="translate(-1123.087 -906.797)" fill="#161616"/>
          </g>
        </g>
      </g>
      <g id="leg_left" transform="translate(54.626 96.349)">
        <path id="Path_52291" data-name="Path 52291" d="M1166.747,907.167c-.537.5-1.352,1.278-2.3,2.242-2.038,2.075-3.205,3.483-5.484,6.225-2.3,2.779-2.686,3.428-2.668,4.354.056,1.334.964,2.242,2.131,3.465,2,2.131,3.631,4.613,5.706,6.688,2.89,2.909,5.762,5.818,9.06,9.153-.537-2.853-1.223-5.892-2.112-9.1a111.8,111.8,0,0,0-3.576-10.727,15.582,15.582,0,0,1,2.149-2.835,34.57,34.57,0,0,1,3.539-2.983c.964-.76,1.76-1.371,2.353-1.834a3.593,3.593,0,0,0,.259-2.946C1174.936,906.87,1171.249,905.833,1166.747,907.167Z" transform="translate(-1156.026 -866.667)"/>
        <path id="Path_52292" data-name="Path 52292" d="M1176.3,731.749c.723-1.3,1.76-3.075,3.094-5.132a86.776,86.776,0,0,1,8.745-11.061,142.627,142.627,0,0,1,12.172-12.247c11.024-9.708,15.229-10.134,16.767-10.209a13.78,13.78,0,0,1,7.874,1.89c1.112.667,3.946,2.39,4.8,5.614.408,1.538.278,3.131-.556,5.632a30.3,30.3,0,0,1-6.17,10.394c-7.781,8.745,13.043-13.451-12.414,14.933-4.873,5.429-9.023,10.042-12.209,13.562a39.941,39.941,0,0,0-4.02-4.724,27.982,27.982,0,0,0-9.931-7.1A24.142,24.142,0,0,0,1176.3,731.749Z" transform="translate(-1172.324 -692.731)" fill="#fff"/>
        <path id="Path_52293" data-name="Path 52293" d="M1296.3,705.3a30.04,30.04,0,0,1-1.167,6.466,32.931,32.931,0,0,1-5.984,11.135c-4.391,5.688-13.321,14.952-25.846,25.568a20.745,20.745,0,0,1,3,3,21.191,21.191,0,0,1,2.65,4.113c1.223-1.39,3.464-3.928,6.262-7.077,6.392-7.17,12.247-14.8,18.676-21.918a35.877,35.877,0,0,0,6-9.894,9.306,9.306,0,0,0,.926-5.058C1300.318,708.116,1297.335,705.985,1296.3,705.3Z" transform="translate(-1243.205 -702.688)" fill="#aaa" opacity="0.14"/>
        <g id="Group_62714" data-name="Group 62714" transform="translate(3.631 0)">
          <g id="Group_62713" data-name="Group 62713">
            <path id="Path_52294" data-name="Path 52294" d="M1174.946,729.889a138.525,138.525,0,0,1,14.933-19.046q4.113-4.363,8.578-8.374a76.976,76.976,0,0,1,9.43-7.559c3.465-2.242,7.671-3.817,11.821-2.835a12.465,12.465,0,0,1,5.336,3.057c1.593,1.39,2.946,3,3.113,5.188.315,4.057-2.464,8-4.558,11.246a108.3,108.3,0,0,1-7.541,10.1c-6.207,7.448-12.876,14.544-19.361,21.733-.241.259.148.667.389.389,6.188-6.874,12.525-13.655,18.509-20.714a120.344,120.344,0,0,0,7.855-10.264c2.186-3.261,4.817-6.985,5.243-11.005.426-3.965-2.39-6.818-5.484-8.856-3.354-2.186-7.541-2.149-11.209-.8-3.854,1.427-7.115,4.113-10.246,6.707-3.242,2.7-6.336,5.54-9.319,8.523a139.51,139.51,0,0,0-17.953,22.177c-.2.352.278.63.463.333Z" transform="translate(-1174.434 -691.204)" fill="#161616"/>
          </g>
        </g>
        <g id="Group_62716" data-name="Group 62716" transform="translate(3.715 38.74)">
          <g id="Group_62715" data-name="Group 62715">
            <path id="Path_52295" data-name="Path 52295" d="M1175.149,900.856a24.712,24.712,0,0,1,21.547,13.729c.148.315.63.037.482-.278a25.257,25.257,0,0,0-22.01-14.007.278.278,0,0,0-.019.556Z" transform="translate(-1174.887 -900.3)" fill="#161616"/>
          </g>
        </g>
        <g id="Group_62718" data-name="Group 62718" transform="translate(0 40.232)">
          <g id="Group_62717" data-name="Group 62717">
            <path id="Path_52296" data-name="Path 52296" d="M1165.373,908.436a81.494,81.494,0,0,0-5.929,6.207c-.852,1-1.686,2.02-2.483,3.076-.76.982-1.871,2.112-2.093,3.372a3.313,3.313,0,0,0,.945,2.52c.908,1.186,1.871,2.335,2.835,3.483,1.89,2.26,3.854,4.484,5.855,6.651q3.418,3.7,7.059,7.207c.259.241.649-.148.389-.389a175.512,175.512,0,0,1-14.025-15.192c-1.075-1.316-3.205-3.094-2.242-4.928a26.9,26.9,0,0,1,3.168-4.206,78.6,78.6,0,0,1,6.892-7.374c.278-.278-.111-.686-.37-.426Z" transform="translate(-1154.838 -908.353)" fill="#161616"/>
          </g>
        </g>
        <g id="Group_62720" data-name="Group 62720" transform="translate(11.128 44.872)">
          <g id="Group_62719" data-name="Group 62719">
            <path id="Path_52297" data-name="Path 52297" d="M1223.145,933.455c-2.223,1.686-4.391,3.465-6.466,5.317-.7.63-1.76,1.3-1.779,2.353a5.118,5.118,0,0,0,.426,1.556c.222.667.463,1.334.686,2a107.245,107.245,0,0,1,4.65,16.564c.056.352.593.2.537-.148a98.481,98.481,0,0,0-4.095-14.9c-.408-1.223-.834-2.446-1.26-3.668-.259-.741-.593-1.427-.093-2.168a8.024,8.024,0,0,1,1.427-1.315c2-1.779,4.094-3.483,6.225-5.114.3-.2.019-.7-.259-.482Z" transform="translate(-1214.9 -933.399)" fill="#161616"/>
          </g>
        </g>
      </g>
      <g id="hand_right" transform="translate(14.681 48.254)">
        <path id="Path_52298" data-name="Path 52298" d="M985.516,433.7a13.879,13.879,0,0,0-2.909,2.038,16.022,16.022,0,0,0-4.15,6.948c-3.965,10.764-3.483,8.541-4.261,11.246-1.76,6.151-1.908,9.523-4.3,10.394a6.428,6.428,0,0,1-2.89.111,11.909,11.909,0,0,1-5.169-1.853,15.518,15.518,0,0,1-5.54-6.17c-1.538-3.094-.685-4-2.612-7.615-1.464-2.724-2.649-3.52-3.187-3.835a7.443,7.443,0,0,0-4.947-.8c-.8.111-1.816.259-2.112.963a1.919,1.919,0,0,0,.278,1.575c.963,1.575,3.353,1.482,3.613,1.464-.185-.037-3.316-.537-4.743,1.278a5.958,5.958,0,0,0-.982,2.631,9.123,9.123,0,0,0-.074,1.816,11.1,11.1,0,0,0,.426,2.2,7.116,7.116,0,0,0,1.167,2.964,2.333,2.333,0,0,0,1.927.982,2.042,2.042,0,0,0,1.315-.871c.871.278,1.668.556,2.334.8a5.353,5.353,0,0,1,2.057.963,3.682,3.682,0,0,1,.963,2.168c.278,1.278,1.038,2.427,2.538,4.743a17.074,17.074,0,0,0,4.873,5.225,15.92,15.92,0,0,0,6.17,2.446,16.831,16.831,0,0,0,8.152-.685,20.766,20.766,0,0,0,5.3-2.649,24.3,24.3,0,0,0,4.41-4.058c2.612-3.205,2.724-5.91,4.761-14.748,2.2-9.56,3.353-11.82,1.853-15.044A11.518,11.518,0,0,0,985.516,433.7Z" transform="translate(-941.094 -433.314)" fill="#fff"/>
        <path id="Path_52299" data-name="Path 52299" d="M949.2,484.368a8.151,8.151,0,0,0,4.039.167,8.358,8.358,0,0,0,4.613-2.872,24.086,24.086,0,0,0,1.241,4.687c.964,2.612,2.742,7.392,7.392,10.227a13.021,13.021,0,0,0,8.764,2.094c4.447-.7,7.115-4.058,10.227-8.022a45.431,45.431,0,0,0,6.17-11.1,51.592,51.592,0,0,0,4.095-12.506c.074-.5.13-.945.222-.945.389,0,1.853,9.134-.611,18.75A21.546,21.546,0,0,1,992.517,492a21.8,21.8,0,0,1-8,6.966c-2.575,1.464-4.984,2.835-8.523,3.094a17.143,17.143,0,0,1-10.227-2.668,20.036,20.036,0,0,1-6.41-6.651,24.466,24.466,0,0,1-2.835-6.04,6.347,6.347,0,0,0-3.8-.723c-1.038.148-1.779.574-2.483.185A2.244,2.244,0,0,1,949.2,484.368Z" transform="translate(-947.354 -459.711)" fill="#aaa" opacity="0.29"/>
        <g id="Group_62722" data-name="Group 62722" transform="translate(28.139)">
          <g id="Group_62721" data-name="Group 62721">
            <path id="Path_52300" data-name="Path 52300" d="M1109.1,431.669c-2.724-.426-4.706,1.816-6.077,3.872a47.349,47.349,0,0,0-4.317,8.541c-1.223,3.076-2.26,6.207-3.316,9.338-.519,1.519-1.037,3.02-1.612,4.521-.574,1.538-1.093,3.8-2.538,4.743-.3.185-.018.667.278.482a5.777,5.777,0,0,0,1.982-3c.611-1.482,1.167-2.983,1.686-4.484,1.037-2.927,1.982-5.873,3.038-8.782a58.811,58.811,0,0,1,3.817-8.634c1.353-2.446,3.557-6.6,6.929-6.058.333.037.482-.482.13-.537Z" transform="translate(-1091.116 -431.616)" fill="#161616"/>
          </g>
        </g>
        <g id="Group_62724" data-name="Group 62724" transform="translate(1.831 10.418)">
          <g id="Group_62723" data-name="Group 62723">
            <path id="Path_52301" data-name="Path 52301" d="M953.972,492.138a8.956,8.956,0,0,1-2.835-.852,3.252,3.252,0,0,1-1.112-.741c-.556-.611-.148-1.3.519-1.593a6.544,6.544,0,0,1,4.521-.241,6.879,6.879,0,0,1,3.594,2.427c1.112,1.5,1.39,3.428,1.871,5.188a18,18,0,0,0,7.244,10.524A14.862,14.862,0,0,0,975.686,509a.278.278,0,0,0,0-.556,14.152,14.152,0,0,1-8.819-2.927,17.529,17.529,0,0,1-5.076-7.151c-1-2.483-1.075-5.429-2.724-7.615a7.571,7.571,0,0,0-7.559-2.724c-1.093.259-2.946.982-2.223,2.427.741,1.482,3.242,2.019,4.687,2.2.352.074.352-.482,0-.519Z" transform="translate(-949.121 -487.849)" fill="#161616"/>
          </g>
        </g>
        <g id="Group_62726" data-name="Group 62726" transform="translate(0 14.595)">
          <g id="Group_62725" data-name="Group 62725">
            <path id="Path_52302" data-name="Path 52302" d="M945.474,510.392c-1.871.2-7.226.963-6.077,4.058,1.186,3.205,5.391,2.186,7.689,1.2.333-.148.037-.611-.278-.482-2.019.871-5.466,1.853-6.781-.685-1.371-2.631,3.965-3.353,5.466-3.52.334-.056.352-.611-.018-.574Z" transform="translate(-939.237 -510.39)" fill="#161616"/>
          </g>
        </g>
        <g id="Group_62728" data-name="Group 62728" transform="translate(2.621 17.225)">
          <g id="Group_62727" data-name="Group 62727">
            <path id="Path_52303" data-name="Path 52303" d="M953.722,525.628c1.39-.445,4.391-1.093,4.409,1.278a.278.278,0,0,0,.556,0,2.252,2.252,0,0,0-1.5-2.094,5.3,5.3,0,0,0-3.613.278c-.333.111-.185.648.148.537Z" transform="translate(-953.385 -524.589)" fill="#161616"/>
          </g>
        </g>
        <g id="Group_62730" data-name="Group 62730" transform="translate(0.048 18.53)">
          <g id="Group_62729" data-name="Group 62729">
            <path id="Path_52304" data-name="Path 52304" d="M939.7,531.809a3.266,3.266,0,0,0,2.686,4.28c1.871.3,4.243-.723,4.539-2.779.056-.352-.482-.5-.537-.148-.519,3.835-7.67,2.742-6.151-1.2.13-.333-.408-.463-.537-.148Z" transform="translate(-939.498 -531.629)" fill="#161616"/>
          </g>
        </g>
        <g id="Group_62732" data-name="Group 62732" transform="translate(0.616 21.537)">
          <g id="Group_62731" data-name="Group 62731">
            <path id="Path_52305" data-name="Path 52305" d="M942.773,548.036a2.72,2.72,0,0,0,2.149,3.742,3.1,3.1,0,0,0,3.409-3.353c-.019-.352-.574-.352-.556,0a2.585,2.585,0,0,1-2.594,2.835,2.164,2.164,0,0,1-1.871-3.057c.13-.334-.408-.482-.537-.167Z" transform="translate(-942.562 -547.863)" fill="#161616"/>
          </g>
        </g>
        <g id="Group_62734" data-name="Group 62734" transform="translate(1.553 23.948)">
          <g id="Group_62733" data-name="Group 62733">
            <path id="Path_52306" data-name="Path 52306" d="M947.635,561.584a2.229,2.229,0,0,0,2.427,2.39,2.723,2.723,0,0,0,2.2-2.835.278.278,0,0,0-.556,0,2.243,2.243,0,0,1-1.519,2.242,1.657,1.657,0,0,1-2-1.8c.037-.352-.519-.352-.556,0Z" transform="translate(-947.62 -560.875)" fill="#161616"/>
          </g>
        </g>
        <g id="Group_62736" data-name="Group 62736" transform="translate(5.035 21.528)">
          <g id="Group_62735" data-name="Group 62735">
            <path id="Path_52307" data-name="Path 52307" d="M966.615,552.832a26.211,26.211,0,0,1,3.372.593c1.056.352,1.352,1.8,1.779,2.723a38.086,38.086,0,0,0,2.631,4.928,17.074,17.074,0,0,0,8.115,6.911c7.392,2.8,16.211-.463,21.029-6.5a18.752,18.752,0,0,0,3-5.91c.815-2.446,1.538-4.928,2.242-7.411a.279.279,0,0,0-.537-.148c-.611,2.112-1.223,4.224-1.89,6.318a22.744,22.744,0,0,1-2.52,5.8,19.682,19.682,0,0,1-9.579,7.226,16.763,16.763,0,0,1-11.6.093,17.023,17.023,0,0,1-8.319-7.522,45.658,45.658,0,0,1-2.686-5.391,2.529,2.529,0,0,0-1.241-1.575,19.82,19.82,0,0,0-3.65-.667c-.352-.056-.5.482-.148.537Z" transform="translate(-966.414 -547.814)" fill="#161616"/>
          </g>
        </g>
      </g>
      <g id="torso_x5C_" transform="translate(53.03 40.407)">
        <path id="Path_52308" data-name="Path 52308" d="M1164.507,390.1a24.456,24.456,0,0,0-10.32,6.3,26.872,26.872,0,0,0-5.169,7.263,29.864,29.864,0,0,0-2.76,14.525c.111,4.02.834,5.966,1.853,10.69a128.6,128.6,0,0,1,2.575,18.527,26.261,26.261,0,0,0,11.8,5.929c2.316.482,9.486,1.964,16.415-2.3a21.2,21.2,0,0,0,6.448-6.3c1.223-13.154,2.242-24.215,3.316-35.536.426-4.428.8-8.43-1.482-12.228C1183.016,390.028,1172.344,387.879,1164.507,390.1Z" transform="translate(-1146.226 -389.261)" fill="#d2d1d1"/>
      </g>
      <g id="hand_left" transform="translate(86.173 47.262)">
        <path id="Path_52309" data-name="Path 52309" d="M1331.192,430.383c-.741.222-1.482.945-2.427,4.372a36.988,36.988,0,0,0-1.315,8.819c-.074,5.484.093,9.745.2,11.95.408,8.634.8,10.876,1.519,13.21.389,1.3,1.408,3.613,2.149,5.336.964,2.242,1.8,4.076,2.409,5.336a12.493,12.493,0,0,1-1.871,1.816c-1.556,1.223-2.575,1.39-3.761,2.779-.333.389-1.13,1.315-.852,1.816.259.445,1.278.315,1.575.278,1.2-.148,1.612-.76,2.853-1.186a6.574,6.574,0,0,1,2.186-.352,30.147,30.147,0,0,1-1.427,3.353c-.871,1.742-1.834,2.668-3.594,5.466-1,1.612-1.334,2.3-1.075,2.631.389.482,1.853-.111,1.945-.167a5.722,5.722,0,0,0,2.446-2.149,26.487,26.487,0,0,1,3.706-3.983,43.081,43.081,0,0,1-1.742,3.946c-.611,1.223-1.39,2.668-2.334,4.8-.963,2.168-1.093,2.779-.852,2.964.3.241,1.093-.222,1.741-.685a1.679,1.679,0,0,0,.982.963c.667.13,1.315-.537,1.834-1.093,2.057-2.2,3.076-3.316,4.317-4.8.556-.667,1.371-1.612,2.446-2.686a26.472,26.472,0,0,1,.074,2.761c-.037,1.871-.593,2.89-.222,3.113.352.222,1.241-.426,1.779-1.167a4.566,4.566,0,0,0,.7-2.779c.056-2.668-.2-4.243-.315-6.559-.074-1.7-.037-3-.037-3.3.093-3.316.537-3.8.315-5.929a8.546,8.546,0,0,0-1.186-3.872,8.084,8.084,0,0,0-1.519-1.76,4.157,4.157,0,0,0,.019-1.612,7.278,7.278,0,0,0-1.538-2.724,15.851,15.851,0,0,1-1.408-2.575c.148-.834.315-2.094.426-3.631a41.488,41.488,0,0,0-.167-7.467c-.463-4.817-1.056-9.634-1.482-14.47-.352-4-.426-6.021-2.02-8.134C1335.509,432.847,1333.175,429.808,1331.192,430.383Z" transform="translate(-1326.804 -429.561)" fill="#fff"/>
        <path id="Path_52310" data-name="Path 52310" d="M1369.3,440.9q.639,5.058,1.112,10.375c.723,8.263,1.037,16.156,1.056,23.567a15.538,15.538,0,0,1,2.483,3.353,12.544,12.544,0,0,1,1.482,3.761c.074.389.093.556.167,1.2.278,2.168.611,3.687.741,4.41a64.13,64.13,0,0,1,.852,10.172,64.791,64.791,0,0,1-.7,9.968,4.7,4.7,0,0,0,2.112-1.982c.556-1.093.426-2.112.278-3.668,0,0-.278-2.964-.333-5.762-.074-3,.352-3.335.3-6.04-.074-2.853-.185-4.057-.686-5.28a9.107,9.107,0,0,0-1.612-2.538,10.4,10.4,0,0,0-.7-3.038,10.983,10.983,0,0,0-2.334-3.594c.074-1.13.167-2.8.222-4.836a86.163,86.163,0,0,0-1.39-19.083A79.444,79.444,0,0,0,1369.3,440.9Z" transform="translate(-1361.113 -438.188)" fill="#aaa" opacity="0.22"/>
        <g id="Group_62738" data-name="Group 62738" transform="translate(4.743)">
          <g id="Group_62737" data-name="Group 62737">
            <path id="Path_52311" data-name="Path 52311" d="M1350.915,426.825c3.205.8,4.391,4.113,4.984,7.022.649,3.224,1.112,6.5,1.482,9.783a137.775,137.775,0,0,1,.815,19.732c-.019.352.537.352.556,0a139.332,139.332,0,0,0-1.037-21.529,63.262,63.262,0,0,0-1.742-10.042c-.741-2.464-2.26-4.854-4.91-5.521a.288.288,0,0,0-.148.556Z" transform="translate(-1350.714 -426.262)" fill="#161616"/>
          </g>
        </g>
        <g id="Group_62740" data-name="Group 62740" transform="translate(10.092 36.38)">
          <g id="Group_62739" data-name="Group 62739">
            <path id="Path_52312" data-name="Path 52312" d="M1379.773,623.171c3.039.926,4.224,4.058,4.78,6.911.074.352.611.2.537-.148-.593-3.057-1.927-6.318-5.169-7.3-.333-.111-.482.426-.148.537Z" transform="translate(-1379.586 -622.619)" fill="#161616"/>
          </g>
        </g>
        <g id="Group_62742" data-name="Group 62742" transform="translate(12.24 43.028)">
          <g id="Group_62741" data-name="Group 62741">
            <path id="Path_52313" data-name="Path 52313" d="M1391.439,659.093c2.242.074,3.835,1.927,4.539,3.909.834,2.353.389,4.947.185,7.374a41.056,41.056,0,0,0,.26,7.078,19.021,19.021,0,0,1,.037,3.557c-.092.963-.593,4.132-2.131,3.668a3.127,3.127,0,0,0,.2.259,31.32,31.32,0,0,0,.148-5.892c-.019-.352-.574-.352-.556,0a29.834,29.834,0,0,1-.148,5.892.245.245,0,0,0,.2.259c2.372.723,2.853-3.724,2.89-5.151.093-3.131-.611-6.188-.389-9.338.222-2.835.778-5.855-.445-8.56a5.651,5.651,0,0,0-4.8-3.65c-.352.037-.352.593,0,.593Z" transform="translate(-1391.175 -658.5)" fill="#161616"/>
          </g>
        </g>
        <g id="Group_62744" data-name="Group 62744" transform="translate(0 43.037)">
          <g id="Group_62743" data-name="Group 62743">
            <path id="Path_52314" data-name="Path 52314" d="M1337.32,658.617a24.728,24.728,0,0,0-4.373,5.039,22.688,22.688,0,0,1-2.26,2.705,24.787,24.787,0,0,1-3.242,2.5c-.778.556-3.483,2.371-1.779,3.483.815.537,2.075-.2,2.853-.482,1.316-.482,2.65-.945,3.965-1.427.333-.111.185-.648-.148-.537-1.037.371-2.093.76-3.131,1.13-.5.185-.982.352-1.482.537-.259.093-.519.2-.8.278a2.409,2.409,0,0,1-.611.13l-.556-.611c-.222-.834,1.983-2.019,2.52-2.39a25.763,25.763,0,0,0,2.26-1.7c2.779-2.427,4.261-5.984,7.188-8.245.278-.222-.13-.63-.408-.408Z" transform="translate(-1325.113 -658.553)" fill="#161616"/>
          </g>
        </g>
        <g id="Group_62746" data-name="Group 62746" transform="translate(0.627 54.738)">
          <g id="Group_62745" data-name="Group 62745">
            <path id="Path_52315" data-name="Path 52315" d="M1334.649,721.91a18.969,18.969,0,0,1-3.075,5.873c-.63.908-1.278,1.834-1.853,2.779a6.355,6.355,0,0,0-1.223,2.575c-.037,1.742,2.612.3,3.168-.167a53.191,53.191,0,0,0,5.54-5.651c.241-.259-.148-.667-.389-.389-1.408,1.575-2.872,3.112-4.391,4.576a6,6,0,0,1-2.52,1.834c-.5.13-.852-.037-.759-.519a3.776,3.776,0,0,1,.333-.741c.2-.389.408-.76.63-1.13,1.76-2.946,4.15-5.54,5.058-8.912.111-.333-.426-.482-.519-.13Z" transform="translate(-1328.498 -721.707)" fill="#161616"/>
          </g>
        </g>
        <g id="Group_62748" data-name="Group 62748" transform="translate(3.794 59.904)">
          <g id="Group_62747" data-name="Group 62747">
            <path id="Path_52316" data-name="Path 52316" d="M1350.614,749.741c-1.149,2.52-2.3,5.058-3.446,7.578a31.2,31.2,0,0,0-1.445,3.224c-.167.5-.259,1.186.259,1.519.63.408,1.241-.185,1.631-.648.852-.982,1.667-2,2.464-3.02,1.538-1.982,3-4.039,4.373-6.151.2-.3-.278-.574-.482-.278-1.056,1.612-2.149,3.187-3.3,4.743-.63.834-1.279,1.667-1.927,2.483-.315.389-.648.8-.963,1.186-.148.167-.3.352-.445.519-.3.333-.3.463-.8.408-.482-.074-.426-.093-.3-.5a5.009,5.009,0,0,1,.315-.723c.222-.5.445-.982.667-1.482.426-.926.852-1.871,1.278-2.8.871-1.927,1.742-3.854,2.612-5.762.13-.352-.352-.63-.5-.3Z" transform="translate(-1345.591 -749.591)" fill="#161616"/>
          </g>
        </g>
        <g id="Group_62750" data-name="Group 62750" transform="translate(5.621 63.466)">
          <g id="Group_62749" data-name="Group 62749">
            <path id="Path_52317" data-name="Path 52317" d="M1355.588,777.521c1.816,1.13,3.576-1.278,4.632-2.427a53.618,53.618,0,0,0,4.762-5.873c.2-.3-.278-.574-.482-.278a52.2,52.2,0,0,1-3.78,4.78q-.945,1.056-1.945,2.057c-.741.741-1.779,1.964-2.927,1.26-.3-.185-.574.3-.259.482Z" transform="translate(-1355.449 -768.816)" fill="#161616"/>
          </g>
        </g>
        <g id="Group_62752" data-name="Group 62752" transform="translate(0.238 0.07)">
          <g id="Group_62751" data-name="Group 62751">
            <path id="Path_52318" data-name="Path 52318" d="M1330.939,426.708c-2.2,1.742-3.076,4.484-3.594,7.152a59.265,59.265,0,0,0-.945,10.857c0,3.724.259,7.429.611,11.135a74.57,74.57,0,0,0,1.352,10.542c.89,3.631,3.5,6.5,4.428,10.116a.279.279,0,0,0,.537-.148c-.76-2.983-2.687-5.41-3.817-8.226-1.278-3.205-1.371-6.929-1.742-10.338-.76-7.115-1.26-14.322-.278-21.436.445-3.3,1.056-7.077,3.817-9.264.3-.222-.093-.611-.371-.389Z" transform="translate(-1326.4 -426.642)" fill="#161616"/>
          </g>
        </g>
      </g>
      <g id="head" transform="translate(51.82)">
        <path id="Path_52319" data-name="Path 52319" d="M1169.277,190.967c-4.057,3.409-5.28,7.763-5.984,10.264-1.908,6.781-.352,12.358,1.019,17.268,1.63,5.818,2.538,9.1,5.651,10.6,4.669,2.26,10.357-1.39,11.154-1.927a4.079,4.079,0,0,0,2.353.723c.574-.019,3.02-.259,6.67-7.689,2.334-4.762,3.761-7.652,4.095-12.135.185-2.371.686-8.986-3.594-14.878a14.388,14.388,0,0,0-7.189-5.818C1176.484,185.094,1170.11,190.282,1169.277,190.967Z" transform="translate(-1158.196 -183.902)" fill="#fff"/>
        <path id="Path_52320" data-name="Path 52320" d="M1257.153,210.453a31.68,31.68,0,0,1,2.779,9.727,34.186,34.186,0,0,1-.685,11.246,34.644,34.644,0,0,1-3.946,9.912l2.557.5c.056.574.389,3.928,2.279,4.632,2.149.8,4.891-2.39,6.336-4.076a20.2,20.2,0,0,0,5-10.412c1.13-7.578-2.612-13.21-4.447-15.971-1.538-2.3-4.113-6.17-7.633-6.114A5.282,5.282,0,0,0,1257.153,210.453Z" transform="translate(-1233.881 -202.721)" fill="#aaa" opacity="0.17"/>
        <path id="Path_52321" data-name="Path 52321" d="M1253.3,183.4a22.731,22.731,0,0,0,7.763,13.451,2.993,2.993,0,0,1,3.076-.426c1.445.7,1.5,2.538,1.519,2.964a4.226,4.226,0,0,1-.722,2.427c-1.408,2.019-4.15,1.834-4.317,1.834a21,21,0,0,0-3.279,9.894c-.167,2.742-.426,6.911,2.186,9.931,3.928,4.539,12.914,4.836,16.823.63,4.3-4.65.982-13.229-.408-16.823-2.112-5.447-4-5.262-4.984-9.968-1.223-5.873,1.241-8.467-1.037-12.45a10.732,10.732,0,0,0-6.429-4.78C1257.932,178.822,1253.6,183.1,1253.3,183.4Z" transform="translate(-1232.251 -178.242)" fill="#2d62ed"/>
        <path id="Path_52322" data-name="Path 52322" d="M1165.928,175.509a37.435,37.435,0,0,0-18.379,7.355,34.988,34.988,0,0,0-1.779,10.283,23.176,23.176,0,0,0,1.093,8.856,16.788,16.788,0,0,0,5.558,8.189,15.255,15.255,0,0,0,2.557,1.575c1.167-.222,2.372-.5,3.613-.815.667-.167,1.334-.352,1.964-.537.519.445,2.742,2.372,2.5,4.724-.278,2.705-3.594,4.095-5.818,5-1.7.7-8.448,3.52-12.951.167-2.575-1.908-3.094-4.854-3.891-9.356-1.538-8.6-.167-8.949.407-18.472.537-8.726.278-10.283,1.871-12.877,2.668-4.372,7.281-5.966,9.764-6.855,6.133-2.186,13.84-2.075,14.6.148C1167.225,173.545,1166.966,174.36,1165.928,175.509Z" transform="translate(-1139.692 -171.167)" fill="#2d62ed"/>
        <g id="Group_62754" data-name="Group 62754" transform="translate(5.765 11.41)">
          <g id="Group_62753" data-name="Group 62753">
            <path id="Path_52323" data-name="Path 52323" d="M1172.64,232.945c-1.538,5.836-2.649,12.135-1.056,18.1,1.26,4.669,4.169,9,8.6,11.135.315.148.612-.315.278-.482-4.391-2.131-7.244-6.429-8.411-11.079-1.464-5.8-.371-11.876,1.112-17.545.111-.333-.426-.463-.519-.13Z" transform="translate(-1170.807 -232.75)" fill="#161616"/>
          </g>
        </g>
        <g id="Group_62756" data-name="Group 62756" transform="translate(15.175 35.056)">
          <g id="Group_62755" data-name="Group 62755">
            <path id="Path_52324" data-name="Path 52324" d="M1221.878,366.089a13.545,13.545,0,0,0,9.875-5.317c.222-.278-.259-.556-.482-.278a12.831,12.831,0,0,1-9.393,5.039c-.371.019-.371.574,0,.556Z" transform="translate(-1221.6 -360.379)" fill="#161616"/>
          </g>
        </g>
        <g id="Group_62758" data-name="Group 62758" transform="translate(20.594 38.989)">
          <g id="Group_62757" data-name="Group 62757">
            <path id="Path_52325" data-name="Path 52325" d="M1250.873,382.033q1.139,2.418,2.5,4.725a.278.278,0,0,0,.482-.278q-1.362-2.307-2.5-4.725c-.167-.333-.63-.037-.482.278Z" transform="translate(-1250.844 -381.608)" fill="#161616"/>
          </g>
        </g>
        <g id="Group_62760" data-name="Group 62760" transform="translate(12.803 16.282)">
          <g id="Group_62759" data-name="Group 62759">
            <path id="Path_52326" data-name="Path 52326" d="M1208.8,259.318c.148,4.65.2,9.282.167,13.933a.284.284,0,0,0,.519.148c.852-1.13,1.686-2.3,2.483-3.465.2-.3-.278-.574-.482-.278-.8,1.167-1.63,2.334-2.483,3.465.167.056.352.093.519.148.037-4.65-.019-9.282-.167-13.933-.019-.371-.574-.389-.556-.018Z" transform="translate(-1208.798 -259.049)" fill="#161616"/>
          </g>
        </g>
        <g id="Group_62762" data-name="Group 62762" transform="translate(13.675 29.855)">
          <g id="Group_62761" data-name="Group 62761">
            <path id="Path_52327" data-name="Path 52327" d="M1213.778,336.623a6.81,6.81,0,0,0,6.485-3.891c.148-.315-.333-.611-.482-.278a6.258,6.258,0,0,1-6,3.613c-.37-.019-.37.537,0,.556Z" transform="translate(-1213.5 -332.308)" fill="#161616"/>
          </g>
        </g>
        <g id="Group_62764" data-name="Group 62764" transform="translate(19.529 25.518)">
          <g id="Group_62763" data-name="Group 62763">
            <path id="Path_52328" data-name="Path 52328" d="M1245.378,309.456a.278.278,0,0,0,0-.556.278.278,0,0,0,0,.556Z" transform="translate(-1245.1 -308.9)" fill="#161616"/>
          </g>
        </g>
        <g id="Group_62766" data-name="Group 62766" transform="translate(21.711 24.962)">
          <g id="Group_62765" data-name="Group 62765">
            <path id="Path_52329" data-name="Path 52329" d="M1257.139,306.456a.278.278,0,0,0,0-.556.278.278,0,0,0,0,.556Z" transform="translate(-1256.875 -305.9)" fill="#161616"/>
          </g>
        </g>
        <g id="Group_62768" data-name="Group 62768" transform="translate(21.16 26.741)">
          <g id="Group_62767" data-name="Group 62767">
            <path id="Path_52330" data-name="Path 52330" d="M1254.178,316.056a.278.278,0,0,0,0-.556.278.278,0,0,0,0,.556Z" transform="translate(-1253.9 -315.5)" fill="#161616"/>
          </g>
        </g>
        <g id="Group_62770" data-name="Group 62770" transform="translate(8.649 27.556)">
          <g id="Group_62769" data-name="Group 62769">
            <path id="Path_52331" data-name="Path 52331" d="M1186.639,320.456a.278.278,0,0,0,0-.556.278.278,0,0,0,0,.556Z" transform="translate(-1186.375 -319.9)" fill="#161616"/>
          </g>
        </g>
        <g id="Group_62772" data-name="Group 62772" transform="translate(10.15 26.741)">
          <g id="Group_62771" data-name="Group 62771">
            <path id="Path_52332" data-name="Path 52332" d="M1194.739,316.056a.278.278,0,0,0,0-.556.278.278,0,0,0,0,.556Z" transform="translate(-1194.475 -315.5)" fill="#161616"/>
          </g>
        </g>
        <g id="Group_62774" data-name="Group 62774" transform="translate(9.872 28.649)">
          <g id="Group_62773" data-name="Group 62773">
            <path id="Path_52333" data-name="Path 52333" d="M1193.239,326.356a.278.278,0,0,0,0-.556.278.278,0,0,0,0,.556Z" transform="translate(-1192.975 -325.8)" fill="#161616"/>
          </g>
        </g>
        <g id="Group_62776" data-name="Group 62776" transform="translate(8.223 13.156)">
          <g id="Group_62775" data-name="Group 62775">
            <path id="Path_52334" data-name="Path 52334" d="M1184.6,243.664a1.87,1.87,0,0,1,2.983-.352c.259.259.649-.148.389-.389a2.432,2.432,0,0,0-3.854.463c-.185.3.3.574.482.278Z" transform="translate(-1184.075 -242.177)" fill="#161616"/>
          </g>
        </g>
        <g id="Group_62778" data-name="Group 62778" transform="translate(17.064 11.661)">
          <g id="Group_62777" data-name="Group 62777">
            <path id="Path_52335" data-name="Path 52335" d="M1232.275,235.515a2.617,2.617,0,0,1,4.15.371c.2.3.686.019.482-.278a3.189,3.189,0,0,0-5.04-.482c-.241.241.148.648.408.389Z" transform="translate(-1231.792 -234.108)" fill="#161616"/>
          </g>
        </g>
        <g id="Group_62780" data-name="Group 62780" transform="translate(27.61 17.66)">
          <g id="Group_62779" data-name="Group 62779">
            <path id="Path_52336" data-name="Path 52336" d="M1289.229,268.694a2.9,2.9,0,0,1,3.261-1.556,2.66,2.66,0,0,1,1.7,3,4.046,4.046,0,0,1-4.688,3.835c-.352-.056-.5.482-.148.537a4.672,4.672,0,0,0,5.373-5.225,2.945,2.945,0,0,0-2.464-2.761,3.508,3.508,0,0,0-3.52,1.89c-.167.3.315.574.482.278Z" transform="translate(-1288.713 -266.487)" fill="#161616"/>
          </g>
        </g>
        <ellipse id="Ellipse_2276" data-name="Ellipse 2276" cx="0.648" cy="1.945" rx="0.648" ry="1.945" transform="translate(8.913 20.627)" fill="#161616"/>
        <ellipse id="Ellipse_2277" data-name="Ellipse 2277" cx="0.648" cy="1.945" rx="0.648" ry="1.945" transform="translate(19.159 19.756)" fill="#161616"/>
      </g>
    </g>
  </g>
</svg>
