<svg xmlns="http://www.w3.org/2000/svg" xmlns:xlink="http://www.w3.org/1999/xlink" width="139" height="139" viewBox="0 0 139 139">
  <defs>
    <linearGradient id="linear-gradient" x1="0.5" x2="0.5" y2="1" gradientUnits="objectBoundingBox">
      <stop offset="0" stop-color="#fff"/>
      <stop offset="1" stop-color="#e5e8fa"/>
    </linearGradient>
    <linearGradient id="linear-gradient-2" x1="0.773" y1="0.118" x2="0.562" y2="0.667" gradientUnits="objectBoundingBox">
      <stop offset="0" stop-color="#f2f5f8" stop-opacity="0"/>
      <stop offset="1" stop-color="#e4e9f8"/>
    </linearGradient>
    <clipPath id="clip-path">
      <circle id="Ellipse_1765" data-name="Ellipse 1765" cx="69.5" cy="69.5" r="69.5" transform="translate(0)" fill="url(#linear-gradient)"/>
    </clipPath>
  </defs>
  <g id="current_project" data-name="current project" transform="translate(-351 -96)">
    <circle id="Ellipse_1766" data-name="Ellipse 1766" cx="69.5" cy="69.5" r="69.5" transform="translate(351 96)" fill="url(#linear-gradient-2)"/>
    <g id="Mask_Group_223" data-name="Mask Group 223" transform="translate(351 96)" clip-path="url(#clip-path)">
      <g id="teaching" transform="translate(8.143 23.603)">
        <path id="Path_50184" data-name="Path 50184" d="M269.064,1097.192h22.419a.3.3,0,0,0,0-.592H269.064A.3.3,0,0,0,269.064,1097.192Z" transform="translate(-255.173 -1005.205)" fill="#e8e8e8"/>
        <path id="Path_50185" data-name="Path 50185" d="M343.231,1073.692h28.88a.3.3,0,0,0,0-.592h-28.88a.3.3,0,0,0,0,.592Z" transform="translate(-322.032 -984.024)" fill="#e8e8e8"/>
        <path id="Path_50186" data-name="Path 50186" d="M631.063,1036.692h15.229a.3.3,0,0,0,0-.592H631.063A.3.3,0,0,0,631.063,1036.692Z" transform="translate(-581.468 -950.673)" fill="#e8e8e8"/>
        <path id="Path_50187" data-name="Path 50187" d="M763.263,1120.692h40.578a.3.3,0,0,0,0-.592H763.263A.3.3,0,0,0,763.263,1120.692Z" transform="translate(-700.628 -1026.388)" fill="#e8e8e8"/>
        <path id="Path_50188" data-name="Path 50188" d="M1016.563,1097.192h20.96a.3.3,0,0,0,0-.592h-20.96A.3.3,0,0,0,1016.563,1097.192Z" transform="translate(-928.944 -1005.205)" fill="#e8e8e8"/>
        <path id="Path_50189" data-name="Path 50189" d="M413,374.6a6.146,6.146,0,0,0-2.17.819,6.047,6.047,0,0,0-2.3,2.564,5.093,5.093,0,0,0-.523,3.186,5.272,5.272,0,0,0,2.634,3.452c.976-1.489,1.943-2.989,2.92-4.478Q413.267,377.377,413,374.6Z" transform="translate(-380.607 -354.419)" fill="#5e70ef"/>
        <path id="Path_50190" data-name="Path 50190" d="M466.7,407.547c1.44-.779,2.87-1.558,4.31-2.347a3.939,3.939,0,0,1,.9,2.456,3.472,3.472,0,0,1-.079.74Q469.255,407.967,466.7,407.547Z" transform="translate(-433.576 -382.001)" fill="#5f70e2"/>
        <path id="Path_50191" data-name="Path 50191" d="M310.1,495.927c.178,2.318.345,4.646.523,6.964.631-.039,1.263-.089,1.884-.128-.207-2.357-.414-4.7-.621-7.062C311.284,495.779,310.692,495.848,310.1,495.927Z" transform="translate(-292.422 -463.575)" fill="#5e70ef"/>
        <path id="Path_50192" data-name="Path 50192" d="M345.8,520.968c.1,1.43.2,2.851.306,4.281.631-.059,1.263-.108,1.884-.168-.138-1.43-.266-2.85-.4-4.281C346.984,520.849,346.392,520.908,345.8,520.968Z" transform="translate(-324.601 -486.199)" fill="#5e70ef"/>
        <path id="Path_50193" data-name="Path 50193" d="M280.446,234.428q-14.677,1.346-29.344,2.683-1.346-21.483-2.7-42.975l29.275-1.036Q279.065,213.769,280.446,234.428Z" transform="translate(-236.808 -190.822)" fill="none" stroke="#161616" stroke-miterlimit="10" stroke-width="0.3"/>
        <g id="Group_44790" data-name="Group 44790" transform="translate(13.434)">
          <path id="Path_50194" data-name="Path 50194" d="M350.68,174.4c.108.779.227,1.558.335,2.338.03.187.316.109.286-.079-.108-.779-.227-1.558-.335-2.338C350.937,174.133,350.651,174.212,350.68,174.4Z" transform="translate(-342.432 -173.798)" fill="#e8e8e8"/>
          <path id="Path_50195" data-name="Path 50195" d="M351.516,170.582c2.219-.148,4.448-.237,6.668-.286a.148.148,0,0,0,0-.3q-3.344.074-6.668.286C351.328,170.3,351.328,170.592,351.516,170.582Z" transform="translate(-343.06 -170)" fill="#e8e8e8"/>
          <path id="Path_50196" data-name="Path 50196" d="M419.481,170.516c.1.838.178,1.667.227,2.505.01.187.306.187.3,0-.049-.838-.128-1.677-.227-2.505C419.747,170.328,419.451,170.328,419.481,170.516Z" transform="translate(-404.447 -170.338)" fill="#e8e8e8"/>
          <path id="Path_50197" data-name="Path 50197" d="M352.891,174.516c.069.73.138,1.47.207,2.2a.152.152,0,0,0,.148.148c2.121.02,4.231-.316,6.362-.247.187.01.187-.286,0-.3-2.121-.069-4.231.256-6.362.247l.148.148c-.069-.73-.138-1.47-.207-2.2C353.168,174.328,352.872,174.328,352.891,174.516Z" transform="translate(-344.426 -173.943)" fill="#e8e8e8"/>
          <path id="Path_50198" data-name="Path 50198" d="M353.883,172.293a1.911,1.911,0,0,0,1.1.079l1.775-.089c1.184-.059,2.357-.128,3.541-.187l-.148-.148c.03.641.059,1.282.089,1.933.01.187.306.187.3,0-.03-.641-.059-1.282-.089-1.933a.152.152,0,0,0-.148-.148c-1.046.059-2.1.109-3.146.168-.523.03-1.045.059-1.578.079-.414.02-1.184.217-1.549-.01C353.874,171.938,353.726,172.195,353.883,172.293Z" transform="translate(-345.26 -171.622)" fill="#e8e8e8"/>
          <path id="Path_50199" data-name="Path 50199" d="M354.365,174.2a12.714,12.714,0,0,1,.306,1.835c.1-.01.2-.03.286-.039a4.151,4.151,0,0,1,.02-1.6c-.1-.01-.2-.03-.286-.039a4.683,4.683,0,0,0,.286,1.7c.069.158.316.039.266-.118a3.685,3.685,0,0,1-.158-1.9H354.8l.266,1.775c.03.187.316.109.286-.079l-.266-1.775c-.02-.148-.256-.128-.286,0a4.073,4.073,0,0,0,.158,2.061l.266-.118a4.357,4.357,0,0,1-.247-1.549c0-.158-.256-.207-.286-.039a4.387,4.387,0,0,0-.02,1.756c.03.158.306.128.286-.039a14.087,14.087,0,0,0-.316-1.914C354.6,173.933,354.325,174.012,354.365,174.2Z" transform="translate(-345.752 -173.469)" fill="#e8e8e8"/>
          <path id="Path_50200" data-name="Path 50200" d="M359.2,175.54l.326-.533c-.089-.049-.168-.1-.256-.148-.128.286-.247.572-.375.858-.059.138.118.326.237.178.2-.247.385-.5.582-.75-.079-.049-.168-.1-.247-.148a2.968,2.968,0,0,1-.316.671c-.089.138.128.316.237.178.148-.187.3-.375.454-.562l-.237-.178c-.2.464-.395.917-.592,1.381-.059.138.118.326.237.178l1.075-1.341-.237-.178c-.266.434-.533.878-.8,1.312a.148.148,0,0,0,.168.217.63.63,0,0,0,.3-.168c-.079-.049-.168-.1-.247-.148a.824.824,0,0,1-.306.4c-.148.109-.02.355.148.256a1.229,1.229,0,0,1,.483-.168l-.178-.178c-.257-.128-.335-.306-.237-.542a1.4,1.4,0,0,1,.138-.355c.079-.138.227-.473.375-.178.108.217-.345,1.43-.4.681a1.573,1.573,0,0,1,.069-.572,1.974,1.974,0,0,1,.168-.395c.1-.2.148-.2.158,0a1.751,1.751,0,0,1-.227,1.361,2.476,2.476,0,0,1,.266.039,1.652,1.652,0,0,1-.049-.819c.02-.109.118-.631.227-.464.227.326-.148,1.065-.306,1.351.089.03.187.049.276.079a2.645,2.645,0,0,1,.01-.789c.03-.178.138-.75.326-.769.266-.03-.247,1.184-.365,1.361a2.477,2.477,0,0,1,.266.039c-.089-.444-.089-1.391.513-1.539-.059-.03-.118-.069-.178-.1a1.856,1.856,0,0,1-.473,1.627,2.309,2.309,0,0,1,.247.069,1.643,1.643,0,0,1-.01-.819c.039-.148.247-.769.444-.72.138.03-.039.6-.079.73a2.043,2.043,0,0,1-.523.829,2.3,2.3,0,0,1,.247.069,1.525,1.525,0,0,1,.7-1.677c-.069-.03-.148-.059-.217-.089.227.6-.355,1.381-.74,1.785a2.3,2.3,0,0,1,.247.069,1.552,1.552,0,0,1,.02-.848c.03-.089.326-.759.464-.71.2.069-.138.671-.2.759a1.289,1.289,0,0,1-.325.434c-.148.1-.138.118-.148-.1a1.488,1.488,0,0,1,.355-.848,1.073,1.073,0,0,1,.375-.355c.158-.069.138-.089.118.118a2.711,2.711,0,0,1-.848,1.588,2.3,2.3,0,0,1,.247.069,1.8,1.8,0,0,1,.542-1.588c.128-.118.276-.2.326.049a1.129,1.129,0,0,1-.138.424,2.655,2.655,0,0,1-.582.848h.207c-.177-.207.049-.661.158-.858.049-.089.473-.74.592-.681.138.069-.168.73-.207.8a3.127,3.127,0,0,1-.523.72c.089.039.168.069.256.109a2,2,0,0,1,.957-1.716c-.079-.039-.148-.089-.227-.128a2.27,2.27,0,0,1-.7,1.706c.089.039.168.069.256.108a2.6,2.6,0,0,1,.947-1.805l-.237-.03c.316.473-.375,1.361-.651,1.716.089.039.168.069.256.109a2.175,2.175,0,0,1,.168-.789c.059-.158.306-.7.483-.74.237-.049-.01.4-.089.572a2.962,2.962,0,0,1-.542.759c.079.049.168.1.247.148.089-.612.335-1.42.977-1.647a2.258,2.258,0,0,0-.187-.138,2.676,2.676,0,0,1-.868,1.7c.089.039.168.069.256.108a2.742,2.742,0,0,1,.237-.917c.089-.187.326-.681.542-.72.108-.02,0,.148-.039.256a3.083,3.083,0,0,1-.217.444,3.556,3.556,0,0,1-.582.75c.089.039.168.069.257.109a2.108,2.108,0,0,1,.828-1.558c-.069-.059-.148-.108-.217-.168a2.287,2.287,0,0,1-.631,1.174c-.187.207-.247.158-.266-.118a.823.823,0,0,1,.582-.848,2.277,2.277,0,0,0-.187-.138,3.241,3.241,0,0,1-.523,1.618c.089.03.187.049.276.079a2.334,2.334,0,0,1,.247-.848c.089-.178.316-.621.513-.671.286-.079,0,.483-.069.621a3.042,3.042,0,0,1-.542.74c.089.039.168.069.256.109a1.537,1.537,0,0,1,1.075-1.568,2.275,2.275,0,0,0-.187-.138,2.615,2.615,0,0,1-.957,1.746c.089.039.168.069.256.108a2.312,2.312,0,0,1,.986-1.657c-.069-.03-.148-.059-.217-.089.158.513-.385,1.184-.681,1.549.089.039.168.069.256.109.039-.5.326-1.42.927-1.509l-.178-.178a3.32,3.32,0,0,1-.7,1.509c.089.039.168.069.256.109a2.331,2.331,0,0,1,.681-1.549l-.237-.03c.227.414-.237,1.144-.444,1.509l.266.118c.1-.473.178-1.272.621-1.558a1.085,1.085,0,0,0-.178-.02c.247.276-.227,1.2-.335,1.48.1.03.187.049.286.079.138-.5.266-1,.4-1.5-.1-.01-.2-.03-.286-.039a3.624,3.624,0,0,1-.207,1.371c.1.01.2.03.286.039a3.659,3.659,0,0,1,.256-1.509,2.489,2.489,0,0,1-.266-.039,3.418,3.418,0,0,1,.02,1.45c.1.01.2.03.286.039-.039-.552-.079-1.115-.118-1.667-.089.039-.168.069-.256.109.375.385.227.888.059,1.332a2.482,2.482,0,0,0,.266-.039,2,2,0,0,1-.316-.8c-.1-.158-.059-.237.128-.227a.673.673,0,0,1,.079.493c.089-.039.168-.069.256-.109a1.275,1.275,0,0,1-.286-.592c-.069.059-.148.108-.217.168.039.108.079.227.118.335a2.473,2.473,0,0,1,.266.039,1.467,1.467,0,0,1-.089-.582,2.27,2.27,0,0,1-.187.138c.385.158.118,1.184.069,1.45a1.679,1.679,0,0,0,.138-.109l-2.249.059a.148.148,0,0,0,0,.3,10.922,10.922,0,0,0,1.963-.178c-.03-.1-.049-.187-.079-.286a12.5,12.5,0,0,1-2.328.4.148.148,0,0,0,0,.3c.769.03,1.519-.237,2.288-.207-.01-.1-.03-.2-.039-.286a4.147,4.147,0,0,1-1.8.187v.3l2.13-.207c-.01-.1-.03-.2-.039-.286a4.376,4.376,0,0,1-1.43.168v.3a5.641,5.641,0,0,0,1.41-.178.148.148,0,0,0-.079-.286,7.911,7.911,0,0,1-1.667.178v.3c.671-.089,1.341-.2,2.012-.335.158-.03.128-.306-.039-.286a6.833,6.833,0,0,1-1.9-.03c-.187-.03-.266.256-.079.286a7.417,7.417,0,0,0,1.983.039c-.01-.1-.03-.2-.039-.286-.641.128-1.282.247-1.933.326a.148.148,0,0,0,0,.3,8.019,8.019,0,0,0,1.746-.187c-.03-.1-.049-.187-.079-.286a5.534,5.534,0,0,1-1.332.168.148.148,0,0,0,0,.3,4.9,4.9,0,0,0,1.509-.178c.158-.049.128-.306-.039-.286l-2.13.207a.148.148,0,0,0,0,.3,4.5,4.5,0,0,0,1.884-.2.146.146,0,0,0-.039-.286c-.769-.03-1.519.237-2.288.207v.3a12.414,12.414,0,0,0,2.407-.414c.187-.049.108-.316-.079-.286a10.137,10.137,0,0,1-1.884.168v.3l2.249-.059a.148.148,0,0,0,.138-.109c.1-.552.4-1.529-.276-1.815-.1-.039-.178.059-.187.138a1.372,1.372,0,0,0,.1.661c.039.108.207.158.266.039a.536.536,0,0,0-.227-.74.148.148,0,0,0-.217.168,1.6,1.6,0,0,0,.365.73c.089.109.247.01.257-.108.03-.316-.247-1.253-.75-.967-.454.266.148,1.341.3,1.647.059.128.227.069.266-.039a1.425,1.425,0,0,0-.138-1.618.151.151,0,0,0-.257.109c.039.552.079,1.115.118,1.667.01.158.266.217.286.039a3.685,3.685,0,0,0-.02-1.608.148.148,0,0,0-.266-.039,3.619,3.619,0,0,0-.3,1.657c-.02.178.237.187.286.039a3.811,3.811,0,0,0,.217-1.45.146.146,0,0,0-.286-.039c-.138.5-.266,1-.4,1.5a.148.148,0,0,0,.286.079c.178-.454.651-1.322.256-1.775a.136.136,0,0,0-.178-.02c-.542.355-.641,1.154-.759,1.736-.03.158.187.266.266.118.266-.483.74-1.263.444-1.815a.155.155,0,0,0-.237-.03,2.679,2.679,0,0,0-.769,1.756.153.153,0,0,0,.256.109,3.556,3.556,0,0,0,.779-1.637.147.147,0,0,0-.178-.178c-.74.108-1.095,1.154-1.144,1.8a.153.153,0,0,0,.257.108c.385-.464.957-1.193.759-1.835a.147.147,0,0,0-.217-.089,2.623,2.623,0,0,0-1.134,1.9c-.02.138.168.178.256.109a2.927,2.927,0,0,0,1.036-1.953.142.142,0,0,0-.187-.138,1.829,1.829,0,0,0-1.292,1.854.154.154,0,0,0,.257.108c.227-.227,1.41-1.835.671-2.012-.306-.079-.651.395-.8.592a2.752,2.752,0,0,0-.523,1.371c-.02.158.207.187.276.079a3.411,3.411,0,0,0,.572-1.766.145.145,0,0,0-.187-.138,1.032,1.032,0,0,0-.75.809c-.069.256-.138.74.138.907s.483-.128.631-.306a2.529,2.529,0,0,0,.651-1.243c.02-.109-.1-.256-.217-.168a2.424,2.424,0,0,0-.976,1.815c-.01.128.168.187.256.109.237-.237,1.5-1.8.819-2.052-.306-.118-.631.375-.769.572a2.909,2.909,0,0,0-.5,1.44c-.01.138.168.187.256.108a2.957,2.957,0,0,0,.957-1.9.146.146,0,0,0-.187-.138,2.19,2.19,0,0,0-1.184,1.854c-.02.138.138.266.247.148.237-.247,1.361-1.8.671-1.992-.316-.089-.661.454-.8.671a2.583,2.583,0,0,0-.395,1.312.153.153,0,0,0,.256.108c.375-.464,1.1-1.45.7-2.071a.155.155,0,0,0-.237-.03,2.92,2.92,0,0,0-1.036,2.022c-.01.128.168.187.256.109a2.6,2.6,0,0,0,.779-1.914.153.153,0,0,0-.227-.128,2.3,2.3,0,0,0-1.1,1.973.154.154,0,0,0,.257.108,3.138,3.138,0,0,0,.809-1.4c.059-.227.1-.671-.266-.651-.385.02-.789.69-.927.986-.148.335-.306.769-.039,1.075a.152.152,0,0,0,.207,0,2.743,2.743,0,0,0,.8-1.41c.049-.247.069-.661-.286-.661-.375,0-.779.552-.927.838a2.042,2.042,0,0,0-.217,1.361.149.149,0,0,0,.247.069,3.22,3.22,0,0,0,.907-1.588c.059-.266.138-.72-.256-.71-.681.02-1.618,1.726-.976,2.17a.157.157,0,0,0,.148,0c.345-.168,1.568-1.825.819-2.042-.316-.1-.671.434-.789.661a1.874,1.874,0,0,0-.168,1.341.149.149,0,0,0,.247.069c.464-.493,1.085-1.371.819-2.071a.15.15,0,0,0-.217-.089,1.83,1.83,0,0,0-.838,2.012.153.153,0,0,0,.247.069,2.542,2.542,0,0,0,.71-1.41c.039-.237.128-.671-.178-.769-.326-.1-.631.454-.74.69a2.049,2.049,0,0,0-.118,1.351.149.149,0,0,0,.247.069,2.139,2.139,0,0,0,.552-1.914.145.145,0,0,0-.178-.1c-.769.187-.848,1.272-.72,1.9a.148.148,0,0,0,.266.039,2.476,2.476,0,0,0,.464-1.223c.02-.217.079-.671-.217-.75s-.473.355-.562.562a2.738,2.738,0,0,0-.2,1.46c.02.138.2.217.276.079a2.266,2.266,0,0,0,.286-1.923.119.119,0,0,0-.128-.069c-.73.01-.69,1.4-.562,1.864a.149.149,0,0,0,.266.039,2.073,2.073,0,0,0,.217-1.736c-.168-.385-.473-.207-.661.079a1.812,1.812,0,0,0-.168,1.647c.207.355.473.089.621-.178.178-.326.464-1.124.168-1.47-.266-.306-.612.118-.76.335-.227.345-.444.976-.158,1.351a.408.408,0,0,0,.73-.1c.049-.118-.079-.2-.178-.178a1.376,1.376,0,0,0-.552.2c.049.089.1.168.148.256a1.3,1.3,0,0,0,.444-.582c.059-.148-.148-.227-.247-.148-.059.03-.108.059-.168.089.059.069.108.148.168.217.266-.434.533-.878.8-1.312.089-.138-.128-.316-.237-.178l-1.075,1.341.237.178c.2-.464.395-.917.592-1.381.059-.138-.118-.326-.237-.178-.148.187-.3.375-.454.562l.237.178a3.373,3.373,0,0,0,.345-.74c.039-.138-.158-.266-.247-.148-.2.247-.385.5-.582.75l.237.178c.128-.286.247-.572.375-.858.079-.168-.158-.316-.256-.148l-.325.533c-.128-.059.128.089.227-.079Z" transform="translate(-349.826 -174.287)" fill="#e8e8e8"/>
          <path id="Path_50201" data-name="Path 50201" d="M413.206,172.87c0,.335.01.681.02,1.016.01.247.118.769-.039.957-.1.118.03.325.178.237a.863.863,0,0,0,.148-.118.153.153,0,0,0-.069-.247.809.809,0,0,0-.483.02c-.178.059-.109.345.079.286.108-.01.217-.01.325-.02a2.3,2.3,0,0,0-.069-.247.6.6,0,0,0-.079.079l.178.237c.217-.256.158-.434.138-.779-.02-.464-.03-.937-.03-1.4A.148.148,0,1,0,413.206,172.87Z" transform="translate(-398.478 -172.455)" fill="#e8e8e8"/>
          <path id="Path_50202" data-name="Path 50202" d="M267.216,256.041q6.081-.34,12.181-.266a.148.148,0,0,0,0-.3q-6.1-.074-12.181.266C267.028,255.755,267.028,256.051,267.216,256.041Z" transform="translate(-267.075 -247.036)" fill="#e8e8e8"/>
          <path id="Path_50203" data-name="Path 50203" d="M272.482,281.759a83.711,83.711,0,0,1,8.749-.464.148.148,0,0,0,0-.3,81.1,81.1,0,0,0-8.749.464C272.294,281.483,272.284,281.779,272.482,281.759Z" transform="translate(-271.818 -270.052)" fill="#e8e8e8"/>
          <path id="Path_50204" data-name="Path 50204" d="M275.216,331.057q5.829-.607,11.688-.661a.148.148,0,0,0,0-.3q-5.859.044-11.688.661C275.028,330.781,275.028,331.076,275.216,331.057Z" transform="translate(-274.286 -314.309)" fill="#e8e8e8"/>
          <path id="Path_50205" data-name="Path 50205" d="M409.266,382.983a4.793,4.793,0,0,1-2.86-4.873,5.909,5.909,0,0,1,3.541-4.606,4.3,4.3,0,0,1,3.866-.02,6.368,6.368,0,0,1,2.377,2.229,5.547,5.547,0,0,1-.158,6.165c-.769,1.134-2.219,1.46-3.492,1.657a4.81,4.81,0,0,1-3.659-.651c-.158-.109-.306.148-.148.256a4.809,4.809,0,0,0,3.383.75,6.886,6.886,0,0,0,3.511-1.124,5.563,5.563,0,0,0,1.7-3.285,5.456,5.456,0,0,0-.483-3.206c-1.036-2.239-3.423-4.034-5.957-3.413a6.376,6.376,0,0,0-4.656,4.517,5.087,5.087,0,0,0,2.949,5.879c.187.079.266-.207.089-.276Z" transform="translate(-392.378 -352.742)" fill="#e8e8e8"/>
          <path id="Path_50206" data-name="Path 50206" d="M459.4,373.216c.118,1.825.237,3.649.365,5.474.01.187.306.187.3,0-.118-1.825-.237-3.649-.365-5.474C459.684,373.028,459.388,373.028,459.4,373.216Z" transform="translate(-440.428 -353.045)" fill="#e8e8e8"/>
          <path id="Path_50207" data-name="Path 50207" d="M463.874,405.638q2.249-1.228,4.439-2.584c.158-.1.01-.355-.148-.256q-2.175,1.361-4.439,2.584A.148.148,0,0,0,463.874,405.638Z" transform="translate(-444.263 -379.815)" fill="#e8e8e8"/>
          <path id="Path_50208" data-name="Path 50208" d="M465.215,429.6a30.072,30.072,0,0,1,5.04.69c.187.03.266-.256.079-.286a30.868,30.868,0,0,0-5.119-.7A.148.148,0,0,0,465.215,429.6Z" transform="translate(-445.545 -403.724)" fill="#e8e8e8"/>
          <path id="Path_50209" data-name="Path 50209" d="M437.648,429.644c-.947,1.568-1.894,3.127-2.851,4.695a.148.148,0,0,0,.256.148c.947-1.568,1.894-3.127,2.85-4.7C438,429.634,437.746,429.476,437.648,429.644Z" transform="translate(-418.234 -403.969)" fill="#e8e8e8"/>
          <path id="Path_50210" data-name="Path 50210" d="M292.316,558.831q6.436-.488,12.842-1.144c.187-.02.187-.316,0-.3q-6.421.651-12.842,1.144C292.128,558.555,292.128,558.851,292.316,558.831Z" transform="translate(-289.699 -519.18)" fill="#e8e8e8"/>
          <path id="Path_50211" data-name="Path 50211" d="M308.391,497.015c.158,2.269.325,4.547.483,6.816.01.187.306.187.3,0-.158-2.269-.326-4.547-.483-6.816C308.668,496.828,308.372,496.828,308.391,497.015Z" transform="translate(-304.315 -464.634)" fill="#e8e8e8"/>
          <path id="Path_50212" data-name="Path 50212" d="M309.625,494.907a7.511,7.511,0,0,1,1.7-.1l-.148-.148c.148,2.308.365,4.606.631,6.895.02.187.316.187.3,0-.276-2.288-.483-4.6-.631-6.895a.152.152,0,0,0-.148-.148,8.23,8.23,0,0,0-1.775.109C309.359,494.66,309.448,494.946,309.625,494.907Z" transform="translate(-305.263 -462.495)" fill="#e8e8e8"/>
          <path id="Path_50213" data-name="Path 50213" d="M342.78,520.3a32.531,32.531,0,0,1,.414,4.153c.01.187.306.187.3,0a32.028,32.028,0,0,0-.424-4.232C343.037,520.033,342.751,520.112,342.78,520.3Z" transform="translate(-335.311 -485.58)" fill="#e8e8e8"/>
          <path id="Path_50214" data-name="Path 50214" d="M345.116,519.8a12.149,12.149,0,0,0,1.7-.109l-.148-.148c.138,1.371.286,2.732.424,4.1.02.187.316.187.3,0-.138-1.371-.286-2.732-.424-4.1-.01-.069-.059-.158-.148-.148a13.984,13.984,0,0,1-1.7.109A.148.148,0,0,0,345.116,519.8Z" transform="translate(-337.291 -484.93)" fill="#e8e8e8"/>
          <path id="Path_50215" data-name="Path 50215" d="M378.391,496.815c.237,2.131.385,4.261.444,6.411.01.187.306.187.3,0q-.1-3.211-.444-6.411C378.667,496.628,378.372,496.628,378.391,496.815Z" transform="translate(-367.411 -464.454)" fill="#e8e8e8"/>
          <path id="Path_50216" data-name="Path 50216" d="M378.6,496.506c.316.02.641.03.957.049.444.02.454.03.464.473.03.641.059,1.272.1,1.914a32.194,32.194,0,0,0,.454,3.64c.039.187.316.108.286-.079a34.4,34.4,0,0,1-.5-4.616c-.02-.355-.03-.7-.049-1.055-.01-.138.01-.345-.1-.464s-.326-.1-.473-.109l-1.144-.059C378.417,496.2,378.417,496.5,378.6,496.506Z" transform="translate(-367.476 -464.026)" fill="#e8e8e8"/>
          <path id="Path_50217" data-name="Path 50217" d="M417.448,577.416a99.778,99.778,0,0,0,11.353-1.45c.187-.039.108-.316-.079-.286a98.667,98.667,0,0,1-11.274,1.44C417.251,577.13,417.251,577.425,417.448,577.416Z" transform="translate(-402.483 -535.664)" fill="#e8e8e8"/>
          <path id="Path_50218" data-name="Path 50218" d="M476.316,566.89l4.863-.5c.187-.02.187-.316,0-.3l-4.863.5C476.128,566.614,476.128,566.91,476.316,566.89Z" transform="translate(-455.551 -527.022)" fill="#e8e8e8"/>
          <path id="Path_50219" data-name="Path 50219" d="M504.248,550.682l2.229-.089c.187-.01.187-.306,0-.3l-2.229.089C504.051,550.4,504.051,550.692,504.248,550.682Z" transform="translate(-480.721 -512.787)" fill="#e8e8e8"/>
          <path id="Path_50220" data-name="Path 50220" d="M426.3,216.264a4.355,4.355,0,0,1,.237,1.667c-.01.187.286.187.3,0a4.573,4.573,0,0,0-.247-1.746C426.519,216.008,426.233,216.087,426.3,216.264Z" transform="translate(-410.588 -211.54)" fill="#e8e8e8"/>
          <path id="Path_50221" data-name="Path 50221" d="M427.616,210.536q4.069-.414,8.147-.543c.187-.01.187-.306,0-.3-2.722.089-5.445.266-8.147.542C427.428,210.26,427.428,210.556,427.616,210.536Z" transform="translate(-411.654 -205.782)" fill="#e8e8e8"/>
          <path id="Path_50222" data-name="Path 50222" d="M430.516,228.285l8.1-.592c.187-.01.187-.306,0-.3l-8.1.592C430.328,228,430.328,228.3,430.516,228.285Z" transform="translate(-414.268 -221.736)" fill="#e8e8e8"/>
          <path id="Path_50223" data-name="Path 50223" d="M511.88,211.5c.089.612.178,1.213.266,1.825.029.187.316.108.286-.079-.089-.612-.177-1.213-.266-1.825C512.137,211.233,511.851,211.312,511.88,211.5Z" transform="translate(-487.732 -207.239)" fill="#e8e8e8"/>
          <path id="Path_50224" data-name="Path 50224" d="M995.5,293.316a10.653,10.653,0,0,0,.079,1.115c.03.187.326.187.3,0a8.37,8.37,0,0,1-.079-1.115A.148.148,0,0,0,995.5,293.316Z" transform="translate(-923.652 -281.026)" fill="#e8e8e8"/>
          <path id="Path_50225" data-name="Path 50225" d="M996.415,293.4h19.145a.148.148,0,0,0,0-.3H996.415A.148.148,0,0,0,996.415,293.4Z" transform="translate(-924.351 -280.958)" fill="#e8e8e8"/>
          <path id="Path_50226" data-name="Path 50226" d="M1190,294.448v.651a.148.148,0,0,0,.3,0v-.651A.148.148,0,1,0,1190,294.448Z" transform="translate(-1098.968 -282.04)" fill="#e8e8e8"/>
          <path id="Path_50227" data-name="Path 50227" d="M998.148,304.3h18.9a.148.148,0,0,0,0-.3h-18.9A.148.148,0,0,0,998.148,304.3Z" transform="translate(-925.906 -290.783)" fill="#e8e8e8"/>
          <path id="Path_50228" data-name="Path 50228" d="M999.165,258.4c.247,1.115.454,2.239.621,3.363.03.187.316.108.286-.079-.177-1.124-.385-2.249-.621-3.363A.148.148,0,0,0,999.165,258.4Z" transform="translate(-926.952 -249.513)" fill="#e8e8e8"/>
          <path id="Path_50229" data-name="Path 50229" d="M999.715,257.194a26.211,26.211,0,0,0,3.935.039c.187-.02.187-.316,0-.3a26.207,26.207,0,0,1-3.935-.039C999.528,256.888,999.528,257.184,999.715,257.194Z" transform="translate(-927.325 -248.326)" fill="#e8e8e8"/>
          <path id="Path_50230" data-name="Path 50230" d="M1035.7,259.616c-.138,1.065-.266,2.131-.4,3.206-.02.187.276.187.3,0,.138-1.065.266-2.13.4-3.206C1036.011,259.428,1035.715,259.428,1035.7,259.616Z" transform="translate(-959.518 -250.65)" fill="#e8e8e8"/>
          <path id="Path_50231" data-name="Path 50231" d="M1002.2,231.808a1.794,1.794,0,0,1-.582-.335,1.424,1.424,0,0,1-.276-.937c-.059-.444-.306-.838-.335-1.292-.079.039-.148.089-.227.128a3.1,3.1,0,0,1,1.7,2.594c-.01.187.286.187.3,0a3.39,3.39,0,0,0-1.844-2.851.155.155,0,0,0-.227.128,2.95,2.95,0,0,0,.187.759,6.478,6.478,0,0,1,.2,1.065c.109.542.483.779.957,1C1002.219,232.133,1002.367,231.887,1002.2,231.808Z" transform="translate(-928.34 -223.266)" fill="#e8e8e8"/>
          <path id="Path_50232" data-name="Path 50232" d="M1016.066,208.113a4.285,4.285,0,0,1,.661-2.131,3.713,3.713,0,0,0,.345-1.627c-.1.01-.2.03-.286.039.365,1.706.819,3.324.039,5-.079.168.178.325.257.148a5.244,5.244,0,0,0,.5-2.446,17.915,17.915,0,0,0-.513-2.781.146.146,0,0,0-.286.039c.059,1.371-1.2,2.476-1,3.837.02.187.306.109.276-.079Z" transform="translate(-941.92 -200.833)" fill="#e8e8e8"/>
          <path id="Path_50233" data-name="Path 50233" d="M1067.7,184.548c.118,3.59.158,7.171.089,10.761a.148.148,0,0,0,.3,0q.089-5.385-.089-10.761A.148.148,0,1,0,1067.7,184.548Z" transform="translate(-988.731 -182.98)" fill="#e8e8e8"/>
          <path id="Path_50234" data-name="Path 50234" d="M1067.642,181.792a1.825,1.825,0,0,1,1.617-.049c.178.059.256-.227.079-.286a2.055,2.055,0,0,0-1.9.128C1067.287,181.7,1067.494,181.91,1067.642,181.792Z" transform="translate(-988.446 -180.174)" fill="#e8e8e8"/>
          <path id="Path_50235" data-name="Path 50235" d="M1085.2,184.548c.02,3.541.04,7.072.059,10.613a.148.148,0,0,0,.3,0c-.02-3.541-.039-7.072-.059-10.613A.148.148,0,1,0,1085.2,184.548Z" transform="translate(-1004.505 -182.98)" fill="#e8e8e8"/>
          <path id="Path_50236" data-name="Path 50236" d="M1069.842,205.387a1.021,1.021,0,0,1,1.341.049c.138.128.345-.079.207-.207a1.325,1.325,0,0,0-1.756-.049C1069.487,205.3,1069.694,205.505,1069.842,205.387Z" transform="translate(-990.429 -201.432)" fill="#e8e8e8"/>
          <path id="Path_50237" data-name="Path 50237" d="M1068.513,193.272a1.19,1.19,0,0,1,1.509-.039c.158.118.3-.148.148-.256a1.5,1.5,0,0,0-1.874.089C1068.158,193.193,1068.375,193.4,1068.513,193.272Z" transform="translate(-989.228 -190.451)" fill="#e8e8e8"/>
          <path id="Path_50238" data-name="Path 50238" d="M1086.948,208.984a5.363,5.363,0,0,1,1.312.158,1.687,1.687,0,0,0-.109-.138c.059,2.663.03,5.316-.108,7.979-.01.187.286.187.3,0,.138-2.653.168-5.316.109-7.979a.148.148,0,0,0-.109-.138,5.534,5.534,0,0,0-1.391-.168A.143.143,0,1,0,1086.948,208.984Z" transform="translate(-1005.947 -204.881)" fill="#e8e8e8"/>
          <path id="Path_50239" data-name="Path 50239" d="M1087.031,235.423a1.187,1.187,0,0,1,1.272-.03.148.148,0,0,0,.148-.256,1.455,1.455,0,0,0-1.568.03C1086.726,235.266,1086.873,235.522,1087.031,235.423Z" transform="translate(-1005.962 -228.519)" fill="#e8e8e8"/>
          <path id="Path_50240" data-name="Path 50240" d="M1086.474,221.8a1.325,1.325,0,0,1,1.095-.03c.178.069.325-.178.148-.256a1.634,1.634,0,0,0-1.391.03C1086.158,221.631,1086.306,221.887,1086.474,221.8Z" transform="translate(-1005.453 -216.304)" fill="#e8e8e8"/>
          <path id="Path_50241" data-name="Path 50241" d="M1106.944,280.315c0-.168-.108-.779-.01-.9.138-.168.9-.108,1.095-.118.681-.039,1.371-.069,2.052-.079,1.371-.02,2.742.03,4.1.138l-.148-.148a8.666,8.666,0,0,1,.079,1.341.148.148,0,0,0,.3,0,10.075,10.075,0,0,0-.079-1.341.151.151,0,0,0-.148-.148,45.973,45.973,0,0,0-5.08-.108c-.395.01-.779.03-1.174.059a3.62,3.62,0,0,0-1.085.089c-.385.178-.207.9-.2,1.223A.148.148,0,0,0,1106.944,280.315Z" transform="translate(-1023.793 -268.183)" fill="#e8e8e8"/>
          <path id="Path_50242" data-name="Path 50242" d="M1116.4,268.3a2.628,2.628,0,0,1-.1-.543c.069-.3.355-.227.572-.227.355-.01.72-.01,1.075-.02.75-.01,1.5-.03,2.259-.039.72-.01,1.44-.03,2.16-.039.394-.01.789-.01,1.174-.02.276,0,.434-.1.523.256a1.861,1.861,0,0,1,0,.523c-.01.187.286.187.3,0,.01-.256.089-.76-.118-.976-.187-.187-.572-.1-.8-.089l-3.334.059-3.235.059c-.217,0-.681-.089-.839.109-.187.227.04.789.079,1.036.039.178.326.1.286-.089Z" transform="translate(-1032.229 -257.523)" fill="#e8e8e8"/>
          <path id="Path_50243" data-name="Path 50243" d="M1181.615,278.58c.444.01.9.02,1.341-.01.217-.02.434-.1.414-.355-.02-.187-.316-.187-.3,0a5.7,5.7,0,0,1-1.46.069C1181.428,278.275,1181.428,278.571,1181.615,278.58Z" transform="translate(-1091.284 -267.415)" fill="#e8e8e8"/>
          <path id="Path_50244" data-name="Path 50244" d="M1125.813,258.81a3.555,3.555,0,0,1-.039-.562c.02-.2-.03-.227.2-.256a6.119,6.119,0,0,1,1.035.089c.661.049,1.332.079,1.992.089s1.332.01,1.992-.02a6.092,6.092,0,0,1,.947-.049.223.223,0,0,1,.316.109.226.226,0,0,1,.138.247c.03.079.039.178.069.266.069.178.355.1.286-.079-.089-.217-.03-.543-.207-.73-.158-.168-.385-.128-.6-.118-.977.049-1.963.079-2.939.069-.947-.02-1.894-.069-2.841-.158-.2-.02-.5-.1-.641.1-.158.237-.02.74,0,1,.02.2.316.2.3.01Z" transform="translate(-1040.778 -249.026)" fill="#e8e8e8"/>
          <path id="Path_50245" data-name="Path 50245" d="M1205.9,366.916V371.3a.148.148,0,0,0,.3,0v-4.389A.148.148,0,0,0,1205.9,366.916Z" transform="translate(-1113.3 -347.366)" fill="#e8e8e8"/>
          <path id="Path_50246" data-name="Path 50246" d="M1207.115,365.5h7.693a.148.148,0,0,0,0-.3h-7.693A.148.148,0,0,0,1207.115,365.5Z" transform="translate(-1114.269 -345.947)" fill="#e8e8e8"/>
          <path id="Path_50247" data-name="Path 50247" d="M1285,365.916V370.3a.148.148,0,0,0,.3,0v-4.389A.148.148,0,0,0,1285,365.916Z" transform="translate(-1184.598 -346.465)" fill="#e8e8e8"/>
          <path id="Path_50248" data-name="Path 50248" d="M1206.116,412.5h7.693a.148.148,0,0,0,0-.3h-7.693A.148.148,0,0,0,1206.116,412.5Z" transform="translate(-1113.367 -388.311)" fill="#e8e8e8"/>
          <path id="Path_50249" data-name="Path 50249" d="M1238.606,350.5a2.674,2.674,0,0,1,.089-.74,1.037,1.037,0,0,1,.138-.355c.03-.1.1-.128.217-.089.158-.069.237-.02.247.158a9.658,9.658,0,0,1,.2,1.322c.03.187.316.109.286-.079a9.911,9.911,0,0,0-.2-1.322.619.619,0,0,0-.5-.5c-.661-.039-.779,1.164-.779,1.608C1238.32,350.686,1238.616,350.686,1238.606,350.5Z" transform="translate(-1142.504 -331.246)" fill="#e8e8e8"/>
          <path id="Path_50250" data-name="Path 50250" d="M1210.8,373.416v3.255a.148.148,0,0,0,.3,0v-3.255A.148.148,0,0,0,1210.8,373.416Z" transform="translate(-1117.716 -353.225)" fill="#e8e8e8"/>
          <path id="Path_50251" data-name="Path 50251" d="M1212.616,372h6.707a.148.148,0,0,0,0-.3h-6.707A.148.148,0,0,0,1212.616,372Z" transform="translate(-1119.226 -351.805)" fill="#e8e8e8"/>
          <path id="Path_50252" data-name="Path 50252" d="M1280,372.416v3.452a.148.148,0,0,0,.3,0v-3.452A.148.148,0,0,0,1280,372.416Z" transform="translate(-1180.091 -352.324)" fill="#e8e8e8"/>
          <path id="Path_50253" data-name="Path 50253" d="M1211.616,406.5h6.411a.148.148,0,0,0,0-.3h-6.411A.148.148,0,0,0,1211.616,406.5Z" transform="translate(-1118.325 -382.903)" fill="#e8e8e8"/>
          <path id="Path_50254" data-name="Path 50254" d="M1212.811,380.977c.217-.316.414-.385.582-.227.03.02.049.039.079.059a1.715,1.715,0,0,0,.187.1.547.547,0,0,0,.375-.02.343.343,0,0,0,.2-.207c.049-.158-.069-.187-.079-.326-.049-.059-.03-.118.059-.2.02-.227.158-.276.394-.138a1.015,1.015,0,0,0,.168.01c.177-.03.2-.089.326-.2a.573.573,0,0,1,.986.365c.01.069.059.523-.02.572-.079-.1-.158-.187-.237-.286a.71.71,0,0,1,.552.395.152.152,0,0,0,.256,0,.365.365,0,0,1,.592-.02l.207-.207c-.079-.069-.148-.138-.227-.207-.256-.217-.237-.464.069-.75a.532.532,0,0,1,.454.789,1.162,1.162,0,0,1-1.213.464v.3l1.933.118c.187.01.187-.286,0-.3l-1.933-.118c-.187-.01-.187.276,0,.3a1.476,1.476,0,0,0,1.4-.5.888.888,0,0,0-.138-1.2.706.706,0,0,0-.957.108c-.355.444.059.927.394,1.223.138.128.345-.069.207-.207a.669.669,0,0,0-1.055.079h.256a.9.9,0,0,0-1.174-.454.632.632,0,0,0-.158,1.006.658.658,0,0,0,1-.276,1.4,1.4,0,0,0-.128-1.371.824.824,0,0,0-1.144-.128c-.246.187-.1.217-.513.187a1.061,1.061,0,0,0-.395,0,.528.528,0,0,0-.355.276.376.376,0,0,0-.02.325c.01.039.118.128.108.158-.039.217-.612-.178-.71-.2a.592.592,0,0,0-.612.789C1212.584,381.234,1212.87,381.165,1212.811,380.977Z" transform="translate(-1119.244 -358.696)" fill="#e8e8e8"/>
          <path id="Path_50255" data-name="Path 50255" d="M1301.4,310.116v3.393a.148.148,0,0,0,.3,0v-3.393A.148.148,0,0,0,1301.4,310.116Z" transform="translate(-1199.38 -296.169)" fill="#e8e8e8"/>
          <path id="Path_50256" data-name="Path 50256" d="M1303.248,308.5h5.445a.148.148,0,0,0,0-.3h-5.445A.148.148,0,0,0,1303.248,308.5Z" transform="translate(-1200.912 -294.569)" fill="#e8e8e8"/>
          <path id="Path_50257" data-name="Path 50257" d="M1302.415,345.5h5.445a.148.148,0,0,0,0-.3h-5.445A.148.148,0,0,0,1302.415,345.5Z" transform="translate(-1200.169 -327.919)" fill="#e8e8e8"/>
          <path id="Path_50258" data-name="Path 50258" d="M1358.3,309.648v3.482a.148.148,0,0,0,.3,0v-3.482A.148.148,0,0,0,1358.3,309.648Z" transform="translate(-1250.668 -295.741)" fill="#e8e8e8"/>
          <path id="Path_50259" data-name="Path 50259" d="M1304.8,311.348v3.225a.148.148,0,0,0,.3,0v-3.225A.148.148,0,0,0,1304.8,311.348Z" transform="translate(-1202.445 -297.273)" fill="#e8e8e8"/>
          <path id="Path_50260" data-name="Path 50260" d="M1304.548,342.9h5.2a.148.148,0,0,0,0-.3h-5.2A.148.148,0,0,0,1304.548,342.9Z" transform="translate(-1202.084 -325.576)" fill="#e8e8e8"/>
          <path id="Path_50261" data-name="Path 50261" d="M1305.415,310.6h5.031a.148.148,0,0,0,0-.3h-5.031A.148.148,0,0,0,1305.415,310.6Z" transform="translate(-1202.873 -296.462)" fill="#e8e8e8"/>
          <path id="Path_50262" data-name="Path 50262" d="M1357,310.916v3.1a.148.148,0,0,0,.3,0v-3.1A.148.148,0,0,0,1357,310.916Z" transform="translate(-1249.496 -296.89)" fill="#e8e8e8"/>
          <path id="Path_50263" data-name="Path 50263" d="M1314.334,331.451a2.686,2.686,0,0,1,2.574-.1.148.148,0,0,0,.148-.256,2.974,2.974,0,0,0-2.87.1C1314.008,331.274,1314.166,331.53,1314.334,331.451Z" transform="translate(-1210.835 -314.911)" fill="#e8e8e8"/>
          <path id="Path_50264" data-name="Path 50264" d="M1312.625,320.788c-.178-.217.276-.286.335-.4.049-.089-.02-.365.01-.355a.15.15,0,0,0,.187-.138c-.01-.464.493.276.473.247a.556.556,0,0,0,.217.178c.138.059.434-.1.513-.039a.149.149,0,0,0,.247-.069,1.794,1.794,0,0,1,.247-.079.153.153,0,0,0,.256.108c.266.207.306.375.109.493-.148.128.069.335.207.207a.656.656,0,0,0,.2-.9.458.458,0,0,0-.73-.01c.089.039.168.069.256.108a.36.36,0,0,0-.345-.414c-.256-.02-.4.2-.483.414a2.329,2.329,0,0,0,.247-.069c-.168-.138-.2-.079-.385-.089-.5-.02-.355-.335-.681-.523a.44.44,0,0,0-.641.434,2.322,2.322,0,0,1,.188-.138.411.411,0,0,0-.424.089c-.109.138.059.247.02.345-.059.158-.345.108-.414.316s.069.375.188.513S1312.744,320.936,1312.625,320.788Z" transform="translate(-1209.126 -304.662)" fill="#e8e8e8"/>
          <path id="Path_50265" data-name="Path 50265" d="M1325.061,297.7a.611.611,0,0,1-.059-.395c.01-.089.089-.375.227-.335.1.03.2.286.217.375a1.1,1.1,0,0,1,.04.473c-.02.187.276.187.3,0a1.267,1.267,0,0,0-.138-.76c-.1-.2-.286-.464-.542-.385a.691.691,0,0,0-.375.493.986.986,0,0,0,.079.69C1324.894,298.021,1325.14,297.873,1325.061,297.7Z" transform="translate(-1220.378 -284.163)" fill="#e8e8e8"/>
          <path id="Path_50266" data-name="Path 50266" d="M1305.8,361.548v4.527a.148.148,0,0,0,.3,0v-4.527A.148.148,0,0,0,1305.8,361.548Z" transform="translate(-1203.346 -342.521)" fill="#e8e8e8"/>
          <path id="Path_50267" data-name="Path 50267" d="M1305.948,359.1h4.586a.148.148,0,0,0,0-.3h-4.586A.148.148,0,1,0,1305.948,359.1Z" transform="translate(-1203.346 -340.178)" fill="#e8e8e8"/>
          <path id="Path_50268" data-name="Path 50268" d="M1352.3,359.016v4.774a.148.148,0,0,0,.3,0v-4.774A.148.148,0,0,0,1352.3,359.016Z" transform="translate(-1245.26 -340.245)" fill="#e8e8e8"/>
          <path id="Path_50269" data-name="Path 50269" d="M1307.215,409.5h4.34a.148.148,0,0,0,0-.3h-4.34A.148.148,0,0,0,1307.215,409.5Z" transform="translate(-1204.495 -385.607)" fill="#e8e8e8"/>
          <path id="Path_50270" data-name="Path 50270" d="M1322.124,376.915a1.111,1.111,0,0,0,.907,1.263.978.978,0,0,0,1.095-1.045c-.01-.187-.306-.187-.3,0a.679.679,0,0,1-.819.74.834.834,0,0,1-.592-.957C1322.439,376.728,1322.144,376.728,1322.124,376.915Z" transform="translate(-1218.052 -356.38)" fill="#e8e8e8"/>
          <path id="Path_50271" data-name="Path 50271" d="M1325,389.015c-.02.138.069.247.03.375-.059.2-.316.385-.444.533a1.352,1.352,0,0,0-.385.858c-.01.187.286.187.3,0,.02-.454.4-.72.661-1.055a.906.906,0,0,0,.187-.325c.03-.138-.069-.247-.049-.385C1325.312,388.828,1325.016,388.828,1325,389.015Z" transform="translate(-1219.929 -367.286)" fill="#e8e8e8"/>
          <path id="Path_50272" data-name="Path 50272" d="M1314.651,365.947c-.345-.02-1-.237-.839-.72.079-.256.4-.266.543-.444.187-.227.03-.355-.118-.523s-.424-.217-.039-.562c.217-.2.572.049.75.2.109.1.128.207.276.276a.44.44,0,0,0,.335.03c.177-.079.375-.6.562.049a.138.138,0,0,0,.178.1c.01.207.02.4.02.612-.118.148.089.355.207.207.187-.237.4-.533.266-.848a.469.469,0,0,0-.582-.256c.059.03.118.069.177.1-.079-.266-.207-.542-.513-.562a.411.411,0,0,0-.266.059,1.316,1.316,0,0,1-.119.148c-.207.108-.266-.079-.385-.2a.711.711,0,0,0-.71-.306.925.925,0,0,0-.71.483c-.108.316.158.4.276.641.128.049.128.109-.01.178a.21.21,0,0,1-.118.108,1.076,1.076,0,0,0-.138.089.872.872,0,0,0-.178.286c-.227.72.513,1.1,1.1,1.144a.144.144,0,1,0,.03-.286Z" transform="translate(-1210.264 -344.228)" fill="#e8e8e8"/>
          <path id="Path_50273" data-name="Path 50273" d="M1323.821,352.581c-.01-.148-.059-.414.118-.5s.158.2.138.3c-.04.187.247.266.286.079a.738.738,0,0,0-.03-.483.38.38,0,0,0-.375-.2c-.4.049-.454.483-.424.809C1323.535,352.769,1323.831,352.769,1323.821,352.581Z" transform="translate(-1219.326 -333.841)" fill="#e8e8e8"/>
          <path id="Path_50274" data-name="Path 50274" d="M1309.5,361.248v4.35a.148.148,0,0,0,.3,0v-4.35A.148.148,0,0,0,1309.5,361.248Z" transform="translate(-1206.681 -342.251)" fill="#e8e8e8"/>
          <path id="Path_50275" data-name="Path 50275" d="M1310.015,406.2h3.936a.148.148,0,0,0,0-.3h-3.936A.148.148,0,0,0,1310.015,406.2Z" transform="translate(-1207.019 -382.632)" fill="#e8e8e8"/>
          <path id="Path_50276" data-name="Path 50276" d="M1349.6,364.782v-4.567a.148.148,0,0,0-.3,0v4.567A.148.148,0,0,0,1349.6,364.782Z" transform="translate(-1242.556 -341.327)" fill="#e8e8e8"/>
          <path id="Path_50277" data-name="Path 50277" d="M1310.715,360.3h3.9a.148.148,0,0,0,0-.3h-3.9A.148.148,0,0,0,1310.715,360.3Z" transform="translate(-1207.65 -341.259)" fill="#e8e8e8"/>
        </g>
        <path id="Path_50278" data-name="Path 50278" d="M679.748,898.921a2.137,2.137,0,0,0-2.288-.276,2.224,2.224,0,0,0-1.1,2.466c.177,1.351.355,2.713.533,4.064-3.6,1.647-5.316,2.722-5.168,3.215.178.6,3.1.345,8.769-.75C680.241,904.731,679.995,901.831,679.748,898.921Z" transform="translate(-618.366 -826.583)" fill="#353c4a"/>
        <path id="Path_50279" data-name="Path 50279" d="M702.621,567.029c-.138,1.983-.365,5.2-.75,9.183-.474,5-.671,10.041-1.341,15.022-.69,5.168-1.45,8.709.3,9.942a2.735,2.735,0,0,0,1.933.375c.572-.148,1.144-.306,1.716-.454a2.239,2.239,0,0,0,1.933.227c1.8-.917.1-5.622.227-12.369.089-4.448.947-8.887,2.091-14.716.868-4.448,1.529-6.756.3-7.891C707.523,564.958,704.2,566.289,702.621,567.029Z" transform="translate(-643.645 -526.707)" fill="#fff" stroke="#161616" stroke-miterlimit="10" stroke-width="0.3"/>
        <path id="Path_50280" data-name="Path 50280" d="M733.019,566.132a34.811,34.811,0,0,1,.769,7.6c-.049,5.188-1.263,8.463-2.14,12.359a55.773,55.773,0,0,0-1.223,15.318c.523-.1,1.055-.207,1.578-.306a1.907,1.907,0,0,0,1.272.355,1.872,1.872,0,0,0,1.174-.562,2.365,2.365,0,0,0,.355-1.894c-.227-1.844-.276-3.709-.464-5.563a36.674,36.674,0,0,1-.158-4.389,39.841,39.841,0,0,1,.306-4.083c.434-3.659.829-4.281,1.687-9.6.651-4,.365-3.275.611-4.182a7.943,7.943,0,0,0,.4-3.472,2.256,2.256,0,0,0-.562-1.381,2.681,2.681,0,0,0-1.992-.562A4.286,4.286,0,0,0,733.019,566.132Z" transform="translate(-671.213 -526.737)" fill="#6d6c6c" opacity="0.14"/>
        <path id="Path_50281" data-name="Path 50281" d="M745.889,671.4a27.479,27.479,0,0,0-1.992,6.382c-.828,4.577-.01,6.9-.71,11.8a32.2,32.2,0,0,1-1.687,6.638c.355.049.71.1,1.075.158a1.944,1.944,0,0,0,1.687,0c.868-.582.572-2.288.355-4.291,0,0-.266-2.466-.306-7.151a51.249,51.249,0,0,1,.562-7.3c.306-2.505.681-4.626,1.016-6.234Z" transform="translate(-681.272 -621.945)" fill="#6d6c6c" opacity="0.1"/>
        <path id="Path_50282" data-name="Path 50282" d="M805.948,891.321a2.137,2.137,0,0,0-2.288-.276,2.224,2.224,0,0,0-1.1,2.466c.178,1.351.355,2.712.533,4.064-3.6,1.647-5.316,2.722-5.168,3.216.178.6,3.1.345,8.769-.75C806.432,897.131,806.185,894.231,805.948,891.321Z" transform="translate(-732.118 -819.733)" fill="#353c4a"/>
        <path id="Path_50283" data-name="Path 50283" d="M767.877,562.953c.572,4.685,1.184,9.518,1.835,14.539a42.218,42.218,0,0,0,.9,5.612c.592,2.328,1.391,4.31,2.081,7.911.326,1.677.493,3.038-.286,4.064-.582.769-1.716,1.381-1.973,1.144-.109-.109-.039-.385.059-.631-.237.227-1.736,1.637-2.929,1.144a2.319,2.319,0,0,1-1.124-1.549,37.773,37.773,0,0,1-1.628-8.591c-.089-1.657-.306-3.354-.73-6.756a68.112,68.112,0,0,0-2.18-10.495,4.805,4.805,0,0,1-2.14-3.6,4.427,4.427,0,0,1,1-3.028C762.176,561.187,765.214,561.079,767.877,562.953Z" transform="translate(-697.726 -522.937)" fill="#fff" stroke="#161616" stroke-miterlimit="10" stroke-width="0.3"/>
        <path id="Path_50284" data-name="Path 50284" d="M758.752,586.785a3.792,3.792,0,0,0,.109,3.156,4.383,4.383,0,0,0,2.209,2.052c.178.059.256-.227.079-.286a4.036,4.036,0,0,1-2.032-1.914,3.529,3.529,0,0,1-.079-2.929C759.107,586.687,758.821,586.608,758.752,586.785Z" transform="translate(-696.561 -545.586)" fill="#fff"/>
        <path id="Path_50285" data-name="Path 50285" d="M758.4,605.016a3.519,3.519,0,0,0,2.574,3.245.148.148,0,0,0,.079-.286,3.226,3.226,0,0,1-2.357-2.959C758.684,604.828,758.388,604.828,758.4,605.016Z" transform="translate(-696.502 -561.982)" fill="#fff"/>
        <path id="Path_50286" data-name="Path 50286" d="M802.7,562.7c.256.769.651,2.012,1.085,3.551a81.272,81.272,0,0,1,3.58,21.473c.02,1.549.079,9.429.789,9.469.168.01.444-.424.819-.326.256.069.266.306.493.395.493.187,1.312-.661,1.706-1.282a3.141,3.141,0,0,0,.523-1.41,3.973,3.973,0,0,0-.1-1.213c-.158-1.036-.237-1.549-.3-1.8-.424-2-1.183-3.926-1.8-6.638-.266-1.144-.444-2.17-.661-3.353-.069-.375-.256-1.47-.464-2.831-.464-3.117-.612-5.257-.917-7.989-.168-1.489-.424-3.59-.819-6.145a2.794,2.794,0,0,0-.592-.858,3.348,3.348,0,0,0-1.351-.69A6.438,6.438,0,0,0,802.7,562.7Z" transform="translate(-736.435 -523.966)" fill="#6d6c6c" opacity="0.14"/>
        <path id="Path_50287" data-name="Path 50287" d="M856.573,773c.542,2.525.907,4.685,1.154,6.382.394,2.762.414,3.768-.1,4.833-.769,1.608-2.367,2.565-2.269,2.693.039.049.3-.049,1.184-.621.03.237.1.5.3.592.5.217,1.618-.868,2.1-1.9.661-1.43.178-2.9-.266-4.31C858.122,778.879,857.382,776.334,856.573,773Z" transform="translate(-783.897 -713.523)" fill="#6d6c6c" opacity="0.2"/>
        <path id="Path_50288" data-name="Path 50288" d="M561.391,405.619c-.967-.128-1.854,1.134-3.58,3.649a39.392,39.392,0,0,0-2.555,4.271c-1.174-.059-2.347-.118-3.521-.187-1.095-.059-2.19-.118-3.284-.187a19.49,19.49,0,0,0-1.884-.552c-1.292-.316-3.965-.838-4.133-.375-.049.148.128.454,1.272,1.174a2.807,2.807,0,0,0,0,1.983,2.732,2.732,0,0,0,1.154,1.361,2.937,2.937,0,0,0,3.344-.74c.769.464,4.942,2.9,8.867,1.233a10.3,10.3,0,0,0,2.979-2.1c1.45-1.332,3.354-3.077,3.4-5.5.039-1.756-.888-3.866-2.061-4.024Z" transform="translate(-501.833 -382.371)" fill="#fff" stroke="#161616" stroke-miterlimit="10" stroke-width="0.3"/>
        <path id="Path_50289" data-name="Path 50289" d="M541.414,472.272a11.672,11.672,0,0,0,1.194,1.124,4.927,4.927,0,0,0,1.4.661c.138.049.2-.168.059-.217a4.508,4.508,0,0,1-1.46-.73,14.134,14.134,0,0,1-1.036-1C541.474,472.016,541.316,472.174,541.414,472.272Z" transform="translate(-500.893 -442.288)" fill="#161616"/>
        <path id="Path_50290" data-name="Path 50290" d="M576.282,484.234a2.466,2.466,0,0,0-.986.651c-.187.207-.464.533-.395.829.069.335.483.335.759.335a2.566,2.566,0,0,0,1.253-.365c.118-.069.01-.266-.108-.187a2.314,2.314,0,0,1-.8.306c-.247.039-.967.128-.838-.335a1.958,1.958,0,0,1,1.184-1.016C576.469,484.4,576.41,484.184,576.282,484.234Z" transform="translate(-531.095 -453.233)" fill="#161616"/>
        <path id="Path_50291" data-name="Path 50291" d="M553.005,485.782c-.207.661-.207,1.3.5,1.618a1.188,1.188,0,0,0,1.549-.444c.059-.128-.128-.237-.187-.108a.964.964,0,0,1-1.272.345c-.6-.266-.543-.809-.375-1.351A.113.113,0,0,0,553.005,485.782Z" transform="translate(-511.261 -454.564)" fill="#161616"/>
        <path id="Path_50292" data-name="Path 50292" d="M553.6,500.354a1.276,1.276,0,0,0,.977,1.223,1.08,1.08,0,0,0,1.193-.69c.049-.128-.158-.187-.217-.059a.867.867,0,0,1-1.026.513,1.077,1.077,0,0,1-.71-.986C553.814,500.216,553.587,500.216,553.6,500.354Z" transform="translate(-511.902 -467.676)" fill="#161616"/>
        <path id="Path_50293" data-name="Path 50293" d="M573.8,505.886c.769-.138.513,1.233-.049,1.184-.138-.01-.138.207,0,.227.474.039.73-.543.76-.937a.636.636,0,0,0-.769-.671C573.606,505.7,573.665,505.906,573.8,505.886Z" transform="translate(-529.977 -472.568)" fill="#161616"/>
        <path id="Path_50294" data-name="Path 50294" d="M572.692,497.773c0-.01.01-.01.01-.02l-.109.03c.079.02.089.276.079.325a.533.533,0,0,1-.158.345c-.1.1.059.256.158.158a.757.757,0,0,0,.217-.572c-.01-.158-.059-.434-.247-.473a.112.112,0,0,0-.109.03c0,.01-.01.01-.01.02C572.445,497.724,572.593,497.882,572.692,497.773Z" transform="translate(-528.926 -465.254)" fill="#161616"/>
        <path id="Path_50295" data-name="Path 50295" d="M568.2,490.314a.36.36,0,0,1,.325.464.113.113,0,0,0,.217.059.574.574,0,0,0-.533-.74A.109.109,0,1,0,568.2,490.314Z" transform="translate(-524.963 -458.524)" fill="#161616"/>
        <path id="Path_50296" data-name="Path 50296" d="M572.48,421.8a16.786,16.786,0,0,1-1.509,3.216,11.686,11.686,0,0,1-3.294,3.866,9.312,9.312,0,0,1-10.406.444,1.536,1.536,0,0,1-1.263.414c-.237-.059-.326-.177-.74-.306a3.326,3.326,0,0,0-.8-.138c-.572-.039-1.164-.079-1.322.187-.207.365.464,1.144.986,1.568a2.605,2.605,0,0,0,1.233.6,2.916,2.916,0,0,0,2.446-1.046,12.361,12.361,0,0,0,1.43.769,9.605,9.605,0,0,0,4.281,1.095,8.338,8.338,0,0,0,3.985-1.016,23.977,23.977,0,0,0,2.466-2.061,10.5,10.5,0,0,0,2.2-2.338,5.6,5.6,0,0,0,.769-1.647A5.324,5.324,0,0,0,572.48,421.8Z" transform="translate(-511.463 -396.964)" fill="#6d6c6c" opacity="0.12"/>
        <path id="Path_50297" data-name="Path 50297" d="M585.159,433.8a12.511,12.511,0,0,1-1.075,2.584,11.56,11.56,0,0,1-4.833,4.882,9,9,0,0,1-4.448,1.154,8.7,8.7,0,0,1-4.665-1.509,6.491,6.491,0,0,1-1.756.769c-1.026.266-1.766.178-1.785.325s.69.464,1.43.444a3.046,3.046,0,0,0,2.032-.986,9.335,9.335,0,0,0,6.559,1.785,10.232,10.232,0,0,0,5.632-3.077,7.85,7.85,0,0,0,2.772-3.985A6.468,6.468,0,0,0,585.159,433.8Z" transform="translate(-523.619 -407.78)" fill="#6d6c6c" opacity="0.15"/>
        <path id="Path_50298" data-name="Path 50298" d="M714.384,397.016c-.2.227-.542.71-.838,3.018a31.6,31.6,0,0,0,0,7.476c.217,2.2.523,4.853.967,7.871a17.678,17.678,0,0,0,7.989.592,17.3,17.3,0,0,0,3.935-1.115,40.23,40.23,0,0,1-.128-5.77c.335-6.776.641-8.66.641-8.66.227-1.351.434-2.19-.069-2.949-.5-.779-1.46-1.046-4.508-1.243C717.748,395.921,715.42,395.793,714.384,397.016Z" transform="translate(-655.872 -373.729)" fill="#fff"/>
        <path id="Path_50299" data-name="Path 50299" d="M791.6,398.4c.306,1.085.562,2.239.779,3.462a38.424,38.424,0,0,1-.779,16.383c.572-.039,1.174-.108,1.815-.217a19.414,19.414,0,0,0,3.541-.947c-.138-1.963-.178-3.64-.178-4.971a64.792,64.792,0,0,1,.474-7.694c.177-1.381.365-2.535.523-3.373a1.93,1.93,0,0,0-.128-1.124,2.064,2.064,0,0,0-.868-.907,3.061,3.061,0,0,0-1.647-.385C794.283,398.6,793.158,398.548,791.6,398.4Z" transform="translate(-726.43 -375.872)" fill="#6d6c6c" opacity="0.14"/>
        <path id="Path_50300" data-name="Path 50300" d="M806.439,422a26.3,26.3,0,0,0-2.071,9.942,9.868,9.868,0,0,1-.947,4.843,8.928,8.928,0,0,1-2.121,2.683,15.294,15.294,0,0,0,1.943-.385,16.353,16.353,0,0,0,2.338-.819c-.089-2.545-.079-5.307.089-8.256C805.818,427.129,806.094,424.456,806.439,422Z" transform="translate(-735.173 -397.144)" fill="#6d6c6c" opacity="0.16"/>
        <path id="Path_50301" data-name="Path 50301" d="M818.5,405.413c1.213-.533,2.86,1.026,3.926,2.022a9.884,9.884,0,0,1,3.64,6.944,9.431,9.431,0,0,1-5.454,8.68,4.347,4.347,0,0,1-.286,1.45c-.128.316-.779,1.973-2.022,2.042a1.889,1.889,0,0,1-1.4-.612.509.509,0,0,1-.365-.207.57.57,0,0,1-.01-.612.683.683,0,0,1-.345-.454.669.669,0,0,1,.178-.592.628.628,0,0,1,.207-.493c.178-.118.365-.02.651-.039a1.349,1.349,0,0,0,.769-.365c-.355-.1-1.154-.355-1.134-.641.01-.335,1.164-.533,1.42-.582a6.1,6.1,0,0,1,1.539-.059c.217-.395.533-.976.907-1.677.631-1.184.947-1.775,1.134-2.2a10.441,10.441,0,0,0,.858-3.649,24.657,24.657,0,0,0-1.992-1.736c-1.874-1.46-2.505-1.489-3.018-2.318-.967-1.548-.5-4.33.8-4.9Z" transform="translate(-748.574 -382.096)" fill="#fff" stroke="#161616" stroke-miterlimit="10" stroke-width="0.3"/>
        <path id="Path_50302" data-name="Path 50302" d="M817.075,593.16c.158.769,1.341.592,1.815.316.118-.069.01-.266-.109-.187-.345.207-1.371.434-1.489-.177C817.262,592.963,817.045,593.022,817.075,593.16Z" transform="translate(-749.39 -551.3)" fill="#161616"/>
        <path id="Path_50303" data-name="Path 50303" d="M817.891,604.542a2.17,2.17,0,0,0,2.081-.059c.128-.059.02-.247-.108-.187a1.994,1.994,0,0,1-1.854.059C817.891,604.266,817.783,604.463,817.891,604.542Z" transform="translate(-750.088 -561.449)" fill="#161616"/>
        <path id="Path_50304" data-name="Path 50304" d="M822.3,612.52a1.848,1.848,0,0,0,1.884-.138c.118-.079.01-.276-.108-.187a1.618,1.618,0,0,1-1.657.138C822.285,612.263,822.167,612.451,822.3,612.52Z" transform="translate(-754.048 -568.559)" fill="#161616"/>
        <path id="Path_50305" data-name="Path 50305" d="M820.986,406.1c-.2.671,2.111,1.312,4.133,3.482a8.5,8.5,0,0,1,2.466,4.547A8.4,8.4,0,0,1,826,420a10.175,10.175,0,0,1-3.087,3.008,3.228,3.228,0,0,1-.809,2.13,2.79,2.79,0,0,1-1.687.957c-.523.059-1-.089-1.016-.03s.355.138.829.464c.306.207.316.3.464.365.612.286,1.578-.582,1.687-.671a4,4,0,0,0,1.144-2.781c.227-.128.533-.306.888-.542a12.628,12.628,0,0,0,2.288-1.894,9.059,9.059,0,0,0,1.943-3.659,8.586,8.586,0,0,0-.128-5.218,10.477,10.477,0,0,0-1.766-2.831,15.871,15.871,0,0,0-2.5-2.545,3.238,3.238,0,0,0-1.943-1.095C821.864,405.628,821.095,405.737,820.986,406.1Z" transform="translate(-751.486 -382.41)" fill="#6d6c6c" opacity="0.18"/>
        <path id="Path_50306" data-name="Path 50306" d="M864.069,456a10.4,10.4,0,0,1,.75,4.261,10.069,10.069,0,0,1-1.016,4.133,10.48,10.48,0,0,1-4.1,4.34,8.54,8.54,0,0,0,2.939-1.844,9.4,9.4,0,0,0,2.594-7.476A8.858,8.858,0,0,0,864.069,456Z" transform="translate(-787.813 -427.791)" fill="#6d6c6c" opacity="0.18"/>
        <path id="Path_50307" data-name="Path 50307" d="M710.621,279.115a31.671,31.671,0,0,0,1.647,4.951,21.361,21.361,0,0,0,1.036,1.963,10.157,10.157,0,0,1-6.7.74,10.536,10.536,0,0,0,.059-1.992,9.965,9.965,0,0,0-.474-2.387c-.947-.118-1.9-.247-2.851-.365-.187-.414-.375-.838-.562-1.253l-.779-.03c.2-.572.493-1.47.839-2.584.641-2.1.631-2.4.976-2.87.957-1.292,3.1-2.121,4.508-1.42C709.161,274.272,709.654,275.89,710.621,279.115Z" transform="translate(-645.668 -263.393)" fill="#fff" stroke="#161616" stroke-miterlimit="10" stroke-width="0.3"/>
        <path id="Path_50308" data-name="Path 50308" d="M700.916,343.965a9.008,9.008,0,0,0,1.46-.1c.187-.03.109-.316-.079-.286a8.118,8.118,0,0,1-1.381.089A.148.148,0,0,0,700.916,343.965Z" transform="translate(-644.563 -326.458)" fill="#161616"/>
        <path id="Path_50309" data-name="Path 50309" d="M698.274,305.935a.643.643,0,0,1,.819.187c.108.158.365.01.256-.148a.946.946,0,0,0-1.223-.3C697.958,305.767,698.106,306.024,698.274,305.935Z" transform="translate(-642.109 -292.195)" fill="#161616"/>
        <path id="Path_50310" data-name="Path 50310" d="M722.239,309.781a.828.828,0,0,1,.947.326c.109.158.365.01.257-.148a1.133,1.133,0,0,0-1.282-.454.144.144,0,0,0,.079.276Z" transform="translate(-663.746 -295.696)" fill="#161616"/>
        <path id="Path_50311" data-name="Path 50311" d="M721.8,317.488a.513.513,0,0,1,.069-.316.3.3,0,0,1,.049-.069c-.039-.049-.059-.059-.049-.01-.02.02-.01.118-.02.148a.878.878,0,0,1-.049.148.217.217,0,0,1-.03.049c.049.089.079.1.1.03a.994.994,0,0,0,.089-.178l.089-.178a.15.15,0,0,0-.237-.178.542.542,0,0,0-.138.227.148.148,0,0,0,.286.079.168.168,0,0,1,.059-.1l-.237-.178c-.069.138-.148.276-.207.424a.232.232,0,0,0,.069.306c.266.168.434-.178.483-.385s.039-.612-.286-.523c-.256.079-.355.454-.345.681C721.514,317.675,721.81,317.675,721.8,317.488Z" transform="translate(-663.238 -302.298)" fill="#161616"/>
        <path id="Path_50312" data-name="Path 50312" d="M716.9,263.737a4.971,4.971,0,0,1,.7-1.864,3.808,3.808,0,0,1,1.075-1.164,3.6,3.6,0,0,1,3.916.217,3.891,3.891,0,0,1,1.5,3.837C721.7,264.427,719.3,264.082,716.9,263.737Z" transform="translate(-659.098 -251.329)" fill="#5e70ef"/>
        <path id="Path_50313" data-name="Path 50313" d="M673.213,287.953l11.086,1.391c.562.069.562-.819,0-.888l-11.086-1.391C672.641,287,672.651,287.884,673.213,287.953Z" transform="translate(-619.336 -275.515)" fill="#161616"/>
        <path id="Path_50314" data-name="Path 50314" d="M706.539,303.619a3.442,3.442,0,0,0-1.47,1.213c-.927,1.124-.651,1.539-1.3,2.239-1.036,1.115-2.091.454-3.018,1.549a3.38,3.38,0,0,0-.651,2.466,3.3,3.3,0,0,0,1.085,2.16c.8.661,1.864.809,1.933.661.02-.049-.059-.187-.651-.582a2.122,2.122,0,0,0,.789.335c.4.069.789,0,.789-.059s-.217-.039-.385-.217a.768.768,0,0,1-.168-.335,1.393,1.393,0,0,0,1.115.276c1.055-.316,1.243-2.653,1.3-3.432.2-2.505-.523-3.876.355-4.764a.985.985,0,0,1,.819-.355,1.154,1.154,0,0,1,.71,1.351c-.138.434-.631.552-.6.641a2.3,2.3,0,0,0,1.578-.612,1.476,1.476,0,0,0,.572-.661,1.58,1.58,0,0,0-.325-1.47A2.344,2.344,0,0,0,706.539,303.619Z" transform="translate(-643.934 -290.284)" fill="#161616" stroke="#161616" stroke-miterlimit="10" stroke-width="0.3"/>
        <path id="Path_50315" data-name="Path 50315" d="M765.945,331.781c-.158.02-.385.02-.395-.03-.01-.03.049-.069.049-.069a.766.766,0,0,1-.424.266.479.479,0,0,1-.276-.059,22.217,22.217,0,0,1,1.953,6.756,5.732,5.732,0,0,0,1.716-.266,5.93,5.93,0,0,0,1.341-.621,14.809,14.809,0,0,1-1.6-3.265c-.118-.355-.375-1.193-.493-1.608-.227-.75-.414-1.371-.533-1.785a2.353,2.353,0,0,1-.3.237A2.121,2.121,0,0,1,765.945,331.781Z" transform="translate(-702.364 -315.21)" fill="#6d6c6c" opacity="0.22"/>
        <path id="Path_50316" data-name="Path 50316" d="M748.6,260.322a2.23,2.23,0,0,1,1.8,1.854,2.271,2.271,0,0,1-.74,1.874c1.026.128,2.042.247,3.068.375a3.506,3.506,0,0,0-.039-.937,3.98,3.98,0,0,0-1.055-2.1,3.664,3.664,0,0,0-2.328-1.1A4.463,4.463,0,0,0,748.6,260.322Z" transform="translate(-687.671 -251.375)" fill="#515ba8"/>
        <path id="Path_50317" data-name="Path 50317" d="M528.5,698.4c.049.533.089,1.075.138,1.608l50.215.089c.148-.533.3-1.075.444-1.608Z" transform="translate(-489.281 -646.282)" fill="#fff"/>
        <path id="Path_50318" data-name="Path 50318" d="M533.948,696.4h.533a.148.148,0,0,0,0-.3h-.533A.148.148,0,1,0,533.948,696.4Z" transform="translate(-494.058 -644.208)" fill="#161616"/>
        <path id="Path_50319" data-name="Path 50319" d="M527.231,696.592h50.816a.3.3,0,0,0,0-.592H527.231A.3.3,0,0,0,527.231,696.592Z" transform="translate(-487.883 -644.118)" fill="#161616"/>
        <path id="Path_50320" data-name="Path 50320" d="M528.563,711.392h50.008a.3.3,0,0,0,0-.592H528.563A.3.3,0,0,0,528.563,711.392Z" transform="translate(-489.078 -657.458)" fill="#161616"/>
        <path id="Path_50321" data-name="Path 50321" d="M547.1,728.831V760.7a.3.3,0,0,0,.592,0V728.831A.3.3,0,0,0,547.1,728.831Z" transform="translate(-506.046 -673.458)" fill="#161616"/>
        <path id="Path_50322" data-name="Path 50322" d="M964.9,724.763v28.811a.3.3,0,0,0,.592,0V724.763A.3.3,0,0,0,964.9,724.763Z" transform="translate(-882.637 -669.785)" fill="#161616"/>
        <path id="Path_50323" data-name="Path 50323" d="M131.164,979.092h57.948a.3.3,0,0,0,0-.592H131.164A.3.3,0,0,0,131.164,979.092Z" transform="translate(-130.875 -898.754)" fill="#161616"/>
        <path id="Path_50324" data-name="Path 50324" d="M833.663,981.792h51.211a.3.3,0,0,0,0-.592H833.663A.3.3,0,0,0,833.663,981.792Z" transform="translate(-764.085 -901.188)" fill="#161616"/>
        <path id="Path_50325" data-name="Path 50325" d="M548.3,728.663v31.149a.3.3,0,0,0,.592,0V728.663A.3.3,0,0,0,548.3,728.663Z" transform="translate(-507.128 -673.3)" fill="#161616"/>
        <path id="Path_50326" data-name="Path 50326" d="M549.6,730.031v31.02a.3.3,0,0,0,.592,0v-31.02A.3.3,0,0,0,549.6,730.031Z" transform="translate(-508.299 -674.54)" fill="#161616"/>
        <path id="Path_50327" data-name="Path 50327" d="M964.4,723.331V751.57a.3.3,0,0,0,.592,0V723.331A.3.3,0,0,0,964.4,723.331Z" transform="translate(-882.186 -668.5)" fill="#161616"/>
        <path id="Path_50328" data-name="Path 50328" d="M965.8,724.663v27.982a.3.3,0,0,0,.592,0V724.663A.3.3,0,0,0,965.8,724.663Z" transform="translate(-883.448 -669.695)" fill="#161616"/>
        <path id="Path_50329" data-name="Path 50329" d="M533.809,712.584a14.907,14.907,0,0,1,1.371,1.963c.2.326.71.03.513-.3a16.871,16.871,0,0,0-1.47-2.081C533.976,711.874,533.562,712.288,533.809,712.584Z" transform="translate(-493.998 -658.602)" fill="#161616"/>
        <path id="Path_50330" data-name="Path 50330" d="M550.1,713.767c.73-.612,1.45-1.233,2.18-1.845.286-.247-.128-.661-.414-.414-.73.612-1.45,1.233-2.18,1.844C549.386,713.6,549.81,714.014,550.1,713.767Z" transform="translate(-508.282 -658.029)" fill="#161616"/>
        <path id="Path_50331" data-name="Path 50331" d="M946.41,715.307l1.835,1.154c.325.207.621-.306.3-.513l-1.835-1.154C946.38,714.6,946.084,715.11,946.41,715.307Z" transform="translate(-865.843 -661.019)" fill="#161616"/>
        <path id="Path_50332" data-name="Path 50332" d="M969.585,712.654a18.725,18.725,0,0,0-1.47,1.322c-.266.266.148.69.414.414a18.674,18.674,0,0,1,1.47-1.322C970.3,712.831,969.881,712.417,969.585,712.654Z" transform="translate(-885.458 -659.066)" fill="#161616"/>
        <path id="Path_50333" data-name="Path 50333" d="M950.436,715.274a9.364,9.364,0,0,0,2.347.069c-.049-.187-.1-.365-.148-.552a2.26,2.26,0,0,1-1.045.306c-.217.03-.434.326-.207.5a1.049,1.049,0,0,0,1,.227c.365-.089.217-.661-.158-.572a.4.4,0,0,1-.424-.079l-.207.5a2.791,2.791,0,0,0,1.341-.394c.227-.148.168-.582-.148-.552a9.123,9.123,0,0,1-2.2-.049C950.219,714.643,950.061,715.215,950.436,715.274Z" transform="translate(-869.405 -660.956)" fill="#161616"/>
        <path id="Path_50334" data-name="Path 50334" d="M972.872,714.761a1.011,1.011,0,0,0-.789.138.312.312,0,0,0-.109.4.3.3,0,0,0,.4.109.373.373,0,0,1,.326-.079.312.312,0,0,0,.365-.207A.285.285,0,0,0,972.872,714.761Z" transform="translate(-888.981 -661.006)" fill="#161616"/>
        <path id="Path_50335" data-name="Path 50335" d="M540.072,714.14c.178.118.838.424.809.681l.3-.3a2.966,2.966,0,0,1-.187-.533c-.089.148-.168.3-.256.444a5.221,5.221,0,0,0,1.7-.365c-.1-.168-.187-.326-.286-.493a10.023,10.023,0,0,1-1.075.967l.4.4c.355-.6-.148-1.095-.661-1.351-.049.187-.1.365-.148.552.4-.02.809-.029,1.213-.01.385.02.375-.572,0-.592a9.97,9.97,0,0,0-1.213.01c-.276.02-.424.414-.148.552.178.089.612.276.454.543-.138.237.158.592.4.4A10.14,10.14,0,0,0,542.567,714c.187-.2,0-.612-.286-.493a4.908,4.908,0,0,1-1.539.345.3.3,0,0,0-.256.444c.168.375.158.829.7.819a.3.3,0,0,0,.3-.3c.079-.592-.7-.927-1.095-1.184-.335-.217-.631.3-.316.5Z" transform="translate(-499.59 -659.882)" fill="#161616"/>
        <path id="Path_50336" data-name="Path 50336" d="M571.4,680.675v-1.46a.148.148,0,0,0-.3,0v1.46A.148.148,0,0,0,571.4,680.675Z" transform="translate(-527.679 -628.863)" fill="#e8e8e8"/>
        <path id="Path_50337" data-name="Path 50337" d="M571.315,679.1H579.5a.148.148,0,0,0,0-.3h-8.187A.148.148,0,0,0,571.315,679.1Z" transform="translate(-527.746 -628.615)" fill="#e8e8e8"/>
        <path id="Path_50338" data-name="Path 50338" d="M654.1,678.948v1.391a.148.148,0,0,0,.3,0v-1.391A.148.148,0,1,0,654.1,678.948Z" transform="translate(-602.492 -628.615)" fill="#e8e8e8"/>
        <path id="Path_50339" data-name="Path 50339" d="M575.115,684.7h6.263a.148.148,0,0,0,0-.3h-6.263A.148.148,0,0,0,575.115,684.7Z" transform="translate(-531.172 -633.663)" fill="#e8e8e8"/>
        <path id="Path_50340" data-name="Path 50340" d="M589.215,690.4h4.8a.148.148,0,0,0,0-.3h-4.8A.148.148,0,0,0,589.215,690.4Z" transform="translate(-543.881 -638.8)" fill="#e8e8e8"/>
        <path id="Path_50341" data-name="Path 50341" d="M591.2,669.612v-1a.148.148,0,0,0-.3,0v1A.148.148,0,0,0,591.2,669.612Z" transform="translate(-545.526 -619.308)" fill="#e8e8e8"/>
        <path id="Path_50342" data-name="Path 50342" d="M593.016,668.1h7.131a.148.148,0,0,0,0-.3h-7.131A.148.148,0,0,0,593.016,668.1Z" transform="translate(-547.306 -618.7)" fill="#e8e8e8"/>
        <path id="Path_50343" data-name="Path 50343" d="M655.215,678.4h.927a.148.148,0,0,0,0-.3h-.927A.148.148,0,0,0,655.215,678.4Z" transform="translate(-603.371 -627.984)" fill="#e8e8e8"/>
        <path id="Path_50344" data-name="Path 50344" d="M665.1,668.248v.957a.148.148,0,0,0,.3,0v-.957A.148.148,0,1,0,665.1,668.248Z" transform="translate(-612.407 -618.97)" fill="#e8e8e8"/>
        <path id="Path_50345" data-name="Path 50345" d="M607.448,673.1h1.706a.148.148,0,0,0,0-.3h-1.706A.148.148,0,1,0,607.448,673.1Z" transform="translate(-560.308 -623.207)" fill="#e8e8e8"/>
        <path id="Path_50346" data-name="Path 50346" d="M637.315,675.6h1.519a.148.148,0,0,0,0-.3h-1.519A.148.148,0,0,0,637.315,675.6Z" transform="translate(-587.236 -625.46)" fill="#e8e8e8"/>
        <path id="Path_50347" data-name="Path 50347" d="M605.415,651.211a1.107,1.107,0,0,1-.266-.888c.039-.523.513-.543.908-.385.177.069.256-.217.079-.286-.444-.178-1.026-.168-1.223.355a1.414,1.414,0,0,0,.3,1.41C605.346,651.556,605.553,651.339,605.415,651.211Z" transform="translate(-558.088 -602.249)" fill="#e8e8e8"/>
        <path id="Path_50348" data-name="Path 50348" d="M614.634,648.745c.927-.414,1.312,1.144.513,1.539-.168.089-.02.335.148.257,1.144-.572.473-2.624-.809-2.052C614.308,648.568,614.466,648.824,614.634,648.745Z" transform="translate(-566.715 -601.204)" fill="#e8e8e8"/>
        <path id="Path_50349" data-name="Path 50349" d="M611.172,642.742a1.942,1.942,0,0,0-.355-.858c-.109-.158-.365-.01-.257.148a1.864,1.864,0,0,1,.326.789C610.916,643.008,611.2,642.929,611.172,642.742Z" transform="translate(-563.223 -595.279)" fill="#e8e8e8"/>
        <path id="Path_50350" data-name="Path 50350" d="M612.951,640a.926.926,0,0,1,.118-.217.684.684,0,0,1,.079-.1c.01-.02.03-.03.049-.049-.049-.1-.079-.118-.1-.069a.975.975,0,0,0-.128.247,2.139,2.139,0,0,1-.168.247c-.109.158.148.306.256.148a2.89,2.89,0,0,0,.286-.474c.069-.138.109-.316-.069-.385-.3-.109-.523.355-.6.562C612.6,640.1,612.882,640.18,612.951,640Z" transform="translate(-565.141 -593.043)" fill="#e8e8e8"/>
        <path id="Path_50351" data-name="Path 50351" d="M1107,847.039c.04.464.079.937.118,1.4l13.641-.118c-.049-.444-.1-.888-.148-1.322C1116.064,847.02,1111.537,847.03,1107,847.039Z" transform="translate(-1010.721 -780.225)" fill="#fff"/>
        <path id="Path_50352" data-name="Path 50352" d="M1105.3,857.792h13.631a.3.3,0,0,0,0-.592H1105.3A.3.3,0,0,0,1105.3,857.792Z" transform="translate(-1008.929 -789.419)" fill="#161616"/>
        <path id="Path_50353" data-name="Path 50353" d="M1106.164,844.092h13.375a.3.3,0,0,0,0-.592h-13.375A.3.3,0,0,0,1106.164,844.092Z" transform="translate(-1009.707 -777.07)" fill="#161616"/>
        <path id="Path_50354" data-name="Path 50354" d="M1104.1,844.763v1.006a.3.3,0,0,0,.592,0v-1.006A.3.3,0,0,0,1104.1,844.763Z" transform="translate(-1008.107 -777.949)" fill="#161616"/>
        <path id="Path_50355" data-name="Path 50355" d="M1243.1,844.763V846.1a.3.3,0,0,0,.592,0v-1.341A.3.3,0,0,0,1243.1,844.763Z" transform="translate(-1133.397 -777.949)" fill="#161616"/>
        <path id="Path_50356" data-name="Path 50356" d="M1175.7,859.264v16.995a.3.3,0,0,0,.592,0V859.264A.3.3,0,0,0,1175.7,859.264Z" transform="translate(-1072.644 -791.019)" fill="#161616"/>
        <path id="Path_50357" data-name="Path 50357" d="M1146.267,1032.895c-1.016.6-2.032,1.2-3.058,1.805-.326.2-.03.71.3.513,1.016-.6,2.032-1.2,3.058-1.8A.3.3,0,0,0,1146.267,1032.895Z" transform="translate(-1043.231 -947.744)" fill="#161616"/>
        <path id="Path_50358" data-name="Path 50358" d="M1175.852,1032.543c1.154.641,2.3,1.292,3.452,1.933a.3.3,0,0,0,.3-.513c-1.154-.641-2.3-1.292-3.452-1.933A.3.3,0,0,0,1175.852,1032.543Z" transform="translate(-1072.649 -946.968)" fill="#161616"/>
        <path id="Path_50359" data-name="Path 50359" d="M1143.663,1051.785c2.19-.02,4.37-.089,6.559-.2.375-.02.385-.612,0-.592q-3.27.163-6.559.2A.3.3,0,0,0,1143.663,1051.785Z" transform="translate(-1043.508 -964.099)" fill="#161616"/>
        <path id="Path_50360" data-name="Path 50360" d="M1149.121,860.163a38.489,38.489,0,0,1,2.427,3.945c.177.335.69.039.513-.3a38.473,38.473,0,0,0-2.426-3.945C1149.417,859.551,1148.9,859.847,1149.121,860.163Z" transform="translate(-1048.64 -791.701)" fill="#161616"/>
        <path id="Path_50361" data-name="Path 50361" d="M1179.189,859.027a18.963,18.963,0,0,0-3.294,4.172.3.3,0,0,0,.513.3,18.436,18.436,0,0,1,3.206-4.044C1179.889,859.185,1179.465,858.761,1179.189,859.027Z" transform="translate(-1072.78 -790.989)" fill="#161616"/>
        <path id="Path_50362" data-name="Path 50362" d="M913.485,973.614c-.079,1.41-.148,2.821-.227,4.231-3.768,1.637-5.583,2.712-5.435,3.206.168.592,3.068.385,8.68-.6q.059-3.625.109-7.25Z" transform="translate(-831.182 -893.977)" fill="#353c4a"/>
        <path id="Path_50363" data-name="Path 50363" d="M952.661,743.983c-.838.75-2.032,1.834-3.423,3.176-3.314,3.215-5.75,5.573-7.4,8.009a22.119,22.119,0,0,0-3.541,12.162,18.352,18.352,0,0,0,5.07.671,18.613,18.613,0,0,0,1.894-.118,16.989,16.989,0,0,1,.059-6.293,16.718,16.718,0,0,1,1.529-4.4,32.1,32.1,0,0,0,9.35-6.234c1.933-1.864,4.133-3.995,3.541-5.5C959.2,744.022,956.31,743.47,952.661,743.983Z" transform="translate(-858.66 -687.199)" fill="#fff"/>
        <path id="Path_50364" data-name="Path 50364" d="M988.514,745.8a64.236,64.236,0,0,1-13.128,13.059q-1.243,5.459-2.486,10.909a7.27,7.27,0,0,0,1.2.108,8.1,8.1,0,0,0,2.259-.266,18.45,18.45,0,0,1-.079-4.932,18,18,0,0,1,1.657-5.642,41.238,41.238,0,0,0,5.267-2.9,32.683,32.683,0,0,0,7.072-6.549,3.5,3.5,0,0,0,.493-.868,2.069,2.069,0,0,0,.187-1.351,1.834,1.834,0,0,0-.828-.937A3.846,3.846,0,0,0,988.514,745.8Z" transform="translate(-889.848 -689.006)" fill="#6d6c6c" opacity="0.18"/>
        <path id="Path_50365" data-name="Path 50365" d="M984.712,880.5q-.636,1.184-1.243,2.486a48.637,48.637,0,0,0-2.969,8.275c.907-.039,1.8-.079,2.712-.108a17.544,17.544,0,0,1-.187-4.665A17.2,17.2,0,0,1,984.712,880.5Z" transform="translate(-896.698 -810.42)" fill="#6d6c6c" opacity="0.16"/>
        <path id="Path_50366" data-name="Path 50366" d="M995.857,981.645l1.361,4.231q-5.03,3.018-4.754,3.63.34.74,8.68-2.19l-2.308-6.717C997.84,980.935,996.844,981.29,995.857,981.645Z" transform="translate(-907.469 -900.647)" fill="#161616"/>
        <path id="Path_50367" data-name="Path 50367" d="M1004.262,758.615c.7,3.561-.355,5.563-.858,6.332-1.006,1.539-2.348,2.012-6.263,3.955-1.529.76-3.857,1.943-6.707,3.511a28.5,28.5,0,0,0,2.574,8.118,8.217,8.217,0,0,1-7.141,2.17,19.042,19.042,0,0,1-2.052-7.378,11.514,11.514,0,0,1,.878-6.421c.888-1.7,1.746-1.854,5.336-4.6,5.4-4.113,5.938-5.652,8.719-6.224A10.094,10.094,0,0,1,1004.262,758.615Z" transform="translate(-899.609 -699.918)" fill="#fff"/>
        <path id="Path_50368" data-name="Path 50368" d="M1034.889,758.339a9.716,9.716,0,0,1-.957,4.774c-.769,1.549-1.8,2.653-5.179,4.942-3.008,2.032-5.4,3.6-6.954,4.606l2.959,9.913a5.806,5.806,0,0,0,1.016-.454,5.588,5.588,0,0,0,1.45-1.2,30.135,30.135,0,0,1-1.253-3.1,30.615,30.615,0,0,1-1.272-4.981c2.446-1.361,4.162-2.249,5.168-2.752,1.5-.75,2.239-1.124,3-1.49.256-.118.828-.385,1.578-.779a16.14,16.14,0,0,0,1.627-.9,6.482,6.482,0,0,0,1.7-1.647,6.616,6.616,0,0,0,1.026-3.6,9.48,9.48,0,0,0-.207-2.624,9.049,9.049,0,0,0-2.032-.592A7.409,7.409,0,0,0,1034.889,758.339Z" transform="translate(-933.924 -700.303)" fill="#6d6c6c" opacity="0.22"/>
        <path id="Path_50369" data-name="Path 50369" d="M1065.465,785.1a9.047,9.047,0,0,1-.947,2.1c-1.548,2.486-3.916,3.472-5.573,4.3a31.057,31.057,0,0,0-7.545,5.425c.829-.464,1.845-1.016,3.028-1.647,2.091-1.115,3.127-1.667,4.2-2.18.838-.395,1.795-.819,3.225-1.578a6.436,6.436,0,0,0,2.121-1.5,5.831,5.831,0,0,0,1.046-1.874A7.546,7.546,0,0,0,1065.465,785.1Z" transform="translate(-960.605 -724.43)" fill="#6d6c6c" opacity="0.11"/>
        <path id="Path_50370" data-name="Path 50370" d="M1051,906a26.377,26.377,0,0,0,1.657,8.778,3.6,3.6,0,0,0,.6-.424,2.848,2.848,0,0,0,.345-.345c-.414-.858-.819-1.815-1.2-2.851A32.469,32.469,0,0,1,1051,906Z" transform="translate(-960.244 -833.405)" fill="#6d6c6c" opacity="0.17"/>
        <path id="Path_50371" data-name="Path 50371" d="M950.284,568.254c-1.233.414-1.45,1.884-2.278,3.561a15.393,15.393,0,0,1-4.152,4.853,12.564,12.564,0,0,1-7.013,2.456,7.747,7.747,0,0,0-1.637-.464c-1.016-.168-2.436-.414-3.393.4-.434.375-.917,1.085-.7,1.519.266.533,1.45.326,3.393.237,2.693-.118,2.565.178,4.439.059A15.1,15.1,0,0,0,946.013,579a12.738,12.738,0,0,0,4.32-4.093,15.347,15.347,0,0,0,1.5-3.393c.769-2.111.641-2.584.424-2.86A1.839,1.839,0,0,0,950.284,568.254Z" transform="translate(-852.131 -528.869)" fill="#fff" stroke="#161616" stroke-miterlimit="10" stroke-width="0.3"/>
        <path id="Path_50372" data-name="Path 50372" d="M958.339,682.588c-.621.118-1.519.148-1.973.661-.256.3-.217.819.256.819a.114.114,0,0,0,0-.227c-.237-.247-.217-.444.079-.582a1.686,1.686,0,0,1,.326-.168,2.8,2.8,0,0,1,.385-.108c.326-.069.651-.128.986-.187C958.536,682.775,958.477,682.568,958.339,682.588Z" transform="translate(-874.803 -632.028)" fill="#161616"/>
        <path id="Path_50373" data-name="Path 50373" d="M930.359,690.125c.582.73,1.489-.118,2.19.069a.113.113,0,0,0,.059-.217,1.489,1.489,0,0,0-.878.059c-.4.128-.9.345-1.223-.069C930.428,689.858,930.271,690.016,930.359,690.125Z" transform="translate(-851.479 -638.647)" fill="#161616"/>
        <path id="Path_50374" data-name="Path 50374" d="M934.2,681.842c.02.3.217.414.5.414a5.522,5.522,0,0,1,1.844-.049.113.113,0,0,0,.059-.217,2.34,2.34,0,0,0-.976-.089c-.237.02-1.184.286-1.2-.069C934.4,681.7,934.187,681.7,934.2,681.842Z" transform="translate(-854.962 -631.262)" fill="#161616"/>
        <path id="Path_50375" data-name="Path 50375" d="M943.907,675.405a.6.6,0,0,0,.523.385,4.8,4.8,0,0,1,1.4.3c.128.059.247-.138.109-.187a3.69,3.69,0,0,0-.789-.256c-.316-.059-.9.039-1.036-.3C944.065,675.218,943.848,675.277,943.907,675.405Z" transform="translate(-863.705 -625.437)" fill="#161616"/>
        <path id="Path_50376" data-name="Path 50376" d="M976.652,569.5c-.562.138-.395,1.647-.69,3.048-.493,2.259-2.1,3.669-3.876,5.228a11.3,11.3,0,0,1-4.764,2.851,18.217,18.217,0,0,1-3.275.464c-1.775.089-2.653.138-2.712.128a3.467,3.467,0,0,0-1.785.227c-.158.069-.592.256-.562.395.039.207,1.065.148,3.373.128,1.706-.01,1.529.02,2.052,0a14.721,14.721,0,0,0,4.636-.8,13.46,13.46,0,0,0,5.228-3.541,12.329,12.329,0,0,0,1.292-1.588,13.645,13.645,0,0,0,1.46-3.344c.651-1.874.651-2.367.395-2.752C977.244,569.721,976.918,569.435,976.652,569.5Z" transform="translate(-877.305 -530.09)" fill="#6d6c6c" opacity="0.16"/>
        <path id="Path_50377" data-name="Path 50377" d="M933.3,681.4a2.4,2.4,0,0,1,1.154-1.292,2.6,2.6,0,0,1,2.387.227,5.394,5.394,0,0,1-.631.3c-.246.109-.345.128-.434.227a.763.763,0,0,0-.069.631,4.854,4.854,0,0,1-1.223.1A4.571,4.571,0,0,1,933.3,681.4Z" transform="translate(-854.153 -629.61)" fill="#6d6c6c" opacity="0.13"/>
        <path id="Path_50378" data-name="Path 50378" d="M1048.362,586a15.919,15.919,0,0,1-3.314,5.958,16.16,16.16,0,0,1-7.348,4.7,13.418,13.418,0,0,0,8.177-4.863A12.954,12.954,0,0,0,1048.362,586Z" transform="translate(-948.256 -544.968)" fill="#6d6c6c" opacity="0.14"/>
        <path id="Path_50379" data-name="Path 50379" d="M1080.957,555.454c-.621.681-1.065,1.578-1.351,4.892-.424,4.843.247,5.957-.5,8.354a11.051,11.051,0,0,1-2.7,4.389,17.774,17.774,0,0,0,5.573,2.367,17.539,17.539,0,0,0,6,.335,28.189,28.189,0,0,0,1.263-12.576c-.345-2.584-1.125-8.532-4.222-9.281A4.53,4.53,0,0,0,1080.957,555.454Z" transform="translate(-983.139 -515.991)" fill="#fff" stroke="#161616" stroke-miterlimit="10" stroke-width="0.3"/>
        <path id="Path_50380" data-name="Path 50380" d="M1103.6,554.9c-.049.4-.119,1.006-.187,1.726-.463,4.823.079,5.7-.276,8.542a14.912,14.912,0,0,1-2.742,7.467,12.776,12.776,0,0,1-2.5,2.5,15.936,15.936,0,0,0,4.8,1.539,15.643,15.643,0,0,0,4.586,0,27.37,27.37,0,0,0,.986-3.62,27.9,27.9,0,0,0,.523-6.7c-.128-3.127-.414-9.834-3.847-11.2a3.71,3.71,0,0,0-1.351-.247Z" transform="translate(-1002.518 -516.936)" fill="#6d6c6c" opacity="0.12"/>
        <path id="Path_50381" data-name="Path 50381" d="M1168.581,698.5a17.834,17.834,0,0,0-.8,2.308,15.176,15.176,0,0,1-3.482,5.435c.967-.049,1.943-.089,2.91-.138a36.64,36.64,0,0,0,1.075-4.527A11.9,11.9,0,0,0,1168.581,698.5Z" transform="translate(-1062.369 -646.37)" fill="#6d6c6c" opacity="0.24"/>
        <path id="Path_50382" data-name="Path 50382" d="M1082.379,568.6c1.115.217,1.588,1.983,1.983,3.531a17.285,17.285,0,0,1,.089,8.917,11.234,11.234,0,0,1-2.209,4.961,10.513,10.513,0,0,1-5.129,3.265c-1.184.819-1.8,1.233-2.141,1.45-.247.158-.395.247-.661.434a3.793,3.793,0,0,1-.641.444,1.428,1.428,0,0,1-.986-.01.672.672,0,0,1-.572-.177.548.548,0,0,1-.168-.365.473.473,0,0,1-.385-.71.716.716,0,0,1-.079-.326c-.049-.69.769-1.243,1.223-1.558a6.045,6.045,0,0,1,2.92-1.006,10.122,10.122,0,0,0,3.048-2.456,10.6,10.6,0,0,0,2.4-6.914c-.069-1.568-.631-4.488-.947-7.21a2.07,2.07,0,0,1,.207-1.243,2.187,2.187,0,0,1,2.051-1.026Z" transform="translate(-978.703 -529.267)" fill="#fff" stroke="#161616" stroke-miterlimit="10" stroke-width="0.3"/>
        <path id="Path_50383" data-name="Path 50383" d="M1071.653,787.827a.114.114,0,0,0,0-.227A.114.114,0,0,0,1071.653,787.827Z" transform="translate(-978.767 -726.683)" fill="#161616"/>
        <path id="Path_50384" data-name="Path 50384" d="M1071.5,777.75v.069a.112.112,0,0,0,.207.059,3.115,3.115,0,0,1,1.549-1.1.113.113,0,0,0-.059-.217,3.392,3.392,0,0,0-1.687,1.2l.207.059v-.069C1071.714,777.612,1071.487,777.612,1071.5,777.75Z" transform="translate(-978.719 -716.725)" fill="#161616"/>
        <path id="Path_50385" data-name="Path 50385" d="M1075.418,782.943a4.819,4.819,0,0,1,1.835-1.292c.128-.049.079-.266-.059-.217a4.991,4.991,0,0,0-1.933,1.341C1075.172,782.894,1075.329,783.052,1075.418,782.943Z" transform="translate(-982.088 -721.119)" fill="#161616"/>
        <path id="Path_50386" data-name="Path 50386" d="M1082.961,786.98a7.232,7.232,0,0,1,1.776-1.46c.118-.069.01-.266-.109-.187a7.358,7.358,0,0,0-1.815,1.5C1082.715,786.93,1082.873,787.088,1082.961,786.98Z" transform="translate(-988.892 -724.623)" fill="#161616"/>
        <path id="Path_50387" data-name="Path 50387" d="M1094.676,569.657c-.375.543.237,1.5.582,2.209.5,1.046.582,2.18.74,4.448a15.545,15.545,0,0,1-1.766,7.881,16.982,16.982,0,0,1-5.307,5.543c-1.44.967-3.482,2.022-3.314,2.426.059.148.385.168.523.158.474-.02.671-.385,1.332-.848.345-.247.335-.168.927-.523a15.43,15.43,0,0,0,1.42-.967,10.248,10.248,0,0,0,2.91-1.292,9.965,9.965,0,0,0,3.64-4.172,12.248,12.248,0,0,0,.769-2.634,18.839,18.839,0,0,0,.483-6.115,17.474,17.474,0,0,0-.611-3.117c-.444-1.726-.848-3.215-1.618-3.314a.8.8,0,0,0-.71.316Z" transform="translate(-991.433 -529.947)" fill="#6d6c6c" opacity="0.13"/>
        <path id="Path_50388" data-name="Path 50388" d="M1103.074,627.3c-.089,0-.069,1.036-.493,3.788a18.11,18.11,0,0,1-1.125,4.882,10.789,10.789,0,0,1-2.387,3.235c-1.489,1.44-2.387,1.539-4.665,3.216a27.82,27.82,0,0,0-2.6,2.17c1.184-.789,2.358-1.578,3.541-2.357a10.584,10.584,0,0,0,5.109-3.265,11.283,11.283,0,0,0,2.091-4C1103.823,630.989,1103.231,627.3,1103.074,627.3Z" transform="translate(-997.02 -582.195)" fill="#6d6c6c" opacity="0.16"/>
        <path id="Path_50389" data-name="Path 50389" d="M1131.4,523.5c-.444.306-.523.9-.592,1.549a6.521,6.521,0,0,0,.523,3.245,7.183,7.183,0,0,0,1.351-.128,6.912,6.912,0,0,0,1.055-.3c-.039-1.312-.069-2.624-.109-3.936A2.036,2.036,0,0,0,1131.4,523.5Z" transform="translate(-1032.15 -488.468)" fill="#fff" stroke="#161616" stroke-miterlimit="10" stroke-width="0.3"/>
        <path id="Path_50390" data-name="Path 50390" d="M1087.188,455.262c-.69.395-.986,1.055-1.568,2.338a18.219,18.219,0,0,0-1.282,3.649.3.3,0,0,0,.168.335,3.773,3.773,0,0,0,.621.148,4.01,4.01,0,0,0,.395,1.756,4.106,4.106,0,0,0,2.141,1.953,7.058,7.058,0,0,0,2.387-.848,5.393,5.393,0,0,0,1.578-1.233,5.006,5.006,0,0,0,.907-1.578,1.728,1.728,0,0,0,.848-.2c.671-.365,1.243-1.322.888-1.9a1.475,1.475,0,0,0-1.746-.326,5.17,5.17,0,0,0-.819-2.989A3.785,3.785,0,0,0,1087.188,455.262Z" transform="translate(-990.288 -426.806)" fill="#fff" stroke="#161616" stroke-miterlimit="10" stroke-width="0.3"/>
        <path id="Path_50391" data-name="Path 50391" d="M1081.539,437.909a4.428,4.428,0,0,1-.71-2.634,3.561,3.561,0,0,1,.69-2.042,3.478,3.478,0,0,1,2.042-1.253,2.75,2.75,0,0,1,.769-.838,3.086,3.086,0,0,1,1.657-.434,7.385,7.385,0,0,1,2.446.286,4.706,4.706,0,0,1,1.657.838c1.253.986,1.154,1.766,2.742,3.363.365.365.621.493,1.174,1.036a14.958,14.958,0,0,1,1.3,1.43,7.965,7.965,0,0,1,1.884,4.034,5.135,5.135,0,0,1-.858,3.827c-1.529,1.884-4.981,2.032-7.082.533a4.127,4.127,0,0,1-1.943-3.363,4.025,4.025,0,0,1,1.706-2.89,1.229,1.229,0,0,0,.848.059,1.39,1.39,0,0,0,.631-1.874.881.881,0,0,0-.454-.325,1.309,1.309,0,0,0-1.144.256,13.163,13.163,0,0,1-1.755-1.529,9.016,9.016,0,0,1-.927-1.075,8.909,8.909,0,0,1-.68-1.124,5.333,5.333,0,0,0-1.667.72,5.452,5.452,0,0,0-1.154,1.006,6.943,6.943,0,0,0-.651.888A10.4,10.4,0,0,0,1081.539,437.909Z" transform="translate(-987.124 -404.985)" fill="#5e70ef"/>
        <path id="Path_50392" data-name="Path 50392" d="M1106.557,511.584h0a.423.423,0,0,1,.01.049v.01c-.01.02-.02.03-.03.049.02-.02,0-.01-.039.02-.02-.01-.039-.01-.059-.02s-.02-.01-.02-.02-.01-.039-.02-.059v-.01c.01-.02.02-.03.03-.049.02,0,.039-.01.059-.01l.079.079v.03c-.049.01-.1.03-.148.039l-.01-.01c-.01-.02-.02-.03-.03-.049a.6.6,0,0,1,.039-.079c.02-.01.04-.01.059-.02h-.01a.116.116,0,0,0-.108.108.1.1,0,0,0,.108.108.136.136,0,0,0,.128-.108.133.133,0,0,0-.069-.158.109.109,0,0,0-.148.039.136.136,0,0,0,.079.217.151.151,0,0,0,.168-.148.14.14,0,0,0-.178-.128.146.146,0,0,0-.089.207.1.1,0,0,0,.148.039c.069-.01.069-.079.049-.128Z" transform="translate(-1010.131 -477.782)" fill="#161616"/>
        <path id="Path_50393" data-name="Path 50393" d="M1115.476,509.04c.02.1-.02.089-.109-.03.02-.01.03-.02.049-.03a.092.092,0,0,1,.089.069c.01-.059-.059-.108-.108-.108a.1.1,0,0,0-.109.108.142.142,0,0,0,.158.148.139.139,0,0,0,.128-.187.15.15,0,0,0-.217-.089.162.162,0,0,0-.059.227.1.1,0,0,0,.148.039A.106.106,0,0,0,1115.476,509.04Z" transform="translate(-1018.181 -475.475)" fill="#161616"/>
        <path id="Path_50394" data-name="Path 50394" d="M1113.058,516.026c.059,0,.069.02.03.069,0,.039-.01.059-.039.059-.01-.039-.01-.089-.02-.128a.077.077,0,0,1,.079.01c-.1-.108-.256.049-.158.158a.153.153,0,0,0,.246-.03.16.16,0,0,0-.089-.227.162.162,0,0,0-.207.138.177.177,0,0,0,.207.168A.111.111,0,1,0,1113.058,516.026Z" transform="translate(-1016.039 -481.809)" fill="#161616"/>
        <path id="Path_50395" data-name="Path 50395" d="M1094.76,528.227a2.253,2.253,0,0,0,1.49-.986c.079-.118-.109-.227-.187-.109a2.061,2.061,0,0,1-1.351.888C1094.563,528.04,1094.622,528.247,1094.76,528.227Z" transform="translate(-999.566 -491.861)" fill="#161616"/>
        <path id="Path_50396" data-name="Path 50396" d="M1120.535,469.4c.178.355.4.829.661,1.391a7.434,7.434,0,0,1,.908,2.6,4.284,4.284,0,0,1-.158,1.43,6.945,6.945,0,0,1-2.446,3.59,5.634,5.634,0,0,0,1.154-.256,5.892,5.892,0,0,0,1.548-.789,3.193,3.193,0,0,0,.148,1.312,4.131,4.131,0,0,0,.848,1.4,4.391,4.391,0,0,0,1.272,1.1,4.5,4.5,0,0,0,1.558.552,6.391,6.391,0,0,0,1.982.128,4.7,4.7,0,0,0,2.6-.878,3.49,3.49,0,0,0,1.1-1.361,4.013,4.013,0,0,0,.256-1.4,7.657,7.657,0,0,0-.128-2.7,5.835,5.835,0,0,0-1.174-2.239,4.339,4.339,0,0,1-4.409,3.087,3.81,3.81,0,0,1-2.387-1.588,1.345,1.345,0,0,0,1.361-.424,1.21,1.21,0,0,0,0-1.627,1.159,1.159,0,0,0-1.46.03,12.927,12.927,0,0,1-1.854-1.628A12.273,12.273,0,0,1,1120.535,469.4Z" transform="translate(-1021.988 -439.869)" fill="#6d6c6c" opacity="0.1"/>
        <path id="Path_50397" data-name="Path 50397" d="M1104.8,497.136a.254.254,0,0,1,.03-.326c-.03.01-.049.02-.079.03h.03c-.03-.01-.049-.02-.079-.03.1.079.02.385-.02.474a.4.4,0,0,1,.069-.049.035.035,0,0,0-.02.01c.03,0,.059.01.089.01-.059-.03-.049-.187-.039-.227a.6.6,0,0,1,.069-.237c-.049.01-.1.03-.148.039a.193.193,0,0,1,.049.178.186.186,0,0,1-.02.079c-.01.049-.03.049.02.059a.409.409,0,0,0,.069.049c0-.01-.01-.01-.01-.02-.089-.109-.276,0-.187.109a.173.173,0,0,0,.2.069.244.244,0,0,0,.138-.2.452.452,0,0,0-.128-.523.1.1,0,0,0-.148.039.765.765,0,0,0-.03.7.167.167,0,0,0,.237.059c.089-.069.1-.247.108-.345.02-.148-.01-.572-.266-.444-.207.108-.187.444-.089.612C1104.684,497.373,1104.881,497.254,1104.8,497.136Z" transform="translate(-1008.533 -464.399)" fill="#161616"/>
        <path id="Path_50398" data-name="Path 50398" d="M1101.041,489.65a1.806,1.806,0,0,1,1.371.5c.118.089.227-.108.109-.187a2.018,2.018,0,0,0-1.539-.523C1100.844,489.452,1100.9,489.669,1101.041,489.65Z" transform="translate(-1005.225 -457.919)" fill="#161616"/>
        <path id="Path_50399" data-name="Path 50399" d="M1107.833,525.73a1.454,1.454,0,0,1,.3.256c.1.108.256-.049.158-.158a2.021,2.021,0,0,0-.345-.3C1107.823,525.454,1107.714,525.651,1107.833,525.73Z" transform="translate(-1011.425 -490.449)" fill="#161616"/>
      </g>
    </g>
  </g>
</svg>
