<svg xmlns="http://www.w3.org/2000/svg" width="40" height="40" viewBox="0 0 40 40">
  <g id="dashboard" transform="translate(-64 -84)">
    <rect id="Rectangle_4649" data-name="Rectangle 4649" width="40" height="40" rx="6" transform="translate(64 84)" fill="#fff" opacity="0"/>
    <path id="Union_141" data-name="Union 141" d="M2765.111-1257.416a.473.473,0,0,0,.472-.473v-3.777a.473.473,0,0,0-.472-.472h-3.777a.473.473,0,0,0-.472.472v3.777a.473.473,0,0,0,.472.473h3.777m-9.445,0a.473.473,0,0,0,.472-.473v-3.777a.473.473,0,0,0-.472-.472h-3.777a.473.473,0,0,0-.473.472v3.777a.474.474,0,0,0,.473.473h3.777m9.445-9.445a.473.473,0,0,0,.472-.472v-3.777a.473.473,0,0,0-.472-.472h-3.777a.473.473,0,0,0-.472.472v3.777a.473.473,0,0,0,.472.472h3.777m-9.445,0a.473.473,0,0,0,.472-.472v-3.777a.473.473,0,0,0-.472-.472h-3.777a.473.473,0,0,0-.473.472v3.777a.473.473,0,0,0,.473.472h3.777m9.445,10.862h-3.777a1.889,1.889,0,0,1-1.889-1.89v-3.777a1.889,1.889,0,0,1,1.889-1.889h3.777a1.889,1.889,0,0,1,1.889,1.889v3.777A1.889,1.889,0,0,1,2765.111-1256Zm-9.445,0h-3.777a1.889,1.889,0,0,1-1.89-1.89v-3.777a1.889,1.889,0,0,1,1.89-1.889h3.777a1.889,1.889,0,0,1,1.889,1.889v3.777A1.889,1.889,0,0,1,2755.666-1256Zm9.445-9.445h-3.777a1.888,1.888,0,0,1-1.889-1.889v-3.777a1.888,1.888,0,0,1,1.889-1.889h3.777a1.889,1.889,0,0,1,1.889,1.889v3.777A1.888,1.888,0,0,1,2765.111-1265.445Zm-9.445,0h-3.777a1.888,1.888,0,0,1-1.89-1.889v-3.777a1.889,1.889,0,0,1,1.89-1.889h3.777a1.888,1.888,0,0,1,1.889,1.889v3.777A1.888,1.888,0,0,1,2755.666-1265.445Z" transform="translate(-2674.5 1368.5)" fill="#fff" stroke="#fff" stroke-width="0.1"/>
    <rect id="Rectangle_4649-2" data-name="Rectangle 4649" width="40" height="40" rx="6" transform="translate(64 84)" fill="#fff"/>
    <path id="Union_141-2" data-name="Union 141" d="M2766-1256.5a.5.5,0,0,0,.5-.5v-4a.5.5,0,0,0-.5-.5h-4a.5.5,0,0,0-.5.5v4a.5.5,0,0,0,.5.5h4m-10,0a.5.5,0,0,0,.5-.5v-4a.5.5,0,0,0-.5-.5h-4a.5.5,0,0,0-.5.5v4a.5.5,0,0,0,.5.5h4m10-10a.5.5,0,0,0,.5-.5v-4a.5.5,0,0,0-.5-.5h-4a.5.5,0,0,0-.5.5v4a.5.5,0,0,0,.5.5h4m-10,0a.5.5,0,0,0,.5-.5v-4a.5.5,0,0,0-.5-.5h-4a.5.5,0,0,0-.5.5v4a.5.5,0,0,0,.5.5h4m10,11.5h-4a2,2,0,0,1-2-2v-4a2,2,0,0,1,2-2h4a2,2,0,0,1,2,2v4A2,2,0,0,1,2766-1255Zm-10,0h-4a2,2,0,0,1-2-2v-4a2,2,0,0,1,2-2h4a2,2,0,0,1,2,2v4A2,2,0,0,1,2756-1255Zm10-10h-4a2,2,0,0,1-2-2v-4a2,2,0,0,1,2-2h4a2,2,0,0,1,2,2v4A2,2,0,0,1,2766-1265Zm-10,0h-4a2,2,0,0,1-2-2v-4a2,2,0,0,1,2-2h4a2,2,0,0,1,2,2v4A2,2,0,0,1,2756-1265Z" transform="translate(-2675 1368)" fill="#5e70ef"/>
  </g>
</svg>
