<svg id="not-1" xmlns="http://www.w3.org/2000/svg" width="40" height="40" viewBox="0 0 40 40">
  <rect id="Rectangle_4656" data-name="Rectangle 4656" width="40" height="40" rx="6" fill="none"/>
  <g id="dash" transform="translate(-91.603 -44)">
    <path id="Path_52497" data-name="Path 52497" d="M111.859,56a8.264,8.264,0,0,0-8.259,8.259,8.457,8.457,0,0,0,2.786,6.382l.358.293a.365.365,0,0,0,.234.082.373.373,0,0,0,.252-.094,2.014,2.014,0,0,0,.211-.281,5.457,5.457,0,0,1,8.833,0,2.006,2.006,0,0,0,.211.281.374.374,0,0,0,.252.094.366.366,0,0,0,.235-.082l.358-.293a8.457,8.457,0,0,0,2.786-6.382A8.264,8.264,0,0,0,111.859,56Zm0,.751a7.5,7.5,0,0,1,7.508,7.508,7.7,7.7,0,0,1-2.593,5.854,6.118,6.118,0,0,0-9.831,0,7.7,7.7,0,0,1-2.593-5.854,7.5,7.5,0,0,1,7.508-7.508Zm3.977,3.144a.379.379,0,0,0-.258.117l-2.552,2.546a2.043,2.043,0,1,0,.534.528l2.546-2.546a.379.379,0,0,0,.088-.411A.393.393,0,0,0,115.835,59.895Zm-3.977,3.05a1.314,1.314,0,1,1-1.314,1.314A1.308,1.308,0,0,1,111.859,62.945Z" transform="translate(0 0)" fill="#fff" stroke="#fff" stroke-width="0.6"/>
  </g>
</svg>
