<svg xmlns="http://www.w3.org/2000/svg" width="21.207" height="16.966" viewBox="0 0 21.207 16.966">
  <g id="downlaod" transform="translate(11425.6 5929.48)">
    <path id="Path_51054" data-name="Path 51054" d="M7.392,11.383a.6.6,0,0,1,.85-.85L11.4,13.7V4.12a.6.6,0,1,1,1.2,0V13.7l3.161-3.161a.6.6,0,1,1,.85.85l-4.191,4.191a.6.6,0,0,1-.85,0Zm14.615.12a.6.6,0,0,0-.6.6v5.562a1.621,1.621,0,0,1-1.621,1.621H4.221A1.621,1.621,0,0,1,2.6,17.655V12.1a.6.6,0,1,0-1.2,0v5.562a2.831,2.831,0,0,0,2.821,2.821H19.786a2.831,2.831,0,0,0,2.821-2.821V12.1A.6.6,0,0,0,22.007,11.5Z" transform="translate(-11427 -5933)"/>
  </g>
</svg>
