<svg id="downlaod" xmlns="http://www.w3.org/2000/svg" width="32.312" height="29.888" viewBox="0 0 32.312 29.888">
  <path id="Union_143" data-name="Union 143" d="M.43,17.391c-1.452-.747,1.237-3.4,1.237-6.285C1.667,7.7,4.7,4.931,8.449,4.931a7.547,7.547,0,0,1,1.152.09A7.434,7.434,0,0,1,16.464,0c4.093,0,7.4,3.588,7.4,8.015,0,.215-.006.43-.022.642a6.436,6.436,0,0,1,6.194,6.149,5.691,5.691,0,0,1-.193,1.465,2.672,2.672,0,0,1,.193,1c0,3.412-6.627,6.171-14.8,6.171C7.154,23.438.588,20.745.43,17.391Z" transform="translate(0.943 0.141)" fill="#5e70ef" opacity="0.1"/>
  <g id="Group_2286" data-name="Group 2286">
    <path id="Union_154" data-name="Union 154" d="M15.129,28.858V14.517l-2.954,2.954a1.014,1.014,0,0,1-.726.3,1.033,1.033,0,0,1-.725-1.762L15.433,11.3A1.014,1.014,0,0,1,16.159,11a1.035,1.035,0,0,1,.725.305l4.709,4.709a1.032,1.032,0,0,1-.728,1.761,1.008,1.008,0,0,1-.724-.3l-2.953-2.953V28.858a1.03,1.03,0,1,1-2.06,0ZM6.792,24.053a6.986,6.986,0,0,1-4.84-2.432A7.7,7.7,0,0,1,0,16.528,7.213,7.213,0,0,1,2.9,10.77a5.6,5.6,0,0,1-.092-.993A5.225,5.225,0,0,1,8.025,4.558a5.469,5.469,0,0,1,.9.077A9.421,9.421,0,0,1,26.314,7.761a8.132,8.132,0,0,1,4.27,2.928,8.459,8.459,0,0,1,1.727,5.075,8.35,8.35,0,0,1-2.184,5.628,8.021,8.021,0,0,1-5.377,2.654H19.789a1.03,1.03,0,0,1,0-2.061h4.849a6.269,6.269,0,0,0,.588-12.379,1.032,1.032,0,0,1-.854-.915A7.358,7.358,0,0,0,10.392,6.268,1.037,1.037,0,0,1,9.1,6.794,3.084,3.084,0,0,0,8.025,6.6,3.163,3.163,0,0,0,4.866,9.764a3.065,3.065,0,0,0,.189,1.084,1.039,1.039,0,0,1-.45,1.251A5.14,5.14,0,0,0,2.06,16.522a5.475,5.475,0,0,0,4.824,5.471h5.633a1.03,1.03,0,1,1,0,2.06Z" fill="#5e70ef"/>
  </g>
</svg>
