<svg xmlns="http://www.w3.org/2000/svg" width="11.813" height="12.428" viewBox="0 0 11.813 12.428">
  <g id="Draw_Grey" transform="translate(-12.843 -963.214)">
    <path id="Path_51377" data-name="Path 51377" d="M20.925,963.364l-.019,0a.156.156,0,0,0-.073.039l-2.5,2.318a.155.155,0,0,0-.044.16L15,966.629a.155.155,0,0,0-.117.117L13,974.364a.207.207,0,0,0,.233.194c.1,0,.449,0,.539,0,1.662.061,3.794.95,6.03.933a6.459,6.459,0,0,0,3.377-.913.157.157,0,0,0-.165-.267,6.129,6.129,0,0,1-3.217.87c-1.949.015-3.859-.7-5.51-.889l6.725-1.6a.155.155,0,0,0,.112-.117l.787-3.421a.157.157,0,0,0,0-.024s0,0,0,0l2.225-2.405a.156.156,0,0,0,.034-.156,4.668,4.668,0,0,0-3.192-3.187A.156.156,0,0,0,20.925,963.364Zm.053.335a4.3,4.3,0,0,1,2.872,2.876l-2.138,2.318-3.051-3.051,2.318-2.143Zm-2.444,2.449,3.042,3.051-.734,3.207-7.176,1.71,3.634-3.489a.155.155,0,0,0,.049-.083.919.919,0,0,0,.466.126.935.935,0,1,0-.685-.3.154.154,0,0,0-.044.034l-3.654,3.508,1.725-7,3.353-.758.024-.01Zm-.719,2.968a.622.622,0,1,1-.622.622A.62.62,0,0,1,17.815,969.116Zm6.506,4.193a.155.155,0,0,0-.092.049c-.1.1-.2.188-.306.282a.157.157,0,1,0,.209.233c.1-.093.212-.188.321-.3a.155.155,0,0,0-.117-.267Z" fill="#7f7f7f" stroke="#878787" stroke-width="0.3"/>
  </g>
</svg>
