<svg xmlns="http://www.w3.org/2000/svg" width="9.5" height="11.935" viewBox="0 0 9.5 11.935">
  <g id="Group_46810" data-name="Group 46810" transform="translate(-1113.75 -406.304)">
    <path id="Path_50924" data-name="Path 50924" d="M168,15.178V7.646A.645.645,0,0,1,168.646,7h5.1a.638.638,0,0,1,.646.646v7.532a.645.645,0,0,1-.646.646h-5.1A.653.653,0,0,1,168,15.178Zm.238,0V7.646a.416.416,0,0,1,.408-.419h5.1a.416.416,0,0,1,.408.419v7.532a.406.406,0,0,1-.408.408h-5.1A.406.406,0,0,1,168.238,15.178Z" transform="translate(948.612 399.554)" fill="#bcc0c7" stroke="#bcc0c7" stroke-width="0.5" fill-rule="evenodd"/>
    <path id="Path_50925" data-name="Path 50925" d="M114,72.144V64.612a.65.65,0,0,1,.442-.612h0v.249a.429.429,0,0,0-.2.362v7.532a.413.413,0,0,0,.408.408h5.1a.418.418,0,0,0,.362-.2h.249a.636.636,0,0,1-.612.442h-5.1A.653.653,0,0,1,114,72.144Z" transform="translate(1000 345.199)" fill="#bcc0c7" stroke="#bcc0c7" stroke-width="0.5" fill-rule="evenodd"/>
  </g>
</svg>
