<svg xmlns="http://www.w3.org/2000/svg" width="15.116" height="10.815" viewBox="0 0 15.116 10.815">
  <g id="filter" transform="translate(-22.7 -31.7)">
    <path id="Path_50841" data-name="Path 50841" d="M37.516,33.075a.539.539,0,0,1-.538.538H23.538A.539.539,0,0,1,23,33.075v-.538A.539.539,0,0,1,23.538,32H36.978a.539.539,0,0,1,.538.538Z" transform="translate(0 0)" fill="#bcc0c7" stroke="#f2f5f8" stroke-width="0.6"/>
    <path id="Path_50842" data-name="Path 50842" d="M40.29,49.075a.539.539,0,0,1-.538.538H29.538A.539.539,0,0,1,29,49.075v-.538A.539.539,0,0,1,29.538,48H39.752a.539.539,0,0,1,.538.538Z" transform="translate(-4.387 -11.699)" fill="#bcc0c7" stroke="#f2f5f8" stroke-width="0.6"/>
    <path id="Path_50843" data-name="Path 50843" d="M43.064,65.075a.539.539,0,0,1-.538.538H35.538A.539.539,0,0,1,35,65.075v-.538A.539.539,0,0,1,35.538,64h6.989a.539.539,0,0,1,.538.538Z" transform="translate(-8.774 -23.398)" fill="#bcc0c7" stroke="#f2f5f8" stroke-width="0.6"/>
  </g>
</svg>
