<svg xmlns="http://www.w3.org/2000/svg" width="12.681" height="10.73" viewBox="0 0 12.681 10.73">
  <g id="gntt" transform="translate(-11 -17)">
    <path id="Path_50824" data-name="Path 50824" d="M19.616,37.975a.163.163,0,0,0,.163-.163v-.65A.163.163,0,0,0,19.616,37H11.163a.163.163,0,0,0-.163.163v.65a.163.163,0,0,0,.163.163Z" transform="translate(0 -16.749)" fill="#bcc0c7"/>
    <path id="Path_50825" data-name="Path 50825" d="M21.567,57.975a.163.163,0,0,0,.163-.163v-.65A.163.163,0,0,0,21.567,57h-10.4a.163.163,0,0,0-.163.163v.65a.163.163,0,0,0,.163.163Z" transform="translate(0 -33.497)" fill="#bcc0c7"/>
    <path id="Path_50826" data-name="Path 50826" d="M23.518,17.975a.163.163,0,0,0,.163-.163v-.65A.163.163,0,0,0,23.518,17H11.163a.163.163,0,0,0-.163.163v.65a.163.163,0,0,0,.163.163Z" transform="translate(0)" fill="#bcc0c7"/>
    <path id="Path_50827" data-name="Path 50827" d="M17.665,77.975a.163.163,0,0,0,.163-.163v-.65A.163.163,0,0,0,17.665,77h-6.5a.163.163,0,0,0-.163.163v.65a.163.163,0,0,0,.163.163Z" transform="translate(0 -50.246)" fill="#bcc0c7"/>
  </g>
</svg>
