<svg xmlns="http://www.w3.org/2000/svg" width="40" height="40" viewBox="0 0 40 40">
  <g id="Group_47061" data-name="Group 47061" transform="translate(302 924)">
    <rect id="Rectangle_4656" data-name="Rectangle 4656" width="40" height="40" rx="6" transform="translate(-302 -924)" fill="none"/>
    <path id="Path_5" data-name="Path 5" d="M25.579,15.235h0a3.968,3.968,0,0,1-.9-2.521v-2.1a6,6,0,0,0-5.229-5.937h-1.5a6,6,0,0,0-5.229,5.937v2.1a3.968,3.968,0,0,1-.9,2.521l-.917,1.125a1.968,1.968,0,0,0,1.521,3.208h2.875a3.432,3.432,0,0,0,6.833,0h2.875a1.968,1.968,0,0,0,1.521-3.208ZM18.7,21.173a1.926,1.926,0,0,1-1.9-1.625H20.6A1.926,1.926,0,0,1,18.7,21.173ZM25.412,17.8a.442.442,0,0,1-.417.271H12.412A.442.442,0,0,1,12,17.8a.46.46,0,0,1,.063-.5l.917-1.125A5.538,5.538,0,0,0,14.2,12.693V10.61a4.49,4.49,0,0,1,8.979-.021v2.1a5.538,5.538,0,0,0,1.229,3.479l.917,1.125A.436.436,0,0,1,25.412,17.8Z" transform="translate(-300.969 -917.173)" fill="#fff"/>
    <rect id="Rectangle_4656-2" data-name="Rectangle 4656" width="40" height="40" rx="6" transform="translate(-302 -924)" fill="#fff"/>
    <path id="Path_50062" data-name="Path 50062" d="M28.937,17.582h0A4.849,4.849,0,0,1,27.842,14.5V11.93a7.338,7.338,0,0,0-6.391-7.257H19.618a7.338,7.338,0,0,0-6.391,7.257V14.5a4.849,4.849,0,0,1-1.095,3.081l-1.12,1.375a2.406,2.406,0,0,0,1.859,3.921h3.514a4.2,4.2,0,0,0,8.352,0H28.25a2.406,2.406,0,0,0,1.859-3.921Zm-8.4,7.257a2.355,2.355,0,0,1-2.317-1.986h4.634A2.355,2.355,0,0,1,20.534,24.839Zm8.2-4.125a.54.54,0,0,1-.509.331H12.845a.54.54,0,0,1-.509-.331.562.562,0,0,1,.076-.611l1.12-1.375a6.769,6.769,0,0,0,1.5-4.252V11.93A5.487,5.487,0,0,1,26.009,11.9v2.572a6.769,6.769,0,0,0,1.5,4.252l1.12,1.375A.533.533,0,0,1,28.733,20.714Z" transform="translate(-302.969 -919.173)" fill="#5e70ef" stroke="#fff" stroke-width="0.1"/>
  </g>
</svg>
