<svg xmlns="http://www.w3.org/2000/svg" width="12.841" height="113.798" viewBox="0 0 12.841 113.798">
  <g id="Group_46805" data-name="Group 46805" transform="translate(-1262.4 -228.666)">
    <g id="noun_timeline_3551393" transform="translate(1243 209.829)">
      <path id="Path_50834" data-name="Path 50834" d="M22.425,28.878H26.2a1.8,1.8,0,1,0,0-1.078H22.425a1.347,1.347,0,0,1,0-2.694h1.257a1.8,1.8,0,0,0,3.427,0h1.257a2.425,2.425,0,0,0,0-4.849H24.594a1.8,1.8,0,1,0,0,1.078h3.772a1.347,1.347,0,0,1,0,2.694H27.109a1.8,1.8,0,0,0-3.427,0H22.425a2.425,2.425,0,0,0,0,4.849ZM27.9,27.62a.718.718,0,1,1-.718.718A.718.718,0,0,1,27.9,27.62Zm-5.029-6.107a.718.718,0,1,1,.718-.718A.718.718,0,0,1,22.874,21.514Zm2.514,2.335a.718.718,0,1,1-.718.718A.718.718,0,0,1,25.388,23.849Z" fill="#bcc0c7" stroke="#f2f5f8" stroke-width="0.3"/>
    </g>
    <g id="Icon_feather-users" data-name="Icon feather-users" transform="translate(1261.5 295.5)">
      <path id="Path_36684" data-name="Path 36684" d="M10.039,25.7V24.635A2.135,2.135,0,0,0,7.9,22.5H3.635A2.135,2.135,0,0,0,1.5,24.635V25.7" transform="translate(0 -11.596)" fill="none" stroke="#bcc0c7" stroke-linecap="round" stroke-linejoin="round" stroke-width="1"/>
      <path id="Path_36685" data-name="Path 36685" d="M11.77,6.635A2.135,2.135,0,1,1,9.635,4.5,2.135,2.135,0,0,1,11.77,6.635Z" transform="translate(-3.865)" fill="none" stroke="#bcc0c7" stroke-linecap="round" stroke-linejoin="round" stroke-width="1"/>
      <path id="Path_36686" data-name="Path 36686" d="M31.6,25.828V24.76A2.135,2.135,0,0,0,30,22.7" transform="translate(-18.36 -11.721)" fill="none" stroke="#bcc0c7" stroke-linecap="round" stroke-linejoin="round" stroke-width="1"/>
      <path id="Path_36687" data-name="Path 36687" d="M24,4.695a2.135,2.135,0,0,1,0,4.136" transform="translate(-14.495 -0.126)" fill="none" stroke="#bcc0c7" stroke-linecap="round" stroke-linejoin="round" stroke-width="1"/>
    </g>
    <g id="Group_46111" data-name="Group 46111">
      <text id="_1" data-name="1" transform="translate(1263 268)" fill="#bcc0c7" font-size="10" font-family="Lato-Medium, Lato" font-weight="500"><tspan x="0" y="0">1</tspan></text>
      <text id="_2" data-name="2" transform="translate(1269 274)" fill="#bcc0c7" font-size="10" font-family="Lato-Medium, Lato" font-weight="500"><tspan x="0" y="0">2</tspan></text>
    </g>
    <path id="Path_50930" data-name="Path 50930" d="M17.042,13.214a1.058,1.058,0,1,0-1.725,1.045l-2.532,4.765a1.049,1.049,0,0,0-1.043.1L9.821,16.655a1.058,1.058,0,1,0-1.491.116l-1.41,3.172a1.057,1.057,0,1,0,.366.124l1.378-3.1a1.051,1.051,0,0,0,.857-.066l1.95,2.5a1.058,1.058,0,1,0,1.632-.158l2.545-4.789a1.058,1.058,0,0,0,1.393-1.241ZM6.77,21.662a.673.673,0,1,1,.673-.673A.674.674,0,0,1,6.77,21.662Zm1.574-5.694a.673.673,0,1,1,.673.673A.674.674,0,0,1,8.344,15.968Zm4.008,4.692a.673.673,0,1,1,.673-.673A.674.674,0,0,1,12.352,20.66Zm3.819-6.544a.674.674,0,0,1-.475-.061.192.192,0,0,0-.038-.027l-.014-.006a.672.672,0,1,1,.527.094Z" transform="translate(1256.788 320.318)" fill="#bcc0c7" stroke="#bcc0c7" stroke-width="0.2"/>
  </g>
</svg>
