<svg xmlns="http://www.w3.org/2000/svg" width="13.933" height="13.933" viewBox="0 0 13.933 13.933">
  <g id="Group_46816" data-name="Group 46816" transform="translate(14588.15 2475.583)">
    <path id="Path_51009" data-name="Path 51009" d="M12.176,6.1a6.716,6.716,0,1,0,6.716,6.716A6.716,6.716,0,0,0,12.176,6.1Zm0,12.733a6.017,6.017,0,1,1,6.017-6.017A6.017,6.017,0,0,1,12.176,18.833Z" transform="translate(-14593.36 -2481.433)" fill="#2c62ed" stroke="#3064ed" stroke-width="0.5"/>
    <path id="Path_51010" data-name="Path 51010" d="M39.17,30.3V28.385a2.072,2.072,0,0,1,.993.453.277.277,0,1,0,.378-.406,2.522,2.522,0,0,0-1.372-.615V27.31a.28.28,0,0,0-.559,0v.5a1.639,1.639,0,0,0-1.623,1.553c0,.923,1.058,1.218,1.623,1.36V32.85a3.368,3.368,0,0,1-1.274-.574.277.277,0,0,0-.391.391,3.578,3.578,0,0,0,1.662.742v.462a.28.28,0,0,0,.559,0v-.453c.713-.085,1.623-.5,1.623-1.455C40.813,31.228,40.221,30.626,39.17,30.3Zm-.559-.151c-.453-.125-1.058-.335-1.058-.784,0-.588.518-.907,1.058-.993V30.15Zm.559,2.72V30.892c.5.181,1.058.518,1.058,1.091.02.616-.665.811-1.058.881Z" transform="translate(-14620.019 -2499.201)" fill="#2c62ed" stroke="#3064ed" stroke-width="0.5"/>
  </g>
</svg>
