<svg xmlns="http://www.w3.org/2000/svg" width="18" height="9.36" viewBox="0 0 18 9.36">
  <g id="Group_46809" data-name="Group 46809" transform="translate(-1243 -368)">
    <g id="Group_46123" data-name="Group 46123">
      <g id="Group_46117" data-name="Group 46117" transform="translate(1243 368)">
        <path id="Path_50934" data-name="Path 50934" d="M72.92,161.36H57.08A1.081,1.081,0,0,1,56,160.28v-7.2A1.081,1.081,0,0,1,57.08,152H72.92A1.081,1.081,0,0,1,74,153.08v7.2A1.081,1.081,0,0,1,72.92,161.36Zm-15.84-8.64a.36.36,0,0,0-.36.36v7.2a.36.36,0,0,0,.36.36H72.92a.36.36,0,0,0,.36-.36v-7.2a.36.36,0,0,0-.36-.36Z" transform="translate(-56 -152)" fill="#bcc0c7"/>
      </g>
      <g id="Group_46118" data-name="Group 46118" transform="translate(1250.571 368.857)">
        <rect id="Rectangle_11197" data-name="Rectangle 11197" height="8" transform="translate(0.429 0.143)" fill="#bcc0c7" stroke="#707070" stroke-width="0.2"/>
      </g>
    </g>
    <g id="Group_46120" data-name="Group 46120" transform="translate(1254.625 371.705)">
      <g id="Group_46119" data-name="Group 46119" transform="translate(0 0)">
        <path id="Path_50935" data-name="Path 50935" d="M316.038,236.547l-1.695-1.695.509-.509,1.185,1.185,1.185-1.185.509.509Z" transform="translate(-314.343 -234.343)" fill="#bcc0c7"/>
      </g>
    </g>
  </g>
</svg>
