<svg xmlns="http://www.w3.org/2000/svg" width="18" height="18" viewBox="0 0 18 18">
  <g id="Group_47087" data-name="Group 47087" transform="translate(-4586 744)">
    <path id="Icon_material-tag-faces" data-name="Icon material-tag-faces" d="M11.991,3A9,9,0,1,0,21,12,9,9,0,0,0,11.991,3ZM12,19.2A7.2,7.2,0,1,1,19.2,12,7.2,7.2,0,0,1,12,19.2Zm3.15-8.1A1.35,1.35,0,1,0,13.8,9.75,1.348,1.348,0,0,0,15.15,11.1Zm-6.3,0A1.35,1.35,0,1,0,7.5,9.75,1.348,1.348,0,0,0,8.85,11.1ZM12,16.95a4.947,4.947,0,0,0,4.6-3.15H7.4A4.947,4.947,0,0,0,12,16.95Z" transform="translate(4583 -747)" fill="#2d62ed"/>
  </g>
</svg>
