<svg xmlns="http://www.w3.org/2000/svg" width="40" height="40" viewBox="0 0 40 40">
  <g id="helpwhite" transform="translate(400 409)">
    <rect id="Rectangle_4656" data-name="Rectangle 4656" width="40" height="40" rx="6" transform="translate(-400 -409)" fill="none"/>
    <path id="Union_143" data-name="Union 143" d="M2750-1823a9.008,9.008,0,0,1,9-9,9.007,9.007,0,0,1,9,9,9.01,9.01,0,0,1-9,9A9.012,9.012,0,0,1,2750-1823Zm1.553,0a7.458,7.458,0,0,0,7.45,7.449,7.386,7.386,0,0,0,5.259-2.182,7.409,7.409,0,0,0,2.18-5.267,7.448,7.448,0,0,0-7.439-7.439A7.453,7.453,0,0,0,2751.553-1823.006Zm6.5,4.352a1.03,1.03,0,0,1,1.03-1.022,1.023,1.023,0,0,1,1.02,1.022,1.021,1.021,0,0,1-1.02,1.02A1.026,1.026,0,0,1,2758.049-1818.654Zm.536-1.865a.116.116,0,0,1-.115-.116v-1.653a1.223,1.223,0,0,1,.65-1.167l0,0,.995-.672,0,0a1.454,1.454,0,0,0,.619-1.077,1.307,1.307,0,0,0-.352-1.039,1.96,1.96,0,0,0-1.364-.523,2.2,2.2,0,0,0-.434.043,1.822,1.822,0,0,0-1.454,2.105.116.116,0,0,1-.116.116h-.982a.115.115,0,0,1-.083-.035.116.116,0,0,1-.033-.084,3.142,3.142,0,0,1,.878-2.473,2.758,2.758,0,0,1,2.134-.888,4.31,4.31,0,0,1,.866.092,2.912,2.912,0,0,1,2.281,2.709,2.5,2.5,0,0,1-1.461,2.2l-.065.04c-.038.024-.074.046-.106.067a1.472,1.472,0,0,0-.761,1.251v.988a.117.117,0,0,1-.116.117Z" transform="translate(-3139 1434)" fill="#fff"/>
  </g>
</svg>
