<svg xmlns="http://www.w3.org/2000/svg" width="17.7" height="17.7" viewBox="0 0 17.7 17.7">
  <path id="Icon_awesome-at" data-name="Icon awesome-at" d="M9.063.562A8.5,8.5,0,1,0,13.7,16.184a.824.824,0,0,0,.19-1.212l-.349-.426a.82.82,0,0,0-1.075-.176A6.307,6.307,0,1,1,9.063,2.756c3.432,0,6.306,1.975,6.306,5.484,0,1.329-.723,2.733-1.994,2.869-.595-.016-.58-.441-.462-1.029l.8-4.151a.823.823,0,0,0-.808-.979H11.367a.463.463,0,0,0-.46.411v0a2.635,2.635,0,0,0-2.055-.746A4.889,4.889,0,0,0,4.127,9.809c0,2.238,1.261,3.629,3.29,3.629a3.468,3.468,0,0,0,2.57-1.314c.326,1.169,1.392,1.169,2.424,1.169,3.733,0,5.151-2.454,5.151-5.052C17.563,3.567,13.793.562,9.063.562ZM8.319,11A1.228,1.228,0,0,1,7.083,9.6,2.29,2.29,0,0,1,9.093,7.106c.764,0,1.22.522,1.22,1.4A2.365,2.365,0,0,1,8.319,11Z" transform="translate(-0.212 -0.212)" fill="#2d62ed" stroke="#fff" stroke-width="0.7"/>
</svg>
