<svg xmlns="http://www.w3.org/2000/svg" width="18.558" height="18.956" viewBox="0 0 18.558 18.956">
  <g id="like" transform="translate(0.3 0.3)" opacity="0.8">
    <path id="Path_51026" data-name="Path 51026" d="M17.391,6.566a4.274,4.274,0,0,0-1.125-.119c-.809.025-1.635.067-2.433.108l-.374.019q.134-.452.269-.9c.149-.5.3-1,.443-1.5A2.953,2.953,0,0,0,12.626.527a2.412,2.412,0,0,0-.952-.24c-.493,0-1.109.255-1.246,1.47-.007.056-.01.112-.013.168,0,.035,0,.071-.007.1A4.662,4.662,0,0,1,9.391,4.86c-.163.178-.33.352-.5.527-.3.311-.607.633-.89.976l-.123.149A5.675,5.675,0,0,1,6.128,8.132a1.079,1.079,0,0,0-1.175-.816q-1.355-.028-2.711,0a1.118,1.118,0,0,0-1.227,1.26q-.006,4.281,0,8.565a1.084,1.084,0,0,0,1.234,1.236c.882.009,1.764.007,2.647,0a1.119,1.119,0,0,0,1.175-.639c.847.131,1.651.254,2.467.356.388.048.776.1,1.163.153,1.273.171,2.589.348,3.9.391.07,0,.14,0,.208,0h0a3.926,3.926,0,0,0,4.16-3.468c.329-1.868.6-3.773.862-5.616l.1-.724A2.067,2.067,0,0,0,17.391,6.566ZM4.889,17.523c-.877.006-1.754.009-2.632,0-.388,0-.388-.025-.388-.382q-.006-4.282,0-8.563c0-.358.041-.4.39-.407q1.337-.027,2.676,0c.331.007.393.022.394.456v8.509a.432.432,0,0,0-.016.088C5.294,17.5,5.292,17.52,4.889,17.523Zm13.2-8.808-.1.724c-.261,1.836-.532,3.734-.858,5.588a3.09,3.09,0,0,1-3.5,2.758c-1.267-.042-2.562-.217-3.814-.385-.391-.052-.781-.1-1.171-.154-.809-.1-1.614-.225-2.46-.355V9.032A5.769,5.769,0,0,0,8.541,7.054l.122-.148c.263-.319.547-.615.848-.929.172-.179.344-.359.511-.541a5.552,5.552,0,0,0,1.236-3.316c.005-.049.008-.1.011-.148s0-.077.009-.118c.08-.713.286-.713.4-.713a1.647,1.647,0,0,1,.609.168,2.118,2.118,0,0,1,1.065,2.625c-.143.5-.291.993-.44,1.489-.118.395-.236.789-.353,1.187a1.137,1.137,0,0,0-.035.295c0,.029,0,.06,0,.095a.427.427,0,0,0,.447.453l.912-.046c.831-.042,1.615-.083,2.416-.107a3.339,3.339,0,0,1,.892.094A1.22,1.22,0,0,1,18.089,8.715Z" transform="translate(-1.011 -0.287)" stroke="#111" stroke-width="0.6"/>
  </g>
</svg>
