<svg xmlns="http://www.w3.org/2000/svg" width="14.626" height="14.2" viewBox="0 0 14.626 14.2">
  <g id="Group_46808" data-name="Group 46808" transform="translate(-8.483 -961.058)">
    <path id="Path_50933" data-name="Path 50933" d="M14.595,974.165a3.4,3.4,0,1,1-4.8-4.8l2.4-2.4a3.4,3.4,0,0,1,4.8,0,.51.51,0,1,1-.721.721,2.362,2.362,0,0,0-3.363,0l-2.4,2.4a2.378,2.378,0,1,0,3.363,3.363l2.162-2.162a.51.51,0,1,1,.721.721l-2.162,2.162Zm4.8-4.806a3.4,3.4,0,0,1-4.8,0,.51.51,0,1,1,.721-.721,2.362,2.362,0,0,0,3.363,0l2.4-2.4a2.378,2.378,0,1,0-3.363-3.363l-2.162,2.162a.51.51,0,1,1-.721-.721L17,962.152a3.4,3.4,0,1,1,4.8,4.8Z" transform="translate(0 0)" fill="#bcc0c7" stroke="#bcc0c7" stroke-width="0.2"/>
  </g>
</svg>
