<svg xmlns="http://www.w3.org/2000/svg" width="50.864" height="10.524" viewBox="0 0 50.864 10.524">
  <path id="EMAAR_logo" d="M29.57,8.805a4.881,4.881,0,0,0,1.172,1.718H28.554L26.908,6.669H23.6l-1.625,3.854H20.681a5.624,5.624,0,0,0,.841-1.465L25.359,0h.433Zm-2.74-2.959-1.41-2.923L24.035,5.846ZM40.19,8.805a4.882,4.882,0,0,0,1.172,1.718H39.173L37.528,6.669H34.215l-1.624,3.854H31.3a5.672,5.672,0,0,0,.839-1.465L35.979,0h.433Zm-2.74-2.959L36.038,2.923,34.655,5.846ZM46.026,5.6l4.838,4.921H48.815a41.885,41.885,0,0,1-3.95-4.244c-.466-.571-.8-.643-1.009-.655V8.861a3.822,3.822,0,0,0,.285,1.655H41.921A3.6,3.6,0,0,0,42.2,8.861V1.656A3.59,3.59,0,0,0,41.921,0H44.1c1.488,0,5-.14,5,2.884a2.75,2.75,0,0,1-2.648,2.674Zm-1.869-.363a7.415,7.415,0,0,0,2.158-.131l.043-.02,0,0a2.164,2.164,0,0,0,1.155-2.154c-.033-.782-.341-2.484-3.352-2.346ZM7.248,9.474l.019-.09a2.936,2.936,0,0,1-1.351.394H1.893V5.653H6.134l.219-.809H1.893V.724H5.7a2.485,2.485,0,0,1,.922.195c.1.045.2.093.331.149L6.936,0H0A3.662,3.662,0,0,1,.275,1.657V8.865A3.677,3.677,0,0,1,0,10.524H7.106l.149-1.049Zm10.765,1.049a6.541,6.541,0,0,0,.019-1.847L17.4,3.718l-3.452,6.8h-.66L9.776,3.412,9.094,8.787a7.532,7.532,0,0,0-.034,1.737H7.825a4.68,4.68,0,0,0,.409-1.656L9.351,0h.57l4.1,8.276L18.109,0h.428l1.154,8.849a5.013,5.013,0,0,0,.431,1.674Z" fill="#fff" fill-rule="evenodd"/>
</svg>
