<svg xmlns="http://www.w3.org/2000/svg" width="11.833" height="11.029" viewBox="0 0 11.833 11.029">
  <g id="noun_calender_2395896" transform="translate(-40.85 -55.85)">
    <g id="Group_45494" data-name="Group 45494" transform="translate(41 56)">
      <g id="Group_45493" data-name="Group 45493" transform="translate(0 0)">
        <g id="Group_45492" data-name="Group 45492">
          <g id="Group_45488" data-name="Group 45488" transform="translate(0 3.219)">
            <path id="Path_50828" data-name="Path 50828" d="M49.583,176.536H41.268a.268.268,0,1,1,0-.536h8.315a.268.268,0,1,1,0,.536Z" transform="translate(-41 -176)" fill="#2d62ed" stroke="#2d62ed" stroke-width="0.3"/>
          </g>
          <g id="Group_45489" data-name="Group 45489" transform="translate(0 1.073)">
            <path id="Path_50829" data-name="Path 50829" d="M50,105.656h-.027a.268.268,0,0,1,0-.536H50a.268.268,0,1,1,0,.536Zm-1.368,0H42.475A1.477,1.477,0,0,1,41,104.181V98.824a.268.268,0,0,1,.536,0v5.357a.94.94,0,0,0,.939.939h6.158a.268.268,0,1,1,0,.536Zm2.706-.033a.268.268,0,0,1-.062-.529.935.935,0,0,0,.72-.913V97.475a.94.94,0,0,0-.939-.939h-.4v.8a.268.268,0,0,1-.268.268H49.047a.268.268,0,0,1-.268-.268v-.8H44.755v.8a.268.268,0,0,1-.268.268H43.146a.268.268,0,0,1-.268-.268v-.8h-.4a.93.93,0,0,0-.4.091.268.268,0,0,1-.231-.484A1.462,1.462,0,0,1,42.475,96h.671a.268.268,0,0,1,.268.268v.8h.8v-.8A.268.268,0,0,1,44.487,96h4.56a.268.268,0,0,1,.268.268v.8h.8v-.8A.268.268,0,0,1,50.388,96h.671a1.477,1.477,0,0,1,1.475,1.475v6.706a1.47,1.47,0,0,1-1.132,1.435A.267.267,0,0,1,51.339,105.623ZM41.268,97.751A.268.268,0,0,1,41,97.483v-.008c0-.008,0-.015,0-.023a.268.268,0,0,1,.536.008v.023A.268.268,0,0,1,41.268,97.751Z" transform="translate(-41 -96)" fill="#2d62ed" stroke="#2d62ed" stroke-width="0.3"/>
          </g>
          <g id="Group_45490" data-name="Group 45490" transform="translate(1.878)">
            <path id="Path_50830" data-name="Path 50830" d="M112.609,58.682h-1.341a.268.268,0,0,1-.268-.268V56.939a.939.939,0,0,1,1.878,0v1.475A.268.268,0,0,1,112.609,58.682Zm-1.073-.536h.8V56.939a.4.4,0,0,0-.8,0Z" transform="translate(-111 -56)" fill="#2d62ed" stroke="#2d62ed" stroke-width="0.3"/>
          </g>
          <g id="Group_45491" data-name="Group 45491" transform="translate(7.779)">
            <path id="Path_50831" data-name="Path 50831" d="M332.609,58.682h-1.341a.268.268,0,0,1-.268-.268V56.939a.939.939,0,0,1,1.878,0v1.475A.268.268,0,0,1,332.609,58.682Zm-1.073-.536h.8V56.939a.4.4,0,1,0-.8,0Z" transform="translate(-331 -56)" fill="#2d62ed" stroke="#2d62ed" stroke-width="0.3"/>
          </g>
        </g>
      </g>
    </g>
  </g>
</svg>
