<svg xmlns="http://www.w3.org/2000/svg" width="18.1" height="18.1" viewBox="0 0 18.1 18.1">
  <g id="noun_note_1859321" transform="translate(-3.95 -3.95)">
    <path id="Path_50068" data-name="Path 50068" d="M18.625,4H7.375A3.375,3.375,0,0,0,4,7.375v11.25A3.375,3.375,0,0,0,7.375,22h8.068a2.25,2.25,0,0,0,1.591-.659l4.307-4.307A2.25,2.25,0,0,0,22,15.443V7.375A3.375,3.375,0,0,0,18.625,4Zm-2.25,16.409V17.5A1.126,1.126,0,0,1,17.5,16.375h2.909Zm4.5-5.159H17.5a2.25,2.25,0,0,0-2.25,2.25v3.375H7.375a2.253,2.253,0,0,1-2.25-2.25V7.375a2.253,2.253,0,0,1,2.25-2.25h11.25a2.253,2.253,0,0,1,2.25,2.25Z" fill="#fff" stroke="#fff" stroke-width="0.1"/>
    <path id="Path_50069" data-name="Path 50069" d="M15.5,8h-7a.5.5,0,0,0,0,1h7a.5.5,0,0,0,0-1Z" transform="translate(1 0.533)" fill="#fff" stroke="#fff" stroke-width="0.1"/>
    <path id="Path_50070" data-name="Path 50070" d="M15.5,11h-7a.5.5,0,0,0,0,1h7a.5.5,0,0,0,0-1Z" transform="translate(1 0.933)" fill="#fff" stroke="#fff" stroke-width="0.1"/>
  </g>
</svg>
