<svg xmlns="http://www.w3.org/2000/svg" width="17.251" height="10.137" viewBox="0 0 17.251 10.137">
  <g id="preview" transform="translate(-0.662 -10.286)">
    <g id="Layer_25" data-name="Layer 25" transform="translate(0.662 10.286)">
      <path id="Path_50890" data-name="Path 50890" d="M17.834,15.126c-.156-.2-3.861-4.84-8.546-4.84S.9,14.928.741,15.126a.37.37,0,0,0,0,.457c.156.2,3.861,4.84,8.546,4.84s8.391-4.643,8.546-4.84a.37.37,0,0,0,0-.457ZM9.288,19.684c-3.755,0-6.97-3.405-7.773-4.33.8-.924,4.018-4.33,7.773-4.33s6.97,3.405,7.773,4.33C16.258,16.279,13.043,19.684,9.288,19.684Z" transform="translate(-0.662 -10.286)" fill="#919191"/>
      <path id="Path_50891" data-name="Path 50891" d="M19.288,16.526a2.762,2.762,0,1,0,2.762,2.762A2.762,2.762,0,0,0,19.288,16.526Zm0,4.786a2.023,2.023,0,1,1,2.023-2.023,2.023,2.023,0,0,1-2.023,2.023Z" transform="translate(-10.662 -14.22)" fill="#919191"/>
    </g>
  </g>
</svg>
