<svg xmlns="http://www.w3.org/2000/svg" width="13.378" height="14.891" viewBox="0 0 13.378 14.891">
  <g id="print" transform="translate(-4.88 -3.31)">
    <g id="_32-printer" data-name="32-printer" transform="translate(4.88 3.31)">
      <path id="Path_50892" data-name="Path 50892" d="M17.907,6.991H15.152V3.661A.351.351,0,0,0,14.8,3.31H8.319a.351.351,0,0,0-.351.351v3.33H5.231a.351.351,0,0,0-.351.351v6.826a.351.351,0,0,0,.351.351H7.968v3.33a.351.351,0,0,0,.351.351H14.8a.351.351,0,0,0,.351-.351v-3.33h2.755a.351.351,0,0,0,.351-.351V7.342A.351.351,0,0,0,17.907,6.991ZM8.67,4.012h5.78v2.98H8.67ZM14.45,17.5H8.67V12.235h5.78Zm3.106-3.681h-2.4V12.224h1.084a.351.351,0,0,0,0-.7H6.947a.351.351,0,1,0,0,.7H7.968v1.593H5.582V7.693H17.556Z" transform="translate(-4.88 -3.31)" fill="#919191"/>
      <path id="Path_50893" data-name="Path 50893" d="M9.835,19.44a.762.762,0,1,0-.541-.222.765.765,0,0,0,.541.222Z" transform="translate(-7.6 -12.786)" fill="#919191"/>
      <path id="Path_50894" data-name="Path 50894" d="M18.281,33.952h3.348a.351.351,0,0,0,0-.7H18.281a.351.351,0,0,0,0,.7Z" transform="translate(-13.35 -22.743)" fill="#919191"/>
      <path id="Path_50895" data-name="Path 50895" d="M18.281,39.212h3.348a.351.351,0,0,0,0-.7H18.281a.351.351,0,0,0,0,.7Z" transform="translate(-13.35 -26.157)" fill="#919191"/>
    </g>
  </g>
</svg>
