<svg xmlns="http://www.w3.org/2000/svg" width="11.158" height="10.409" viewBox="0 0 11.158 10.409">
  <g id="Group_46818" data-name="Group 46818" transform="translate(-1071.15 -549.15)">
    <path id="Path_50919" data-name="Path 50919" d="M18,53.355v5.318a.355.355,0,1,0,.709,0V53.355a.355.355,0,0,0-.709,0Z" transform="translate(1130.773 531.5) rotate(90)" fill="#bcc0c7" stroke="#bcc0c7" stroke-width="0.7"/>
    <path id="Path_50920" data-name="Path 50920" d="M33,28.355V38.1a.355.355,0,1,0,.709,0V28.355a.355.355,0,0,0-.709,0Z" transform="translate(1109.958 525.5) rotate(90)" fill="#bcc0c7" stroke="#bcc0c7" stroke-width="0.7"/>
    <path id="Path_51030" data-name="Path 51030" d="M33,28.271v7.458a.367.367,0,0,0,.709,0V28.271a.367.367,0,0,0-.709,0Z" transform="translate(1107.5 521.5) rotate(90)" fill="#bcc0c7" stroke="#bcc0c7" stroke-width="0.7"/>
  </g>
</svg>
