<svg xmlns="http://www.w3.org/2000/svg" width="11.58" height="9.844" viewBox="0 0 11.58 9.844">
  <path id="Progress_track" data-name="Progress track" d="M17.042,13.214a1.058,1.058,0,1,0-1.725,1.045l-2.532,4.765a1.049,1.049,0,0,0-1.043.1L9.821,16.655a1.058,1.058,0,1,0-1.491.116l-1.41,3.172a1.057,1.057,0,1,0,.366.124l1.378-3.1a1.051,1.051,0,0,0,.857-.066l1.95,2.5a1.058,1.058,0,1,0,1.632-.158l2.545-4.789a1.058,1.058,0,0,0,1.393-1.241ZM6.77,21.662a.673.673,0,1,1,.673-.673A.674.674,0,0,1,6.77,21.662Zm1.574-5.694a.673.673,0,1,1,.673.673A.674.674,0,0,1,8.344,15.968Zm4.008,4.692a.673.673,0,1,1,.673-.673A.674.674,0,0,1,12.352,20.66Zm3.819-6.544a.674.674,0,0,1-.475-.061.192.192,0,0,0-.038-.027l-.014-.006a.672.672,0,1,1,.527.094Z" transform="translate(-5.612 -12.303)" fill="#bcc0c7" stroke="#bcc0c7" stroke-width="0.2"/>
</svg>
