<svg xmlns="http://www.w3.org/2000/svg" width="40" height="40" viewBox="0 0 40 40">
  <g id="project" transform="translate(482 920)">
    <rect id="Rectangle_4656" data-name="Rectangle 4656" width="40" height="40" rx="6" transform="translate(-482 -920)" fill="none"/>
    <path id="Path_36552" data-name="Path 36552" d="M16.589,13.651a4.733,4.733,0,1,1-3.348,1.386,4.718,4.718,0,0,1,3.348-1.386Zm-.362,2.52a.423.423,0,1,1,.847,0v2.206l1.649.977a.423.423,0,0,1-.43.727l-1.835-1.088a.423.423,0,0,1-.23-.377V16.171Zm3.112-.534a3.891,3.891,0,1,0,1.139,2.75,3.879,3.879,0,0,0-1.139-2.75Z" transform="translate(-473.088 -914.395)" fill="#fff"/>
    <path id="Path_36552_-_Outline" data-name="Path 36552 - Outline" d="M16.513,13.3a5.008,5.008,0,1,1-3.542,1.467A4.976,4.976,0,0,1,16.513,13.3Zm0,9.469a4.459,4.459,0,1,0-3.154-1.306A4.431,4.431,0,0,0,16.513,22.77Zm0-8.622a4.162,4.162,0,1,1-2.944,1.219A4.137,4.137,0,0,1,16.513,14.148Zm0,7.778a3.614,3.614,0,1,0-2.557-1.058A3.592,3.592,0,0,0,16.513,21.927Zm.061-6.529a.7.7,0,0,1,.7.7v2.049l1.515.9a.7.7,0,0,1,.245.955.7.7,0,0,1-.955.244l-1.829-1.084a.7.7,0,0,1-.371-.617V16.1A.7.7,0,0,1,16.574,15.4Zm1.858,4.393a.145.145,0,0,0,.126-.072.149.149,0,0,0,.017-.114.144.144,0,0,0-.067-.089l-1.651-.977a.274.274,0,0,1-.135-.236V16.1a.149.149,0,1,0-.3,0V18.54a.149.149,0,0,0,.081.133l.015.008,1.835,1.088A.147.147,0,0,0,18.432,19.79Z" transform="translate(-473.012 -914.319)" fill="#fff"/>
    <path id="Path_36554" data-name="Path 36554" d="M7.645,14.106a.484.484,0,0,1,0-.953H9.831a.484.484,0,0,1,0,.953Zm.779,4.063a.476.476,0,0,1,0,.953H.11A1.112,1.112,0,0,1-.674,18.8,1.106,1.106,0,0,1-1,18.013V4.11A1.112,1.112,0,0,1,.11,3h14.4a1.112,1.112,0,0,1,1.11,1.11V9.229a.476.476,0,1,1-.953,0V4.11a.159.159,0,0,0-.156-.156H.11A.151.151,0,0,0,0,4a.144.144,0,0,0-.048.109v13.9A.151.151,0,0,0,0,18.122a.154.154,0,0,0,.109.047ZM7.382,9.141a.484.484,0,0,1,0-.953h4.9a.484.484,0,0,1,0,.953Z" transform="translate(-470.804 -911.804)" fill="#fff"/>
    <path id="Path_36554_-_Outline" data-name="Path 36554 - Outline" d="M8.37,19.263H.056a1.3,1.3,0,0,1-.922-.382,1.3,1.3,0,0,1-.384-.922V4.056a1.3,1.3,0,0,1,.382-.922A1.3,1.3,0,0,1,.056,2.75h14.4a1.307,1.307,0,0,1,1.306,1.306V9.175a.672.672,0,1,1-1.344,0V4.1H.094V17.918H8.37a.672.672,0,1,1,0,1.344ZM.056,3.142a.916.916,0,0,0-.914.914v13.9A.906.906,0,0,0-.59,18.6a.913.913,0,0,0,.646.268H8.37a.28.28,0,0,0,0-.561H.054a.348.348,0,0,1-.246-.1A.347.347,0,0,1-.3,17.959V4.056a.343.343,0,0,1,.107-.25.347.347,0,0,1,.246-.1h14.4a.355.355,0,0,1,.351.351V9.175a.28.28,0,1,0,.561,0V4.056a.916.916,0,0,0-.914-.914ZM9.777,14.247H7.591a.677.677,0,0,1,0-1.344H9.777a.677.677,0,0,1,0,1.344Zm-2.186-.953c-.11,0-.2.128-.2.28s.093.28.2.28H9.777c.11,0,.2-.128.2-.28s-.093-.28-.2-.28Zm4.64-4.012h-4.9a.677.677,0,0,1,0-1.344h4.9a.677.677,0,0,1,0,1.344Zm-4.9-.953c-.11,0-.2.128-.2.28s.093.28.2.28h4.9c.11,0,.2-.128.2-.28s-.093-.28-.2-.28Z" transform="translate(-470.75 -911.75)" fill="#fff"/>
    <path id="Path_36553" data-name="Path 36553" d="M4.163,10.817a.586.586,0,0,1-.416-.172l-1.22-1.22a.588.588,0,1,1,.831-.831l.8.8,1.51-1.51A.588.588,0,1,1,6.5,8.72L4.579,10.645A.586.586,0,0,1,4.163,10.817Z" transform="translate(-471.221 -912.599)" fill="#fff"/>
    <circle id="Ellipse_1478" data-name="Ellipse 1478" cx="1.567" cy="1.567" r="1.567" transform="translate(-468.669 -899.635)" fill="#fff"/>
    <rect id="Rectangle_4656-2" data-name="Rectangle 4656" width="40" height="40" rx="6" transform="translate(-482 -920)" fill="#fff"/>
    <path id="Path_36552-2" data-name="Path 36552" d="M17.641,13.651a5.785,5.785,0,1,1-4.092,1.694,5.767,5.767,0,0,1,4.092-1.694Zm-.442,3.08a.518.518,0,1,1,1.035,0v2.7l2.016,1.194a.516.516,0,0,1-.526.889L17.48,20.181a.517.517,0,0,1-.282-.461V16.731Zm3.8-.653a4.756,4.756,0,1,0,1.392,3.362A4.741,4.741,0,0,0,21,16.078Z" transform="translate(-473.195 -914.06)" fill="#5e70ef" stroke="#fff" stroke-linecap="round" stroke-linejoin="round" stroke-width="0.3"/>
    <path id="Path_36552_-_Outline-2" data-name="Path 36552 - Outline" d="M17.626,13.3A6.12,6.12,0,1,1,13.3,15.094,6.082,6.082,0,0,1,17.626,13.3Zm0,11.573a5.45,5.45,0,1,0-3.855-1.6A5.416,5.416,0,0,0,17.626,24.874Zm0-10.538a5.087,5.087,0,1,1-3.6,1.49A5.056,5.056,0,0,1,17.626,14.336Zm0,9.507A4.417,4.417,0,1,0,14.5,22.55,4.39,4.39,0,0,0,17.626,23.843Zm.075-7.98a.854.854,0,0,1,.853.853v2.5l1.851,1.1a.85.85,0,0,1,.3,1.167.85.85,0,0,1-1.167.3L17.3,20.459a.85.85,0,0,1-.454-.754V16.716A.854.854,0,0,1,17.7,15.864Zm2.271,5.369a.177.177,0,0,0,.154-.088.182.182,0,0,0,.021-.14.177.177,0,0,0-.082-.109L18.048,19.7a.335.335,0,0,1-.164-.288v-2.7a.182.182,0,1,0-.364,0V19.7a.182.182,0,0,0,.1.163l.018.01,2.243,1.329A.179.179,0,0,0,19.972,21.232Z" transform="translate(-473.18 -914.045)" fill="#5e70ef" stroke="#fff" stroke-linecap="round" stroke-linejoin="round" stroke-width="0.3"/>
    <path id="Path_36554-2" data-name="Path 36554" d="M9.566,16.574a.591.591,0,0,1,0-1.164h2.672a.591.591,0,0,1,0,1.164Zm.952,4.966a.582.582,0,1,1,0,1.164H.356a1.36,1.36,0,0,1-.959-.4,1.351,1.351,0,0,1-.4-.957V4.356A1.359,1.359,0,0,1,.356,3h17.6a1.359,1.359,0,0,1,1.356,1.356v6.257a.582.582,0,1,1-1.164,0V4.356a.194.194,0,0,0-.19-.19H.356a.185.185,0,0,0-.133.057.176.176,0,0,0-.059.133V21.349a.185.185,0,0,0,.057.133.189.189,0,0,0,.133.057ZM9.244,10.506a.591.591,0,0,1,0-1.164h5.993a.591.591,0,0,1,0,1.164Z" transform="translate(-473.26 -913.26)" fill="#5e70ef" stroke="#fff" stroke-linecap="round" stroke-linejoin="round" stroke-width="0.3"/>
    <path id="Path_36554_-_Outline-2" data-name="Path 36554 - Outline" d="M10.507,22.932H.346a1.592,1.592,0,0,1-1.127-.467,1.583,1.583,0,0,1-.469-1.127V4.346a1.6,1.6,0,0,1,1.6-1.6h17.6a1.6,1.6,0,0,1,1.6,1.6V10.6a.822.822,0,1,1-1.643,0V4.4H.393V21.289H10.507a.822.822,0,1,1,0,1.643ZM.346,3.229A1.119,1.119,0,0,0-.771,4.346V21.338a1.107,1.107,0,0,0,.328.787,1.116,1.116,0,0,0,.789.328H10.507a.343.343,0,1,0,0-.685H.344a.426.426,0,0,1-.3-.125.424.424,0,0,1-.129-.3V4.346a.419.419,0,0,1,.131-.3.425.425,0,0,1,.3-.125h17.6a.434.434,0,0,1,.43.43V10.6a.343.343,0,1,0,.685,0V4.346a1.119,1.119,0,0,0-1.117-1.117ZM12.227,16.8H9.555a.828.828,0,0,1,0-1.643h2.672a.828.828,0,0,1,0,1.643ZM9.555,15.638c-.135,0-.249.157-.249.343s.114.343.249.343h2.672c.135,0,.249-.157.249-.343s-.114-.343-.249-.343Zm5.671-4.9H9.234a.828.828,0,0,1,0-1.643h5.993a.828.828,0,0,1,0,1.643ZM9.234,9.57c-.135,0-.249.157-.249.343s.114.343.249.343h5.993c.135,0,.249-.157.249-.343s-.114-.343-.249-.343Z" transform="translate(-473.25 -913.25)" fill="#5e70ef" stroke="#fff" stroke-linecap="round" stroke-linejoin="round" stroke-width="0.3"/>
    <path id="Path_36553-2" data-name="Path 36553" d="M4.565,11.506a.716.716,0,0,1-.508-.21L2.566,9.805A.718.718,0,1,1,3.582,8.789l.983.983L6.41,7.927A.718.718,0,0,1,7.426,8.943L5.073,11.3A.716.716,0,0,1,4.565,11.506Z" transform="translate(-473.024 -913.184)" fill="#5e70ef" stroke="#fff" stroke-linecap="round" stroke-linejoin="round" stroke-width="0.3"/>
    <circle id="Ellipse_1478-2" data-name="Ellipse 1478" cx="1.916" cy="1.916" r="1.916" transform="translate(-470.429 -899.053)" fill="#5e70ef" stroke="#fff" stroke-linecap="round" stroke-linejoin="round" stroke-width="0.3"/>
  </g>
</svg>
