<svg xmlns="http://www.w3.org/2000/svg" width="40" height="40" viewBox="0 0 40 40">
  <g id="project-white" transform="translate(-59 -188)">
    <rect id="Rectangle_4656" data-name="Rectangle 4656" width="40" height="40" rx="6" transform="translate(59 188)" fill="none"/>
    <path id="Union_146" data-name="Union 146" d="M2961.033-1484.467a4.976,4.976,0,0,1-1.467-3.542,5.036,5.036,0,0,1,.225-1.493h-1.876a.638.638,0,0,1-.6-.673.638.638,0,0,1,.6-.672h2.186a.542.542,0,0,1,.289.084,5.051,5.051,0,0,1,.644-.788,4.975,4.975,0,0,1,3.542-1.466,4.976,4.976,0,0,1,3.542,1.466,4.975,4.975,0,0,1,1.467,3.542,4.975,4.975,0,0,1-1.467,3.542,4.977,4.977,0,0,1-3.542,1.467A4.976,4.976,0,0,1,2961.033-1484.467Zm.986-6.1a3.588,3.588,0,0,0-1.059,2.556,3.588,3.588,0,0,0,1.059,2.556,3.589,3.589,0,0,0,2.556,1.059,3.591,3.591,0,0,0,2.557-1.059,3.591,3.591,0,0,0,1.058-2.556,3.592,3.592,0,0,0-1.058-2.556,3.591,3.591,0,0,0-2.557-1.059A3.589,3.589,0,0,0,2962.019-1490.564Zm-11.639,6.077a1.3,1.3,0,0,1-.922-.382,1.3,1.3,0,0,1-.384-.922v-13.9a1.3,1.3,0,0,1,.382-.922,1.3,1.3,0,0,1,.923-.384h14.4a1.3,1.3,0,0,1,.922.382,1.3,1.3,0,0,1,.384.923v5.12a.673.673,0,0,1-.672.672.673.673,0,0,1-.672-.672v-5.078h-14.322v13.822h8.275a.673.673,0,0,1,.672.672.673.673,0,0,1-.672.672Zm15.76-1.591-1.829-1.084a.7.7,0,0,1-.372-.617v-2.445a.7.7,0,0,1,.7-.7.7.7,0,0,1,.7.7v2.05l1.514.9a.691.691,0,0,1,.32.425.7.7,0,0,1-.076.531.7.7,0,0,1-.6.342A.7.7,0,0,1,2966.14-1486.078Zm-13.735-3.99a1.567,1.567,0,0,1,1.567-1.567,1.568,1.568,0,0,1,1.568,1.567,1.567,1.567,0,0,1-1.568,1.567A1.567,1.567,0,0,1,2952.4-1490.067Zm1.2-3.887-1.219-1.22a.587.587,0,0,1,0-.831.587.587,0,0,1,.831,0l.8.8,1.51-1.51a.588.588,0,0,1,.832,0,.588.588,0,0,1,0,.831l-1.926,1.926a.584.584,0,0,1-.416.172A.584.584,0,0,1,2953.6-1493.954Zm4.051-.513a.638.638,0,0,1-.6-.672.637.637,0,0,1,.6-.672h4.9a.638.638,0,0,1,.6.672.639.639,0,0,1-.6.672Z" transform="translate(-2880.074 1700)" fill="#fff"/>
  </g>
</svg>
