<svg xmlns="http://www.w3.org/2000/svg" width="22.781" height="23.43" viewBox="0 0 22.781 23.43">
  <g id="refresh" transform="translate(-14.95 -13.95)">
    <g id="Group_46044" data-name="Group 46044" transform="translate(15 14)">
      <path id="Path_50910" data-name="Path 50910" d="M35.089,18.448v-3.8a.648.648,0,1,1,1.3,0v5.184a1.148,1.148,0,0,1-.972.648H30.229a.648.648,0,1,1,0-1.3h3.787a10.045,10.045,0,0,0-17.72,6.48.648.648,0,1,1-1.3,0,11.341,11.341,0,0,1,20.089-7.217Zm-17.5,14.434v3.8a.648.648,0,0,1-1.3,0V31.5a.648.648,0,0,1,.648-.648h5.184a.648.648,0,1,1,0,1.3H18.666a10.045,10.045,0,0,0,17.72-6.48.648.648,0,0,1,1.3,0,11.341,11.341,0,0,1-20.089,7.217Z" transform="translate(-15 -14)" fill="#bcc0c7" stroke="#fff" stroke-width="0.1"/>
    </g>
  </g>
</svg>
