<svg xmlns="http://www.w3.org/2000/svg" xmlns:xlink="http://www.w3.org/1999/xlink" width="139" height="139" viewBox="0 0 139 139">
  <defs>
    <linearGradient id="linear-gradient" x1="0.5" x2="0.5" y2="1" gradientUnits="objectBoundingBox">
      <stop offset="0" stop-color="#fff"/>
      <stop offset="1" stop-color="#e5e8fa"/>
    </linearGradient>
    <linearGradient id="linear-gradient-2" x1="0.773" y1="0.118" x2="0.562" y2="0.667" gradientUnits="objectBoundingBox">
      <stop offset="0" stop-color="#e4e9f8" stop-opacity="0"/>
      <stop offset="1" stop-color="#dce0f8"/>
    </linearGradient>
    <clipPath id="clip-path">
      <circle id="Ellipse_1765" data-name="Ellipse 1765" cx="69.5" cy="69.5" r="69.5" transform="translate(0)" fill="url(#linear-gradient)"/>
    </clipPath>
  </defs>
  <g id="remaining_efforts" data-name="remaining efforts" transform="translate(-351 -96)">
    <circle id="Ellipse_1766" data-name="Ellipse 1766" cx="69.5" cy="69.5" r="69.5" transform="translate(351 96)" fill="url(#linear-gradient-2)"/>
    <g id="Mask_Group_223" data-name="Mask Group 223" transform="translate(351 96)" clip-path="url(#clip-path)">
      <g id="idea" transform="translate(-213.1 -21.58)">
        <g id="color" transform="translate(249.738 48.066)">
          <path id="Path_50623" data-name="Path 50623" d="M899.053,119.781A7.524,7.524,0,0,0,895.8,124.5a9.785,9.785,0,0,0,.5,6.174,3.97,3.97,0,0,0,1.79,2.272c.559.265,1.06.246,3.03.076.919-.076,1.913-.17,2.973-.284a11.72,11.72,0,0,0,2.415-5.558c.066-.5.843-6.486-2.415-8.077C901.96,118.048,899.394,119.572,899.053,119.781Z" transform="translate(-852.144 -118.733)" fill="#5e70ef"/>
          <ellipse id="Ellipse_1759" data-name="Ellipse 1759" cx="2.14" cy="2.367" rx="2.14" ry="2.367" transform="translate(1.932 10.432)" fill="#5f70e2"/>
          <ellipse id="Ellipse_1760" data-name="Ellipse 1760" cx="1.591" cy="1.534" rx="1.591" ry="1.534" transform="translate(51.008 50.03)" fill="#5e70ef"/>
          <circle id="Ellipse_1761" data-name="Ellipse 1761" cx="1.184" cy="1.184" r="1.184" transform="translate(2.907 41.47)" fill="#5e70ef"/>
          <ellipse id="Ellipse_1762" data-name="Ellipse 1762" cx="1.884" cy="1.979" rx="1.884" ry="1.979" transform="translate(0 10.422)"/>
          <ellipse id="Ellipse_1763" data-name="Ellipse 1763" cx="1.165" cy="1.212" rx="1.165" ry="1.212" transform="translate(50.999 48.25)"/>
          <ellipse id="Ellipse_1764" data-name="Ellipse 1764" cx="1.278" cy="1.364" rx="1.278" ry="1.364" transform="translate(66.452 14.522)" fill="#5222d0"/>
          <g id="Group_45150" data-name="Group 45150" transform="translate(38.917 25.532)">
            <g id="Group_45149" data-name="Group 45149">
              <path id="Path_50624" data-name="Path 50624" d="M849.555,388.52c-.208-.331-.549-.019-.691.208a1.8,1.8,0,0,0-.265,1.6,1,1,0,0,0,1.023.682.831.831,0,0,0,.739-.833.148.148,0,0,0-.246-.1c-.5.634-1.117,1.534-.616,2.348a.909.909,0,0,0,1.553.028,2.4,2.4,0,0,1-.256-.038c.047.265.095.53.133.8.028.18.3.1.275-.076-.047-.265-.095-.53-.133-.8a.143.143,0,0,0-.256-.038.59.59,0,0,1-.767.227.888.888,0,0,1-.435-.824,2.508,2.508,0,0,1,.71-1.439c-.085-.038-.161-.066-.246-.1a.566.566,0,0,1-.691.549.784.784,0,0,1-.53-.53,1.183,1.183,0,0,1-.009-.767c.009-.019.4-.862.454-.767.1.171.35.028.256-.123Z" transform="translate(-848.505 -388.376)" fill="#5e70ef"/>
            </g>
          </g>
          <g id="Group_45152" data-name="Group 45152" transform="translate(1.015 25.925)">
            <g id="Group_45151" data-name="Group 45151">
              <path id="Path_50625" data-name="Path 50625" d="M448.511,393.133c.208-.568.9-.322,1.117.076a1.164,1.164,0,0,1,.133.436.47.47,0,0,1-.237.568c-.265.265-.331.161-.189-.312.066-.028.142-.057.208-.085a1.054,1.054,0,0,1,.568.019.973.973,0,0,1,.615,1.079.145.145,0,0,0,.208.161,1.089,1.089,0,0,1,1.572.729c.038.18.312.1.275-.076a1.371,1.371,0,0,0-1.988-.89c.066.057.142.1.208.161a1.247,1.247,0,0,0-1.392-1.477c-.3.047-.758.237-.8.6a.542.542,0,0,0,.521.54c.814.076.8-1.108.53-1.581a.891.891,0,0,0-1.638-.009c-.057.161.218.237.284.066Z" transform="translate(-448.219 -392.53)" fill="#5e70ef"/>
            </g>
          </g>
          <g id="Group_45154" data-name="Group 45154" transform="translate(51.095 61.903)">
            <g id="Group_45153" data-name="Group 45153">
              <path id="Path_50626" data-name="Path 50626" d="M977.183,772.756a6.713,6.713,0,0,1,1.837,1.818c.1.151.35.009.246-.142a7.141,7.141,0,0,0-1.932-1.913c-.161-.114-.3.133-.152.237Z" transform="translate(-977.119 -772.49)" fill="#5222d0"/>
            </g>
          </g>
          <g id="Group_45156" data-name="Group 45156" transform="translate(52.972 62.443)">
            <g id="Group_45155" data-name="Group 45155">
              <path id="Path_50627" data-name="Path 50627" d="M996.976,778.444c.151.18.294.369.445.549.114.142.313-.057.2-.2-.151-.18-.293-.369-.445-.549-.114-.142-.312.066-.2.2Z" transform="translate(-996.942 -778.197)" fill="#5222d0"/>
            </g>
          </g>
          <g id="Group_45158" data-name="Group 45158" transform="translate(52.091 59.797)">
            <g id="Group_45157" data-name="Group 45157">
              <path id="Path_50628" data-name="Path 50628" d="M987.682,750.492a7.827,7.827,0,0,1,1.61,2.083c.085.161.331.019.246-.142a7.916,7.916,0,0,0-1.657-2.14c-.132-.133-.331.076-.2.2Z" transform="translate(-987.638 -750.25)" fill="#5222d0"/>
            </g>
          </g>
        </g>
        <g id="background" transform="translate(230.1 48.991)">
          <g id="Group_45160" data-name="Group 45160" transform="translate(6.305 69.641)">
            <g id="Group_45159" data-name="Group 45159">
              <path id="Path_50629" data-name="Path 50629" d="M296.691,864.11a42.9,42.9,0,0,0,1.07,6.088.142.142,0,0,0,.275-.076,43.215,43.215,0,0,1-1.06-6.013c-.019-.18-.3-.18-.284,0Z" transform="translate(-296.69 -863.975)" fill="#e8e8e8"/>
            </g>
          </g>
          <g id="Group_45162" data-name="Group 45162" transform="translate(7.337 75.679)">
            <g id="Group_45161" data-name="Group 45161">
              <path id="Path_50630" data-name="Path 50630" d="M307.681,928.022a11.281,11.281,0,0,0,5.672,0,.142.142,0,0,0-.076-.275,10.906,10.906,0,0,1-5.52,0,.143.143,0,0,0-.076.275Z" transform="translate(-307.585 -927.742)" fill="#e8e8e8"/>
            </g>
          </g>
          <g id="Group_45164" data-name="Group 45164" transform="translate(13.038 69.489)">
            <g id="Group_45163" data-name="Group 45163">
              <path id="Path_50631" data-name="Path 50631" d="M368.082,868.56q.185-3.025.473-6.051c.019-.18-.265-.18-.284,0q-.284,3.025-.473,6.051c-.009.18.275.18.284,0Z" transform="translate(-367.798 -862.375)" fill="#e8e8e8"/>
            </g>
          </g>
          <g id="Group_45166" data-name="Group 45166" transform="translate(6.364 69.583)">
            <g id="Group_45165" data-name="Group 45165">
              <path id="Path_50632" data-name="Path 50632" d="M297.416,863.707a16.962,16.962,0,0,0,7.139-.066c.18-.038.1-.312-.076-.275a16.715,16.715,0,0,1-6.988.066c-.18-.038-.256.237-.076.275Z" transform="translate(-297.314 -863.362)" fill="#e8e8e8"/>
            </g>
          </g>
          <g id="Group_45168" data-name="Group 45168" transform="translate(6.437 70.203)">
            <g id="Group_45167" data-name="Group 45167">
              <path id="Path_50633" data-name="Path 50633" d="M298.08,870.319c.076.388.568.369.871.4a20.924,20.924,0,0,0,2.31.066c.739-.019,1.477-.076,2.216-.161a4.451,4.451,0,0,0,1.676-.445c.161-.085.019-.332-.142-.246a7.7,7.7,0,0,1-3.286.549c-.521.019-1.051.028-1.572.019-.275-.01-1.742.057-1.8-.256-.038-.18-.3-.1-.275.076Z" transform="translate(-298.078 -869.913)" fill="#e8e8e8"/>
            </g>
          </g>
          <g id="Group_45170" data-name="Group 45170" transform="translate(6.961 73.682)">
            <g id="Group_45169" data-name="Group 45169">
              <path id="Path_50634" data-name="Path 50634" d="M303.631,906.865a8.315,8.315,0,0,0,1.723,2.13c.133.123.341-.076.2-.2a7.693,7.693,0,0,1-1.676-2.074c-.085-.161-.331-.019-.246.142Z" transform="translate(-303.613 -906.652)" fill="#e8e8e8"/>
            </g>
          </g>
          <g id="Group_45172" data-name="Group 45172" transform="translate(6.588 71.501)">
            <g id="Group_45171" data-name="Group 45171">
              <path id="Path_50635" data-name="Path 50635" d="M299.7,883.823a22.7,22.7,0,0,0,3.485,4.469c.133.133.331-.076.2-.2a22.47,22.47,0,0,1-3.437-4.412c-.095-.152-.341-.01-.246.142Z" transform="translate(-299.675 -883.616)" fill="#e8e8e8"/>
            </g>
          </g>
          <g id="Group_45174" data-name="Group 45174" transform="translate(8.173 70.813)">
            <g id="Group_45173" data-name="Group 45173">
              <path id="Path_50636" data-name="Path 50636" d="M316.431,876.565a33.63,33.63,0,0,0,3.484,5.066c.114.142.312-.057.2-.2a32.835,32.835,0,0,1-3.437-5.009c-.085-.161-.331-.019-.246.142Z" transform="translate(-316.413 -876.352)" fill="#e8e8e8"/>
            </g>
          </g>
          <g id="Group_45176" data-name="Group 45176" transform="translate(9.974 70.885)">
            <g id="Group_45175" data-name="Group 45175">
              <path id="Path_50637" data-name="Path 50637" d="M335.459,877.323q1.463,2.187,2.954,4.356c.1.151.35.009.246-.142q-1.491-2.173-2.954-4.356c-.1-.152-.35-.009-.246.142Z" transform="translate(-335.434 -877.116)" fill="#e8e8e8"/>
            </g>
          </g>
          <g id="Group_45178" data-name="Group 45178" transform="translate(11.493 70.8)">
            <g id="Group_45177" data-name="Group 45177">
              <path id="Path_50638" data-name="Path 50638" d="M351.5,876.423c.492.8,1.023,1.572,1.572,2.329.1.142.35,0,.246-.142-.549-.758-1.079-1.534-1.572-2.329-.095-.152-.341-.01-.246.142Z" transform="translate(-351.475 -876.216)" fill="#e8e8e8"/>
            </g>
          </g>
          <g id="Group_45180" data-name="Group 45180" transform="translate(3.32 61.267)">
            <g id="Group_45179" data-name="Group 45179">
              <path id="Path_50639" data-name="Path 50639" d="M265.166,775.711c.114.653.227,1.316.35,1.969a.74.74,0,0,0,.218.483c.1.085.445.076.511.17a1.035,1.035,0,0,0,.019-.17c-.142.142-.284.284-.436.417a.158.158,0,0,0-.038.142,2.968,2.968,0,0,0,.312.852c.085.114.237.095.3.161s.038.019.009.189a1.743,1.743,0,0,0,0,.445,2.569,2.569,0,0,0,.18.653,9.606,9.606,0,0,0,2.367,3.049c.133.123.331-.076.2-.2a14.359,14.359,0,0,1-1.657-1.818,2.755,2.755,0,0,1-.739-2.367.132.132,0,0,0-.038-.142c-.18-.142-.36-.085-.483-.312-.237-.426-.1-.568.2-.862a.13.13,0,0,0,.019-.17.4.4,0,0,0-.256-.189c-.076-.028-.189,0-.265-.038-.161-.085-.161-.293-.189-.445-.114-.625-.227-1.259-.331-1.884-.019-.19-.294-.114-.256.066Z" transform="translate(-265.162 -775.535)" fill="#e8e8e8"/>
            </g>
          </g>
          <g id="Group_45182" data-name="Group 45182" transform="translate(3.436 61.123)">
            <g id="Group_45181" data-name="Group 45181">
              <path id="Path_50640" data-name="Path 50640" d="M266.481,774.3a9.239,9.239,0,0,1,6.3,8.579.142.142,0,0,0,.284,0,9.541,9.541,0,0,0-6.505-8.853c-.17-.057-.246.218-.076.275Z" transform="translate(-266.385 -774.019)" fill="#e8e8e8"/>
            </g>
          </g>
          <g id="Group_45184" data-name="Group 45184" transform="translate(8.921 59.142)">
            <g id="Group_45183" data-name="Group 45183">
              <path id="Path_50641" data-name="Path 50641" d="M324.6,760.051a14.382,14.382,0,0,1,4.441-6.685c.142-.114,0-.36-.142-.246a14.757,14.757,0,0,0-4.573,6.855c-.057.17.218.246.275.076Z" transform="translate(-324.319 -753.091)" fill="#e8e8e8"/>
            </g>
          </g>
          <g id="Group_45186" data-name="Group 45186" transform="translate(13.398 59.225)">
            <g id="Group_45185" data-name="Group 45185">
              <path id="Path_50642" data-name="Path 50642" d="M371.6,754.11c.066.871.142,1.742.208,2.623.019.18.3.18.284,0-.066-.871-.142-1.742-.208-2.623-.009-.18-.294-.18-.284,0Z" transform="translate(-371.598 -753.975)" fill="#e8e8e8"/>
            </g>
          </g>
          <g id="Group_45188" data-name="Group 45188" transform="translate(13.267 61.885)">
            <g id="Group_45187" data-name="Group 45187">
              <path id="Path_50643" data-name="Path 50643" d="M370.676,782.065c-.123.028-.246.057-.36.095a.142.142,0,0,0,.076.275c.123-.028.246-.057.36-.095a.143.143,0,0,0-.076-.275Z" transform="translate(-370.214 -782.061)" fill="#e8e8e8"/>
            </g>
          </g>
          <g id="Group_45190" data-name="Group 45190" transform="translate(13.223 62.06)">
            <g id="Group_45189" data-name="Group 45189">
              <path id="Path_50644" data-name="Path 50644" d="M369.754,784.091a.4.4,0,0,0,.36.312.139.139,0,0,0,.142-.142.146.146,0,0,0-.142-.142H370.1c-.009,0-.028-.01-.009,0-.009-.01-.019-.01-.028-.019s.019.019-.009-.009l-.019-.019c.019.019,0,0,0-.01s-.01-.028-.01-.009c0-.009-.009-.028-.009-.038a.132.132,0,0,0-.17-.095.136.136,0,0,0-.095.17Z" transform="translate(-369.749 -783.912)" fill="#e8e8e8"/>
            </g>
          </g>
          <g id="Group_45192" data-name="Group 45192" transform="translate(13.009 62.311)">
            <g id="Group_45191" data-name="Group 45191">
              <path id="Path_50645" data-name="Path 50645" d="M367.921,786.7a12.86,12.86,0,0,1-.066,1.6c-.019.17.009.568-.1.7a1.718,1.718,0,0,0-.218.066c-.142.114.057.313.2.2.047-.038.161,0,.237-.085.114-.114.095-.379.114-.511a13.805,13.805,0,0,0,.114-1.979c.009-.17-.275-.17-.275.01Z" transform="translate(-367.484 -786.562)" fill="#e8e8e8"/>
            </g>
          </g>
          <g id="Group_45194" data-name="Group 45194" transform="translate(11.655 64.818)">
            <g id="Group_45193" data-name="Group 45193">
              <path id="Path_50646" data-name="Path 50646" d="M354.48,813.281a2.005,2.005,0,0,1,.189,1.392,3.244,3.244,0,0,1-.369,1.4,14.384,14.384,0,0,0-1.1,1.884c-.066.171.208.246.275.076.341-.919,1.127-1.6,1.364-2.566a2.977,2.977,0,0,0-.161-2.386c-.114-.133-.312.066-.2.2Z" transform="translate(-353.192 -813.038)" fill="#e8e8e8"/>
            </g>
          </g>
          <g id="Group_45196" data-name="Group 45196" transform="translate(10.424 61.899)">
            <g id="Group_45195" data-name="Group 45195">
              <path id="Path_50647" data-name="Path 50647" d="M340.475,790.18a23.957,23.957,0,0,1,2.112-7.755c.076-.161-.17-.312-.246-.142a24.4,24.4,0,0,0-2.149,7.906c-.019.18.265.171.284-.009Z" transform="translate(-340.19 -782.208)" fill="#e8e8e8"/>
            </g>
          </g>
          <g id="Group_45198" data-name="Group 45198" transform="translate(5.089 62.739)">
            <g id="Group_45197" data-name="Group 45197">
              <path id="Path_50648" data-name="Path 50648" d="M283.876,791.332a19.817,19.817,0,0,1,3.579,7.035.142.142,0,0,0,.275-.076,20.22,20.22,0,0,0-3.655-7.158c-.114-.142-.312.057-.2.2Z" transform="translate(-283.842 -791.084)" fill="#e8e8e8"/>
            </g>
          </g>
          <g id="Group_45200" data-name="Group 45200" transform="translate(5.16 66.19)">
            <g id="Group_45199" data-name="Group 45199">
              <path id="Path_50649" data-name="Path 50649" d="M284.742,827.821a3.688,3.688,0,0,1,2.206.559c.151.095.3-.151.142-.246a4.019,4.019,0,0,0-2.348-.6c-.189.009-.189.294,0,.284Z" transform="translate(-284.6 -827.53)" fill="#e8e8e8"/>
            </g>
          </g>
          <g id="Group_45202" data-name="Group 45202" transform="translate(6.732 63.525)">
            <g id="Group_45201" data-name="Group 45201">
              <path id="Path_50650" data-name="Path 50650" d="M301.5,801.072a3.08,3.08,0,0,1,.208-1.515c.066-.17-.208-.246-.275-.076a3.258,3.258,0,0,0-.218,1.591c.019.18.3.18.284,0Z" transform="translate(-301.195 -799.385)" fill="#e8e8e8"/>
            </g>
          </g>
          <g id="Group_45204" data-name="Group 45204" transform="translate(10.093 63.468)">
            <g id="Group_45203" data-name="Group 45203">
              <path id="Path_50651" data-name="Path 50651" d="M336.7,798.957a10.733,10.733,0,0,1,.881,2.4c.028.18.3.1.275-.076a11.361,11.361,0,0,0-.881-2.4c-.066-.17-.341-.095-.275.076Z" transform="translate(-336.692 -798.785)" fill="#e8e8e8"/>
            </g>
          </g>
          <g id="Group_45206" data-name="Group 45206" transform="translate(11.608 62.767)">
            <g id="Group_45205" data-name="Group 45205">
              <path id="Path_50652" data-name="Path 50652" d="M352.929,793.156a5.111,5.111,0,0,1,.89-.919,3.6,3.6,0,0,0,.843-.606c.114-.142-.085-.341-.2-.2a5.023,5.023,0,0,1-.9.644,6.113,6.113,0,0,0-.833.881c-.123.142.076.341.2.2Z" transform="translate(-352.691 -791.384)" fill="#e8e8e8"/>
            </g>
          </g>
          <g id="Group_45208" data-name="Group 45208" transform="translate(11.766 69.342)">
            <g id="Group_45207" data-name="Group 45207">
              <path id="Path_50653" data-name="Path 50653" d="M354.531,861.25a4.3,4.3,0,0,1,1.392-.142c.18.01.18-.275,0-.284a4.51,4.51,0,0,0-1.468.151.143.143,0,0,0,.076.275Z" transform="translate(-354.357 -860.816)" fill="#e8e8e8"/>
            </g>
          </g>
          <g id="Group_45210" data-name="Group 45210" transform="translate(11.767 69.427)">
            <g id="Group_45209" data-name="Group 45209">
              <path id="Path_50654" data-name="Path 50654" d="M354.51,862.181a3.936,3.936,0,0,0,1.553-.18c.17-.057.095-.332-.076-.275a3.912,3.912,0,0,1-1.477.171c-.18-.01-.18.275,0,.284Z" transform="translate(-354.375 -861.719)" fill="#e8e8e8"/>
            </g>
          </g>
          <g id="Group_45212" data-name="Group 45212" transform="translate(6.455 69.558)">
            <g id="Group_45211" data-name="Group 45211">
              <path id="Path_50655" data-name="Path 50655" d="M298.41,863.384h.36a.142.142,0,0,0,0-.284h-.36a.142.142,0,0,0,0,.284Z" transform="translate(-298.275 -863.1)" fill="#e8e8e8"/>
            </g>
          </g>
          <g id="Group_45214" data-name="Group 45214" transform="translate(13.396 71.85)">
            <g id="Group_45213" data-name="Group 45213">
              <path id="Path_50656" data-name="Path 50656" d="M371.71,887.584h9.014a.142.142,0,0,0,0-.284H371.71a.142.142,0,0,0,0,.284Z" transform="translate(-371.575 -887.3)" fill="#e8e8e8"/>
            </g>
          </g>
          <g id="Group_45216" data-name="Group 45216" transform="translate(64.205 69.975)">
            <g id="Group_45215" data-name="Group 45215">
              <path id="Path_50657" data-name="Path 50657" d="M908.31,867.784h5.359a.142.142,0,0,0,0-.284H908.31a.142.142,0,0,0,0,.284Z" transform="translate(-908.175 -867.5)" fill="#e8e8e8"/>
            </g>
          </g>
          <g id="Group_45218" data-name="Group 45218" transform="translate(80.454 70.145)">
            <g id="Group_45217" data-name="Group 45217">
              <path id="Path_50658" data-name="Path 50658" d="M1079.91,869.584h29.741a.142.142,0,0,0,0-.284H1079.91a.142.142,0,0,0,0,.284Z" transform="translate(-1079.775 -869.3)" fill="#e8e8e8"/>
            </g>
          </g>
          <g id="Group_45220" data-name="Group 45220" transform="translate(66.824 39.268)">
            <g id="Group_45219" data-name="Group 45219">
              <path id="Path_50659" data-name="Path 50659" d="M938.165,543.283q-1.079,2.23-2.32,4.375c-.038.076-.009.2.085.208,4.062.615,7.7,2.632,11.2,4.668a.142.142,0,0,0,.142-.246c-3.532-2.045-7.187-4.072-11.277-4.7.028.066.057.142.085.208.833-1.43,1.6-2.888,2.32-4.375.085-.161-.152-.312-.237-.142Z" transform="translate(-935.829 -543.208)" fill="#e8e8e8"/>
            </g>
          </g>
          <g id="Group_45222" data-name="Group 45222" transform="translate(69.503 40.227)">
            <g id="Group_45221" data-name="Group 45221">
              <path id="Path_50660" data-name="Path 50660" d="M964.4,557.614c.284-.814.568-1.638.852-2.452a10.615,10.615,0,0,1,.369-1.051.687.687,0,0,1,.35-.464l.341.085c.171.047.341.085.5.132.388.095,1.013.095.947.616a6.357,6.357,0,0,1-.388,1.127c-.284.8-.559,1.61-.843,2.414-.057.17.218.246.275.076.369-1.061.739-2.13,1.108-3.191.085-.246.322-.663.133-.928-.208-.284-.833-.3-1.155-.388s-.862-.36-1.183-.208c-.275.123-.331.6-.417.833-.388,1.108-.776,2.225-1.165,3.333-.057.161.218.237.275.066Z" transform="translate(-964.119 -553.337)" fill="#e8e8e8"/>
            </g>
          </g>
          <g id="Group_45224" data-name="Group 45224" transform="translate(73.173 38.253)">
            <g id="Group_45223" data-name="Group 45223">
              <path id="Path_50661" data-name="Path 50661" d="M1003.149,539.748c.606-1.278,1.221-2.566,1.827-3.844.3-.644.606-1.278.918-1.922a8.093,8.093,0,0,1,.436-.918c.151-.237.189-.294.454-.189a2.646,2.646,0,0,1,.436.284,2.47,2.47,0,0,1,.53.388c.142.18.085.369,0,.6-.114.3-.284.6-.426.89-.313.644-.625,1.288-.956,1.932-.625,1.221-1.278,2.434-1.951,3.636a.142.142,0,0,0,.246.142q1.235-2.187,2.348-4.431c.369-.739.776-1.5,1.089-2.263.218-.559-.256-.786-.672-1.079-.331-.227-.852-.748-1.212-.322a4.729,4.729,0,0,0-.5,1.032c-.19.388-.369.777-.559,1.174q-1.136,2.386-2.263,4.772c-.066.142.18.294.256.123Z" transform="translate(-1002.882 -532.484)" fill="#e8e8e8"/>
            </g>
          </g>
          <g id="Group_45226" data-name="Group 45226" transform="translate(76.322 43.621)">
            <g id="Group_45225" data-name="Group 45225">
              <path id="Path_50662" data-name="Path 50662" d="M1036.4,593.047a26.856,26.856,0,0,1,2.746-3.608,1.04,1.04,0,0,1-.17.019c.36.246.71.483,1.07.729a1.472,1.472,0,0,1-.047-.2c-.8,1.259-1.61,2.509-2.415,3.769-.095.151.142.293.246.142.8-1.259,1.61-2.509,2.414-3.769a.151.151,0,0,0-.047-.2c-.36-.246-.71-.483-1.07-.729a.143.143,0,0,0-.17.019,27.533,27.533,0,0,0-2.793,3.664.143.143,0,1,0,.237.161Z" transform="translate(-1036.134 -589.182)" fill="#e8e8e8"/>
            </g>
          </g>
          <g id="Group_45228" data-name="Group 45228" transform="translate(86.186 34.336)">
            <g id="Group_45227" data-name="Group 45227">
              <path id="Path_50663" data-name="Path 50663" d="M1142,495.268a2.114,2.114,0,0,1-1.373-2.32c.17-1.032,1.183-1.951,2.225-1.335A1.835,1.835,0,0,1,1141.6,495c-.18-.028-.256.246-.076.275a2.212,2.212,0,0,0,2.424-1.411,2.176,2.176,0,0,0-1.193-2.623,1.87,1.87,0,0,0-2.405,1.629,2.412,2.412,0,0,0,1.572,2.67c.18.066.256-.208.085-.275Z" transform="translate(-1140.309 -491.122)" fill="#e8e8e8"/>
            </g>
          </g>
          <g id="Group_45230" data-name="Group 45230" transform="translate(88.387 35.045)">
            <g id="Group_45229" data-name="Group 45229">
              <path id="Path_50664" data-name="Path 50664" d="M1164.992,501.863c-1.884-.057-1.174-3.077.492-2.964s.984,3.522-.843,2.9c-.17-.057-.246.218-.076.275,2.112.72,3.058-3.125,1.042-3.447a1.955,1.955,0,0,0-2.026,1.685,1.526,1.526,0,0,0,1.411,1.828c.18.019.18-.265,0-.275Z" transform="translate(-1163.558 -498.607)" fill="#e8e8e8"/>
            </g>
          </g>
          <g id="Group_45232" data-name="Group 45232" transform="translate(87.945 28.573)">
            <g id="Group_45231" data-name="Group 45231">
              <path id="Path_50665" data-name="Path 50665" d="M1159.357,431.414a.566.566,0,0,1-.114-.653.44.44,0,0,1,.615-.142.379.379,0,0,1,.047.559.544.544,0,0,1-.672-.057c-.142-.114-.341.085-.2.2a.844.844,0,0,0,1.06.066.665.665,0,0,0-.029-.975.728.728,0,0,0-1,.1.828.828,0,0,0,.085,1.1.144.144,0,0,0,.208-.2Z" transform="translate(-1158.892 -430.254)" fill="#e8e8e8"/>
            </g>
          </g>
          <g id="Group_45234" data-name="Group 45234" transform="translate(60.624 20.977)">
            <g id="Group_45233" data-name="Group 45233">
              <path id="Path_50666" data-name="Path 50666" d="M870.66,365.921c-.265-1.61.672-3.551,2.49-3.532a18.091,18.091,0,0,0,2.765.256,2.513,2.513,0,0,0,1.629-.994,3.356,3.356,0,0,0,.663-1.828c.047-.966-.322-1.951-.057-2.907a1.553,1.553,0,0,1,.9-1.108,4.938,4.938,0,0,1,1.449-.085,1.814,1.814,0,0,0,1.6-.947c.492-.862.379-1.894.72-2.8a2.148,2.148,0,0,1,2.765-1.5c.161.076.312-.17.142-.246-1.648-.739-3.021.748-3.343,2.244-.208.975-.17,2.49-1.335,2.878-.814.275-1.733-.151-2.481.407a2.418,2.418,0,0,0-.786,2.017c.029,1.07.36,2.112-.114,3.134a2.369,2.369,0,0,1-2.367,1.477,8.978,8.978,0,0,0-2.841-.2c-1.619.407-2.311,2.32-2.055,3.816.019.161.294.085.256-.085Z" transform="translate(-870.353 -350.035)" fill="#e8e8e8"/>
            </g>
          </g>
          <g id="Group_45236" data-name="Group 45236" transform="translate(72.512 21.568)">
            <g id="Group_45235" data-name="Group 45235">
              <path id="Path_50667" data-name="Path 50667" d="M996.285,364.817a1.329,1.329,0,0,1,.9-1.809,5.076,5.076,0,0,0,1.657-.578,1.166,1.166,0,0,0,.455-1.136,1.106,1.106,0,0,1,.3-1.1,1.717,1.717,0,0,1,1.06-.369c1.042-.038,2.471.492,3.229-.521.35-.473.246-1.061.407-1.591a1.649,1.649,0,0,1,1.686-1.155c.18.009.18-.275,0-.284a1.979,1.979,0,0,0-1.534.606c-.492.521-.426,1.108-.578,1.761-.407,1.79-2.9.53-4.071,1.089a1.336,1.336,0,0,0-.824,1.07c-.047.578.218,1.051-.369,1.449a3.047,3.047,0,0,1-1.032.36,2.017,2.017,0,0,0-1.487.9,1.606,1.606,0,0,0-.038,1.439c.066.18.3.028.237-.133Z" transform="translate(-995.897 -356.274)" fill="#e8e8e8"/>
            </g>
          </g>
          <g id="Group_45238" data-name="Group 45238" transform="translate(89.393 13.544)">
            <g id="Group_45237" data-name="Group 45237">
              <path id="Path_50668" data-name="Path 50668" d="M1174.561,275.487a2.369,2.369,0,0,1-.1-.275c.123-.142.236-.284.36-.426.038-.009.208.1.265.1a.5.5,0,0,0,.379-.1c.35-.275.228-.71.332-1.079.17-.634.918-.2,1.26-.672s.218-1.449,1.126-1.184a.142.142,0,0,0,.076-.275.937.937,0,0,0-1.184.6c-.057.142-.076.3-.132.445-.124.331-.256.379-.616.4-.265.019-.474,0-.654.227a1.352,1.352,0,0,0-.18.691c-.029.35,0,.644-.521.606-.1-.009-.189-.1-.3-.1-.625-.01-.521.758-.369,1.127.057.17.341.095.265-.076Z" transform="translate(-1174.18 -271.532)" fill="#e8e8e8"/>
            </g>
          </g>
          <g id="Group_45240" data-name="Group 45240" transform="translate(91.055 14.385)">
            <g id="Group_45239" data-name="Group 45239">
              <path id="Path_50669" data-name="Path 50669" d="M1192.235,284.313c-.151-.2-.407-.776.038-.928a1.722,1.722,0,0,1,.539.009.566.566,0,0,0,.407-.1c.379-.3.1-.843.3-1.221.322-.615.966-.133,1.42-.454a1.474,1.474,0,0,0,.464-1.023c.028-.18-.246-.256-.275-.076-.066.426-.142.9-.672.947-.275.028-.483-.066-.739.057a1.017,1.017,0,0,0-.558.994c-.01.36.075.54-.53.568-.076,0-.151-.019-.227-.019a.711.711,0,0,0-.53.312.936.936,0,0,0,.151,1.146c.123.142.322-.066.208-.208Z" transform="translate(-1191.737 -280.414)" fill="#e8e8e8"/>
            </g>
          </g>
          <g id="Group_45242" data-name="Group 45242" transform="translate(10.803 21.528)">
            <g id="Group_45241" data-name="Group 45241">
              <path id="Path_50670" data-name="Path 50670" d="M344.439,357.747a3.784,3.784,0,0,1,3.191-1.591,2.556,2.556,0,0,1,2.225,2.566c.227,2.168-.3,4.763,1.165,6.609a2.284,2.284,0,0,0,2.367.89c1.117-.265,1.988-1.146,2.983-1.667,1.174-.615,2.793-.947,3.854.085a5.874,5.874,0,0,1,1.2,2.916,4.088,4.088,0,0,0,1.458,2.452,2.479,2.479,0,0,0,1.6.312c.634-.047,1.932-.085,1.8.909-.019.18.265.18.284,0a.97.97,0,0,0-.445-.928,2.336,2.336,0,0,0-1.638-.265,2.076,2.076,0,0,1-1.714-.473,3.768,3.768,0,0,1-.928-1.581,13.222,13.222,0,0,0-.994-2.992,2.811,2.811,0,0,0-2.566-1.3,6.914,6.914,0,0,0-3.475,1.505,4.462,4.462,0,0,1-1.657.786,2,2,0,0,1-1.865-.748,6.157,6.157,0,0,1-1.079-3.835,12.975,12.975,0,0,0-.294-3.731,2.646,2.646,0,0,0-2.433-1.809,4.123,4.123,0,0,0-3.257,1.685c-.1.142.095.341.218.2Z" transform="translate(-344.192 -355.859)" fill="#e8e8e8"/>
            </g>
          </g>
          <g id="Group_45244" data-name="Group 45244" transform="translate(6.247 37.814)">
            <g id="Group_45243" data-name="Group 45243">
              <path id="Path_50671" data-name="Path 50671" d="M296.1,528.065a70.159,70.159,0,0,1,3.958,7.632c.076.17.322.019.246-.142a71.886,71.886,0,0,0-3.958-7.632.142.142,0,0,0-.246.142Z" transform="translate(-296.075 -527.852)" fill="#e8e8e8"/>
            </g>
          </g>
          <g id="Group_45246" data-name="Group 45246" transform="translate(6.235 33.673)">
            <g id="Group_45245" data-name="Group 45245">
              <path id="Path_50672" data-name="Path 50672" d="M296.165,488.354c2.3-1.43,4.668-2.765,7.1-3.977.161-.085.019-.331-.142-.246-2.424,1.212-4.791,2.547-7.1,3.977-.161.1-.019.35.142.246Z" transform="translate(-295.952 -484.113)" fill="#e8e8e8"/>
            </g>
          </g>
          <g id="Group_45248" data-name="Group 45248" transform="translate(13.365 33.594)">
            <g id="Group_45247" data-name="Group 45247">
              <path id="Path_50673" data-name="Path 50673" d="M371.259,483.506q1.8,3.792,3.816,7.471c.085.161.331.019.246-.142-1.345-2.452-2.623-4.943-3.816-7.471-.085-.17-.322-.028-.246.142Z" transform="translate(-371.244 -483.288)" fill="#e8e8e8"/>
            </g>
          </g>
          <g id="Group_45250" data-name="Group 45250" transform="translate(10.341 41.244)">
            <g id="Group_45249" data-name="Group 45249">
              <path id="Path_50674" data-name="Path 50674" d="M339.523,568.547q3.395-2.045,6.713-4.2c.152-.095.009-.341-.142-.246q-3.324,2.159-6.713,4.2c-.151.095-.009.341.142.246Z" transform="translate(-339.316 -564.075)" fill="#e8e8e8"/>
            </g>
          </g>
          <g id="Group_45252" data-name="Group 45252" transform="translate(10.353 36.945)">
            <g id="Group_45251" data-name="Group 45251">
              <path id="Path_50675" data-name="Path 50675" d="M339.456,518.81a30.588,30.588,0,0,0,.312,5.426c.028.18.3.1.275-.076a29.737,29.737,0,0,1-.3-5.35c.009-.18-.275-.18-.284,0Z" transform="translate(-339.441 -518.675)" fill="#e8e8e8"/>
            </g>
          </g>
          <g id="Group_45254" data-name="Group 45254" transform="translate(10.329 36.753)">
            <g id="Group_45253" data-name="Group 45253">
              <path id="Path_50676" data-name="Path 50676" d="M339.233,516.875c1.316,1.032,2.632,2.045,3.967,3.049.142.114.284-.133.142-.246q-1.974-1.477-3.911-3c-.142-.114-.341.085-.2.2Z" transform="translate(-339.184 -516.642)" fill="#e8e8e8"/>
            </g>
          </g>
          <g id="Group_45256" data-name="Group 45256" transform="translate(10.728 39.773)">
            <g id="Group_45255" data-name="Group 45255">
              <path id="Path_50677" data-name="Path 50677" d="M343.644,551.328c1.089-.975,2.509-1.5,3.541-2.547.133-.133-.076-.331-.2-.2-1.032,1.041-2.443,1.572-3.541,2.547-.142.114.066.312.2.2Z" transform="translate(-343.397 -548.538)" fill="#e8e8e8"/>
            </g>
          </g>
          <g id="Group_45258" data-name="Group 45258" transform="translate(6.434 38.808)">
            <g id="Group_45257" data-name="Group 45257">
              <path id="Path_50678" data-name="Path 50678" d="M298.265,539.055c.3-.152.606-.294.909-.445.161-.076.019-.322-.142-.246-.3.152-.606.294-.909.445-.161.085-.019.322.142.246Z" transform="translate(-298.052 -538.349)" fill="#e8e8e8"/>
            </g>
          </g>
          <g id="Group_45260" data-name="Group 45260" transform="translate(7.412 40.403)">
            <g id="Group_45259" data-name="Group 45259">
              <path id="Path_50679" data-name="Path 50679" d="M308.591,555.912a5.173,5.173,0,0,1,.814-.436c.17-.066.095-.341-.076-.275a6.111,6.111,0,0,0-.89.464c-.142.1,0,.35.152.246Z" transform="translate(-308.381 -555.192)" fill="#e8e8e8"/>
            </g>
          </g>
          <g id="Group_45262" data-name="Group 45262" transform="translate(8.48 42.33)">
            <g id="Group_45261" data-name="Group 45261">
              <path id="Path_50680" data-name="Path 50680" d="M319.865,576.194c.265-.133.53-.265.8-.388.161-.085.019-.322-.142-.246-.265.133-.53.265-.8.388-.161.076-.019.322.142.246Z" transform="translate(-319.652 -575.544)" fill="#e8e8e8"/>
            </g>
          </g>
          <g id="Group_45264" data-name="Group 45264" transform="translate(8.994 43.908)">
            <g id="Group_45263" data-name="Group 45263">
              <path id="Path_50681" data-name="Path 50681" d="M325.332,593.135a5.413,5.413,0,0,1,.937-.663.142.142,0,0,0-.142-.246,5.966,5.966,0,0,0-.994.71c-.142.123.057.322.2.2Z" transform="translate(-325.084 -592.208)" fill="#e8e8e8"/>
            </g>
          </g>
          <g id="Group_45266" data-name="Group 45266" transform="translate(13.709 35.079)">
            <g id="Group_45265" data-name="Group 45265">
              <path id="Path_50682" data-name="Path 50682" d="M375.091,499.561a2.141,2.141,0,0,1,.7-.322.142.142,0,0,0-.076-.275,2.208,2.208,0,0,0-.776.35c-.142.1,0,.35.152.246Z" transform="translate(-374.881 -498.961)" fill="#e8e8e8"/>
            </g>
          </g>
          <g id="Group_45268" data-name="Group 45268" transform="translate(14.549 36.453)">
            <g id="Group_45267" data-name="Group 45267">
              <path id="Path_50683" data-name="Path 50683" d="M383.965,514.32c.3-.189.606-.379.9-.578.151-.095.009-.341-.142-.246-.3.189-.606.379-.9.578-.161.1-.019.35.142.246Z" transform="translate(-383.752 -513.475)" fill="#e8e8e8"/>
            </g>
          </g>
          <g id="Group_45270" data-name="Group 45270" transform="translate(15.511 38.552)">
            <g id="Group_45269" data-name="Group 45269">
              <path id="Path_50684" data-name="Path 50684" d="M394.125,536.336c.322-.142.653-.284.975-.426.17-.076.019-.322-.142-.246-.322.142-.653.284-.975.426-.17.076-.019.322.142.246Z" transform="translate(-393.908 -535.649)" fill="#e8e8e8"/>
            </g>
          </g>
          <g id="Group_45272" data-name="Group 45272" transform="translate(16.176 39.61)">
            <g id="Group_45271" data-name="Group 45271">
              <path id="Path_50685" data-name="Path 50685" d="M401.181,547.712a4.337,4.337,0,0,1,.852-.634c.161-.085.019-.331-.142-.246a4.516,4.516,0,0,0-.909.672.144.144,0,0,0,.2.208Z" transform="translate(-400.938 -546.813)" fill="#e8e8e8"/>
            </g>
          </g>
          <g id="Group_45274" data-name="Group 45274" transform="translate(11.328 44.256)">
            <g id="Group_45273" data-name="Group 45273">
              <path id="Path_50686" data-name="Path 50686" d="M349.759,596.091a5.645,5.645,0,0,1,.587,1.108c.066.171.341.095.275-.076a5.622,5.622,0,0,0-.615-1.184c-.1-.142-.35,0-.246.152Z" transform="translate(-349.734 -595.881)" fill="#e8e8e8"/>
            </g>
          </g>
          <g id="Group_45276" data-name="Group 45276" transform="translate(12.784 43.467)">
            <g id="Group_45275" data-name="Group 45275">
              <path id="Path_50687" data-name="Path 50687" d="M365.131,587.765c.18.322.35.635.53.956.085.161.331.019.246-.142-.18-.322-.35-.634-.53-.956-.085-.161-.331-.019-.246.142Z" transform="translate(-365.113 -587.552)" fill="#e8e8e8"/>
            </g>
          </g>
          <g id="Group_45278" data-name="Group 45278" transform="translate(14.46 42.264)">
            <g id="Group_45277" data-name="Group 45277">
              <path id="Path_50688" data-name="Path 50688" d="M382.831,575.065l.568,1.023c.085.161.331.019.246-.142l-.568-1.023c-.085-.161-.331-.019-.246.142Z" transform="translate(-382.813 -574.852)" fill="#e8e8e8"/>
            </g>
          </g>
          <g id="Group_45280" data-name="Group 45280" transform="translate(15.969 41.365)">
            <g id="Group_45279" data-name="Group 45279">
              <path id="Path_50689" data-name="Path 50689" d="M398.763,565.565c.152.36.3.72.464,1.07.076.17.312.019.246-.142-.152-.36-.3-.72-.464-1.07-.076-.161-.322-.019-.246.142Z" transform="translate(-398.749 -565.352)" fill="#e8e8e8"/>
            </g>
          </g>
          <g id="Group_45282" data-name="Group 45282" transform="translate(7.374 36.248)">
            <g id="Group_45281" data-name="Group 45281">
              <path id="Path_50690" data-name="Path 50690" d="M308,511.523c.18.293.35.587.53.871.095.161.341.01.246-.142-.18-.294-.35-.587-.53-.871-.095-.151-.341-.009-.246.142Z" transform="translate(-307.975 -511.316)" fill="#e8e8e8"/>
            </g>
          </g>
          <g id="Group_45284" data-name="Group 45284" transform="translate(9.009 35.289)">
            <g id="Group_45283" data-name="Group 45283">
              <path id="Path_50691" data-name="Path 50691" d="M325.259,501.406l.511,1.136c.076.17.322.019.246-.142l-.511-1.136c-.085-.171-.322-.028-.246.142Z" transform="translate(-325.244 -501.187)" fill="#e8e8e8"/>
            </g>
          </g>
          <g id="Group_45286" data-name="Group 45286" transform="translate(10.466 34.397)">
            <g id="Group_45285" data-name="Group 45285">
              <path id="Path_50692" data-name="Path 50692" d="M340.659,491.963a3.9,3.9,0,0,1,.587,1.108c.057.17.331.095.275-.076a3.868,3.868,0,0,0-.615-1.174c-.1-.142-.35-.009-.246.142Z" transform="translate(-340.634 -491.76)" fill="#e8e8e8"/>
            </g>
          </g>
          <g id="Group_45288" data-name="Group 45288" transform="translate(12.048 33.663)">
            <g id="Group_45287" data-name="Group 45287">
              <path id="Path_50693" data-name="Path 50693" d="M357.359,484.223c.2.3.388.6.587.9.095.152.341.009.246-.142-.2-.3-.388-.6-.587-.9-.1-.151-.35-.009-.246.142Z" transform="translate(-357.334 -484.016)" fill="#e8e8e8"/>
            </g>
          </g>
          <g id="Group_45290" data-name="Group 45290" transform="translate(25.721 12.149)">
            <g id="Group_45289" data-name="Group 45289">
              <path id="Path_50694" data-name="Path 50694" d="M502.813,259.748c-.918-.284-.966-1.259-.53-1.988a1.18,1.18,0,0,1,1.894-.312,1.339,1.339,0,0,1,.085,1.875,1.384,1.384,0,0,1-1.865.123c-.142-.114-.284.133-.142.246a1.644,1.644,0,0,0,2.31-.3,1.624,1.624,0,0,0-.426-2.329c-1.894-1.221-3.522,2.3-1.4,2.964a.142.142,0,0,0,.076-.275Z" transform="translate(-501.737 -256.804)" fill="#e8e8e8"/>
            </g>
          </g>
          <g id="Group_45292" data-name="Group 45292" transform="translate(27.299 13.465)">
            <g id="Group_45291" data-name="Group 45291">
              <path id="Path_50695" data-name="Path 50695" d="M519.432,272.577c-.71.218-.881-.634-.568-1.089a1.157,1.157,0,0,1,1.212-.464.853.853,0,0,1,.634,1,1.039,1.039,0,0,1-1.25.672c-.18-.028-.256.246-.076.275a1.309,1.309,0,0,0,1.61-.937,1.146,1.146,0,0,0-1.013-1.326,1.431,1.431,0,0,0-1.562,1.146.877.877,0,0,0,1.108.985c.161-.047.085-.322-.095-.265Z" transform="translate(-518.41 -270.702)" fill="#e8e8e8"/>
            </g>
          </g>
          <g id="Group_45294" data-name="Group 45294" transform="translate(22.206 21.433)">
            <g id="Group_45293" data-name="Group 45293">
              <path id="Path_50696" data-name="Path 50696" d="M464.688,354.923a.757.757,0,0,0,.568,1.051,5.4,5.4,0,0,0,1.108.028,3.227,3.227,0,0,1,1.155.275,2.1,2.1,0,0,1,1.335,1.894,5.568,5.568,0,0,0,.133,2.206c.682,1.477,2.557.35,3.522,1.307.8.8.473,2.273,1.553,2.888a.142.142,0,0,0,.142-.246c-.966-.549-.739-1.979-1.42-2.774a1.936,1.936,0,0,0-1.411-.568c-.644-.038-1.477.095-1.951-.454-.549-.644-.256-1.61-.284-2.367a2.272,2.272,0,0,0-.634-1.562,3.009,3.009,0,0,0-1.354-.758,3.68,3.68,0,0,0-.786-.123c-.341-.019-1.818.152-1.42-.653.076-.161-.17-.3-.256-.142Z" transform="translate(-464.613 -354.852)" fill="#e8e8e8"/>
            </g>
          </g>
          <g id="Group_45296" data-name="Group 45296" transform="translate(0 72.332)">
            <g id="Group_45295" data-name="Group 45295">
              <path id="Path_50697" data-name="Path 50697" d="M230.242,892.684h5.132a.142.142,0,0,0,0-.284h-5.132a.142.142,0,1,0,0,.284Z" transform="translate(-230.1 -892.4)" fill="#e8e8e8"/>
            </g>
          </g>
          <g id="Group_45298" data-name="Group 45298" transform="translate(2.765 78.752)">
            <g id="Group_45297" data-name="Group 45297">
              <path id="Path_50698" data-name="Path 50698" d="M259.442,960.484h9.876a.142.142,0,0,0,0-.284h-9.876a.142.142,0,0,0,0,.284Z" transform="translate(-259.3 -960.2)" fill="#e8e8e8"/>
            </g>
          </g>
          <g id="Group_45300" data-name="Group 45300" transform="translate(12.243 76.972)">
            <g id="Group_45299" data-name="Group 45299">
              <path id="Path_50699" data-name="Path 50699" d="M359.542,941.684h9.185a.142.142,0,0,0,0-.284h-9.185a.142.142,0,0,0,0,.284Z" transform="translate(-359.4 -941.4)" fill="#e8e8e8"/>
            </g>
          </g>
          <g id="Group_45302" data-name="Group 45302" transform="translate(63.144 75.752)">
            <g id="Group_45301" data-name="Group 45301">
              <path id="Path_50700" data-name="Path 50700" d="M897.137,929.529a11.748,11.748,0,0,1,4.668-.17,8.412,8.412,0,0,0,2.007.151,11.227,11.227,0,0,0,1.922-.426,6.39,6.39,0,0,1,2.2-.293,15.675,15.675,0,0,1,2.282.445,8.276,8.276,0,0,0,1.989.246,17.216,17.216,0,0,0,2.1-.246,16.8,16.8,0,0,1,5.549.2c.18.028.256-.246.076-.275a17.735,17.735,0,0,0-4.583-.35,15.281,15.281,0,0,1-4.734.227,10.393,10.393,0,0,0-4.062-.435c-.748.142-1.458.407-2.206.549a7,7,0,0,1-2.471-.066,12.158,12.158,0,0,0-4.82.171c-.161.047-.085.322.085.275Z" transform="translate(-896.963 -928.517)" fill="#e8e8e8"/>
            </g>
          </g>
          <g id="Group_45304" data-name="Group 45304" transform="translate(77.726 73.079)">
            <g id="Group_45303" data-name="Group 45303">
              <path id="Path_50701" data-name="Path 50701" d="M1051.1,901.089q4.46-.242,8.92-.473a22.983,22.983,0,0,1,4.346.151,7.756,7.756,0,0,0,1.932.028,3.68,3.68,0,0,1,2.169.151c.161.085.3-.161.142-.246-1.155-.587-2.49-.038-3.731-.152-.739-.066-1.458-.208-2.2-.246-.767-.038-1.534-.019-2.3.019-3.1.142-6.193.331-9.289.492a.138.138,0,0,0,.009.275Z" transform="translate(-1050.962 -900.282)" fill="#e8e8e8"/>
            </g>
          </g>
          <g id="Group_45306" data-name="Group 45306" transform="translate(19.5 81.188)">
            <g id="Group_45305" data-name="Group 45305">
              <path id="Path_50702" data-name="Path 50702" d="M436.176,986.759a20.253,20.253,0,0,0,4.214.1,11.113,11.113,0,0,0,1.913-.407,4.97,4.97,0,0,1,2.415-.161c.653.114,1.3.275,1.951.331a11.681,11.681,0,0,0,2.074-.047,13.6,13.6,0,0,1,4.337-.066c.18.038.256-.237.076-.275a13.032,13.032,0,0,0-4.157.038,13.82,13.82,0,0,1-2.074.094,20.886,20.886,0,0,1-2.31-.369,4.726,4.726,0,0,0-1.894.047c-.682.17-1.326.4-2.026.5a19.5,19.5,0,0,1-4.517-.066c-.189-.029-.18.255,0,.275Z" transform="translate(-436.037 -985.929)" fill="#e8e8e8"/>
            </g>
          </g>
          <g id="Group_45308" data-name="Group 45308" transform="translate(33.593 0)">
            <g id="Group_45307" data-name="Group 45307">
              <path id="Path_50703" data-name="Path 50703" d="M585.9,134.112c-.369-.256-.871-.663-.72-1.174.161-.53.559-.275.928-.4.492-.161.464-.757.322-1.146s-.445-1.3.341-.985c.18.076.313.2.521.133a.524.524,0,0,0,.331-.407,1.779,1.779,0,0,0,0-.5,2.187,2.187,0,0,1-.028-.35c-.038-.275.133-.388.492-.341.009.18.293.18.284,0a.465.465,0,0,0-.5-.445c-.331.009-.511.331-.549.634-.028.208.142.691.047.862-.114.076-.227.161-.35.237l-.142-.085a2.551,2.551,0,0,0-.237-.1.548.548,0,0,0-.634.379c-.18.454.142.833.237,1.259.123.587-.322.521-.71.587a.738.738,0,0,0-.426.237c-.6.691.095,1.458.663,1.856.142.1.284-.142.133-.246Z" transform="translate(-584.878 -128.496)" fill="#e8e8e8"/>
            </g>
          </g>
          <g id="Group_45310" data-name="Group 45310" transform="translate(35.855 1.574)">
            <g id="Group_45309" data-name="Group 45309">
              <path id="Path_50704" data-name="Path 50704" d="M609.389,148.893c-.312-.36-.549-.852.057-1.042a1.6,1.6,0,0,0,.464-.123c.313-.218.18-.511.123-.814a.837.837,0,0,1,.01-.568c.076-.123.35-.17.492-.2a1.728,1.728,0,0,0,.578-.189.567.567,0,0,0,.18-.776c-.095-.152-.341-.009-.246.142.284.454-1.042.578-1.269.909-.265.388.294,1.07-.17,1.316-.18.095-.407.028-.578.152a.639.639,0,0,0-.246.36,1.2,1.2,0,0,0,.417,1.042c.114.133.313-.066.189-.208Z" transform="translate(-608.76 -145.116)" fill="#e8e8e8"/>
            </g>
          </g>
          <g id="Group_45312" data-name="Group 45312" transform="translate(24.783 1.364)">
            <g id="Group_45311" data-name="Group 45311">
              <path id="Path_50705" data-name="Path 50705" d="M492.351,144.642a.644.644,0,0,1-.2-.739c.047-.18.275-.672.492-.691.36-.038.54.417.634.682a2.714,2.714,0,0,1,.123.776.142.142,0,0,0,.284,0c-.009-.53-.36-2.159-1.231-1.685a1.521,1.521,0,0,0-.615,1.061.887.887,0,0,0,.369.843c.142.1.284-.142.142-.246Z" transform="translate(-491.833 -142.9)" fill="#e8e8e8"/>
            </g>
          </g>
          <g id="Group_45314" data-name="Group 45314" transform="translate(23.246 3.254)">
            <g id="Group_45313" data-name="Group 45313">
              <path id="Path_50706" data-name="Path 50706" d="M477.54,162.866c-.341.085-.682.17-1.032.256a1.642,1.642,0,0,0-.7.218c-.275.256-.2,1.042-.2,1.373a.139.139,0,0,0,.18.133c.047-.01.095-.028.151-.038.246-.133.369-.047.379.237.189.189.189.3,0,.322a.887.887,0,0,1-.35.066.146.146,0,0,0-.142.142c.019.606.066,1.2.133,1.809.019.18.3.18.284,0-.066-.606-.114-1.2-.133-1.809l-.142.142c.4-.047,1.032-.208.947-.748-.095-.578-.8-.511-1.193-.4a2.183,2.183,0,0,0,.18.133c0-.218,0-.426.019-.644.028-.341.009-.464.322-.587a11.178,11.178,0,0,1,1.373-.341c.18-.028.1-.3-.076-.265Z" transform="translate(-475.599 -162.862)" fill="#e8e8e8"/>
            </g>
          </g>
          <g id="Group_45316" data-name="Group 45316" transform="translate(26.416 3.052)">
            <g id="Group_45315" data-name="Group 45315">
              <path id="Path_50707" data-name="Path 50707" d="M509.21,161.016a7.287,7.287,0,0,1,1.2.028c.379.047.36.1.417.436.038.208.047.426.066.634.076.814.133,1.629.18,2.443.009.18.294.18.284,0a30.419,30.419,0,0,0-.275-3.343c-.047-.275-.095-.36-.379-.407a6.1,6.1,0,0,0-1.5-.066c-.18,0-.18.284,0,.275Z" transform="translate(-509.075 -160.725)" fill="#e8e8e8"/>
            </g>
          </g>
          <g id="Group_45318" data-name="Group 45318" transform="translate(23.635 6.793)">
            <g id="Group_45317" data-name="Group 45317">
              <path id="Path_50708" data-name="Path 50708" d="M479.892,201.418c.559-.095,1.117-.189,1.667-.284.634-.1,1.24-.057,1.875-.1.294-.028,1.685-.17,1.174-.748-.123-.133-.322.066-.2.2.076.085-1.212.275-1.24.275-.4.009-.8-.009-1.193.038-.72.085-1.439.237-2.159.36-.18.019-.1.294.076.265Z" transform="translate(-479.714 -200.238)" fill="#e8e8e8"/>
            </g>
          </g>
        </g>
        <g id="robot" transform="translate(301.439 111.494)">
          <path id="Path_50709" data-name="Path 50709" d="M1011.985,788.6c-.029.994-.057,1.988-.085,2.992,1.259.085,2.509.161,3.769.246V788.77Z" transform="translate(-1009.213 -788.6)" fill="#fff" stroke="#161616" stroke-miterlimit="10" stroke-width="0.3"/>
          <path id="Path_50710" data-name="Path 50710" d="M1019.462,903.308c.17,1.1.246,2.007.284,2.661.123,2.168.028,2.67-.161,3.068-.464.975-1.307,1.383-1.231,1.515.057.085.474-.01,2.329-.985-.113-2.159-.218-4.308-.331-6.467C1020.059,903.176,1019.765,903.242,1019.462,903.308Z" transform="translate(-1015.051 -892.258)" fill="#fff" stroke="#161616" stroke-miterlimit="10" stroke-width="0.3"/>
          <path id="Path_50711" data-name="Path 50711" d="M1004.2,831.8c1.61.009,3.219.028,4.829.038-.18,2.159-.35,4.308-.53,6.467-1.4-.114-2.812-.218-4.214-.331Q1004.229,834.892,1004.2,831.8Z" transform="translate(-1002.242 -827.709)" fill="#fff" stroke="#161616" stroke-miterlimit="10" stroke-width="0.3"/>
          <path id="Path_50712" data-name="Path 50712" d="M996.606,904.047a10.024,10.024,0,0,1,.739,3.03c.085,1.061.142,1.875-.369,2.415a6.851,6.851,0,0,1-1.108.814c-.54.36-.8.492-.776.53.028.057.549-.057,2.822-.862a13.3,13.3,0,0,0,.246-2.907A13.1,13.1,0,0,0,997.7,904C997.344,904.019,996.975,904.028,996.606,904.047Z" transform="translate(-993.994 -893.073)" fill="#fff" stroke="#161616" stroke-miterlimit="10" stroke-width="0.3"/>
          <g id="Group_45320" data-name="Group 45320" transform="translate(3.192 16.769)">
            <g id="Group_45319" data-name="Group 45319">
              <path id="Path_50713" data-name="Path 50713" d="M1017.47,967.309a8.755,8.755,0,0,0,.8-.767c.294-.322.729-.814,1.184-.388l.028-.227c-.672.331-1.335.663-2.007.985a.143.143,0,0,0,.076.265c.634.009,1.032-1.1,1.685-.89.17.057.246-.218.076-.275a.782.782,0,0,0-.739.161c-.275.2-.663.72-1.013.72.028.085.047.18.076.265.672-.331,1.335-.663,2.007-.985a.142.142,0,0,0,.028-.227,1,1,0,0,0-1.032-.17c-.237.1-.388.379-.559.559a10.3,10.3,0,0,1-.8.767c-.151.123.047.331.189.208Z" transform="translate(-1017.226 -965.7)" fill="#161616"/>
            </g>
          </g>
          <g id="Group_45322" data-name="Group 45322" transform="translate(4.465 16.608)">
            <g id="Group_45321" data-name="Group 45321">
              <path id="Path_50714" data-name="Path 50714" d="M1030.81,964.294a2.255,2.255,0,0,1,.824.18c.161.076.312-.171.142-.246a2.445,2.445,0,0,0-.966-.227.147.147,0,0,0,0,.294Z" transform="translate(-1030.675 -964)" fill="#161616"/>
            </g>
          </g>
          <g id="Group_45324" data-name="Group 45324" transform="translate(2.951 16.298)">
            <g id="Group_45323" data-name="Group 45323">
              <path id="Path_50715" data-name="Path 50715" d="M1014.776,960.992a1.11,1.11,0,0,1,.559.341c.123.133.322-.066.2-.2a1.435,1.435,0,0,0-.691-.407c-.161-.057-.237.218-.066.265Z" transform="translate(-1014.679 -960.719)" fill="#161616"/>
            </g>
          </g>
          <g id="Group_45326" data-name="Group 45326" transform="translate(1.313 16.513)">
            <g id="Group_45325" data-name="Group 45325">
              <path id="Path_50716" data-name="Path 50716" d="M997.581,964.2c.293-.218.6-.417.909-.606a2.29,2.29,0,0,1,.445-.246.7.7,0,0,1,.6.066v-.246c-.3.133-.644.123-.956.256s-.587.426-.9.483l.114.256c.559-.275,1.184-.322,1.742-.6.161-.085.019-.322-.142-.246-.559.275-1.184.322-1.742.6-.151.076-.038.284.114.256.341-.057.616-.369.938-.492s.672-.133.985-.265a.142.142,0,0,0,0-.246c-.36-.161-.521-.256-.881-.066a10.417,10.417,0,0,0-1.345.852c-.17.1-.028.35.123.246Z" transform="translate(-997.381 -962.992)" fill="#161616"/>
            </g>
          </g>
          <g id="Group_45328" data-name="Group 45328" transform="translate(2.961 12.079)">
            <g id="Group_45327" data-name="Group 45327">
              <path id="Path_50717" data-name="Path 50717" d="M1014.957,916.511a.838.838,0,0,1,.691.038c.161.085.3-.161.142-.246a1.091,1.091,0,0,0-.909-.066c-.171.066-.095.341.076.275Z" transform="translate(-1014.785 -916.167)" fill="#161616"/>
            </g>
          </g>
          <g id="Group_45330" data-name="Group 45330" transform="translate(3.234 13.083)">
            <g id="Group_45329" data-name="Group 45329">
              <path id="Path_50718" data-name="Path 50718" d="M1017.81,927.061a.7.7,0,0,1,.54.161c.142.114.341-.085.2-.2a1.044,1.044,0,0,0-.738-.246c-.18.01-.18.294,0,.284Z" transform="translate(-1017.675 -926.775)" fill="#161616"/>
            </g>
          </g>
          <g id="Group_45332" data-name="Group 45332" transform="translate(3.34 14.263)">
            <g id="Group_45331" data-name="Group 45331">
              <path id="Path_50719" data-name="Path 50719" d="M1018.924,939.526a.475.475,0,0,1,.455.2c.095.151.341.009.246-.142a.707.707,0,0,0-.692-.341.145.145,0,0,0-.142.142.132.132,0,0,0,.133.142Z" transform="translate(-1018.791 -939.236)" fill="#161616"/>
            </g>
          </g>
          <g id="Group_45334" data-name="Group 45334" transform="translate(4.482 12.014)">
            <g id="Group_45333" data-name="Group 45333">
              <path id="Path_50720" data-name="Path 50720" d="M1031.065,915.826a.488.488,0,0,1,.549.047c.142.114.341-.085.2-.2a.789.789,0,0,0-.89-.095.142.142,0,0,0,.142.246Z" transform="translate(-1030.852 -915.484)" fill="#161616"/>
            </g>
          </g>
          <g id="Group_45336" data-name="Group 45336" transform="translate(4.636 13.835)">
            <g id="Group_45335" data-name="Group 45335">
              <path id="Path_50721" data-name="Path 50721" d="M1032.695,935.022a.407.407,0,0,1,.445.076c.133.123.341-.076.2-.2a.7.7,0,0,0-.8-.114c-.161.066-.01.312.151.237Z" transform="translate(-1032.475 -934.711)" fill="#161616"/>
            </g>
          </g>
          <g id="Group_45338" data-name="Group 45338" transform="translate(4.687 15.313)">
            <g id="Group_45337" data-name="Group 45337">
              <path id="Path_50722" data-name="Path 50722" d="M1033.223,950.667a.412.412,0,0,1,.483.019c.142.114.341-.085.2-.2a.684.684,0,0,0-.824-.057c-.152.095-.009.341.142.237Z" transform="translate(-1033.016 -950.318)" fill="#161616"/>
            </g>
          </g>
          <path id="Path_50723" data-name="Path 50723" d="M1052.168,832.1q-.284,3.267-.568,6.533" transform="translate(-1045.153 -827.981)" fill="none" stroke="#161616" stroke-miterlimit="10" stroke-width="0.3"/>
          <path id="Path_50724" data-name="Path 50724" d="M1004.8,897.9c1.581.114,3.163.218,4.744.331" transform="translate(-1002.785 -887.551)" fill="none" stroke="#161616" stroke-miterlimit="10" stroke-width="0.3"/>
          <path id="Path_50725" data-name="Path 50725" d="M1053.823,789.5c-.038,1.079-.085,2.149-.123,3.229" transform="translate(-1047.055 -789.415)" fill="none" stroke="#161616" stroke-miterlimit="10" stroke-width="0.3"/>
          <g id="Group_45340" data-name="Group 45340" transform="translate(6.618 5.092)">
            <g id="Group_45339" data-name="Group 45339">
              <path id="Path_50726" data-name="Path 50726" d="M1053.763,842.685a1.646,1.646,0,0,1,1.884,1.439c.095,1.136-1.2,1.335-2.055,1.212-.18-.028-.256.246-.076.275,1.042.152,2.509-.142,2.415-1.487a1.931,1.931,0,0,0-2.244-1.714c-.18.028-.1.3.076.275Z" transform="translate(-1053.414 -842.38)" fill="#161616"/>
            </g>
          </g>
          <g id="Group_45342" data-name="Group 45342" transform="translate(6.657 8.274)">
            <g id="Group_45341" data-name="Group 45341">
              <path id="Path_50727" data-name="Path 50727" d="M1053.922,876.254a1,1,0,0,1,.767.7.142.142,0,0,0,.275-.076,1.237,1.237,0,0,0-.956-.9c-.189-.029-.265.237-.085.274Z" transform="translate(-1053.82 -875.978)" fill="#161616"/>
            </g>
          </g>
          <g id="Group_45344" data-name="Group 45344" transform="translate(6.592 8.249)">
            <g id="Group_45343" data-name="Group 45343">
              <path id="Path_50728" data-name="Path 50728" d="M1053.159,875.923a1.639,1.639,0,0,1,.293,1.108c-.009.18.275.18.284,0a1.958,1.958,0,0,0-.341-1.25c-.095-.152-.341-.009-.236.142Z" transform="translate(-1053.134 -875.716)" fill="#161616"/>
            </g>
          </g>
          <g id="Group_45346" data-name="Group 45346" transform="translate(0 5.182)">
            <g id="Group_45345" data-name="Group 45345">
              <path id="Path_50729" data-name="Path 50729" d="M985.466,843.414c-.625-.4-1.771.748-1.913,1.307-.284,1.136,1.174,1,1.78,1.382.152.095.293-.152.142-.246-.435-.275-1.079-.17-1.458-.511-.464-.417-.038-.918.284-1.212.171-.151.748-.653,1.023-.483.151.114.3-.133.142-.237Z" transform="translate(-983.517 -843.332)" fill="#161616"/>
            </g>
          </g>
          <g id="Group_45348" data-name="Group 45348" transform="translate(0.903 7.811)">
            <g id="Group_45347" data-name="Group 45347">
              <path id="Path_50730" data-name="Path 50730" d="M993.947,871.1a1.8,1.8,0,0,0-.663.436c-.142.151-.322.388-.18.6.1.152.35.01.246-.142-.066-.095.18-.3.246-.36a1.221,1.221,0,0,1,.426-.256c.17-.066.1-.341-.076-.275Z" transform="translate(-993.053 -871.092)" fill="#161616"/>
            </g>
          </g>
          <g id="Group_45350" data-name="Group 45350" transform="translate(1.487 7.955)">
            <g id="Group_45349" data-name="Group 45349">
              <path id="Path_50731" data-name="Path 50731" d="M999.414,872.681a1.239,1.239,0,0,0-.17.928c.038.18.313.1.275-.076a.9.9,0,0,1,.142-.71c.1-.152-.142-.294-.246-.142Z" transform="translate(-999.217 -872.616)" fill="#161616"/>
            </g>
          </g>
          <g id="Group_45352" data-name="Group 45352" transform="translate(2.552 4.95)">
            <g id="Group_45351" data-name="Group 45351">
              <path id="Path_50732" data-name="Path 50732" d="M1010.5,841.01a15.249,15.249,0,0,0,.01,2.083c.019.18.3.18.284,0a13.9,13.9,0,0,1-.009-2.083c.019-.18-.265-.18-.284,0Z" transform="translate(-1010.471 -840.875)" fill="#161616"/>
            </g>
          </g>
          <g id="Group_45354" data-name="Group 45354" transform="translate(2.657 4.876)">
            <g id="Group_45353" data-name="Group 45353">
              <path id="Path_50733" data-name="Path 50733" d="M1011.71,840.382c1,.057,2,.095,3,.114l-.142-.142c-.028.71-.057,1.43-.095,2.14-.009.18.275.18.284,0,.029-.71.057-1.43.095-2.14a.146.146,0,0,0-.142-.142c-1-.019-2-.057-3-.114-.18-.01-.18.274,0,.284Z" transform="translate(-1011.575 -840.098)" fill="#161616"/>
            </g>
          </g>
          <g id="Group_45356" data-name="Group 45356" transform="translate(2.581 7.011)">
            <g id="Group_45355" data-name="Group 45355">
              <path id="Path_50734" data-name="Path 50734" d="M1010.876,862.922a6.664,6.664,0,0,0,1.3.114c.511.028,1.032.066,1.543.095.18.01.18-.275,0-.284l-1.363-.085a7.808,7.808,0,0,1-1.411-.114c-.161-.047-.237.227-.066.275Z" transform="translate(-1010.779 -862.642)" fill="#161616"/>
            </g>
          </g>
          <g id="Group_45358" data-name="Group 45358" transform="translate(2.986 8.543)">
            <g id="Group_45357" data-name="Group 45357">
              <path id="Path_50735" data-name="Path 50735" d="M1015.063,879.034c.17.369.54.047.824.18.132.057.1.142.284.151.208.009.72-.407.824-.019a.147.147,0,0,0,.237.066c.095-.028.2-.057.294-.076.114.142.322-.066.2-.2-.218-.256-.492-.114-.7.076a2.208,2.208,0,0,1,.237.066.561.561,0,0,0-.767-.4c-.161.076-.18.218-.426.123-.047-.019-.066-.095-.114-.114a4.678,4.678,0,0,0-.653.01c-.067-.18-.312-.038-.237.133Z" transform="translate(-1015.049 -878.818)" fill="#161616"/>
            </g>
          </g>
          <g id="Group_45360" data-name="Group 45360" transform="translate(3.231 0.907)">
            <g id="Group_45359" data-name="Group 45359">
              <path id="Path_50736" data-name="Path 50736" d="M1017.913,798.579a.159.159,0,0,1,.227-.095c.123.047.189.189.246.294.076.161.322.019.246-.142a.721.721,0,0,0-.521-.455.421.421,0,0,0-.464.313c-.047.189.227.265.265.085Z" transform="translate(-1017.642 -798.18)" fill="#161616"/>
            </g>
          </g>
          <g id="Group_45362" data-name="Group 45362" transform="translate(4.967 1.028)">
            <g id="Group_45361" data-name="Group 45361">
              <path id="Path_50737" data-name="Path 50737" d="M1036.255,799.871a.143.143,0,0,1,.2-.114c.114.038.161.18.18.284.028.18.3.1.275-.076a.575.575,0,0,0-.435-.5.434.434,0,0,0-.492.331c-.028.18.246.256.275.076Z" transform="translate(-1035.978 -799.46)" fill="#161616"/>
            </g>
          </g>
          <g id="Group_45364" data-name="Group 45364" transform="translate(3.626 1.69)">
            <g id="Group_45363" data-name="Group 45363">
              <path id="Path_50738" data-name="Path 50738" d="M1021.831,806.665a.906.906,0,0,0,1.505.142c.114-.142-.085-.341-.2-.2a.622.622,0,0,1-1.06-.085c-.085-.161-.332-.019-.246.142Z" transform="translate(-1021.813 -806.452)" fill="#161616"/>
            </g>
          </g>
        </g>
        <g id="lightbulb" transform="translate(284.96 40.675)">
          <g id="Group_45366" data-name="Group 45366" transform="translate(6.958 6.765)">
            <g id="Group_45365" data-name="Group 45365">
              <path id="Path_50739" data-name="Path 50739" d="M886.2,126.623a4.574,4.574,0,0,1-2.348-2.793,9.27,9.27,0,0,1-.6-3.8,8.641,8.641,0,0,1,3-6.3,5.454,5.454,0,0,1,6.363-.54c2.055,1.364,2.424,4.176,2.443,6.439a9.4,9.4,0,0,1-2.434,6.969c-.133.123.066.331.2.2a9.375,9.375,0,0,0,2.509-6.59c.066-2.358-.218-5.34-2.159-6.96a5.578,5.578,0,0,0-6.458-.208,8.585,8.585,0,0,0-3.693,6.325,9.79,9.79,0,0,0,.587,4.6,4.847,4.847,0,0,0,2.519,2.916c.161.076.227-.2.066-.265Z" transform="translate(-882.963 -112.119)" fill="#161616"/>
            </g>
          </g>
          <g id="Group_45368" data-name="Group 45368" transform="translate(9.859 21.303)">
            <g id="Group_45367" data-name="Group 45367">
              <path id="Path_50740" data-name="Path 50740" d="M913.8,265.8a1.064,1.064,0,0,0,.218,1.468,3,3,0,0,0,1.316.35,10.614,10.614,0,0,0,1.553.1,7.845,7.845,0,0,0,2.85-.436,1.167,1.167,0,0,0,.767-1.562c-.076-.161-.322-.019-.246.142.71,1.449-2.651,1.572-3.38,1.572a10.808,10.808,0,0,1-2-.18,1.259,1.259,0,0,1-.862-.388.8.8,0,0,1,.028-.918c.1-.161-.142-.3-.246-.151Z" transform="translate(-913.599 -265.652)" fill="#161616"/>
            </g>
          </g>
          <g id="Group_45370" data-name="Group 45370" transform="translate(10.361 22.767)">
            <g id="Group_45369" data-name="Group 45369">
              <path id="Path_50741" data-name="Path 50741" d="M918.9,281.33a12.08,12.08,0,0,0,.066,1.43.718.718,0,0,0,.256.54,2.05,2.05,0,0,0,.985.208,14,14,0,0,0,1.543.019c.483-.019.966-.057,1.449-.1a1.26,1.26,0,0,0,.824-.237,2.28,2.28,0,0,0,.369-1.97c-.038-.18-.312-.1-.275.076a2.416,2.416,0,0,1,.019.975c-.095.464-.227.767-.748.862a11.6,11.6,0,0,1-1.9.123,7.849,7.849,0,0,1-1.884-.1c-.549-.133-.407-1.363-.407-1.818-.01-.18-.294-.18-.294,0Z" transform="translate(-918.9 -281.114)" fill="#161616"/>
            </g>
          </g>
          <g id="Group_45372" data-name="Group 45372" transform="translate(10.391 12.514)">
            <g id="Group_45371" data-name="Group 45371">
              <path id="Path_50742" data-name="Path 50742" d="M919.283,173.106a6.123,6.123,0,0,1,2.481,3c.066.17.341.095.275-.076a6.453,6.453,0,0,0-2.6-3.172c-.161-.1-.3.142-.152.246Z" transform="translate(-919.219 -172.834)" fill="#161616"/>
            </g>
          </g>
          <g id="Group_45374" data-name="Group 45374" transform="translate(12.903 12.558)">
            <g id="Group_45373" data-name="Group 45373">
              <path id="Path_50743" data-name="Path 50743" d="M946.009,176.528a7.875,7.875,0,0,1,2.415-2.954c.142-.1,0-.36-.142-.246a8.309,8.309,0,0,0-2.519,3.058c-.076.161.171.3.246.142Z" transform="translate(-945.749 -173.299)" fill="#161616"/>
            </g>
          </g>
          <g id="Group_45376" data-name="Group 45376" transform="translate(12.936 15.313)">
            <g id="Group_45375" data-name="Group 45375">
              <path id="Path_50744" data-name="Path 50744" d="M946.091,202.542c.142,1.951.208,3.9.18,5.852a.142.142,0,0,0,.284,0c.028-1.951-.038-3.911-.18-5.852-.019-.189-.3-.189-.284,0Z" transform="translate(-946.09 -202.4)" fill="#161616"/>
            </g>
          </g>
          <g id="Group_45378" data-name="Group 45378" transform="translate(1.67 18.667)">
            <g id="Group_45377" data-name="Group 45377">
              <path id="Path_50745" data-name="Path 50745" d="M827.292,239.379c1.259-.426,2.509-.852,3.769-1.278.171-.057.095-.331-.076-.275-1.259.426-2.509.852-3.769,1.278a.142.142,0,0,0,.076.275Z" transform="translate(-827.114 -237.819)" fill="#161616"/>
            </g>
          </g>
          <g id="Group_45380" data-name="Group 45380" transform="translate(3.114 17.675)">
            <g id="Group_45379" data-name="Group 45379">
              <path id="Path_50746" data-name="Path 50746" d="M842.531,228c.436-.123.871-.256,1.307-.379a.143.143,0,0,0-.076-.275c-.435.123-.871.256-1.307.379-.17.057-.1.331.076.275Z" transform="translate(-842.357 -227.342)" fill="#161616"/>
            </g>
          </g>
          <g id="Group_45382" data-name="Group 45382" transform="translate(0 14.895)">
            <g id="Group_45381" data-name="Group 45381">
              <path id="Path_50747" data-name="Path 50747" d="M809.61,198.271c1.666-.019,3.324.028,4.981.133.18.009.18-.275,0-.284-1.657-.1-3.324-.142-4.981-.133a.142.142,0,0,0,0,.284Z" transform="translate(-809.475 -197.985)" fill="#161616"/>
            </g>
          </g>
          <g id="Group_45384" data-name="Group 45384" transform="translate(3.554 13.613)">
            <g id="Group_45383" data-name="Group 45383">
              <path id="Path_50748" data-name="Path 50748" d="M847.117,184.722a5.257,5.257,0,0,0,1.212.161.142.142,0,0,0,0-.284,5.055,5.055,0,0,1-1.136-.152.142.142,0,0,0-.076.275Z" transform="translate(-847.014 -184.442)" fill="#161616"/>
            </g>
          </g>
          <g id="Group_45386" data-name="Group 45386" transform="translate(2.994 4.84)">
            <g id="Group_45385" data-name="Group 45385">
              <path id="Path_50749" data-name="Path 50749" d="M841.145,92.029a31.073,31.073,0,0,1,4.062,4.214c.114.142.313-.057.2-.2a30.535,30.535,0,0,0-4.062-4.214c-.133-.123-.341.076-.2.2Z" transform="translate(-841.097 -91.791)" fill="#161616"/>
            </g>
          </g>
          <g id="Group_45388" data-name="Group 45388" transform="translate(7.16 7.524)">
            <g id="Group_45387" data-name="Group 45387">
              <path id="Path_50750" data-name="Path 50750" d="M885.13,120.381c.256.265.5.53.757.8.123.133.322-.066.2-.2-.256-.265-.5-.53-.758-.8-.123-.133-.322.066-.2.2Z" transform="translate(-885.091 -120.138)" fill="#161616"/>
            </g>
          </g>
          <g id="Group_45390" data-name="Group 45390" transform="translate(1.361 8.03)">
            <g id="Group_45389" data-name="Group 45389">
              <path id="Path_50751" data-name="Path 50751" d="M823.923,125.743q.7.412,1.42.767c.161.085.3-.161.142-.246q-.724-.369-1.42-.767a.142.142,0,0,0-.142.246Z" transform="translate(-823.852 -125.475)" fill="#161616"/>
            </g>
          </g>
          <g id="Group_45392" data-name="Group 45392" transform="translate(17.665 1.691)">
            <g id="Group_45391" data-name="Group 45391">
              <path id="Path_50752" data-name="Path 50752" d="M996.281,62.985l4.2-4.2c.133-.133-.076-.331-.2-.2l-4.2,4.2a.141.141,0,1,0,.2.2Z" transform="translate(-996.038 -58.538)" fill="#161616"/>
            </g>
          </g>
          <g id="Group_45394" data-name="Group 45394" transform="translate(19.112 5.734)">
            <g id="Group_45393" data-name="Group 45393">
              <path id="Path_50753" data-name="Path 50753" d="M1011.523,102.291c.36-.265.719-.521,1.079-.786.142-.1.01-.35-.142-.246-.36.265-.72.521-1.079.786-.151.1-.01.35.142.246Z" transform="translate(-1011.316 -101.234)" fill="#161616"/>
            </g>
          </g>
          <g id="Group_45396" data-name="Group 45396" transform="translate(13.255)">
            <g id="Group_45395" data-name="Group 45395">
              <path id="Path_50754" data-name="Path 50754" d="M949.74,44.957a38.492,38.492,0,0,0,.634-4.147c.019-.18-.265-.18-.284,0a37.077,37.077,0,0,1-.625,4.072c-.038.18.237.256.275.076Z" transform="translate(-949.462 -40.675)" fill="#161616"/>
            </g>
          </g>
          <g id="Group_45398" data-name="Group 45398" transform="translate(21.358 11.998)">
            <g id="Group_45397" data-name="Group 45397">
              <path id="Path_50755" data-name="Path 50755" d="M1035.176,168.386l7.717-.71c.18-.019.18-.3,0-.284l-7.717.71c-.18.009-.189.294,0,.284Z" transform="translate(-1035.037 -167.39)" fill="#161616"/>
            </g>
          </g>
          <g id="Group_45400" data-name="Group 45400" transform="translate(10.571 21.493)">
            <g id="Group_45399" data-name="Group 45399">
              <path id="Path_50756" data-name="Path 50756" d="M921.217,267.959a11.036,11.036,0,0,0,4.82-.019c.18-.038.1-.312-.076-.275a10.638,10.638,0,0,1-4.668.019c-.18-.038-.256.237-.076.275Z" transform="translate(-921.114 -267.662)" fill="#161616"/>
            </g>
          </g>
          <g id="Group_45402" data-name="Group 45402" transform="translate(10.775 23.91)">
            <g id="Group_45401" data-name="Group 45401">
              <path id="Path_50757" data-name="Path 50757" d="M923.41,293.475a18.329,18.329,0,0,0,3.674.114c.18-.009.18-.294,0-.284a18.329,18.329,0,0,1-3.674-.114c-.18-.019-.18.265,0,.284Z" transform="translate(-923.275 -293.19)" fill="#161616"/>
            </g>
          </g>
          <g id="Group_45404" data-name="Group 45404" transform="translate(19.642 20.562)">
            <g id="Group_45403" data-name="Group 45403">
              <path id="Path_50758" data-name="Path 50758" d="M1016.981,258.106q2.883,2.031,5.87,3.92c.151.095.294-.151.142-.246q-2.983-1.889-5.87-3.92c-.151-.1-.294.142-.142.246Z" transform="translate(-1016.916 -257.834)" fill="#161616"/>
            </g>
          </g>
        </g>
        <g id="leg_l" transform="translate(271.992 107.849)">
          <path id="Path_50759" data-name="Path 50759" d="M710.588,964.1l-5.388,6.609c2.111,7.424,3.3,9.374,4.015,9.27.511-.076.758-1.184,1.032-2.424a16.166,16.166,0,0,0-.142-7.414c1.136-1.269,2.263-2.547,3.4-3.816C712.529,965.587,711.563,964.848,710.588,964.1Z" transform="translate(-702.106 -943.837)" fill="#161616" stroke="#161616" stroke-miterlimit="10" stroke-width="0.3"/>
          <path id="Path_50760" data-name="Path 50760" d="M674.369,759c1.127.871,2.206.559,4.441.937a17.24,17.24,0,0,1,6.316,2.452q-3.636,4.261-7.253,9c-.577.767-1.155,1.534-1.714,2.3a17.688,17.688,0,0,1,3.257,1.108,17.437,17.437,0,0,1,2.916,1.667c3.608-3.144,6.827-6.183,9.7-9.052,1.326-1.326,3.2-3.352,3.494-6.221a3.665,3.665,0,0,0,.019-.445c-.066-4.763-6.06-8.21-9.706-9.478-3.986-1.383-10.842-2.13-12.754,1.174A5.608,5.608,0,0,0,674.369,759Z" transform="translate(-672.525 -750.099)" fill="#fff"/>
          <path id="Path_50761" data-name="Path 50761" d="M715.565,793.8a16.23,16.23,0,0,1-1.363,5.378c-.313.123-.615.246-.928.369,2.036.8,4.081,1.61,6.117,2.414q-2.272,2.6-4.573,5.445-2.372,2.926-4.517,5.748c1.013.331,2.017.663,3.03.985q5.44-5.994,10.88-12a4.86,4.86,0,0,0,.246-2.538C723.935,796.688,720.365,794.311,715.565,793.8Z" transform="translate(-706.723 -789.662)" fill="#6d6c6c" opacity="0.26"/>
          <path id="Path_50762" data-name="Path 50762" d="M720.1,879.8c.331.5.653,1.013.985,1.515q-4.233,5.1-8.465,10.188c-.5-.133-1.013-.275-1.515-.407,1.809-2.481,3.759-5.028,5.871-7.594Q718.547,881.585,720.1,879.8Z" transform="translate(-707.448 -867.519)" fill="#6d6c6c" opacity="0.23"/>
        </g>
        <g id="leg_r" transform="translate(254.039 107.653)">
          <path id="Path_50763" data-name="Path 50763" d="M699.357,926.1c2.793.511,5.6,1.013,8.389,1.524,3.229,7.045,3.589,9.317,2.983,9.706-.436.275-1.345-.407-2.358-1.174a16.228,16.228,0,0,1-4.715-5.757c-1.685-.227-3.371-.464-5.056-.691C698.846,928.505,699.1,927.3,699.357,926.1Z" transform="translate(-678.178 -909.238)" fill="#161616" stroke="#161616" stroke-miterlimit="10" stroke-width="0.3"/>
          <path id="Path_50764" data-name="Path 50764" d="M498.346,749.2a22.923,22.923,0,0,0-10.2,6.647c-2.7,2.774-6.013,6.174-5.056,8.683.492,1.278,1.988,2.064,8.957,3.276,5.265.918,9.829,1.411,13.389,1.685.445-1.629.89-3.248,1.326-4.876q-5.369-1.733-10.728-3.456c2.2-.464,4.507-1.013,6.912-1.686q2.741-.767,5.227-1.6c1.534-3.1,1.865-6.439.265-8.333C506.2,746.887,501.2,748.354,498.346,749.2Z" transform="translate(-482.923 -748.025)" fill="#fff"/>
          <path id="Path_50765" data-name="Path 50765" d="M579.618,795a13.264,13.264,0,0,1-.644,3.466,13.811,13.811,0,0,1-.871,2.083c-.256.019-.511.047-.767.066q-3.238,1.065-6.893,2.007c-1.572.407-3.106.758-4.592,1.08q5.383,1.69,10.766,3.371-.114.582-.284,1.221c-.133.492-.284.947-.426,1.364l-14.857-3.664a3.706,3.706,0,0,1-.862-2.585c.123-1.43,1.487-2.443,3.229-3.371C568.455,797.367,576.9,795.559,579.618,795Z" transform="translate(-552.862 -790.552)" fill="#6d6c6c" opacity="0.29"/>
          <path id="Path_50766" data-name="Path 50766" d="M530.7,993.8" transform="translate(-526.176 -970.528)" fill="#6d6c6c"/>
          <path id="Path_50767" data-name="Path 50767" d="M593.2,887.008c.9-.066,1.809-.133,2.708-.208q5.3,1.761,10.6,3.532c-.151.559-.3,1.127-.455,1.686Q599.629,889.5,593.2,887.008Z" transform="translate(-582.758 -873.66)" fill="#6d6c6c" opacity="0.24"/>
        </g>
        <g id="torso" transform="translate(268.127 84.935)">
          <path id="Path_50768" data-name="Path 50768" d="M631.7,510.542a17.616,17.616,0,0,1,7.073-2.339,17.966,17.966,0,0,1,10.274,2.064c-.275,3.721-.7,6.694-1.042,8.74a55.49,55.49,0,0,0-.89,6.041,31.494,31.494,0,0,0,.265,6.638,22.543,22.543,0,0,1-14.146-.265,33.018,33.018,0,0,0,.076-7.907c-.237-2.036-.559-3.03-.947-5.492A54.005,54.005,0,0,1,631.7,510.542Z" transform="translate(-631.7 -508.109)" fill="#fff" stroke="#161616" stroke-miterlimit="10" stroke-width="0.3"/>
          <path id="Path_50769" data-name="Path 50769" d="M671.549,512.943a20.848,20.848,0,0,1,.578,2.907,23.937,23.937,0,0,1-.8,9.26c-.814,2.964-1.676,6.1-4.5,8.673a12.381,12.381,0,0,1-2.434,1.742,22.713,22.713,0,0,0,12.433-.265c-.095-.71-.218-1.78-.265-3.068a41.32,41.32,0,0,1,.739-7.992,85.778,85.778,0,0,0,1.269-9.308c.028-.417.038-.767.057-1a13.567,13.567,0,0,0-2.7-1.212,12.994,12.994,0,0,0-2.7-.578Z" transform="translate(-661.304 -511.722)" fill="#6d6c6c" opacity="0.14"/>
          <path id="Path_50770" data-name="Path 50770" d="M690.76,547.3a52.164,52.164,0,0,1-1.78,7.111c-1.61,4.924-2.736,8.238-5.776,10.662a12.985,12.985,0,0,1-5.1,2.443,18.043,18.043,0,0,0,5.274.663,18.552,18.552,0,0,0,5.89-1.108,27.451,27.451,0,0,1-.332-5,47.952,47.952,0,0,1,1-7.386C690.211,552.924,690.561,550.406,690.76,547.3Z" transform="translate(-673.706 -543.589)" fill="#6d6c6c" opacity="0.17"/>
        </g>
        <g id="hand_r" transform="translate(260.924 87.321)">
          <path id="Path_50771" data-name="Path 50771" d="M562.777,533.3a16.6,16.6,0,0,0-4.195,4.195,17.59,17.59,0,0,0-2.907,11.1,17.834,17.834,0,0,0,3.248,5.482,13.216,13.216,0,0,0,4.943,3.854,11.21,11.21,0,0,0,2.093.672c.455-.407.9-.814,1.354-1.221-1.458-1.7-2.926-3.494-4.394-5.34q-1.69-2.116-3.248-4.195a11.826,11.826,0,0,1,1.553-5.482,11.638,11.638,0,0,1,2.235-2.774Q563.118,536.448,562.777,533.3Z" transform="translate(-555.631 -533.3)" fill="#fff" stroke="#161616" stroke-miterlimit="10" stroke-width="0.3"/>
          <path id="Path_50772" data-name="Path 50772" d="M580.1,555.6a23.5,23.5,0,0,0-4.668,7.831c-1.127,3.182-.89,4.848-.72,5.643a9.057,9.057,0,0,0,1.6,3.324,19.473,19.473,0,0,0,7.073,6.022c.35-.341.7-.672,1.051-1.013q-1.69-1.9-3.409-4-2.258-2.741-4.2-5.388a12.01,12.01,0,0,1,3.75-8.295C580.406,558.355,580.254,556.982,580.1,555.6Z" transform="translate(-572.777 -553.488)" fill="#6d6c6c" opacity="0.13"/>
          <path id="Path_50773" data-name="Path 50773" d="M598.3,688.1a14.221,14.221,0,0,0,1.259,4.043,14.594,14.594,0,0,0,5.473,5.937l.758-.672Q602.04,692.749,598.3,688.1Z" transform="translate(-594.26 -673.442)" fill="#6d6c6c" opacity="0.16"/>
        </g>
        <g id="hand_l" transform="translate(280.464 87.15)">
          <path id="Path_50774" data-name="Path 50774" d="M767.694,531.5a17.7,17.7,0,0,1,4.706,4.119,15.589,15.589,0,0,1,3.267,10.9,17.371,17.371,0,0,1-3.646,5.388,14.9,14.9,0,0,1-5.549,3.788,14.551,14.551,0,0,1-2.358.663c-.5-.4-1.013-.8-1.515-1.193,1.629-1.676,3.286-3.428,4.933-5.246q1.889-2.088,3.645-4.119a10.562,10.562,0,0,0-1.742-5.388,11.953,11.953,0,0,0-2.509-2.727C767.192,535.619,767.448,533.564,767.694,531.5Z" transform="translate(-762.543 -531.5)" fill="#fff" stroke="#161616" stroke-miterlimit="10" stroke-width="0.3"/>
          <path id="Path_50775" data-name="Path 50775" d="M767.718,555.8a22.055,22.055,0,0,1,4.119,6.089,14.684,14.684,0,0,1,1.61,5.549c.066,6.221-8.74,10.5-9.251,10.747-.5-.322-.994-.634-1.5-.956q4.275-4.687,8.541-9.374a11.43,11.43,0,0,0-1.43-4.952,11.228,11.228,0,0,0-2.869-3.343C767.207,558.309,767.463,557.059,767.718,555.8Z" transform="translate(-762.634 -553.499)" fill="#6d6c6c" opacity="0.16"/>
          <path id="Path_50776" data-name="Path 50776" d="M770.7,683.4a13.289,13.289,0,0,1-.748,2.651,15.466,15.466,0,0,1-6.742,7.49c-.407-.265-.8-.53-1.212-.8Q766.346,688.073,770.7,683.4Z" transform="translate(-762 -669.017)" fill="#6d6c6c" opacity="0.12"/>
        </g>
        <g id="laptop" transform="translate(264.51 102.149)">
          <rect id="Rectangle_10912" data-name="Rectangle 10912" width="23.284" height="14.743" transform="translate(0 0.085)" fill="#fff" stroke="#161616" stroke-miterlimit="10" stroke-width="0.3"/>
          <g id="Group_45406" data-name="Group 45406" transform="translate(9.422 5.049)">
            <g id="Group_45405" data-name="Group 45405">
              <path id="Path_50777" data-name="Path 50777" d="M694.885,747.037c-1.231.152-1.827-1.345-1.505-2.339a1.887,1.887,0,0,1,2.424-1.108,1.865,1.865,0,1,1-1.543,3.39c-.161-.076-.312.17-.142.246a2.25,2.25,0,0,0,2.547-.407,2.166,2.166,0,0,0,.341-2.49,2.142,2.142,0,0,0-4,.767c-.1,1.079.672,2.377,1.875,2.235.18-.028.18-.312,0-.294Z" transform="translate(-693.001 -743.223)" fill="#161616"/>
            </g>
          </g>
          <path id="Path_50778" data-name="Path 50778" d="M666.064,690.038a7.755,7.755,0,0,1,5.369,6.931A7.9,7.9,0,0,1,664,704.677l16.57.142q-.028-7.414-.047-14.819Q673.294,690,666.064,690.038Z" transform="translate(-657.325 -689.991)" fill="#6d6c6c" opacity="0.14"/>
          <path id="Path_50779" data-name="Path 50779" d="M745.572,689.9a24.415,24.415,0,0,1-1.184,6.9c-.739,2.244-1.269,3.882-2.793,5.331a9.5,9.5,0,0,1-5.795,2.452q4.843.043,9.687.095.014-4.218.047-8.446C745.534,694.123,745.553,692.011,745.572,689.9Z" transform="translate(-722.326 -689.9)" fill="#6d6c6c" opacity="0.26"/>
        </g>
        <g id="head" transform="translate(267.676 66.338)">
          <path id="Path_50780" data-name="Path 50780" d="M704.764,447.021c-.521.634-.019,1.411-.114,3.485a12.923,12.923,0,0,1-.35,2.424,5.7,5.7,0,0,0,2.244.53,5.764,5.764,0,0,0,2.661-.587,7.665,7.665,0,0,1-.653-1.894c-.426-2.121.331-3.115-.294-3.9A2.631,2.631,0,0,0,704.764,447.021Z" transform="translate(-696.975 -433.632)" fill="#fff" stroke="#161616" stroke-miterlimit="10" stroke-width="0.3"/>
          <path id="Path_50781" data-name="Path 50781" d="M657.284,320.923a6.082,6.082,0,0,0-.237,3.513,2.065,2.065,0,0,0-1.468,1.1,2.114,2.114,0,0,0,1.629,2.481,8.874,8.874,0,0,0,4.034,4.611,7.517,7.517,0,0,0,1.184.473,9.355,9.355,0,0,0,1.364-.653,9.593,9.593,0,0,0,2.841-2.481,8.713,8.713,0,0,0,1.316-2.557,1.526,1.526,0,0,0,.937-.123,1.877,1.877,0,0,0,.653-2.557,1.915,1.915,0,0,0-1.506-.729,5.423,5.423,0,0,0-6.126-6.789A6.17,6.17,0,0,0,657.284,320.923Z" transform="translate(-652.8 -316.643)" fill="#fff" stroke="#161616" stroke-miterlimit="10" stroke-width="0.3"/>
          <g id="Group_45408" data-name="Group 45408" transform="translate(7.601 15.631)">
            <g id="Group_45407" data-name="Group 45407">
              <path id="Path_50782" data-name="Path 50782" d="M707.278,477.043a3.554,3.554,0,0,0,1.922.814,3.368,3.368,0,0,0,1.686-.748c.142-.114-.057-.312-.2-.2a2.927,2.927,0,0,1-1.638.672,3.709,3.709,0,0,1-1.638-.786c-.142-.095-.284.152-.133.246Z" transform="translate(-707.213 -476.775)" fill="#161616"/>
            </g>
          </g>
          <g id="Group_45410" data-name="Group 45410" transform="translate(7.584 15.665)">
            <g id="Group_45409" data-name="Group 45409">
              <path id="Path_50783" data-name="Path 50783" d="M707.082,477.494a2.882,2.882,0,0,0,1.913.947,2.979,2.979,0,0,0,1.913-1.061c.123-.133-.076-.331-.2-.2a2.787,2.787,0,0,1-1.648.966,2.5,2.5,0,0,1-1.78-.852c-.133-.123-.331.076-.2.2Z" transform="translate(-707.038 -477.138)" fill="#161616"/>
            </g>
          </g>
          <g id="Group_45412" data-name="Group 45412" transform="translate(7.709 15.823)">
            <g id="Group_45411" data-name="Group 45411">
              <path id="Path_50784" data-name="Path 50784" d="M708.629,479.063h0a.145.145,0,0,0-.227-.038l-.009.009a.137.137,0,0,0,0,.2c1.042.994,2.954,1.316,3.7-.208.076-.161-.161-.312-.246-.142-.663,1.363-2.339,1.032-3.248.151v.2l.009-.009-.227-.028v.009c.095.151.341.009.246-.142Z" transform="translate(-708.35 -478.808)" fill="#161616"/>
            </g>
          </g>
          <g id="Group_45414" data-name="Group 45414" transform="translate(9.064 7.176)">
            <g id="Group_45413" data-name="Group 45413">
              <path id="Path_50785" data-name="Path 50785" d="M722.723,387.63a18.952,18.952,0,0,0,.189,4.573.129.129,0,0,0,.17.095,1.471,1.471,0,0,0,.833-.672.142.142,0,0,0-.246-.142,1.139,1.139,0,0,1-.663.54c.057.028.114.066.17.095a18.337,18.337,0,0,1-.18-4.5c.028-.18-.255-.18-.275.009Z" transform="translate(-722.663 -387.487)" fill="#161616"/>
            </g>
          </g>
          <path id="Path_50786" data-name="Path 50786" d="M697.786,396.361c.019.085.161.615,0,.7s-.616-.256-.758-.7c-.114-.379-.019-.852.161-.89S697.672,395.945,697.786,396.361Z" transform="translate(-690.347 -387.536)" fill="#161616" stroke="#161616" stroke-miterlimit="10" stroke-width="0.3"/>
          <path id="Path_50787" data-name="Path 50787" d="M749.386,396.361c.019.085.161.615,0,.7s-.616-.256-.758-.7c-.114-.379-.019-.852.161-.89S749.272,395.945,749.386,396.361Z" transform="translate(-737.061 -387.536)" fill="#161616" stroke="#161616" stroke-miterlimit="10" stroke-width="0.3"/>
          <g id="Group_45416" data-name="Group 45416" transform="translate(8.707 11.958)">
            <g id="Group_45415" data-name="Group 45415">
              <path id="Path_50788" data-name="Path 50788" d="M718.967,439.175c1.155.492,2.206-.2,3.058-.947.142-.123-.066-.322-.2-.2-.739.644-1.685,1.335-2.708.9-.18-.066-.322.18-.152.246Z" transform="translate(-718.891 -437.991)" fill="#161616"/>
            </g>
          </g>
          <g id="Group_45418" data-name="Group 45418" transform="translate(11.981 10.046)">
            <g id="Group_45417" data-name="Group 45417">
              <path id="Path_50789" data-name="Path 50789" d="M753.61,418.084a.142.142,0,0,0,0-.284.142.142,0,0,0,0,.284Z" transform="translate(-753.475 -417.8)" fill="#161616"/>
            </g>
          </g>
          <g id="Group_45420" data-name="Group 45420" transform="translate(12.926 9.53)">
            <g id="Group_45419" data-name="Group 45419">
              <path id="Path_50790" data-name="Path 50790" d="M763.692,412.62l.029-.028a.141.141,0,0,0-.2-.2l-.028.028a.141.141,0,0,0,.2.2Z" transform="translate(-763.45 -412.35)" fill="#161616"/>
            </g>
          </g>
          <g id="Group_45422" data-name="Group 45422" transform="translate(12.713 10.207)">
            <g id="Group_45421" data-name="Group 45421">
              <path id="Path_50791" data-name="Path 50791" d="M761.342,419.784h.028a.142.142,0,1,0,0-.284h-.028a.146.146,0,0,0-.142.142.139.139,0,0,0,.142.142Z" transform="translate(-761.2 -419.5)" fill="#161616"/>
            </g>
          </g>
          <g id="Group_45424" data-name="Group 45424" transform="translate(6.071 6.616)">
            <g id="Group_45423" data-name="Group 45423">
              <path id="Path_50792" data-name="Path 50792" d="M691.3,382.088a.985.985,0,0,1,1.25-.019c.142.114.341-.085.2-.2a1.277,1.277,0,0,0-1.657.019c-.133.114.076.312.208.2Z" transform="translate(-691.052 -381.575)" fill="#161616"/>
            </g>
          </g>
          <g id="Group_45426" data-name="Group 45426" transform="translate(10.695 6.416)">
            <g id="Group_45425" data-name="Group 45425">
              <path id="Path_50793" data-name="Path 50793" d="M740.132,380.068a1.29,1.29,0,0,1,1.468-.17c.161.085.3-.161.142-.246a1.56,1.56,0,0,0-1.808.218c-.142.123.057.322.2.2Z" transform="translate(-739.884 -379.458)" fill="#161616"/>
            </g>
          </g>
          <g id="Group_45428" data-name="Group 45428" transform="translate(6.262 10.018)">
            <g id="Group_45427" data-name="Group 45427">
              <path id="Path_50794" data-name="Path 50794" d="M693.21,417.784a.142.142,0,0,0,0-.284.142.142,0,0,0,0,.284Z" transform="translate(-693.075 -417.5)" fill="#161616"/>
            </g>
          </g>
          <g id="Group_45430" data-name="Group 45430" transform="translate(7.266 9.885)">
            <g id="Group_45429" data-name="Group 45429">
              <path id="Path_50795" data-name="Path 50795" d="M703.81,416.384a.142.142,0,0,0,0-.284.142.142,0,0,0,0,.284Z" transform="translate(-703.675 -416.1)" fill="#161616"/>
            </g>
          </g>
          <g id="Group_45432" data-name="Group 45432" transform="translate(6.828 10.345)">
            <g id="Group_45431" data-name="Group 45431">
              <path id="Path_50796" data-name="Path 50796" d="M699.121,420.993l-.028.028a.141.141,0,0,0,.2.2l.028-.028a.141.141,0,0,0-.2-.2Z" transform="translate(-699.05 -420.95)" fill="#161616"/>
            </g>
          </g>
          <path id="Path_50797" data-name="Path 50797" d="M632.967,312.9a7,7,0,0,0-2.651,2.689,6.89,6.89,0,0,0-.8,3.674,21.537,21.537,0,0,0-2.31,6.183c-.493,2.377-.227,3.248.114,3.825a4.382,4.382,0,0,0,2.916,1.856,5.583,5.583,0,0,0,4.138-.871,6.108,6.108,0,0,0,.265-1.136,5.844,5.844,0,0,0-.038-1.856,9.773,9.773,0,0,1-3.068-4.394,1.594,1.594,0,0,1-1.515-1.288c-.057-.6.36-1.364.909-1.364a1.074,1.074,0,0,1,.758.492,4.01,4.01,0,0,0,1.136-.985,6.344,6.344,0,0,0,.909-2.007,6.364,6.364,0,0,1,1.742-2.462c.985.35,1.771.691,2.31.947,1.733.8,2.718,1.278,3.484,2.31a5.055,5.055,0,0,1,.758,1.477c.881-.672,1.24-.492,1.316-.455.559.313.54,2.026-.331,2.5a1.35,1.35,0,0,1-.947.076,8.979,8.979,0,0,1-2.273,3.9,8.245,8.245,0,0,1-1.364,1.1,5.129,5.129,0,0,0,.038,1.4,4.8,4.8,0,0,0,.379,1.25,5.32,5.32,0,0,0,6.713-.388,5.205,5.205,0,0,0,.862-5.17,5.628,5.628,0,0,0-1.846-2.557,8.5,8.5,0,0,0-1.174-6.562,7.776,7.776,0,0,0-4.517-3.181A7.916,7.916,0,0,0,632.967,312.9Z" transform="translate(-626.939 -311.699)" fill="#5e70ef"/>
          <path id="Path_50798" data-name="Path 50798" d="M731.639,365.5a6.713,6.713,0,0,1,1.449,3.229c.388,2.708-1.184,4.9-1.979,6.032a11.7,11.7,0,0,1-1.809,2c.417,1.117.824,2.225,1.24,3.342l1.278-.426a6.439,6.439,0,0,1-.568-1.316,6.741,6.741,0,0,1-.284-2.348,10.067,10.067,0,0,0,1.714-1.534,10.292,10.292,0,0,0,2.064-3.608,1.451,1.451,0,0,0,.985-.133,1.781,1.781,0,0,0,.672-1.695c-.028-.246-.085-.644-.369-.8-.331-.18-.881-.009-1.316.5a4.861,4.861,0,0,0-1.534-2.386A4.752,4.752,0,0,0,731.639,365.5Z" transform="translate(-719.608 -360.406)" fill="#6d6c6c" opacity="0.17"/>
          <path id="Path_50799" data-name="Path 50799" d="M716.824,389.9a28.385,28.385,0,0,0-.824,4.45h.994c-.066-.483-.142-1.184-.18-2.036C716.767,390.856,716.881,389.909,716.824,389.9Z" transform="translate(-707.567 -382.495)" fill="#6d6c6c" opacity="0.19"/>
          <path id="Path_50800" data-name="Path 50800" d="M753.434,417.7c-.161.095.445.909.36,2.121a2.508,2.508,0,0,1-.767,1.818,2.007,2.007,0,0,1-2.064.341,1.837,1.837,0,0,1-.937-1.695,7.437,7.437,0,0,1-1.477,1.913,7.812,7.812,0,0,1-1.288.975,5.44,5.44,0,0,0,.123,1.629,5.909,5.909,0,0,0,.294.9,6.079,6.079,0,0,0,1.3.644,5.681,5.681,0,0,0,4.27-.142,4.072,4.072,0,0,0,1.648-1.392,3.976,3.976,0,0,0,.492-1.1,6.1,6.1,0,0,0-.388-4.233C754.476,418.431,753.633,417.588,753.434,417.7Z" transform="translate(-735.854 -407.655)" fill="#4f5fd1" opacity="0.54"/>
          <path id="Path_50801" data-name="Path 50801" d="M631.6,430.1a9.687,9.687,0,0,1-.1,1.553,1.956,1.956,0,0,1-3.882.057,6.75,6.75,0,0,0-.578,2.415,4.43,4.43,0,0,0,.275,2.159c.767,1.629,3.021,2.263,4.7,2.112a5.429,5.429,0,0,0,2.414-.833,6.989,6.989,0,0,0,.3-1.155,6.677,6.677,0,0,0,.028-1.932,7.921,7.921,0,0,1-1.581-1.505,7.035,7.035,0,0,1-1.383-2.433C631.737,430.411,631.652,430.089,631.6,430.1Z" transform="translate(-627.007 -418.887)" fill="#4f5fd1" opacity="0.35"/>
        </g>
      </g>
    </g>
  </g>
</svg>
