<svg xmlns="http://www.w3.org/2000/svg" width="25.855" height="21.725" viewBox="0 0 25.855 21.725">
  <path id="replay" d="M65.339,64.285c-3.52-3.571-8.536-4.163-10.447-4.257V55.484a.585.585,0,0,0-.975-.429l-9.476,8.807a.585.585,0,0,0,0,.856l9.468,8.807a.585.585,0,0,0,.975-.429v-4.68A17.162,17.162,0,0,1,68.032,75.35a.585.585,0,0,0,.491.267.568.568,0,0,0,.162-.021.585.585,0,0,0,.423-.556C69.167,70.5,67.9,66.88,65.339,64.285Zm-11.028,2.95h0a.585.585,0,0,0-.585.585v3.933L45.7,64.285l8.025-7.459V60.6a.585.585,0,0,0,.585.585c1.063,0,6.543.213,10.2,3.926A12.572,12.572,0,0,1,67.9,73.282a18.173,18.173,0,0,0-13.584-6.047Z" transform="translate(-43.755 -54.392)" stroke="#414040" stroke-width="1"/>
</svg>
