<svg xmlns="http://www.w3.org/2000/svg" width="22.1" height="22.1" viewBox="0 0 22.1 22.1">
  <g id="request" transform="translate(-3.95 -3.95)">
    <path id="Path_50068" data-name="Path 50068" d="M21.875,4H8.125A4.125,4.125,0,0,0,4,8.125v13.75A4.125,4.125,0,0,0,8.125,26h9.861a2.75,2.75,0,0,0,1.945-.805l5.264-5.264A2.75,2.75,0,0,0,26,17.986V8.125A4.125,4.125,0,0,0,21.875,4Zm-2.75,20.056V20.5A1.377,1.377,0,0,1,20.5,19.125h3.555Zm5.5-6.306H20.5a2.75,2.75,0,0,0-2.75,2.75v4.125H8.125a2.753,2.753,0,0,1-2.75-2.75V8.125a2.753,2.753,0,0,1,2.75-2.75h13.75a2.753,2.753,0,0,1,2.75,2.75Z" fill="#5e70ef" stroke="#fff" stroke-width="0.1"/>
    <path id="Path_50069" data-name="Path 50069" d="M17.375,8H8.625a.625.625,0,0,0,0,1.25h8.75a.625.625,0,0,0,0-1.25Z" transform="translate(2 1.6)" fill="#5e70ef" stroke="#fff" stroke-width="0.1"/>
    <path id="Path_50070" data-name="Path 50070" d="M17.375,11H8.625a.625.625,0,0,0,0,1.25h8.75a.625.625,0,0,0,0-1.25Z" transform="translate(2 2.8)" fill="#5e70ef" stroke="#fff" stroke-width="0.1"/>
  </g>
</svg>
