<svg xmlns="http://www.w3.org/2000/svg" width="40" height="40" viewBox="0 0 40 40">
  <g id="search" transform="translate(-30 -363)">
    <g id="Group_47066" data-name="Group 47066" transform="translate(-204 1322)">
      <rect id="Rectangle_4656" data-name="Rectangle 4656" width="40" height="40" rx="6" transform="translate(234 -959)" fill="#fff"/>
      <path id="Union_144" data-name="Union 144" d="M1426.616-1277.333a1.047,1.047,0,0,1-.743-.308l-3.858-3.859a9.377,9.377,0,0,1-5.9,2.066,9.389,9.389,0,0,1-6.682-2.768,9.389,9.389,0,0,1-2.768-6.682,9.389,9.389,0,0,1,2.768-6.682,9.389,9.389,0,0,1,6.682-2.768,9.388,9.388,0,0,1,6.682,2.768,9.389,9.389,0,0,1,2.767,6.682,9.38,9.38,0,0,1-2.065,5.9l3.858,3.859a1.047,1.047,0,0,1,.308.743,1.046,1.046,0,0,1-.308.742A1.047,1.047,0,0,1,1426.616-1277.333Zm-10.5-18.9a7.358,7.358,0,0,0-7.35,7.35,7.359,7.359,0,0,0,7.35,7.35,7.3,7.3,0,0,0,5.2-2.153,7.3,7.3,0,0,0,2.153-5.2A7.358,7.358,0,0,0,1416.116-1296.233Z" transform="translate(-1163.166 348.833)" fill="#5e70ef" stroke="#fff" stroke-linecap="round" stroke-width="0.3"/>
    </g>
  </g>
</svg>
