<svg xmlns="http://www.w3.org/2000/svg" width="40" height="40" viewBox="0 0 40 40">
  <g id="searchwhite" transform="translate(-56 -372)">
    <g id="Group_47072" data-name="Group 47072" transform="translate(456 839)">
      <rect id="Rectangle_4656" data-name="Rectangle 4656" width="40" height="40" rx="6" transform="translate(-400 -467)" fill="none"/>
      <path id="Union_144" data-name="Union 144" d="M1423.766-1280.333a.9.9,0,0,1-.637-.264l-3.307-3.308a8.038,8.038,0,0,1-5.057,1.771,8.048,8.048,0,0,1-5.728-2.372,8.047,8.047,0,0,1-2.372-5.727,8.047,8.047,0,0,1,2.372-5.728,8.048,8.048,0,0,1,5.728-2.372,8.047,8.047,0,0,1,5.728,2.372,8.047,8.047,0,0,1,2.372,5.728,8.04,8.04,0,0,1-1.77,5.056l3.307,3.307a.9.9,0,0,1,.264.637.9.9,0,0,1-.264.636A.9.9,0,0,1,1423.766-1280.333Zm-9-16.2a6.307,6.307,0,0,0-6.3,6.3,6.307,6.307,0,0,0,6.3,6.3,6.259,6.259,0,0,0,4.455-1.846,6.258,6.258,0,0,0,1.845-4.454A6.307,6.307,0,0,0,1414.766-1296.533Z" transform="translate(-1795.666 842.333)" fill="#fff"/>
    </g>
  </g>
</svg>
