<svg xmlns="http://www.w3.org/2000/svg" width="15.5" height="15.5" viewBox="0 0 15.5 15.5">
  <path id="searchgrey" d="M1420.916-1283.333a.747.747,0,0,1-.531-.22l-2.756-2.756a6.7,6.7,0,0,1-4.214,1.476,6.706,6.706,0,0,1-4.773-1.977,6.707,6.707,0,0,1-1.977-4.773,6.707,6.707,0,0,1,1.977-4.773,6.707,6.707,0,0,1,4.773-1.977,6.706,6.706,0,0,1,4.773,1.977,6.706,6.706,0,0,1,1.977,4.773,6.7,6.7,0,0,1-1.475,4.213l2.756,2.756a.748.748,0,0,1,.22.531.747.747,0,0,1-.22.53A.747.747,0,0,1,1420.916-1283.333Zm-7.5-13.5a5.256,5.256,0,0,0-5.25,5.25,5.256,5.256,0,0,0,5.25,5.25,5.216,5.216,0,0,0,3.712-1.538,5.214,5.214,0,0,0,1.538-3.712A5.256,5.256,0,0,0,1413.416-1296.833Z" transform="translate(-1406.416 1298.583)" fill="#bcc0c7" stroke="#f8f8f8" stroke-linecap="round" stroke-width="0.5"/>
</svg>
