<svg xmlns="http://www.w3.org/2000/svg" width="6.17" height="9.979" viewBox="0 0 6.17 9.979">
  <g id="sort" transform="translate(-36.16 -26.692)">
    <g id="Group_45506" data-name="Group 45506" transform="translate(36.21 26.742)">
      <g id="Group_45505" data-name="Group 45505" transform="translate(0 0)">
        <path id="Path_50844" data-name="Path 50844" d="M42.28,33.691v.647a.6.6,0,0,1-.149.363l-1.819,1.857a.207.207,0,0,1-.3,0L38.2,34.7a.594.594,0,0,1-.149-.363v-.647c0-.116.067-.143.149-.059l1.448,1.479c.083.084.149.057.149-.06V31.525a.21.21,0,0,1,.21-.212h.32a.213.213,0,0,1,.21.212V35.05c0,.119.067.144.149.06l1.448-1.479C42.214,33.547,42.28,33.574,42.28,33.691Zm-6.07-4.018v-.647a.6.6,0,0,1,.149-.363l1.819-1.857a.207.207,0,0,1,.3,0l1.819,1.857a.594.594,0,0,1,.149.363v.647c0,.116-.067.143-.149.059l-1.448-1.479c-.083-.084-.149-.057-.149.06v3.525a.21.21,0,0,1-.21.212h-.32a.213.213,0,0,1-.21-.212V28.314c0-.119-.067-.144-.149-.06l-1.448,1.479C36.277,29.817,36.21,29.79,36.21,29.673Z" transform="translate(-36.21 -26.742)" fill="#bcc0c7" stroke="#f2f5f8" stroke-width="0.1"/>
      </g>
    </g>
  </g>
</svg>
