<svg xmlns="http://www.w3.org/2000/svg" width="40" height="40" viewBox="0 0 40 40">
  <g id="task" transform="translate(482 865)">
    <rect id="Rectangle_4656" data-name="Rectangle 4656" width="40" height="40" rx="6" transform="translate(-482 -865)" fill="none"/>
    <path id="Union_142" data-name="Union 142" d="M2750.683-1364a.711.711,0,0,1-.684-.684v-14.354a.706.706,0,0,1,.684-.683h2.962v-.228a.71.71,0,0,1,.683-.684h1.445a2.478,2.478,0,0,1,2.2-1.367,2.478,2.478,0,0,1,2.2,1.367h1.446a.71.71,0,0,1,.683.684v.228h2.962a.711.711,0,0,1,.684.683v14.354a.711.711,0,0,1-.684.684Zm.683-1.367h13.215v-12.987H2762.3v.683a.71.71,0,0,1-.683.684h-7.291a.711.711,0,0,1-.683-.684v-.683h-2.279Zm3.646-12.987h5.924v-.911h-1.2a.7.7,0,0,1-.662-.52,1.124,1.124,0,0,0-1.1-.847,1.124,1.124,0,0,0-1.1.847.706.706,0,0,1-.663.52h-1.2Zm1.577,9.565-1.943-1.943a.759.759,0,0,1,0-1.072.758.758,0,0,1,1.072,0l1.407,1.407,3.871-3.871a.759.759,0,0,1,1.072,0,.758.758,0,0,1,0,1.072l-4.407,4.406a.761.761,0,0,1-.536.222A.76.76,0,0,1,2756.59-1368.789Z" transform="translate(-3220 528)" fill="#fff"/>
    <rect id="Rectangle_4656-2" data-name="Rectangle 4656" width="40" height="40" rx="6" transform="translate(-482 -865)" fill="#fff"/>
    <path id="Union_142-2" data-name="Union 142" d="M2750.857-1360a.88.88,0,0,1-.858-.836v-17.544a.875.875,0,0,1,.858-.835h3.714v-.278a.88.88,0,0,1,.857-.836h1.813A3.117,3.117,0,0,1,2760-1382a3.116,3.116,0,0,1,2.758,1.671h1.813a.879.879,0,0,1,.857.836v.278h3.714a.88.88,0,0,1,.858.835v17.544a.88.88,0,0,1-.858.836Zm.857-1.671h16.572v-15.873h-2.858v.835a.879.879,0,0,1-.857.836h-9.143a.88.88,0,0,1-.857-.836v-.835h-2.857Zm4.572-15.873h7.428v-1.114h-1.5a.88.88,0,0,1-.831-.635,1.4,1.4,0,0,0-1.383-1.036,1.4,1.4,0,0,0-1.384,1.036.88.88,0,0,1-.831.635h-1.5Zm1.978,11.691-2.436-2.375a.911.911,0,0,1,0-1.31.968.968,0,0,1,1.344,0l1.764,1.719,4.855-4.731a.968.968,0,0,1,1.344,0,.91.91,0,0,1,0,1.31l-5.526,5.386a.968.968,0,0,1-.672.271A.966.966,0,0,1,2758.264-1365.853Z" transform="translate(-3222 526)" fill="#5e70ef" stroke="#fff" stroke-width="0.4"/>
  </g>
</svg>
