<svg xmlns="http://www.w3.org/2000/svg" width="40" height="40" viewBox="0 0 40 40">
  <g id="taskwhite" transform="translate(-59 -246)">
    <rect id="Rectangle_4656" data-name="Rectangle 4656" width="40" height="40" rx="6" transform="translate(59 246)" fill="none"/>
    <path id="Union_142" data-name="Union 142" d="M2750.683-1364a.711.711,0,0,1-.684-.684v-14.354a.706.706,0,0,1,.684-.683h2.962v-.228a.71.71,0,0,1,.683-.684h1.445a2.478,2.478,0,0,1,2.2-1.367,2.478,2.478,0,0,1,2.2,1.367h1.446a.71.71,0,0,1,.683.684v.228h2.962a.711.711,0,0,1,.684.683v14.354a.711.711,0,0,1-.684.684Zm.683-1.367h13.215v-12.987H2762.3v.683a.71.71,0,0,1-.683.684h-7.291a.711.711,0,0,1-.683-.684v-.683h-2.279Zm3.646-12.987h5.924v-.911h-1.2a.7.7,0,0,1-.662-.52,1.124,1.124,0,0,0-1.1-.847,1.124,1.124,0,0,0-1.1.847.706.706,0,0,1-.663.52h-1.2Zm1.577,9.565-1.943-1.943a.759.759,0,0,1,0-1.072.758.758,0,0,1,1.072,0l1.407,1.407,3.871-3.871a.759.759,0,0,1,1.072,0,.758.758,0,0,1,0,1.072l-4.407,4.406a.761.761,0,0,1-.536.222A.76.76,0,0,1,2756.59-1368.789Z" transform="translate(-2679 1639)" fill="#fff"/>
  </g>
</svg>
