<svg xmlns="http://www.w3.org/2000/svg" width="11.091" height="11.46" viewBox="0 0 11.091 11.46">
  <g id="timeline" transform="translate(-19.85 -18.837)">
    <path id="Path_50834" data-name="Path 50834" d="M22.425,28.878H26.2a1.8,1.8,0,1,0,0-1.078H22.425a1.347,1.347,0,0,1,0-2.694h1.257a1.8,1.8,0,0,0,3.427,0h1.257a2.425,2.425,0,0,0,0-4.849H24.594a1.8,1.8,0,1,0,0,1.078h3.772a1.347,1.347,0,0,1,0,2.694H27.109a1.8,1.8,0,0,0-3.427,0H22.425a2.425,2.425,0,0,0,0,4.849ZM27.9,27.62a.718.718,0,1,1-.718.718A.718.718,0,0,1,27.9,27.62Zm-5.029-6.107a.718.718,0,1,1,.718-.718A.718.718,0,0,1,22.874,21.514Zm2.514,2.335a.718.718,0,1,1-.718.718A.718.718,0,0,1,25.388,23.849Z" fill="#bcc0c7" stroke="#f2f5f8" stroke-width="0.3"/>
  </g>
</svg>
