<svg xmlns="http://www.w3.org/2000/svg" width="12.301" height="16.603" viewBox="0 0 12.301 16.603">
  <g id="edit_grey" transform="translate(0.275 0.277)">
    <g id="Group_46074" data-name="Group 46074" transform="matrix(0.995, 0.105, -0.105, 0.995, 77.578, -962.911)">
      <path id="Path_50918" data-name="Path 50918" d="M32.16,965.593l-.023.013a.2.2,0,0,0-.084.082L25.1,977.747a.2.2,0,0,0-.03.134l.4,2.59a.2.2,0,0,0,.28.157l2.441-.952a.2.2,0,0,0,.1-.087l6.963-12.06a.2.2,0,0,0-.075-.278l-2.837-1.638a.2.2,0,0,0-.177-.019Zm.148.477,2.484,1.434-.617,1.06-2.476-1.43Zm-.819,1.418,2.484,1.434-5.83,10.108-2.492-1.439ZM25.5,977.978l2.39,1.38-2.057.8Z" transform="translate(0 0)" fill="#bcc0c7" stroke="#bcc0c7" stroke-width="0.5"/>
    </g>
  </g>
</svg>
