<svg xmlns="http://www.w3.org/2000/svg" width="214" height="37" viewBox="0 0 214 37">
  <g id="Group_63059" data-name="Group 63059" transform="translate(-45 -28)">
    <path id="Path_52504" data-name="Path 52504" d="M2.183-17.344H7.676a9.489,9.489,0,0,1,2.549.33,6.5,6.5,0,0,1,2.065.959A4.626,4.626,0,0,1,13.674-14.5a4.32,4.32,0,0,1,.505,2.109,4.169,4.169,0,0,1-.491,2.065,4.356,4.356,0,0,1-1.3,1.45,5.861,5.861,0,0,1-1.824.857,7.69,7.69,0,0,1-2.087.286q-.454,0-.952-.022T6.57-7.822q-.461-.044-.85-.1a5.808,5.808,0,0,1-.623-.11V0H2.183ZM5.1-9.009q.483.132,1.047.264a5.035,5.035,0,0,0,1.15.132A4.4,4.4,0,0,0,8.943-8.9a3.287,3.287,0,0,0,1.172-.769,3.171,3.171,0,0,0,.7-1.143,4.167,4.167,0,0,0,.234-1.406,4.045,4.045,0,0,0-.3-1.589,3.528,3.528,0,0,0-.828-1.208,3.7,3.7,0,0,0-1.238-.769,4.218,4.218,0,0,0-1.516-.271H5.1Zm11.646-8.335h2.974L26.47-4.028H26.6l6.621-13.315h2.93V0h-2.93V-14.209h-.1L26.016,0h-.6L18.223-14.106h-.205V0H16.743ZM49.336.41a9.923,9.923,0,0,1-2.578-.33,9.771,9.771,0,0,1-2.292-.93,9.649,9.649,0,0,1-1.934-1.436,8.735,8.735,0,0,1-1.479-1.86,9.361,9.361,0,0,1-.945-2.2,8.757,8.757,0,0,1-.337-2.432,8.4,8.4,0,0,1,.337-2.388,8.939,8.939,0,0,1,.945-2.139,8.738,8.738,0,0,1,1.479-1.816,9.3,9.3,0,0,1,1.934-1.4,10.141,10.141,0,0,1,2.292-.9,10.136,10.136,0,0,1,2.578-.322,9.969,9.969,0,0,1,3.765.7,9.517,9.517,0,0,1,3.025,1.919,9.011,9.011,0,0,1,2.021,2.849,8.369,8.369,0,0,1,.74,3.494,8.757,8.757,0,0,1-.337,2.432,9.361,9.361,0,0,1-.945,2.2,8.856,8.856,0,0,1-1.472,1.86A9.465,9.465,0,0,1,54.207-.85a9.771,9.771,0,0,1-2.292.93A9.923,9.923,0,0,1,49.336.41Zm0-.864a5.392,5.392,0,0,0,2.622-.623,5.633,5.633,0,0,0,1.926-1.736,8.16,8.16,0,0,0,1.187-2.637,12.983,12.983,0,0,0,.4-3.325,12.5,12.5,0,0,0-.4-3.274,7.757,7.757,0,0,0-1.187-2.563,5.559,5.559,0,0,0-1.926-1.677,5.552,5.552,0,0,0-2.622-.6,5.694,5.694,0,0,0-2.673.6,5.473,5.473,0,0,0-1.926,1.677,7.633,7.633,0,0,0-1.165,2.563,12.948,12.948,0,0,0-.388,3.274,13.448,13.448,0,0,0,.388,3.325,8.03,8.03,0,0,0,1.165,2.637,5.546,5.546,0,0,0,1.926,1.736A5.529,5.529,0,0,0,49.336-.454ZM67.251-.7a4.72,4.72,0,0,0,1.274-.176,3.635,3.635,0,0,0,1.121-.52,2.735,2.735,0,0,0,.791-.85,2.236,2.236,0,0,0,.3-1.165,2.512,2.512,0,0,0-.41-1.414A4.824,4.824,0,0,0,69.25-5.969a10.347,10.347,0,0,0-1.523-.974q-.857-.454-1.758-.916t-1.758-.967a8.9,8.9,0,0,1-1.523-1.121,5.264,5.264,0,0,1-1.077-1.377,3.65,3.65,0,0,1-.41-1.758,4.535,4.535,0,0,1,.374-1.846,4.16,4.16,0,0,1,1.1-1.479,5.17,5.17,0,0,1,1.78-.981,7.634,7.634,0,0,1,2.417-.352,6.517,6.517,0,0,1,3.889,1.033,5.712,5.712,0,0,1,2.058,2.981l-1.494.688a6.933,6.933,0,0,0-.667-1.465,4.511,4.511,0,0,0-.967-1.128,4.155,4.155,0,0,0-1.3-.725,4.992,4.992,0,0,0-1.655-.256,4.139,4.139,0,0,0-1.436.227,3.092,3.092,0,0,0-1.025.6,2.48,2.48,0,0,0-.615.842,2.355,2.355,0,0,0-.205.952,2.056,2.056,0,0,0,.417,1.252,5.085,5.085,0,0,0,1.113,1.069,13.446,13.446,0,0,0,1.575.974q.879.469,1.794.952T70.151-8.73a10.3,10.3,0,0,1,1.575,1.15,5.376,5.376,0,0,1,1.113,1.362,3.294,3.294,0,0,1,.417,1.648,4.79,4.79,0,0,1-.4,1.934,4.405,4.405,0,0,1-1.172,1.582A5.728,5.728,0,0,1,69.741.015a8.471,8.471,0,0,1-2.71.4A8.249,8.249,0,0,1,64.8.132a5.728,5.728,0,0,1-1.736-.8A5.209,5.209,0,0,1,61.78-1.941a7.234,7.234,0,0,1-.886-1.721l1.567-.645A5.133,5.133,0,0,0,64.27-1.648,4.848,4.848,0,0,0,67.251-.7Z" transform="translate(180.004 55.74)" fill="#fff"/>
    <rect id="Rectangle_12214" data-name="Rectangle 12214" width="214" height="37" transform="translate(45 28)" fill="#fff" opacity="0"/>
    <g id="Group_47413" data-name="Group 47413" transform="translate(0.004 -10.5)">
      <path id="Path_51376" data-name="Path 51376" d="M0,0V21" transform="translate(163.5 46.5)" fill="#fafafa"/>
      <path id="Path_51376_-_Outline" data-name="Path 51376 - Outline" d="M.5,21h-1V0h1Z" transform="translate(163.5 46.5)" fill="#fff"/>
      <path id="Fill-399" d="M56.393,16.793a9.31,9.31,0,0,0,2.236,3.277H54.455l-3.138-7.35H45l-3.1,7.35H39.441a10.727,10.727,0,0,0,1.6-2.794L48.362,0h.826ZM51.166,11.15,48.477,5.575,45.837,11.15Zm25.479,5.643a9.31,9.31,0,0,0,2.236,3.277H74.707l-3.138-7.35H65.252l-3.1,7.35H59.694a10.817,10.817,0,0,0,1.6-2.794L68.615,0h.825ZM71.42,11.15,68.728,5.575,66.09,11.15Zm16.357-.465s8.843,9,9.226,9.385H93.094a79.878,79.878,0,0,1-7.533-8.094c-.889-1.088-1.518-1.225-1.924-1.249V16.9a7.29,7.29,0,0,0,.543,3.157H79.947a6.867,6.867,0,0,0,.536-3.157V3.158A6.848,6.848,0,0,0,79.947,0H84.1c2.837,0,9.536-.267,9.536,5.5,0,3.044-2.324,4.684-5.05,5.1Zm-3.565-.693s3.212.2,4.115-.25c.055-.027.082-.038.082-.038l-.008.008a4.127,4.127,0,0,0,2.2-4.107c-.062-1.492-.65-4.737-6.392-4.475ZM13.822,18.069l.036-.172a5.6,5.6,0,0,1-2.576.751H3.61V10.781H11.7l.418-1.543H3.61V1.38h7.251a4.738,4.738,0,0,1,1.758.371c.184.085.382.177.631.284L13.227,0H0A6.985,6.985,0,0,1,.524,3.16V16.907A7.013,7.013,0,0,1,0,20.07H13.552l.284-2Zm20.53,2a12.475,12.475,0,0,0,.036-3.522L33.181,7.091,26.6,20.061H25.339l-6.7-13.555-1.3,10.251a14.365,14.365,0,0,0-.064,3.313H14.924a8.925,8.925,0,0,0,.78-3.158L17.833,0h1.086l7.813,15.783L34.536,0h.816l2.2,16.877a9.56,9.56,0,0,0,.822,3.193Z" transform="translate(49.998 47)" fill="#fff" fill-rule="evenodd"/>
    </g>
  </g>
</svg>
