<svg xmlns="http://www.w3.org/2000/svg" width="56.01" height="67.264" viewBox="0 0 56.01 67.264">
  <g id="preview-svgrepo-com" transform="translate(-42.832)">
    <path id="Path_63185" data-name="Path 63185" d="M96.82,26.732A2.022,2.022,0,0,0,94.8,28.754V63.22H46.877V4.044H79.008V15.967a2.022,2.022,0,0,0,2.022,2.022H96.484a2.022,2.022,0,0,0,1.379-3.5L82.91.543C82.894.529,82.877.516,82.861.5S82.814.461,82.79.442,82.739.4,82.713.384,82.66.346,82.632.328,82.582.3,82.556.282,82.5.246,82.464.23L82.391.194c-.034-.016-.068-.032-.1-.046L82.216.122C82.18.109,82.144.1,82.107.084s-.052-.014-.078-.02S81.957.046,81.92.038s-.067-.011-.1-.015-.06-.01-.091-.013C81.663,0,81.6,0,81.531,0H44.855a2.022,2.022,0,0,0-2.022,2.022v63.22a2.022,2.022,0,0,0,2.022,2.022H96.82a2.022,2.022,0,0,0,2.022-2.022V28.754A2.022,2.022,0,0,0,96.82,26.732ZM83.052,13.945V6.206l8.3,7.739Z" fill="#bcc0c7"/>
    <g id="Group_45170" data-name="Group 45170" transform="translate(55.803 20.611)">
      <path id="Path_63186" data-name="Path 63186" d="M156.521,186.807A14.964,14.964,0,1,1,167.1,161.264h0a14.96,14.96,0,0,1-10.583,25.543Zm0-25.877a10.918,10.918,0,1,0,7.723,3.194A10.889,10.889,0,0,0,156.521,160.929Z" transform="translate(-141.561 -156.887)" fill="#bcc0c7"/>
      <path id="Path_63187" data-name="Path 63187" d="M319.744,337.093a2.015,2.015,0,0,1-1.43-.592l-8.007-8.006a2.022,2.022,0,0,1,2.86-2.859l8.007,8.006a2.022,2.022,0,0,1-1.43,3.452Z" transform="translate(-287.624 -302.952)" fill="#bcc0c7"/>
    </g>
  </g>
</svg>
