<svg xmlns="http://www.w3.org/2000/svg" width="14.809" height="12.117" viewBox="0 0 14.809 12.117">
  <g id="arrow" transform="translate(0.05 0.05)">
    <path id="Path_51007" data-name="Path 51007" d="M15.17,26.951a.531.531,0,0,1,0-.131c0-.011,0-.021,0-.031a.512.512,0,0,1,.034-.115l0-.011a.512.512,0,0,1,.072-.112s0-.008.007-.012l4.834-5.523a.518.518,0,1,1,.779.682l-4.082,4.664H29.357a.518.518,0,1,1,0,1.036H16.834l4.071,4.6a.518.518,0,1,1-.775.687L15.3,27.224l0,0-.006-.009a.5.5,0,0,1-.067-.1s-.006-.008-.009-.013,0-.011,0-.016a.516.516,0,0,1-.036-.125Z" transform="translate(-15.166 -20.839)" fill="#171e48" stroke="#171e48" stroke-width="0.1"/>
  </g>
</svg>
