<svg xmlns="http://www.w3.org/2000/svg" width="15.085" height="15.085" viewBox="0 0 15.085 15.085">
  <path id="chatbox_blue" d="M18.085,5.006a1.152,1.152,0,0,0-1.13-1.169H4.13A1.152,1.152,0,0,0,3,5.006v9.469a1.152,1.152,0,0,0,1.13,1.169h6.111V18.61a.313.313,0,0,0,.174.283.29.29,0,0,0,.127.029.3.3,0,0,0,.194-.073l3.687-3.2h2.531a1.152,1.152,0,0,0,1.13-1.169ZM3.906,15.02c0,.3,13.339,0,13.049,0H14.314c-.071,0-3.844-.047-3.9,0l.429,2.92V15.332a.307.307,0,0,0-.3-.312H4.13c-.291,0,12.964-10.258,12.964-10.559H4.13c0-.3-.291,0,0,0H16.955c.291,0,0-.3,0,0Z" transform="translate(-3 -3.837)" fill="#2d62ed"/>
</svg>
