<svg xmlns="http://www.w3.org/2000/svg" width="126.862" height="140.556" viewBox="0 0 126.862 140.556">
  <g id="Group_46041" data-name="Group 46041" transform="translate(-879 -404.444)">
    <g id="Group_45889" data-name="Group 45889" transform="translate(526.117 -46.751)">
      <path id="Path_50872" data-name="Path 50872" d="M357.436,512.113l3.061,56.3A3.8,3.8,0,0,0,364.265,572l101.3.742a3.8,3.8,0,0,0,3.828-3.773l.322-43.82a3.8,3.8,0,0,0-3.8-3.829l-62.3-.056a3.8,3.8,0,0,1-2.683-1.112l-10.75-10.745a3.8,3.8,0,0,0-2.659-1.112l-26.264-.192A3.8,3.8,0,0,0,357.436,512.113Z" fill="#eca74d"/>
    </g>
    <g id="Group_45890" data-name="Group 45890" transform="translate(533.57 -46.751)" opacity="0.2">
      <path id="Path_50873" data-name="Path 50873" d="M357.436,512.113l3.061,56.3A3.8,3.8,0,0,0,364.265,572l101.3.742a3.8,3.8,0,0,0,3.828-3.773l.322-43.82a3.8,3.8,0,0,0-3.8-3.829l-62.3-.056a3.8,3.8,0,0,1-2.683-1.112l-10.75-10.745a3.8,3.8,0,0,0-2.659-1.112l-26.264-.192A3.8,3.8,0,0,0,357.436,512.113Z" fill="#f6be75"/>
    </g>
    <g id="Group_45915" data-name="Group 45915" transform="translate(-6.138)">
      <g id="Group_45901" data-name="Group 45901" transform="translate(535.117 -46.751)">
        <g id="Group_45892" data-name="Group 45892">
          <rect id="Rectangle_11008" data-name="Rectangle 11008" width="75.001" height="102.633" transform="matrix(0.91, -0.415, 0.415, 0.91, 350.529, 489.731)" fill="#fff"/>
          <g id="Group_45891" data-name="Group 45891">
            <path id="Path_50874" data-name="Path 50874" d="M461.352,551.971s-.086-.155-.229-.451c-.149-.317-.354-.751-.62-1.313-.548-1.178-1.339-2.88-2.366-5.086L449.3,525.978c-7.535-16.416-18.22-39.694-30.863-67.24l.449.168-68.212,31.16-.007,0,.185-.5,42.538,93.4-.4-.151L442.6,560.363l13.82-6.22,3.648-1.626c.829-.366,1.279-.546,1.279-.546s-.391.2-1.191.58l-3.567,1.665L442.9,560.55l-49.656,22.83-.277.127-.127-.278c-11.975-26.2-26.728-58.478-42.664-93.344l-.156-.34.341-.155.008,0,68.242-31.1.309-.141.141.309c12.555,27.686,23.165,51.081,30.648,67.581,3.7,8.2,6.624,14.687,8.637,19.147.981,2.2,1.738,3.888,2.263,5.06.244.555.433.981.569,1.295A4.6,4.6,0,0,1,461.352,551.971Z" fill="#263238"/>
          </g>
        </g>
        <g id="Group_45893" data-name="Group 45893">
          <ellipse id="Ellipse_1814" data-name="Ellipse 1814" cx="18.224" cy="0.374" rx="18.224" ry="0.374" transform="matrix(0.91, -0.415, 0.415, 0.91, 367.502, 504.257)" fill="#263238"/>
        </g>
        <g id="Group_45894" data-name="Group 45894">
          <path id="Path_50875" data-name="Path 50875" d="M422.443,489.388c.086.188-11.283,5.559-25.39,11.995s-25.617,11.5-25.7,11.316,11.281-5.559,25.393-12S422.357,489.2,422.443,489.388Z" fill="#263238"/>
        </g>
        <g id="Group_45895" data-name="Group 45895">
          <path id="Path_50876" data-name="Path 50876" d="M426.3,497.853c.086.188-11.283,5.56-25.39,11.995s-25.617,11.5-25.7,11.315,11.281-5.558,25.393-12S426.219,497.665,426.3,497.853Z" fill="#263238"/>
        </g>
        <g id="Group_45896" data-name="Group 45896">
          <path id="Path_50877" data-name="Path 50877" d="M430.167,506.316c.086.188-11.283,5.56-25.39,12s-25.618,11.5-25.7,11.315,11.281-5.558,25.393-12S430.081,506.129,430.167,506.316Z" fill="#263238"/>
        </g>
        <g id="Group_45897" data-name="Group 45897">
          <ellipse id="Ellipse_1815" data-name="Ellipse 1815" cx="28.08" cy="0.374" rx="28.08" ry="0.374" transform="matrix(0.91, -0.415, 0.415, 0.91, 382.794, 537.758)" fill="#263238"/>
        </g>
        <g id="Group_45898" data-name="Group 45898">
          <path id="Path_50878" data-name="Path 50878" d="M437.891,523.246c.086.188-11.283,5.559-25.39,11.995s-25.617,11.5-25.7,11.315,11.28-5.558,25.392-12S437.8,523.058,437.891,523.246Z" fill="#263238"/>
        </g>
        <g id="Group_45899" data-name="Group 45899">
          <path id="Path_50879" data-name="Path 50879" d="M441.752,531.71c.086.188-11.282,5.56-25.389,12s-25.618,11.5-25.7,11.315,11.281-5.559,25.393-12S441.667,531.522,441.752,531.71Z" fill="#263238"/>
        </g>
        <g id="Group_45900" data-name="Group 45900">
          <ellipse id="Ellipse_1816" data-name="Ellipse 1816" cx="15.093" cy="0.374" rx="15.093" ry="0.374" transform="matrix(0.91, -0.415, 0.415, 0.91, 394.377, 563.157)" fill="#263238"/>
        </g>
      </g>
      <g id="Group_45912" data-name="Group 45912" transform="translate(535.117 -46.751)">
        <g id="Group_45903" data-name="Group 45903">
          <rect id="Rectangle_11009" data-name="Rectangle 11009" width="77.884" height="106.578" transform="translate(369.432 470.38) rotate(-13.951)" fill="#fff"/>
          <g id="Group_45902" data-name="Group 45902">
            <path id="Path_50880" data-name="Path 50880" d="M470.7,555.055s-.058-.175-.146-.5c-.094-.352-.22-.833-.384-1.458l-1.445-5.644c-1.251-4.944-3.069-12.134-5.368-21.224-4.564-18.194-11.033-43.992-18.69-74.521l.427.257-75.57,18.808-.009,0,.283-.471c9.571,38.642,18.431,74.417,25.623,103.452l-.384-.23,54.928-13.473c6.586-1.6,11.748-2.854,15.293-3.715l4.033-.966c.917-.215,1.409-.313,1.409-.313s-.437.133-1.327.365l-3.958,1.021L450.23,560.3l-55.041,13.842-.308.077-.077-.309c-7.23-29.026-16.139-64.789-25.761-103.417l-.094-.377.377-.093.009,0,75.587-18.737.342-.085.084.342c7.541,30.655,13.913,56.559,18.406,74.827,2.213,9.077,3.963,16.255,5.168,21.192.584,2.428,1.033,4.3,1.346,5.6.143.613.254,1.085.334,1.431A3.646,3.646,0,0,1,470.7,555.055Z" fill="#263238"/>
          </g>
        </g>
        <g id="Group_45904" data-name="Group 45904">
          <ellipse id="Ellipse_1817" data-name="Ellipse 1817" cx="18.924" cy="0.389" rx="18.924" ry="0.389" transform="translate(383.998 488.433) rotate(-13.951)" fill="#263238"/>
        </g>
        <g id="Group_45905" data-name="Group 45905">
          <path id="Path_50881" data-name="Path 50881" d="M442.91,483.755c.052.208-12.577,3.524-28.2,7.406s-28.342,6.86-28.394,6.652,12.575-3.523,28.208-7.406S442.859,483.547,442.91,483.755Z" fill="#263238"/>
        </g>
        <g id="Group_45906" data-name="Group 45906">
          <path id="Path_50882" data-name="Path 50882" d="M445.239,493.132c.052.208-12.577,3.524-28.2,7.406s-28.342,6.86-28.395,6.652,12.575-3.524,28.207-7.407S445.188,492.924,445.239,493.132Z" fill="#263238"/>
        </g>
        <g id="Group_45907" data-name="Group 45907">
          <ellipse id="Ellipse_1818" data-name="Ellipse 1818" cx="29.159" cy="0.39" rx="29.159" ry="0.39" transform="translate(390.893 516.166) rotate(-13.951)" fill="#263238"/>
        </g>
        <g id="Group_45908" data-name="Group 45908">
          <path id="Path_50883" data-name="Path 50883" d="M449.9,511.885c.052.209-12.577,3.524-28.2,7.406s-28.343,6.86-28.395,6.652,12.574-3.523,28.207-7.406S449.846,511.677,449.9,511.885Z" fill="#263238"/>
        </g>
        <g id="Group_45909" data-name="Group 45909">
          <path id="Path_50884" data-name="Path 50884" d="M452.227,521.262c.052.208-12.578,3.524-28.2,7.406s-28.343,6.86-28.395,6.652,12.575-3.524,28.207-7.407S452.175,521.054,452.227,521.262Z" fill="#263238"/>
        </g>
        <g id="Group_45910" data-name="Group 45910">
          <path id="Path_50885" data-name="Path 50885" d="M454.556,530.639c.052.208-12.577,3.524-28.2,7.405s-28.343,6.861-28.395,6.652,12.574-3.523,28.207-7.406S454.5,530.43,454.556,530.639Z" fill="#263238"/>
        </g>
        <g id="Group_45911" data-name="Group 45911">
          <ellipse id="Ellipse_1819" data-name="Ellipse 1819" cx="15.673" cy="0.389" rx="15.673" ry="0.389" transform="translate(400.206 553.679) rotate(-13.951)" fill="#263238"/>
        </g>
      </g>
      <g id="Group_45914" data-name="Group 45914" transform="translate(535.117 -46.751)">
        <g id="Group_45913" data-name="Group 45913">
          <path id="Path_50886" data-name="Path 50886" d="M350.259,519.762,358.2,588.8a2.445,2.445,0,0,0,2.41,2.165l107.87.79a2.445,2.445,0,0,0,2.453-2.234l5.937-68.934a2.443,2.443,0,0,0-2.417-2.653l-121.752-.892A2.444,2.444,0,0,0,350.259,519.762Z" fill="#f6be75"/>
        </g>
      </g>
    </g>
  </g>
</svg>
