<svg xmlns="http://www.w3.org/2000/svg" width="59" height="55.722" viewBox="0 0 59 55.722">
  <path id="tutorial" d="M64,12.023a4.566,4.566,0,0,0-1.311-3.212A4.455,4.455,0,0,0,59.477,7.5H9.523A4.566,4.566,0,0,0,6.311,8.811,4.455,4.455,0,0,0,5,12.023V41.654a4.227,4.227,0,0,0,.2,1.311v15.8a4.305,4.305,0,0,0,1.311,3.147A4.739,4.739,0,0,0,9.72,63.222H59.28a4.566,4.566,0,0,0,3.212-1.311A4.455,4.455,0,0,0,63.8,58.7V42.9a4.227,4.227,0,0,0,.2-1.311Zm-57.033,0a2.589,2.589,0,0,1,.787-1.836A2.629,2.629,0,0,1,9.589,9.4H59.542a2.589,2.589,0,0,1,1.836.787,2.42,2.42,0,0,1,.721,1.836V41.654a2.589,2.589,0,0,1-.787,1.836,2.481,2.481,0,0,1-1.836.787H48.332a13.832,13.832,0,1,0-27.664,0H9.523a2.589,2.589,0,0,1-1.836-.787,2.817,2.817,0,0,1-.721-1.836Zm39.4,32.253A12.039,12.039,0,0,1,34.5,56.184a12.168,12.168,0,0,1-11.734-9.613,11.687,11.687,0,0,1-.223-2.426,11.912,11.912,0,0,1,23.823.131ZM59.28,61.256H9.72a2.817,2.817,0,0,1-1.836-.721A2.629,2.629,0,0,1,7.1,58.7V45.457a4.343,4.343,0,0,0,2.36.721H20.8a13.794,13.794,0,0,0,27.4,0H59.542a4.182,4.182,0,0,0,2.36-.721V58.7a2.589,2.589,0,0,1-.787,1.836A2.817,2.817,0,0,1,59.28,61.256ZM34.5,24.413a6.289,6.289,0,0,0,6.23-6.228,6.391,6.391,0,0,0-6.3-6.3,6.3,6.3,0,0,0-6.228,6.23A6.415,6.415,0,0,0,34.5,24.413Zm0-10.554a4.3,4.3,0,0,1,4.259,4.261A4.4,4.4,0,0,1,34.5,22.473a4.354,4.354,0,0,1-4.327-4.288A4.438,4.438,0,0,1,34.5,13.859Zm-9.768,16a.915.915,0,0,0,.918-.918c0-1.7.918-2.229,4.064-2.294a6.313,6.313,0,0,0,4.72,2.229,6.162,6.162,0,0,0,4.72-2.229c3.147,0,4.064.59,4.064,2.294a.95.95,0,0,0,.983.983.939.939,0,0,0,.983-.983c.066-4.261-4.2-4.261-6.49-4.261a1.215,1.215,0,0,0-.459.131,1.43,1.43,0,0,0-.328.262,4.3,4.3,0,0,1-6.949,0,.655.655,0,0,0-.328-.262.947.947,0,0,0-.459-.131c-2.1,0-6.556-.066-6.49,4.261A.957.957,0,0,0,24.732,29.854Zm13.9,13.5-5.113-2.95a.947.947,0,0,0-.918,0,.923.923,0,0,0-.459.787v5.9a.915.915,0,0,0,.459.787.947.947,0,0,0,.918,0l5.113-2.95a.9.9,0,0,0,0-1.573Zm-4.589,2.1V42.9l2.229,1.246Z" transform="translate(-5 -7.5)" fill="#2d62ed"/>
</svg>
