<svg xmlns="http://www.w3.org/2000/svg" width="22.11" height="20.154" viewBox="0 0 22.11 20.154">
  <path id="Path_52498" data-name="Path 52498" d="M114.355,56A10.763,10.763,0,0,0,103.6,66.755a11.013,11.013,0,0,0,3.628,8.311l.466.382a.475.475,0,0,0,.305.107.486.486,0,0,0,.328-.122,2.622,2.622,0,0,0,.275-.367,7.106,7.106,0,0,1,11.5,0,2.613,2.613,0,0,0,.275.367.487.487,0,0,0,.329.122.477.477,0,0,0,.306-.107l.466-.382a11.013,11.013,0,0,0,3.628-8.311A10.763,10.763,0,0,0,114.355,56Zm0,.978a9.77,9.77,0,0,1,9.777,9.777,10.032,10.032,0,0,1-3.376,7.623,7.967,7.967,0,0,0-12.8,0,10.032,10.032,0,0,1-3.376-7.623,9.77,9.77,0,0,1,9.777-9.777Zm5.179,4.094a.494.494,0,0,0-.336.153l-3.323,3.315a2.66,2.66,0,1,0,.7.688l3.315-3.315a.494.494,0,0,0,.115-.535A.511.511,0,0,0,119.534,61.072Zm-5.179,3.972a1.711,1.711,0,1,1-1.711,1.711A1.7,1.7,0,0,1,114.355,65.044Z" transform="translate(-103.3 -55.7)" fill="#2d62ed" stroke="#2d62ed" stroke-width="0.6"/>
</svg>
