<svg xmlns="http://www.w3.org/2000/svg" width="17.764" height="17.768" viewBox="0 0 17.764 17.768">
  <path id="help-white" d="M0,8.88a8.882,8.882,0,1,1,8.883,8.887A8.892,8.892,0,0,1,0,8.88Zm1.321,0A7.56,7.56,0,1,0,8.887,1.323,7.574,7.574,0,0,0,1.321,8.878ZM8.05,13.23a.909.909,0,1,1,.914.9A.911.911,0,0,1,8.05,13.23Zm1.4-1.981H8.469V9.6a1.111,1.111,0,0,1,.6-1.07l0,0,1-.673,0,0a1.571,1.571,0,0,0,.668-1.162,1.424,1.424,0,0,0-.386-1.132A2.073,2.073,0,0,0,8.907,5a2.288,2.288,0,0,0-.457.046A1.943,1.943,0,0,0,6.9,7.262H5.921a3.048,3.048,0,0,1,.847-2.4,2.646,2.646,0,0,1,2.049-.851,4.192,4.192,0,0,1,.842.09,2.791,2.791,0,0,1,2.188,2.6,2.4,2.4,0,0,1-1.406,2.1l-.035.022-.029.018c-.039.024-.076.047-.109.069a1.582,1.582,0,0,0-.813,1.348v.988h0Z" fill="#fff"/>
</svg>
