<svg id="Component_797_1" data-name="Component 797 – 1" xmlns="http://www.w3.org/2000/svg" width="32" height="24" viewBox="0 0 32 24">
  <g id="Ellipse_2298" data-name="Ellipse 2298" transform="translate(8)" fill="#fff" stroke="#3c60ea" stroke-width="0.5">
    <circle cx="12" cy="12" r="12" stroke="none"/>
    <circle cx="12" cy="12" r="11.75" fill="none"/>
  </g>
  <path id="Icon_ionic-ios-arrow-back" data-name="Icon ionic-ios-arrow-back" d="M14.008,14.192l6.054-6.049a1.143,1.143,0,1,0-1.619-1.615l-6.859,6.854a1.141,1.141,0,0,0-.033,1.577l6.888,6.9a1.143,1.143,0,0,0,1.619-1.615Z" transform="translate(3.75 -2.194)" fill="#2d62ed"/>
  <g id="Group_63049" data-name="Group 63049" transform="translate(-349 -42)">
    <rect id="Rectangle_12208" data-name="Rectangle 12208" width="32" height="24" rx="12" transform="translate(349 42)" fill="#2d62ed"/>
    <g id="Icon_feather-arrow-left" data-name="Icon feather-arrow-left" transform="translate(348.551 39.525)">
      <path id="Path_52498" data-name="Path 52498" d="M25.258,18H7.5" transform="translate(0 -3.525)" fill="none" stroke="#fff" stroke-linecap="round" stroke-linejoin="round" stroke-width="2"/>
      <path id="Path_52499" data-name="Path 52499" d="M14.475,21.449,7.5,14.475,14.475,7.5" fill="none" stroke="#fff" stroke-linecap="round" stroke-linejoin="round" stroke-width="2"/>
    </g>
  </g>
</svg>
