<svg xmlns="http://www.w3.org/2000/svg" width="236.109" height="226.228" viewBox="0 0 236.109 226.228">
  <g id="special_deals" data-name="special deals" transform="translate(-213.902 -38.963)">
    <g id="ground" transform="translate(232.216 242.647)">
      <g id="Group_62784" data-name="Group 62784" transform="translate(21.119)">
        <g id="Group_62783" data-name="Group 62783">
          <path id="Path_52337" data-name="Path 52337" d="M405.787,1028.8c12,0,23.154,5.042,34.906,6.689,11.422,1.585,22.721-1.029,33.959-2.8a83.81,83.81,0,0,1,17.123-1.3,47.187,47.187,0,0,1,16.815,4.3c4.878,2.181,9.653,4.713,14.818,6.174a33.29,33.29,0,0,0,15,.576c11.813-2.079,22.68-8.52,34.885-8.459a.309.309,0,0,0,0-.617c-10.682-.062-20.416,4.816-30.542,7.471-5.269,1.379-10.764,2.12-16.156,1.132-5.454-.988-10.476-3.5-15.457-5.8-4.939-2.285-9.941-4.281-15.374-5.022a63.179,63.179,0,0,0-16.835.309c-11.32,1.461-22.577,4.548-34.062,3.849-13.275-.823-25.644-7.1-39.042-7.1a.3.3,0,1,0-.041.6Z" transform="translate(-405.499 -1028.198)" fill="#161616"/>
        </g>
      </g>
      <g id="Group_62786" data-name="Group 62786" transform="translate(4.487 0.49)">
        <g id="Group_62785" data-name="Group 62785">
          <path id="Path_52338" data-name="Path 52338" d="M325.059,1033.155a36.774,36.774,0,0,1,7.553-1.976c.391-.062.226-.659-.165-.6a34.332,34.332,0,0,0-7.553,1.976c-.37.144-.206.741.165.6Z" transform="translate(-324.685 -1030.578)" fill="#161616"/>
        </g>
      </g>
      <g id="Group_62788" data-name="Group 62788" transform="translate(0 5.454)">
        <g id="Group_62787" data-name="Group 62787">
          <path id="Path_52339" data-name="Path 52339" d="M303.34,1057.661c13.789-6.071,28.669.782,42.15,4.26a61.484,61.484,0,0,0,12.081,2.017c.391.021.391-.6,0-.618-14.86-.8-28.361-9.1-43.406-8.6a29.871,29.871,0,0,0-11.114,2.428c-.37.144-.062.679.288.515Z" transform="translate(-302.884 -1054.697)" fill="#161616"/>
        </g>
      </g>
      <g id="Group_62790" data-name="Group 62790" transform="translate(63.906 12.623)">
        <g id="Group_62789" data-name="Group 62789">
          <path id="Path_52340" data-name="Path 52340" d="M613.784,1096.647a53.041,53.041,0,0,0,9.2-2.552,78.732,78.732,0,0,1,9.117-2.511,71.516,71.516,0,0,1,30.584.412c.391.082.556-.514.165-.6a72.6,72.6,0,0,0-38.61,1.626c-3.519,1.132-6.956,2.47-10.64,3.025-.371.062-.206.659.185.6Z" transform="translate(-613.391 -1089.532)" fill="#161616"/>
        </g>
      </g>
      <g id="Group_62792" data-name="Group 62792" transform="translate(137.887 10.103)">
        <g id="Group_62791" data-name="Group 62791">
          <path id="Path_52341" data-name="Path 52341" d="M973.008,1087.765c4.281,2.2,9.179,2.244,13.851,1.605a104.516,104.516,0,0,0,15.971-3.725c10.435-3.107,20.828-6.895,31.8-7.553a42.351,42.351,0,0,1,17.761,2.428c.37.144.535-.453.165-.6-20.725-7.944-41.718,4.219-61.846,8.171-5.7,1.111-12.019,1.873-17.37-.885-.37-.165-.679.37-.329.556Z" transform="translate(-972.855 -1077.287)" fill="#161616"/>
        </g>
      </g>
      <g id="Group_62794" data-name="Group 62794" transform="translate(200.895 5.423)">
        <g id="Group_62793" data-name="Group 62793">
          <path id="Path_52342" data-name="Path 52342" d="M1279.309,1055.176a30.934,30.934,0,0,1,13.583,2.717c.35.165.679-.37.309-.535a31.639,31.639,0,0,0-13.892-2.8c-.412.021-.412.638,0,.617Z" transform="translate(-1279 -1054.548)" fill="#161616"/>
        </g>
      </g>
    </g>
    <g id="background_grey" transform="translate(219.947 139.689)">
      <g id="Group_62796" data-name="Group 62796" transform="translate(62.8 69.025)">
        <g id="Group_62795" data-name="Group 62795">
          <path id="Path_52343" data-name="Path 52343" d="M553.594,903.719a16.985,16.985,0,0,1-3.663-5.886,17.2,17.2,0,0,1-.782-3.025c-.1-.617-.515-2.346.906-1.955.556.165,1.194,1.029,1.5,1.482.226.329.761.021.535-.309a16.508,16.508,0,0,1-2.367-5.063,18.127,18.127,0,0,1-.515-2.8c-.041-.453-.062-.906-.062-1.379,0-.226,0-.453.021-.679a1.012,1.012,0,0,1,.659-1.05c.206-.062.391-.1.6-.165a14.313,14.313,0,0,1-.741-2.593c-.082-.494-.144-1.008-.185-1.523,0-.062.041-1.955.371-1.605a.31.31,0,0,0,.514-.309,19.911,19.911,0,0,1-.514-10.249,5.014,5.014,0,0,1,.741-2.161c.617-.7,1.5-.329,1.955.329a5.461,5.461,0,0,1,.638,1.358,39.1,39.1,0,0,1,1.008,4.857c1.338,7.018,2.614,14.057,3.355,21.178a117.29,117.29,0,0,1,.659,12.019.309.309,0,0,0,.617,0,148.132,148.132,0,0,0-2.47-24.841c-.7-4.055-1.4-8.15-2.264-12.184-.288-1.317-.762-3.211-2.182-3.746-1.05-.391-1.811.453-2.161,1.358-1.461,3.787-1.152,8.418.041,12.225.165-.1.35-.206.515-.309-.762-.782-1.379.226-1.441.947a12.528,12.528,0,0,0,.947,5.351c.144.37.72.226.6-.165a.86.86,0,0,0-1.4-.37c-.823.679-.515,2.593-.432,3.478a17.057,17.057,0,0,0,2.964,8.335c.185-.1.35-.206.535-.309-.535-.761-1.791-2.346-2.9-1.914-1.132.432-.741,2.182-.6,3.046a17.346,17.346,0,0,0,4.569,9.015.292.292,0,1,0,.432-.391Z" transform="translate(-548.409 -863.323)" fill="#e8e8e8"/>
        </g>
      </g>
      <g id="Group_62798" data-name="Group 62798" transform="translate(71.751 69.841)">
        <g id="Group_62797" data-name="Group 62797">
          <path id="Path_52344" data-name="Path 52344" d="M592.538,891.781a30.408,30.408,0,0,1,.576-5.969c.165-.761,1.153-5.68,2.038-5.536.144.021.35-.041.37-.206a40.322,40.322,0,0,1,1.749-6.4c.741-1.976,1.564-4.528,3.272-5.886h-.432c1.091,1.194.782,3.355.8,4.857,0,1.646-.041,3.293-.144,4.96a102.092,102.092,0,0,1-1.173,10.352c-1.07,6.689-2.676,13.3-4.3,19.881a.31.31,0,0,0,.6.165c1.77-7.1,3.478-14.2,4.548-21.446a96.974,96.974,0,0,0,1.008-10.332c.082-1.852.1-3.7.041-5.557a4.758,4.758,0,0,0-.947-3.293.318.318,0,0,0-.432,0c-1.646,1.3-2.429,3.561-3.17,5.454a38.792,38.792,0,0,0-2.017,7.1c.123-.062.247-.144.37-.206-.638-.1-.967.268-1.235.823a20.664,20.664,0,0,0-1.214,3.664,29.854,29.854,0,0,0-.947,7.635c.021.329.638.329.638-.062Z" transform="translate(-591.9 -867.287)" fill="#e8e8e8"/>
        </g>
      </g>
      <g id="Group_62800" data-name="Group 62800" transform="translate(160.355 75.65)">
        <g id="Group_62799" data-name="Group 62799">
          <path id="Path_52345" data-name="Path 52345" d="M1027.061,936.773a29.6,29.6,0,0,1-2.573-5.33,27.108,27.108,0,0,1-.8-2.593c-.124-.473-.226-.947-.329-1.42-.041-.227-.1-.473-.144-.72-.206-.494,0-.823.6-.988.206-.021.412-.062.6-.082a21.607,21.607,0,0,1-1.153-4.713,18.591,18.591,0,0,1-.165-2.387c0-.391.288-2.284.062-2.532a.317.317,0,0,0,.535-.226,30.688,30.688,0,0,1,.391-5.824c.144-.885.35-1.75.576-2.614l.37-1.3c.082-.247.165-.494.247-.72.083-.535.412-.762,1.029-.659.123.309.617.288.6-.082a16.3,16.3,0,0,1,1.008-5.948c.185-.473.782-2.387,1.482-2.429.906-.041.926,2.408.967,2.9.35,4.054.617,8.13.761,12.2q.463,12.441-.268,24.862c-.021.391.6.391.617,0q.648-10.9.37-21.8c-.1-3.6-.268-7.2-.514-10.785-.124-1.77-.247-3.519-.432-5.289a3.409,3.409,0,0,0-1.256-2.758.328.328,0,0,0-.309,0c-1.338.638-1.852,2.285-2.264,3.622a17.284,17.284,0,0,0-.782,5.433c.206-.021.412-.062.6-.082a.962.962,0,0,0-1.358-.535c-.906.412-1.132,2.038-1.379,2.84a30.06,30.06,0,0,0-1.091,8.973c.185-.082.35-.144.535-.226l-.1-.1a.286.286,0,0,0-.309-.082c-.453.165-.556.453-.638.906a14.245,14.245,0,0,0-.041,3.375,22.372,22.372,0,0,0,1.317,6.133c.1.309.638.288.6-.082a.878.878,0,0,0-1.338-.659c-.967.515-.432,2.1-.268,2.881a30.375,30.375,0,0,0,3.7,9.117c.227.35.762.041.556-.288Z" transform="translate(-1022.412 -895.51)" fill="#e8e8e8"/>
        </g>
      </g>
      <g id="Group_62802" data-name="Group 62802" transform="translate(169.366 78.907)">
        <g id="Group_62801" data-name="Group 62801">
          <path id="Path_52346" data-name="Path 52346" d="M1066.793,933.909a14.749,14.749,0,0,1,.309-3.293,11.77,11.77,0,0,1,.412-1.461c.062-.165.72-2.058,1.111-1.482a.313.313,0,0,0,.576-.165,12.777,12.777,0,0,1,.432-2.655c.1-.37,1.008-2.943,1.42-2.7a.316.316,0,0,0,.473-.268,15.228,15.228,0,0,1,1.276-5.228,13.989,13.989,0,0,1,1.276-2.305,7.216,7.216,0,0,1,1.605-2c1.605-1.029,1.317,1.482,1.3,2.223-.041.926-.1,1.852-.165,2.8-.144,2-.35,3.972-.618,5.948a240.714,240.714,0,0,1-4.837,23.833.31.31,0,0,0,.6.165c1.77-7.389,3.54-14.8,4.631-22.331a105.465,105.465,0,0,0,1.029-10.8c.041-.865.165-2.264-.782-2.737-.988-.494-1.811.72-2.346,1.358a16.057,16.057,0,0,0-3.581,9.118c.165-.082.309-.185.474-.268-1.77-1.132-2.737,4.96-2.778,5.886.185-.062.391-.1.576-.165-.7-1.029-1.585-.021-1.914.741a14.748,14.748,0,0,0-1.07,5.8c-.021.37.6.37.6-.021Z" transform="translate(-1066.196 -911.34)" fill="#e8e8e8"/>
        </g>
      </g>
      <g id="Group_62804" data-name="Group 62804" transform="translate(16.786 90.967)">
        <g id="Group_62803" data-name="Group 62803">
          <path id="Path_52347" data-name="Path 52347" d="M330.24,982.3a4.551,4.551,0,0,1-2.12-1.544,4.814,4.814,0,0,1-.556-1.132c-.041-.082-.432-1.338.062-1.091a.312.312,0,0,0,.37-.494,12.015,12.015,0,0,1-2.305-4.816,4.468,4.468,0,0,1-.247-1.626,1,1,0,0,1,1.77-.473,13.772,13.772,0,0,1,1.749,2.182,20.133,20.133,0,0,1,3.437,9.344c.041.391.659.391.617,0a20.984,20.984,0,0,0-1.77-6.586,15.705,15.705,0,0,0-3.869-5.619,1.733,1.733,0,0,0-1.976-.309c-.741.453-.576,1.461-.494,2.182a12.573,12.573,0,0,0,2.655,6.195l.37-.494a.789.789,0,0,0-1.009.144c-.432.473-.165,1.132.041,1.647a5.111,5.111,0,0,0,3.087,3.128c.391.1.556-.494.185-.638Z" transform="translate(-324.834 -969.933)" fill="#e8e8e8"/>
        </g>
      </g>
      <g id="Group_62806" data-name="Group 62806" transform="translate(19.835 80.157)">
        <g id="Group_62805" data-name="Group 62805">
          <path id="Path_52348" data-name="Path 52348" d="M342.684,933.913a73.665,73.665,0,0,1-2.079-9.632c-.1-.782-.206-1.585-.268-2.367a9.55,9.55,0,0,1-.062-2.758c0-.123.021-.268.021-.391.638-.7,1.111-.741,1.42-.082a6.118,6.118,0,0,1,.494.885c.391.679.741,1.379,1.07,2.1a39.4,39.4,0,0,1,3.766,18.585c-.021.391.6.391.617,0a38.92,38.92,0,0,0-5.269-21.61c-.473-.782-1.626-1.852-2.429-.782a2.931,2.931,0,0,0-.309,1.729,20.456,20.456,0,0,0,.165,3.17,51.261,51.261,0,0,0,.8,5.578c.432,1.955.988,3.869,1.5,5.8.062.309.659.144.556-.226Z" transform="translate(-339.648 -917.409)" fill="#e8e8e8"/>
        </g>
      </g>
      <g id="Group_62808" data-name="Group 62808" transform="translate(9.799 45.742)">
        <g id="Group_62807" data-name="Group 62807">
          <path id="Path_52349" data-name="Path 52349" d="M291.2,752.873c13.6-.329,26.858,3.108,39.763,7.08s25.706,8.582,39.084,10.784a85.013,85.013,0,0,0,20.314,1.029,127.441,127.441,0,0,0,22.063-3.931c7.389-1.893,14.695-4.1,22.084-6.051,7.409-1.976,14.86-3.766,22.372-5.31a259.13,259.13,0,0,1,46.1-5.6c1.873-.041,3.766-.062,5.639-.062a.309.309,0,0,0,0-.617,246.7,246.7,0,0,0-45.34,4.4c-15.086,2.8-29.822,6.854-44.6,10.929a175.393,175.393,0,0,1-22.248,4.981,84.554,84.554,0,0,1-21.631.288c-13.542-1.564-26.529-6.01-39.454-10.105-12.76-4.034-25.788-7.883-39.228-8.4-1.647-.062-3.293-.062-4.94-.021a.3.3,0,1,0,.021.6Z" transform="translate(-290.887 -750.196)" fill="#e8e8e8"/>
        </g>
      </g>
      <g id="Group_62812" data-name="Group 62812" transform="translate(98.613 72.073)">
        <g id="Group_62811" data-name="Group 62811">
          <path id="Path_52351" data-name="Path 52351" d="M722.642,890.33c5.269,1.214,10.7.659,15.971-.309,5.516-1.008,10.929-2.449,16.341-3.972,10.908-3.046,21.754-6.154,33.094-7.018a107.1,107.1,0,0,1,19.223.329c.391.041.391-.576,0-.617a105.671,105.671,0,0,0-33.177,1.667c-10.846,2.285-21.343,5.989-32.168,8.315-6.236,1.338-12.781,2.47-19.1,1.008-.412-.082-.576.515-.185.6Z" transform="translate(-722.42 -878.132)" fill="#e8e8e8"/>
        </g>
      </g>
      <g id="Group_62814" data-name="Group 62814" transform="translate(172.997 87.583)">
        <g id="Group_62813" data-name="Group 62813" transform="translate(0)">
          <path id="Path_52352" data-name="Path 52352" d="M1219.438,954.173c13.789-.741,26.55,5.413,39.783,8.212a59.05,59.05,0,0,0,11.237,1.358.309.309,0,0,0,0-.618c-13.769-.226-26.385-6.545-39.8-8.829a49.94,49.94,0,0,0-11.217-.741c-.391.041-.412.659,0,.617Z" transform="translate(-1219.137 -953.492)" fill="#e8e8e8"/>
        </g>
      </g>
      <g id="Group_62816" data-name="Group 62816" transform="translate(0 24.121)">
        <g id="Group_62815" data-name="Group 62815">
          <path id="Path_52353" data-name="Path 52353" d="M243.568,645.773A109.451,109.451,0,0,1,296.5,658.553c.35.185.659-.35.309-.535a110.865,110.865,0,0,0-40.833-12.328,108.625,108.625,0,0,0-12.41-.535.309.309,0,0,0,0,.617Z" transform="translate(-243.275 -645.143)" fill="#e8e8e8"/>
          <path id="Path_52489" data-name="Path 52489" d="M296.672,645.773a109.451,109.451,0,0,0-52.935,12.781c-.35.185-.659-.35-.309-.535a110.865,110.865,0,0,1,40.833-12.328,108.625,108.625,0,0,1,12.41-.535.309.309,0,0,1,0,.617Z" transform="translate(-80.838 -645.143)" fill="#e8e8e8"/>
        </g>
      </g>
      <g id="Group_62818" data-name="Group 62818" transform="translate(14.45)">
        <g id="Group_62817" data-name="Group 62817">
          <path id="Path_52354" data-name="Path 52354" d="M313.694,528.551c11.258,2.82,21.528,8.356,32.168,12.863a130.336,130.336,0,0,0,53.223,10.435.309.309,0,0,0,0-.617,129.406,129.406,0,0,1-51.617-9.817c-5.331-2.2-10.558-4.713-15.827-7.039a109.835,109.835,0,0,0-17.782-6.421.31.31,0,0,0-.165.6Z" transform="translate(-313.485 -527.942)" fill="#e8e8e8"/>
        </g>
      </g>
      <g id="Group_62820" data-name="Group 62820" transform="translate(91.156 18.325)">
        <g id="Group_62819" data-name="Group 62819">
          <path id="Path_52355" data-name="Path 52355" d="M686.394,634.806c10.682,4.116,22.413,1.873,32.889-1.749,5.639-1.955,11.114-4.3,16.712-6.339q8.243-2.995,16.732-5.187a181.6,181.6,0,0,1,19.881-3.951c.391-.062.226-.659-.165-.6a182.437,182.437,0,0,0-34.041,8.232c-10.867,3.766-21.384,9.1-32.889,10.723a37.791,37.791,0,0,1-18.955-1.729c-.37-.144-.535.453-.165.6Z" transform="translate(-686.185 -616.978)" fill="#e8e8e8"/>
        </g>
      </g>
    </g>
    <g id="details" transform="translate(213.902 45.234)">
      <ellipse id="Ellipse_2278" data-name="Ellipse 2278" cx="2.099" cy="2.058" rx="2.099" ry="2.058" transform="translate(56.33 89.919)" fill="#5222d0"/>
      <ellipse id="Ellipse_2279" data-name="Ellipse 2279" cx="1.605" cy="1.564" rx="1.605" ry="1.564" transform="translate(137.07 118.053)" fill="#5222d0"/>
      <ellipse id="Ellipse_2280" data-name="Ellipse 2280" cx="1.07" cy="1.05" rx="1.07" ry="1.05" transform="translate(174.054 6.401)" fill="#5222d0"/>
      <ellipse id="Ellipse_2281" data-name="Ellipse 2281" cx="1.544" cy="1.502" rx="1.544" ry="1.502" transform="translate(58.429 148.081)" fill="#5222d0"/>
      <circle id="Ellipse_2282" data-name="Ellipse 2282" cx="0.37" cy="0.37" r="0.37" transform="translate(192.742 79.34)" fill="#5222d0"/>
      <ellipse id="Ellipse_2283" data-name="Ellipse 2283" cx="2.038" cy="1.996" rx="2.038" ry="1.996" transform="translate(52.234 86.873)" fill="#ec615b"/>
      <ellipse id="Ellipse_2284" data-name="Ellipse 2284" cy="0.638" ry="0.638" transform="translate(56.309 84.136)" fill="#ec615b"/>
      <ellipse id="Ellipse_2285" data-name="Ellipse 2285" cx="0.7" cy="0.679" rx="0.7" ry="0.679" transform="translate(61.516 143.1)" fill="#ec615b"/>
      <ellipse id="Ellipse_2286" data-name="Ellipse 2286" cx="1.523" cy="1.482" rx="1.523" ry="1.482" transform="translate(23.153 30.172)" fill="#ec615b"/>
      <ellipse id="Ellipse_2287" data-name="Ellipse 2287" cy="0.247" ry="0.247" transform="translate(171.193 0)" fill="#ec615b"/>
      <ellipse id="Ellipse_2288" data-name="Ellipse 2288" cx="1.523" cy="1.482" rx="1.523" ry="1.482" transform="translate(178.705 63.822)" fill="#ec615b"/>
      <ellipse id="Ellipse_2289" data-name="Ellipse 2289" cx="1.276" cy="1.235" rx="1.276" ry="1.235" transform="translate(185.106 58.78)" fill="#ec615b"/>
      <g id="Group_62822" data-name="Group 62822" transform="translate(45.176 120.913)">
        <g id="Group_62821" data-name="Group 62821">
          <path id="Path_52356" data-name="Path 52356" d="M435.688,656.5c-1.893.041-2.7,2.676-2.079,4.24a1.346,1.346,0,0,0,1.646.782,4.567,4.567,0,0,1,.762-.185c.967.062.947.659.659,1.235a5.17,5.17,0,0,0-.535,1.194,1.188,1.188,0,0,0,.576,1.461c.329.144.72-.1,1.009,0,1.029.329.206,1.626.123,2.264a1.722,1.722,0,0,0,.782,1.832,1.209,1.209,0,0,0,1.626-.494c.185-.35-.35-.658-.535-.309-.7.556-1.111.35-1.276-.659a2.75,2.75,0,0,1,.124-.823,9.825,9.825,0,0,0,.35-1.338,1.147,1.147,0,0,0-.247-.926c-.494-.453-1.688.206-1.955-.6-.165-.494.576-1.317.72-1.77.288-.885-.062-1.77-1.111-1.749-.864.021-1.893.905-2.2-.638-.226-1.07.288-2.9,1.605-2.922a.3.3,0,0,0-.041-.6Z" transform="translate(-433.405 -656.497)" fill="#ec615b"/>
        </g>
      </g>
      <g id="Group_62824" data-name="Group 62824" transform="translate(157.228 100.538)">
        <g id="Group_62823" data-name="Group 62823">
          <path id="Path_52357" data-name="Path 52357" d="M982.776,557.5a4.749,4.749,0,0,0-4.507,3.54c-.432,1.791.679,3.931,2.717,2.82a2.886,2.886,0,0,0,1.564-1.955.989.989,0,0,0-1.07-1.194c-1.008.082-1.935,1.276-2.47,2.017a4.955,4.955,0,0,0-1.152,3.108c.206,1.873,2.9,2.243,3.849.762.165-.247-.165-.617-.432-.432-1.42,1.091-2.9,2.881-2.346,4.816a2.925,2.925,0,0,0,3.622,2.079c.37-.124.206-.72-.165-.6a2.342,2.342,0,0,1-2.943-2.079c-.123-1.5,1.009-2.82,2.141-3.684l-.432-.432a1.561,1.561,0,0,1-2.017.453c-.967-.515-.7-1.626-.329-2.449a6.965,6.965,0,0,1,1.276-1.893c.206-.226.741-.844,1.029-.885.268.062.556.144.823.206a1.508,1.508,0,0,1-.247.72c-.556.906-1.955,1.626-2.717.576-.515-.679-.185-1.955.165-2.634a4.14,4.14,0,0,1,3.6-2.243c.432-.021.432-.638.041-.617Z" transform="translate(-977.846 -557.498)" fill="#ec615b"/>
        </g>
      </g>
      <g id="Group_62826" data-name="Group 62826" transform="translate(0 68.275)">
        <g id="Group_62825" data-name="Group 62825">
          <path id="Path_52358" data-name="Path 52358" d="M214.416,401.819a1.21,1.21,0,0,1,2.12.391c.206.556.185,1.029.7,1.42.926.7,2.161.165,3.149-.041,2.573-.514,1.729,2.058,3.19,3.067a1.289,1.289,0,0,0,1.935-.412c.165-.35-.37-.679-.535-.309-.535,1.194-1.523-.35-1.688-.823-.1-.288-.165-.576-.288-.844a2.372,2.372,0,0,0-.844-1.111c-1.153-.72-2.429.165-3.6.185-1.255.041-1.132-.823-1.564-1.667a1.691,1.691,0,0,0-.885-.8,1.827,1.827,0,0,0-2.12.515c-.268.309.185.741.432.432Z" transform="translate(-213.902 -400.735)" fill="#ec615b"/>
        </g>
      </g>
      <g id="Group_62828" data-name="Group 62828" transform="translate(2.2 73.803)">
        <g id="Group_62827" data-name="Group 62827">
          <path id="Path_52359" data-name="Path 52359" d="M225.107,428.975c1.3-1.4,3.169-.741,3.931.782.473.947.8,1.976,1.832,2.449a3.087,3.087,0,0,0,4.137-1.708c.124-.37-.473-.535-.6-.165a2.438,2.438,0,0,1-2.984,1.42c-1.42-.412-1.523-2.038-2.305-3.067a2.935,2.935,0,0,0-4.446-.144c-.268.288.165.72.432.432Z" transform="translate(-224.591 -427.595)" fill="#ec615b"/>
        </g>
      </g>
      <g id="Group_62830" data-name="Group 62830" transform="translate(148.264 163.283)">
        <g id="Group_62829" data-name="Group 62829">
          <path id="Path_52360" data-name="Path 52360" d="M934.807,864.636a1.925,1.925,0,0,1,2.717-.247,1.077,1.077,0,0,0,1.008.268c.494-.185.576-.844.926-1.173a2.056,2.056,0,0,1,2.655-.062c.309.247.741-.185.432-.432a2.679,2.679,0,0,0-3.828.391c-.082.123-.185.453-.288.515-.473.309-.659-.165-.967-.288a3.4,3.4,0,0,0-.988-.288,2.522,2.522,0,0,0-2.12.885c-.226.288.206.72.453.432Z" transform="translate(-934.291 -862.365)" fill="#5222d0"/>
        </g>
      </g>
      <g id="Group_62832" data-name="Group 62832" transform="translate(154.221 163.623)">
        <g id="Group_62831" data-name="Group 62831">
          <path id="Path_52361" data-name="Path 52361" d="M963.824,867c1.4-2.079,6.463.741,6.977-2.593.062-.391-.535-.556-.6-.165-.267,1.749-2.7,1.338-3.931,1.3a3.229,3.229,0,0,0-2.984,1.152c-.227.329.309.638.535.309Z" transform="translate(-963.234 -864.014)" fill="#5222d0"/>
        </g>
      </g>
      <g id="Group_62834" data-name="Group 62834" transform="translate(45.149 171.242)">
        <g id="Group_62833" data-name="Group 62833">
          <path id="Path_52362" data-name="Path 52362" d="M433.856,905.041a10.344,10.344,0,0,1,3.19-3.417c.329-.226.021-.762-.309-.535a11.555,11.555,0,0,0-3.416,3.643c-.206.329.329.638.535.309Z" transform="translate(-433.275 -901.034)" fill="#5222d0"/>
        </g>
      </g>
      <g id="Group_62836" data-name="Group 62836" transform="translate(48.204 171.427)">
        <g id="Group_62835" data-name="Group 62835">
          <path id="Path_52363" data-name="Path 52363" d="M448.565,904.767c1.091-.741,2.182-1.5,3.272-2.243.329-.226.021-.761-.309-.535-1.091.741-2.182,1.5-3.272,2.243-.329.227-.021.762.309.535Z" transform="translate(-448.116 -901.934)" fill="#5222d0"/>
        </g>
      </g>
    </g>
    <g id="girl" transform="translate(294.721 117.083)">
      <g id="leg_right" transform="translate(0 66.424)">
        <path id="Path_52426" data-name="Path 52426" d="M624.6,1054.119c.823-1.029,1.317-1.5,1.5-1.379q.71.432-5.083,12.493-14.232.679-14.427-.7-.154-1.2,10.558-3.993l4.693-9.941C622.768,1051.773,623.674,1052.946,624.6,1054.119Z" transform="translate(-606.589 -986.848)"/>
        <path id="Path_52427" data-name="Path 52427" d="M666.831,742.5c-.782,5.536-1.688,11.176-2.676,16.9-2.922,16.794-6.483,32.7-10.455,47.666a9.617,9.617,0,0,0,4.548,2.778,10.38,10.38,0,0,0,6.421-.371q6.977-24.389,13.933-48.8c6.113-6.668,4.94-15.292.268-18.42C675.783,740.2,671.009,740.484,666.831,742.5Z" transform="translate(-644.004 -740.843)" fill="#e4e3e3"/>
        <path id="Path_52428" data-name="Path 52428" d="M667.554,750.6c.6.062.226,9.3-.247,17.617a211.151,211.151,0,0,1-8.767,49.251,8.369,8.369,0,0,1-1.523-.576,8.5,8.5,0,0,1-2.717-2.14c1.255-4.487,3.067-11.237,4.94-19.511C665.1,769.328,666.71,750.538,667.554,750.6Z" transform="translate(-644.481 -748.591)" fill="#353535" opacity="0.15"/>
        <path id="Path_52429" data-name="Path 52429" d="M664.394,855.5c-.453,5.433-1.111,11.155-2.038,17.123a247.507,247.507,0,0,1-5.7,27,2.705,2.705,0,0,1-1.029-.412,2.617,2.617,0,0,1-.926-1.07q2.47-10.28,4.857-20.746Q662.058,866.346,664.394,855.5Z" transform="translate(-644.798 -831.902)" fill="#353535" opacity="0.13"/>
      </g>
      <g id="leg_left" transform="translate(30.54 65.126)">
        <path id="Path_52430" data-name="Path 52430" d="M878.843,1051.119c-.906-1.029-1.461-1.5-1.667-1.379q-.772.432,5.577,12.493c10.435.453,15.7.227,15.847-.7q.185-1.2-11.608-3.993c-1.729-3.314-3.437-6.627-5.166-9.941C880.84,1048.773,879.852,1049.946,878.843,1051.119Z" transform="translate(-851.96 -983.168)"/>
        <path id="Path_52431" data-name="Path 52431" d="M755.166,742.436a10.647,10.647,0,0,0,1.605,7.7q10.188,27.229,20.355,54.478a13.476,13.476,0,0,0,6.3-.638,12.679,12.679,0,0,0,5.619-3.91,170.585,170.585,0,0,1-8.171-20.807c-4.1-12.863-9.611-25.294-13.522-38.219-.659-2.161-1.77-5.948-4.281-6.421C760.147,734.08,756.051,738.114,755.166,742.436Z" transform="translate(-754.976 -734.561)" fill="#e4e3e3"/>
        <path id="Path_52432" data-name="Path 52432" d="M785.322,734.715c-1.42,1.029,1.214,6.524,2.47,9.261,3.026,6.607,4.59,13.789,7.492,20.458,3.128,7.183,7.718,18.811,14.2,38.322a8.3,8.3,0,0,0,1.605-1.009A7.923,7.923,0,0,0,812.694,800c-1.626-3.519-3.972-8.85-6.442-15.5-.885-2.367-.988-2.8-1.955-5.763-1.029-3.149-2.634-7.924-2.964-8.891-1.544-4.446-1.544-3.849-4.445-11.731-.617-1.667-1.461-3.972-2.47-6.977-.494-1.461-.864-2.634-1.132-3.478-.041-.123-1.4-4.343-3.314-9.344a5.382,5.382,0,0,0-2.367-3.293C787.524,734.962,786.021,734.2,785.322,734.715Z" transform="translate(-778.751 -734.537)" fill="#353535" opacity="0.1"/>
        <path id="Path_52433" data-name="Path 52433" d="M835.685,828.5c-.123.041,2.634,8.623,15.827,47.769.535-.514,1.07-1.029,1.605-1.564-.8-1.79-2.058-4.631-3.5-8.171-3.313-8.088-4.734-12.8-8.438-23.195C839.122,837.555,835.809,828.458,835.685,828.5Z" transform="translate(-819.071 -809.161)" fill="#353535" opacity="0.12"/>
      </g>
      <g id="hand_left" transform="translate(37.679 0)">
        <path id="Path_52434" data-name="Path 52434" d="M804.966,427.187c-.473.041-.8-1.358-1.317-1.338-.412.021-.7.947-.72,1.07-.247.844-.124,1.708.72,3.972.247.659.576,1.5,1.008,2.47a48.808,48.808,0,0,1-1.379,6.442,40.488,40.488,0,0,1-6.627,14.016,37.218,37.218,0,0,1-5.969,6.236,12.415,12.415,0,0,0-1.008,5.228c.021.679.1,3.746,1.235,4.034.761.185,1.667-.926,2.12-1.482,4.61-5.824,6.936-8.726,7.862-10.414a57.129,57.129,0,0,0,5.392-11.752,50.135,50.135,0,0,0,1.893-8.706c.473-.782,1.132-1.893,1.893-3.252,2.079-3.7,2.82-5.372,3.272-7.224.473-1.914.556-3.561.082-3.746-.35-.124-.782.515-1.173.35-.576-.247.041-1.955-.576-2.326-.226-.144-.679-.123-1.605.494-.638-1.338-1.05-1.585-1.317-1.564-.556.082-.823,1.605-.947,3.334-.165-.844-.576-2.614-1.091-2.614-.432,0-.885,1.3-1.009,2.326-.185,1.42.226,2.449-.288,3.89C805.315,426.837,805.171,427.146,804.966,427.187Z" transform="translate(-789.667 -419.366)" fill="#fff"/>
        <g id="Group_62934" data-name="Group 62934" transform="translate(1.426 13.437)">
          <g id="Group_62933" data-name="Group 62933">
            <path id="Path_52435" data-name="Path 52435" d="M809.749,483.678a28.328,28.328,0,0,1-1.749,7.9,59.173,59.173,0,0,1-2.819,7.142,33.543,33.543,0,0,1-8.479,11.258c-.309.247.144.7.432.432a34,34,0,0,0,8.726-11.711,58.624,58.624,0,0,0,2.779-7.121,27.285,27.285,0,0,0,1.708-7.883c.041-.412-.576-.412-.6-.021Z" transform="translate(-796.597 -483.387)" fill="#161616"/>
          </g>
        </g>
        <g id="Group_62936" data-name="Group 62936" transform="translate(1.258 17.015)">
          <g id="Group_62935" data-name="Group 62935">
            <path id="Path_52436" data-name="Path 52436" d="M812.762,501.068c-.556,6.5-3.4,12.616-6.277,18.379-2.634,5.269-5.824,10.393-10.579,14-.309.247,0,.782.309.535,4.857-3.684,8.129-8.85,10.805-14.222,2.943-5.866,5.783-12.081,6.36-18.688.021-.391-.6-.391-.617,0Z" transform="translate(-795.779 -500.775)" fill="#161616"/>
          </g>
        </g>
        <g id="Group_62938" data-name="Group 62938" transform="translate(12.951 6.189)">
          <g id="Group_62937" data-name="Group 62937">
            <path id="Path_52437" data-name="Path 52437" d="M854.734,455.382a14.292,14.292,0,0,1-1.461-4.919c-.021-.226-.062-1.194.1-1.317.515-.35.659.247.782.494a2.043,2.043,0,0,0,.823.988.309.309,0,0,0,.309-.535c-.72-.412-.659-1.544-1.482-1.852-.7-.268-.947.309-1.091.906-.494,2.12.576,4.651,1.441,6.545a.327.327,0,0,0,.576-.309Z" transform="translate(-852.592 -448.173)" fill="#161616"/>
          </g>
        </g>
        <g id="Group_62940" data-name="Group 62940" transform="translate(15.247 0.726)">
          <g id="Group_62939" data-name="Group 62939">
            <path id="Path_52438" data-name="Path 52438" d="M864.294,429.362c.7-1.605.535-3.252.6-4.96.021-.391-.062-1.3.165-1.605.411-.515.72.576.823.926a10.25,10.25,0,0,1,.268,3.355c-.041.391.576.391.617,0,.062-.782-.021-6.236-1.77-5.351-.72.37-.679,1.832-.7,2.47-.062,1.626.165,3.293-.515,4.837-.165.37.37.7.515.329Z" transform="translate(-863.749 -421.63)" fill="#161616"/>
          </g>
        </g>
        <g id="Group_62942" data-name="Group 62942" transform="translate(17.723)">
          <g id="Group_62941" data-name="Group 62941">
            <path id="Path_52439" data-name="Path 52439" d="M876.38,424.315c.124-.741.226-1.482.288-2.243a10.861,10.861,0,0,1,.206-2.593c.226-.741.35-.885.659-.226a4.631,4.631,0,0,1,.37,1.461,7.355,7.355,0,0,1-.1,2.923c-.124.391.474.535.6.165a8.211,8.211,0,0,0,.062-3.54c-.1-.6-.432-2.161-1.235-2.161-.7,0-.988,1.173-1.05,1.667-.206,1.441-.165,2.922-.391,4.363-.062.412.535.576.6.185Z" transform="translate(-875.778 -418.1)" fill="#161616"/>
          </g>
        </g>
        <g id="Group_62944" data-name="Group 62944" transform="translate(19.948 0.885)">
          <g id="Group_62943" data-name="Group 62943">
            <path id="Path_52440" data-name="Path 52440" d="M887.21,427.194a15.221,15.221,0,0,0,.082-1.935c.021-.556-.021-2.038.679-1.976.515.041.473.473.515.926.021.309.021.638.021.947a12,12,0,0,1-.185,2.264c-.082.391.515.556.6.165.206-1.009.906-5.145-.947-5.186-1.708-.041-1.255,3.869-1.379,4.816-.041.37.576.37.618-.021Z" transform="translate(-886.59 -422.398)" fill="#161616"/>
          </g>
        </g>
        <g id="Group_62946" data-name="Group 62946" transform="translate(18.286 2.781)">
          <g id="Group_62945" data-name="Group 62945">
            <path id="Path_52441" data-name="Path 52441" d="M883,432.7l.72-.062a4.754,4.754,0,0,1,.1.576,9.724,9.724,0,0,1,.062,1.091,8.061,8.061,0,0,1-.309,1.976,16.677,16.677,0,0,1-1.5,3.6c-1.132,2.14-2.346,4.26-3.519,6.38-.185.35.35.659.535.309.988-1.791,2-3.581,2.984-5.372a19.174,19.174,0,0,0,2.243-5.31c.206-1.029.638-3.4-.432-4.116a.977.977,0,0,0-1.482.947c.021.37.638.37.6-.021Z" transform="translate(-878.513 -431.612)" fill="#161616"/>
          </g>
        </g>
        <path id="Path_52442" data-name="Path 52442" d="M816.337,425.6c-.309.021-.391,1.3-.6,2.82-.329,2.675-.7,5.68-1.976,8.191a12.666,12.666,0,0,1-2.49,3.355,52.311,52.311,0,0,1-1.255,6.03c-1.153,4.322-2.84,10.455-7.615,16.2a32.672,32.672,0,0,1-6.236,5.763c-.082,2.017-.165,4.013-.268,6.03a33.437,33.437,0,0,0,5.042-4.713c2.511-2.9,4.137-6.195,7.286-12.657a51.56,51.56,0,0,0,3.6-8.6,41.015,41.015,0,0,0,1.379-6.565,50.71,50.71,0,0,0,3.149-5.7c1.255-2.676,3.272-7,2.038-8.068a1.6,1.6,0,0,0-1.255-.206C816.955,426.607,816.625,425.578,816.337,425.6Z" transform="translate(-794.617 -424.055)" fill="#353535" opacity="0.08"/>
        <path id="Path_52443" data-name="Path 52443" d="M849.705,484.2c-1.091,1.153-2.182,2.326-3.272,3.478a30.318,30.318,0,0,1-.72,4.2,31.136,31.136,0,0,1-2.49,6.565,63.34,63.34,0,0,0-4.322,11.669,99.31,99.31,0,0,0,6.3-12.781,28.375,28.375,0,0,0,1.5-4.8,36.578,36.578,0,0,1,.844-4.528A11.9,11.9,0,0,1,849.705,484.2Z" transform="translate(-828.767 -470.596)" fill="#353535" opacity="0.1"/>
      </g>
      <g id="hand_right" transform="translate(0.48 0.062)">
        <path id="Path_52444" data-name="Path 52444" d="M611.2,423.109c-.659.185-.679,1.976-.576,2.984a9.63,9.63,0,0,0,1.173,3.7c1.317,2.429,2.593,4.713,3.89,6.915a45.4,45.4,0,0,0,1.029,5.845,53.672,53.672,0,0,0,4.1,10.764c2.84,6.071,4.528,9.55,8.129,13.254a35.589,35.589,0,0,0,3.437,3.067A7.431,7.431,0,0,0,634.208,464a7.277,7.277,0,0,0-2.346-4.487,29.6,29.6,0,0,1-4.034-4.055c-3.252-4.034-4.61-8.068-6.586-14.119-.535-1.646-1.255-3.972-1.976-6.833.391-1.276.72-2.285.947-2.923.679-1.955,1.111-2.943.8-4.2-.082-.329-.247-.947-.659-1.07-.473-.124-1.194.453-1.749,1.5a34.357,34.357,0,0,1-.515-4.137c-.082-1.523-.041-2.634-.37-2.717-.35-.082-.885,1.153-.947,1.276a5.571,5.571,0,0,0-.432,2.923c.165-3.828-.268-4.8-.741-4.919-.391-.1-.885.412-1.029.576a2.742,2.742,0,0,0-.432,2.634c-.432-2.284-.885-2.429-1.029-2.429-.37-.021-.741.8-.885,1.276a2.685,2.685,0,0,0,0,1.358C611.9,423.356,611.507,423.026,611.2,423.109Z" transform="translate(-610.235 -419.857)" fill="#fff"/>
        <g id="Group_62948" data-name="Group 62948" transform="translate(8.845 13.411)">
          <g id="Group_62947" data-name="Group 62947">
            <path id="Path_52445" data-name="Path 52445" d="M651.9,483.858a28.353,28.353,0,0,0,1.605,7.7,61.221,61.221,0,0,0,2.758,7.306,34.246,34.246,0,0,0,8.479,11.711c.309.268.741-.185.432-.432a33.532,33.532,0,0,1-8.232-11.258,55.518,55.518,0,0,1-2.737-7.142,28.271,28.271,0,0,1-1.708-7.9.3.3,0,0,0-.6.021Z" transform="translate(-651.898 -483.562)" fill="#161616"/>
          </g>
        </g>
        <g id="Group_62950" data-name="Group 62950" transform="translate(5.303 17.018)">
          <g id="Group_62949" data-name="Group 62949">
            <path id="Path_52446" data-name="Path 52446" d="M634.692,501.378c.535,6.5,3.252,12.616,6.051,18.441,2.593,5.413,5.783,10.682,10.558,14.427.309.247.741-.185.432-.432-4.672-3.643-7.759-8.747-10.332-14-2.819-5.8-5.577-11.937-6.113-18.42-.021-.412-.638-.412-.6-.021Z" transform="translate(-634.69 -501.087)" fill="#161616"/>
          </g>
        </g>
        <g id="Group_62952" data-name="Group 62952" transform="translate(8.218 6.206)">
          <g id="Group_62951" data-name="Group 62951">
            <path id="Path_52447" data-name="Path 52447" d="M650.117,456.055c.865-1.935,1.955-4.548,1.358-6.709-.144-.535-.412-.967-1.029-.72-.8.309-.72,1.441-1.441,1.852a.309.309,0,0,0,.309.535,1.789,1.789,0,0,0,.7-.762c.082-.165.165-.535.309-.659.8-.6.659.7.659,1.07a13.916,13.916,0,0,1-1.42,5.1c-.144.329.391.638.556.288Z" transform="translate(-648.852 -448.554)" fill="#161616"/>
          </g>
        </g>
        <g id="Group_62954" data-name="Group 62954" transform="translate(5.828 0.727)">
          <g id="Group_62953" data-name="Group 62953">
            <path id="Path_52448" data-name="Path 52448" d="M640.194,429.334c-.638-1.482-.453-3.087-.494-4.651-.021-.659.062-2.264-.7-2.655-1.708-.885-1.811,4.59-1.749,5.351.041.391.659.391.618,0a10.381,10.381,0,0,1,.206-3.19c.062-.268.288-1.5.8-1.276.226.1.206,1.523.206,1.77a12.993,12.993,0,0,0,.576,4.96c.165.371.7.062.535-.309Z" transform="translate(-637.239 -421.931)" fill="#161616"/>
          </g>
        </g>
        <g id="Group_62956" data-name="Group 62956" transform="translate(3.584)">
          <g id="Group_62955" data-name="Group 62955">
            <path id="Path_52449" data-name="Path 52449" d="M629.147,424.429c-.226-1.441-.185-2.9-.391-4.322-.062-.515-.329-1.688-1.05-1.708-.741-.021-1.07,1.461-1.173,2a8.336,8.336,0,0,0,.021,3.7.31.31,0,0,0,.6-.165,7.529,7.529,0,0,1-.123-2.634,5.71,5.71,0,0,1,.309-1.544c.309-.782.432-.947.72,0a11.956,11.956,0,0,1,.185,2.429,24.037,24.037,0,0,0,.309,2.408c.062.391.659.226.6-.165Z" transform="translate(-626.334 -418.399)" fill="#161616"/>
          </g>
        </g>
        <g id="Group_62958" data-name="Group 62958" transform="translate(1.663 0.843)">
          <g id="Group_62957" data-name="Group 62957">
            <path id="Path_52450" data-name="Path 52450" d="M619.573,427.313c-.123-.926.329-4.878-1.358-4.816-1.811.062-1.111,4.2-.926,5.186.082.391.679.226.6-.165a11.869,11.869,0,0,1-.185-2.264c0-.556-.165-1.811.494-1.873.679-.062.638,1.441.659,1.976.021.659,0,1.3.082,1.935.062.412.7.432.638.021Z" transform="translate(-617 -422.496)" fill="#161616"/>
          </g>
        </g>
        <g id="Group_62960" data-name="Group 62960" transform="translate(0 2.743)">
          <g id="Group_62959" data-name="Group 62959">
            <path id="Path_52451" data-name="Path 52451" d="M611.038,432.831a.955.955,0,0,0-1.441-.947c-1.008.7-.638,2.943-.453,3.931a17.684,17.684,0,0,0,2.038,5.166c1.008,1.914,2.058,3.807,3.067,5.7.185.35.72.041.535-.309-1.173-2.182-2.387-4.343-3.519-6.545a15.531,15.531,0,0,1-1.358-3.437,8.981,8.981,0,0,1-.288-1.976c0-.247,0-.494.021-.762a3.257,3.257,0,0,1,.1-.782c.021-.309.267-.329.7-.062-.062.412.556.412.6.021Z" transform="translate(-608.922 -431.725)" fill="#161616"/>
          </g>
        </g>
        <path id="Path_52452" data-name="Path 52452" d="M613.284,424.942c.576.206.165,2.676.062,3.6-.226,2.12.247,5.331,3.6,9.9a62.021,62.021,0,0,0,6.03,16.918,61.094,61.094,0,0,0,8.994,12.719c.206,1.811.391,3.622.6,5.454a25.434,25.434,0,0,1-4.8-4.322,29.2,29.2,0,0,1-3.746-5.845c-3.4-6.442-5.1-9.673-6.3-13.583a51.379,51.379,0,0,1-1.893-9.056,33.442,33.442,0,0,1-3.478-5.516,12.843,12.843,0,0,1-1.77-6.3c.041-1.852.37-2.1.515-2.161.309-.124.72.123.988.329a2,2,0,0,1,.391-1.708C612.585,425.292,613,424.839,613.284,424.942Z" transform="translate(-610.243 -423.583)" fill="#353535" opacity="0.09"/>
        <path id="Path_52453" data-name="Path 52453" d="M615.6,460.683c.206-.1,1.461,1.667,2.367,3.149a30.2,30.2,0,0,1,3.211,7.347c1.358,4.713,3.108,8.706,6.627,16.671,1.07,2.408,2.7,5.907,4.981,10.044a30.216,30.216,0,0,1-2.614-2.758c-.885-1.05-3.787-4.61-6.812-12.781a78.491,78.491,0,0,1-3.54-12.781c-.7-1.194-1.667-2.9-2.7-5.042C616.669,463.565,615.372,460.807,615.6,460.683Z" transform="translate(-614.203 -451.977)" fill="#353535" opacity="0.09"/>
      </g>
      <g id="torso" transform="translate(19.738 37.69)">
        <path id="Path_52454" data-name="Path 52454" d="M714.882,602.057a19.059,19.059,0,0,0-3.663,0c-1.935.206-3.663.37-4.96,1.5-.967.844-1.255,1.893-1.791,3.972a17.99,17.99,0,0,0-.679,5.083c.082,4.116,1.646,4.651,2.47,9.632a33.728,33.728,0,0,1,.35,6.524,48.921,48.921,0,0,1-.679,7.471,16.375,16.375,0,0,0,4.1,2.387,15.436,15.436,0,0,0,8.459.947,14.691,14.691,0,0,0,7.862-4.055,22.226,22.226,0,0,1-1.461-9.138c.165-2.573.7-3.128,1.461-8.665a35.8,35.8,0,0,0,.515-6.751c-.144-3.7-.226-5.577-1.461-6.833C724.185,602.9,721.077,602.613,714.882,602.057Z" transform="translate(-703.52 -601.816)" fill="#fff"/>
        <g id="Group_62962" data-name="Group 62962" transform="translate(0 0.054)">
          <g id="Group_62961" data-name="Group 62961">
            <path id="Path_52455" data-name="Path 52455" d="M712.826,601.535a18.715,18.715,0,0,0-4.548.247,5.231,5.231,0,0,0-3.437,1.5,12.021,12.021,0,0,0-2.326,6.895c-.309,6.092,2.717,11.649,3.746,17.535.062.391.659.226.6-.165-.926-5.31-3.478-10.27-3.725-15.7a13.138,13.138,0,0,1,1.544-7.224,3.572,3.572,0,0,1,1.749-1.77,13.705,13.705,0,0,1,1.811-.453,18.881,18.881,0,0,1,4.569-.268c.411.041.411-.576.021-.6Z" transform="translate(-702.493 -601.492)" fill="#161616"/>
          </g>
        </g>
        <g id="Group_62964" data-name="Group 62964" transform="translate(2.137 20.055)">
          <g id="Group_62963" data-name="Group 62963">
            <path id="Path_52456" data-name="Path 52456" d="M713.089,698.968a46.369,46.369,0,0,1-.206,13.6c-.062.391.535.556.6.165a46.094,46.094,0,0,0,.226-13.769c-.062-.391-.679-.391-.617,0Z" transform="translate(-712.878 -698.675)" fill="#161616"/>
          </g>
        </g>
        <g id="Group_62966" data-name="Group 62966" transform="translate(12.556)">
          <g id="Group_62965" data-name="Group 62965">
            <path id="Path_52457" data-name="Path 52457" d="M763.809,601.882c2.758-.165,6.154.165,8.5,1.811,1.42,1.008,1.482,2.7,1.626,4.281a24.749,24.749,0,0,1,.1,4.281c-.412,5.619-2.676,10.949-2.655,16.63a.309.309,0,0,0,.617,0c-.021-6.4,2.9-12.431,2.7-18.852-.082-2.449,0-5.6-2.346-7.039a15.147,15.147,0,0,0-8.541-1.729c-.412.021-.412.638,0,.617Z" transform="translate(-763.5 -601.23)" fill="#161616"/>
          </g>
        </g>
        <g id="Group_62968" data-name="Group 62968" transform="translate(21.074 21.187)">
          <g id="Group_62967" data-name="Group 62967">
            <path id="Path_52458" data-name="Path 52458" d="M804.891,704.468a46.69,46.69,0,0,0,1.441,11.937.31.31,0,0,0,.6-.165,46.32,46.32,0,0,1-1.42-11.772.309.309,0,0,0-.617,0Z" transform="translate(-804.888 -704.175)" fill="#161616"/>
          </g>
        </g>
        <g id="Group_62970" data-name="Group 62970" transform="translate(2.077 33.23)">
          <g id="Group_62969" data-name="Group 62969">
            <path id="Path_52459" data-name="Path 52459" d="M712.691,763.989a15.964,15.964,0,0,0,10.023,3.746c4.137.021,7.594-2,10.784-4.445.309-.247,0-.782-.309-.535-3.025,2.305-6.257,4.281-10.147,4.343a15.264,15.264,0,0,1-9.9-3.561c-.329-.247-.762.185-.453.453Z" transform="translate(-712.585 -762.691)" fill="#161616"/>
          </g>
        </g>
        <path id="Path_52460" data-name="Path 52460" d="M761.242,603.7a27.955,27.955,0,0,1,1.873,6.771c.8,5.824-.556,10.291-2.182,15.456a69.991,69.991,0,0,1-6.833,15.107,15.068,15.068,0,0,0,4.1-.185,16.026,16.026,0,0,0,8.006-4.1c-.144-1.029-.391-2.634-.741-4.569a42.968,42.968,0,0,1-.8-4.343c-.082-1.338.144-1.173,1.358-6.833a49.447,49.447,0,0,0,1.029-6.874c.021-.227.021-.453.041-.679.1-3.4.144-5.475-1.3-7.245A7.729,7.729,0,0,0,761.242,603.7Z" transform="translate(-743.479 -603.192)" fill="#353535" opacity="0.11"/>
        <path id="Path_52461" data-name="Path 52461" d="M785.059,651.6c-.144-.041-.865,1.091-2.552,5.6a131.51,131.51,0,0,0-5.907,21.343,12.952,12.952,0,0,0,3.54-1.008,11.784,11.784,0,0,0,3.787-2.737,33.1,33.1,0,0,1-1.3-9.282C782.651,657.811,785.388,651.7,785.059,651.6Z" transform="translate(-761.348 -641.229)" fill="#353535" opacity="0.08"/>
      </g>
      <g id="head" transform="translate(17.562 16.543)">
        <path id="Path_52462" data-name="Path 52462" d="M712.969,514.8a6.251,6.251,0,0,0-.391,4.1,1.942,1.942,0,0,0-1.564.659,1.885,1.885,0,0,0,.062,2.017,1.269,1.269,0,0,0,.72.7,1.408,1.408,0,0,0,1.235-.391,11.015,11.015,0,0,0,1.626,2.778,11.824,11.824,0,0,0,3.54,3c.041.988.082,1.955.1,2.943a2.819,2.819,0,0,0,1.4.7,3.138,3.138,0,0,0,2.573-.761q-.031-1.852-.062-3.7a9.972,9.972,0,0,0,1.749-1.749,9.456,9.456,0,0,0,1.791-4.1,3.223,3.223,0,0,0,1.07.165c.453,0,1.029-.021,1.3-.391.288-.412-.021-1.009-.329-1.646-.309-.6-.535-.679-.617-.7a1.008,1.008,0,0,0-.782.165,7.012,7.012,0,0,0-.391-3.272,7.089,7.089,0,0,0-2.964-3.6C719.761,509.94,714.616,511.442,712.969,514.8Z" transform="translate(-706.861 -508.392)" fill="#fff"/>
        <g id="Group_62972" data-name="Group 62972" transform="translate(5.397 6.222)">
          <g id="Group_62971" data-name="Group 62971">
            <path id="Path_52463" data-name="Path 52463" d="M718.485,528.937c-1.214,5.331.761,12.2,6.812,13.357.391.082.556-.515.165-.6-5.722-1.091-7.512-7.574-6.38-12.6.082-.391-.515-.556-.6-.165Z" transform="translate(-718.144 -528.714)" fill="#161616"/>
          </g>
        </g>
        <g id="Group_62974" data-name="Group 62974" transform="translate(12.409 8.849)">
          <g id="Group_62973" data-name="Group 62973">
            <path id="Path_52464" data-name="Path 52464" d="M752.437,552.409c.844.247,2-.556,2.676-1.008a9.011,9.011,0,0,0,2.346-2.243,10.633,10.633,0,0,0,1.935-7.389c-.041-.391-.659-.391-.617,0a10.079,10.079,0,0,1-1.4,6.442,9.365,9.365,0,0,1-1.893,2.141c-.6.494-2.058,1.688-2.881,1.461a.31.31,0,0,0-.165.6Z" transform="translate(-752.214 -541.475)" fill="#161616"/>
          </g>
        </g>
        <g id="Group_62976" data-name="Group 62976" transform="translate(10.804 18.909)">
          <g id="Group_62975" data-name="Group 62975">
            <path id="Path_52465" data-name="Path 52465" d="M744.435,590.736a5.139,5.139,0,0,1,.247,2.614c-.062.391.535.556.6.165a5.728,5.728,0,0,0-.247-2.943c-.123-.37-.72-.226-.6.165Z" transform="translate(-744.419 -590.357)" fill="#161616"/>
          </g>
        </g>
        <g id="Group_62978" data-name="Group 62978" transform="translate(15.039 18.296)">
          <g id="Group_62977" data-name="Group 62977">
            <path id="Path_52466" data-name="Path 52466" d="M765.034,587.668a8.807,8.807,0,0,0,.247,3.108.31.31,0,0,0,.6-.165,8.864,8.864,0,0,1-.226-2.943c.041-.391-.576-.391-.618,0Z" transform="translate(-764.992 -587.375)" fill="#161616"/>
          </g>
        </g>
        <g id="Group_62980" data-name="Group 62980" transform="translate(11.005 21.041)">
          <g id="Group_62979" data-name="Group 62979">
            <path id="Path_52467" data-name="Path 52467" d="M745.475,601.966c1.42,1.585,4.384,1.544,4.9-.864.082-.391-.514-.556-.6-.165-.432,1.955-2.737,1.832-3.869.6-.268-.288-.7.144-.432.432Z" transform="translate(-745.391 -600.714)" fill="#161616"/>
          </g>
        </g>
        <g id="Group_62982" data-name="Group 62982" transform="translate(11.117 18.62)">
          <g id="Group_62981" data-name="Group 62981">
            <path id="Path_52468" data-name="Path 52468" d="M746.033,590.032a2.422,2.422,0,0,0,3.828-.617c.185-.35-.35-.659-.535-.309a1.8,1.8,0,0,1-2.861.494c-.288-.268-.72.165-.432.432Z" transform="translate(-745.938 -588.952)" fill="#161616"/>
          </g>
        </g>
        <g id="Group_62984" data-name="Group 62984" transform="translate(12.154 19.53)">
          <g id="Group_62983" data-name="Group 62983">
            <path id="Path_52469" data-name="Path 52469" d="M751.268,594a2.2,2.2,0,0,1,.823.082.31.31,0,0,0,.165-.6,3.235,3.235,0,0,0-.988-.1c-.391.021-.391.638,0,.617Z" transform="translate(-750.975 -593.375)" fill="#161616"/>
          </g>
        </g>
        <g id="Group_62986" data-name="Group 62986" transform="translate(3.503 10.486)">
          <g id="Group_62985" data-name="Group 62985">
            <path id="Path_52470" data-name="Path 52470" d="M711.24,552.491c-.844.679-1.585-.268-1.667-1.07-.1-.782.576-1.749,1.441-1.214.329.206.638-.329.309-.535-1.276-.8-2.511.556-2.367,1.832.165,1.358,1.5,2.408,2.717,1.42.309-.247-.124-.679-.432-.432Z" transform="translate(-708.944 -549.431)" fill="#161616"/>
          </g>
        </g>
        <g id="Group_62988" data-name="Group 62988" transform="translate(18.987 9.766)">
          <g id="Group_62987" data-name="Group 62987">
            <path id="Path_52471" data-name="Path 52471" d="M784.88,546.706c.659-.617,1.3.556,1.276,1.091a1.01,1.01,0,0,1-.453.844c-.226.144-.762.329-.947.041-.206-.329-.741-.021-.535.309a1.222,1.222,0,0,0,1.523.329,1.611,1.611,0,0,0,1.008-1.441c.062-1.132-1.235-2.634-2.326-1.605-.268.268.165.72.453.432Z" transform="translate(-784.175 -545.93)" fill="#161616"/>
          </g>
        </g>
        <g id="Group_62990" data-name="Group 62990" transform="translate(11.348 6.091)">
          <g id="Group_62989" data-name="Group 62989">
            <path id="Path_52472" data-name="Path 52472" d="M747.128,528.368a19.458,19.458,0,0,1-.062,4.24c-.082.967.432,1.379,1.194,2,.309.247.741-.185.432-.432-.535-.453-1.008-.762-.988-1.585a12.205,12.205,0,0,1,.144-1.214,14.639,14.639,0,0,0-.082-3c-.062-.391-.679-.391-.638,0Z" transform="translate(-747.058 -528.075)" fill="#161616"/>
          </g>
        </g>
        <g id="Group_62992" data-name="Group 62992" transform="translate(7.343 7.97)">
          <g id="Group_62991" data-name="Group 62991">
            <path id="Path_52473" data-name="Path 52473" d="M728.236,538.544c-.021-.453.638-.741,1.009-.72.432,0,.659.35.885.679s.762.021.535-.309c-.412-.6-.885-1.091-1.667-.967-.659.123-1.42.6-1.4,1.338a.32.32,0,0,0,.638-.021Z" transform="translate(-727.598 -537.207)" fill="#161616"/>
          </g>
        </g>
        <g id="Group_62994" data-name="Group 62994" transform="translate(14.473 7.437)">
          <g id="Group_62993" data-name="Group 62993">
            <path id="Path_52474" data-name="Path 52474" d="M762.811,535.928a1.237,1.237,0,0,1,2.326.288c.082.391.679.226.6-.165a1.863,1.863,0,0,0-3.458-.453c-.165.35.35.679.535.329Z" transform="translate(-762.244 -534.614)" fill="#161616"/>
          </g>
        </g>
        <g id="Group_62996" data-name="Group 62996" transform="translate(6.794 5.538)">
          <g id="Group_62995" data-name="Group 62995">
            <path id="Path_52475" data-name="Path 52475" d="M725.524,526.977a2.242,2.242,0,0,1,1.585-.967c.391-.041.391-.659,0-.617a2.867,2.867,0,0,0-2.12,1.276c-.226.329.309.638.535.309Z" transform="translate(-724.934 -525.39)" fill="#161616"/>
          </g>
        </g>
        <g id="Group_62998" data-name="Group 62998" transform="translate(14.729 5.352)">
          <g id="Group_62997" data-name="Group 62997">
            <path id="Path_52476" data-name="Path 52476" d="M763.8,525.1a2.6,2.6,0,0,1,1.955.679c.288.268.741-.165.432-.432a3.319,3.319,0,0,0-2.408-.864.309.309,0,0,0,.021.617Z" transform="translate(-763.487 -524.482)" fill="#161616"/>
          </g>
        </g>
        <g id="Group_63000" data-name="Group 63000" transform="translate(7.528 10.542)">
          <g id="Group_62999" data-name="Group 62999">
            <path id="Path_52477" data-name="Path 52477" d="M729.117,550.05v-.041a.309.309,0,1,0-.617,0v.041a.316.316,0,0,0,.309.309.3.3,0,0,0,.309-.309Z" transform="translate(-728.5 -549.7)" fill="#161616"/>
          </g>
        </g>
        <g id="Group_63002" data-name="Group 63002" transform="translate(8.784 10.13)">
          <g id="Group_63001" data-name="Group 63001">
            <path id="Path_52478" data-name="Path 52478" d="M734.909,548.317h.041a.309.309,0,0,0,0-.617h-.041a.316.316,0,0,0-.309.309.332.332,0,0,0,.309.309Z" transform="translate(-734.6 -547.7)" fill="#161616"/>
          </g>
        </g>
        <g id="Group_63004" data-name="Group 63004" transform="translate(8.742 11.488)">
          <g id="Group_63003" data-name="Group 63003">
            <path id="Path_52479" data-name="Path 52479" d="M734.709,554.917h.041a.309.309,0,0,0,0-.617h-.041a.309.309,0,0,0,0,.617Z" transform="translate(-734.4 -554.3)" fill="#161616"/>
          </g>
        </g>
        <g id="Group_63006" data-name="Group 63006" transform="translate(15.411 9.677)">
          <g id="Group_63005" data-name="Group 63005">
            <path id="Path_52480" data-name="Path 52480" d="M767.109,546.117h.041a.309.309,0,0,0,0-.617h-.041a.317.317,0,0,0-.309.309.332.332,0,0,0,.309.309Z" transform="translate(-766.8 -545.5)" fill="#161616"/>
          </g>
        </g>
        <g id="Group_63008" data-name="Group 63008" transform="translate(17.237 9.636)">
          <g id="Group_63007" data-name="Group 63007">
            <path id="Path_52481" data-name="Path 52481" d="M775.968,545.917a.309.309,0,0,0,0-.617.309.309,0,0,0,0,.617Z" transform="translate(-775.675 -545.3)" fill="#161616"/>
          </g>
        </g>
        <g id="Group_63010" data-name="Group 63010" transform="translate(16.543 10.624)">
          <g id="Group_63009" data-name="Group 63009">
            <path id="Path_52482" data-name="Path 52482" d="M772.609,550.717a.309.309,0,0,0,0-.617.309.309,0,1,0,0,.617Z" transform="translate(-772.3 -550.1)" fill="#161616"/>
          </g>
        </g>
        <g id="Group_63012" data-name="Group 63012" transform="translate(10.001 13.05)">
          <g id="Group_63011" data-name="Group 63011">
            <path id="Path_52483" data-name="Path 52483" d="M740.552,562.773a2.922,2.922,0,0,0,5.351-.514c.124-.371-.473-.535-.6-.165a2.3,2.3,0,0,1-4.219.37c-.185-.35-.72-.041-.535.309Z" transform="translate(-740.513 -561.885)" fill="#161616"/>
          </g>
        </g>
        <path id="Path_52484" data-name="Path 52484" d="M695.027,507.375a14.5,14.5,0,0,0-2.285,5.7c-.309,1.873-.844,5.145,1.214,7.739.556.7,2.593,2.984,5.392,2.614a4.962,4.962,0,0,0,4.24-3.6,3.742,3.742,0,0,0-.206-2.14,9.6,9.6,0,0,1-3.7-3.108,8.482,8.482,0,0,1-1.194-2.367,1.346,1.346,0,0,1-.885.309,1.319,1.319,0,0,1-.947-.494,1.915,1.915,0,0,1,.268-2.7,1.664,1.664,0,0,1,1.194-.1,6.748,6.748,0,0,1,.617-4.1c.576-1.153,1.461-2,3.5-3.272,1.688-1.05,2.429-.967,2.7-.926a2.982,2.982,0,0,1,1.749,1.255c1.3,1.646,2.984,3.766,5,6.38a1.468,1.468,0,0,1,1.194-.062,1.516,1.516,0,0,1,.7.8,1.48,1.48,0,0,1,.185.947,1.452,1.452,0,0,1-1.009,1.111,1.5,1.5,0,0,1-1.276-.206,9.843,9.843,0,0,1-1.276,3.211,10.143,10.143,0,0,1-2.367,2.614,4.584,4.584,0,0,0,.206,2.429,5.149,5.149,0,0,0,3.7,3.087c2.778.6,5.022-1.482,5.6-2.037a7.326,7.326,0,0,0-.947-11.814,30.537,30.537,0,0,0-2.284-4.322c-1.852-2.9-3.128-4.857-5.454-5.577a6.83,6.83,0,0,0-3.581-.062,6.979,6.979,0,0,0-3.231,0C698.423,499.534,695.83,502.95,695.027,507.375Z" transform="translate(-692.336 -498.48)" fill="#2d62ed"/>
        <path id="Path_52485" data-name="Path 52485" d="M755.413,530.595c-.165.062.165,1.132.329,2.2a11.779,11.779,0,0,1-.617,5.331,10.111,10.111,0,0,1-4.425,4.94c.638.144,1.3.288,1.935.453.185,1.111.35,2.243.535,3.355.412-.494.844-.988,1.255-1.482a5.058,5.058,0,0,0,1.029,1.338,5.4,5.4,0,0,0,3.128,1.379,6.172,6.172,0,0,0,4.26-1.482,7.717,7.717,0,0,0,2.737-9.323,11.025,11.025,0,0,1-2.017,4.075c-.288.37-2.881,3.6-4.487,3.046-1.379-.473-1.852-3.725-1.173-7.986a.994.994,0,0,0,1.749-.267,1.574,1.574,0,0,0-.412-1.667,1.844,1.844,0,0,0-1.255-.576,12.467,12.467,0,0,1-1.07-1.214C755.927,531.5,755.557,530.554,755.413,530.595Z" transform="translate(-738.603 -523.984)" fill="#353535" opacity="0.08"/>
        <path id="Path_52486" data-name="Path 52486" d="M749.241,552.033a.912.912,0,0,1,1.338.226.823.823,0,0,1-.35,1.07C749.776,553.453,749.015,552.383,749.241,552.033Z" transform="translate(-737.412 -540.854)" fill="#353535" opacity="0.09"/>
        <path id="Path_52487" data-name="Path 52487" d="M699,574.92a2.5,2.5,0,0,1-2.161,1.338c-.515-.041-1.091-.35-3.087-3.54-.659-1.05-1.173-1.955-1.523-2.552a8.169,8.169,0,0,0,.617,5.989,7.147,7.147,0,0,0,2.922,3.128,5.272,5.272,0,0,0,2.634.762,5.179,5.179,0,0,0,3.622-1.667,3.719,3.719,0,0,0,1.255-2.326,3.294,3.294,0,0,0-.535-2.1c-.617-.947-1.276-.844-2.326-1.749a12.854,12.854,0,0,1-1.873-2.511C698.3,569.836,700.17,572.9,699,574.92Z" transform="translate(-691.922 -555.035)" fill="#353535" opacity="0.09"/>
        <path id="Path_52488" data-name="Path 52488" d="M760.918,553c-.123-.041-.494,1.256-1.564,3.005a17.822,17.822,0,0,1-4.754,5.1,8.628,8.628,0,0,0,4.034-2.408C760.857,556.31,761.1,553.058,760.918,553Z" transform="translate(-741.7 -541.775)" fill="#353535" opacity="0.13"/>
      </g>
    </g>
    <g id="giveaway" transform="translate(10.288 -63.037)">
      <g id="background" transform="translate(233.137 102)">
        <g id="Group_61636" data-name="Group 61636" transform="translate(38.993 77.249)">
          <g id="Group_61635" data-name="Group 61635">
            <path id="Path_51641" data-name="Path 51641" d="M557.045,502.051a6.625,6.625,0,0,1,.058,6.3c-.174.329.329.619.5.29a7.24,7.24,0,0,0-.058-6.882c-.193-.348-.677-.039-.5.29Z" transform="translate(-557.008 -501.608)" fill="#161616"/>
          </g>
        </g>
        <g id="Group_61638" data-name="Group 61638" transform="translate(39.317 76.649)">
          <g id="Group_61637" data-name="Group 61637">
            <path id="Path_51642" data-name="Path 51642" d="M559.112,499.644a3.414,3.414,0,0,1,2.185-.561c1.121.232,1.16,1.141,1.237,2.068a4.992,4.992,0,0,1-.793,3.557c-.232.29.174.7.406.406a6.161,6.161,0,0,0,.831-5.2c-.541-2.03-2.745-1.469-4.137-.773-.348.155-.058.657.271.5Z" transform="translate(-558.684 -498.504)" fill="#161616"/>
          </g>
        </g>
        <g id="Group_61640" data-name="Group 61640" transform="translate(39.47 82.774)">
          <g id="Group_61639" data-name="Group 61639">
            <path id="Path_51643" data-name="Path 51643" d="M559.75,531.811a3.274,3.274,0,0,0,2.88-1.121c.232-.29-.174-.7-.406-.406a2.732,2.732,0,0,1-2.474.967c-.367-.058-.367.522,0,.561Z" transform="translate(-559.475 -530.184)" fill="#161616"/>
          </g>
        </g>
        <g id="Group_61642" data-name="Group 61642" transform="translate(39.033 50.579)">
          <g id="Group_61641" data-name="Group 61641">
            <path id="Path_51644" data-name="Path 51644" d="M557.752,365.3c.251-.483.947-1.8,1.72-.58a3.144,3.144,0,0,1,.174.928,2.261,2.261,0,0,0,.5,1.141c.967,1.005,1.643-.638,2.648-.1,1.276.677-.387,2.107.657,2.9a.8.8,0,0,0,.831.077c.193-.077.348-.251.541-.348.715-.309.967.329,1.025.889a.3.3,0,0,0,.29.29l.619.058c.367.039.367-.541,0-.58l-.619-.058.29.29a1.972,1.972,0,0,0-.638-1.508c-.522-.348-.87-.039-1.353.193-.232.116-.425.5-.754.039-.116-.174.135-.715.174-.909a1.548,1.548,0,0,0,.019-.889,1.679,1.679,0,0,0-1.063-1.044c-.6-.213-.889.039-1.431.193-.483.135-.967.1-1.141-.425a3.424,3.424,0,0,1-.1-.619,3.15,3.15,0,0,0-.251-.928c-.793-1.45-2.165-.232-2.648.754-.174.271.328.561.5.232Z" transform="translate(-557.213 -363.644)" fill="#5222d0"/>
          </g>
        </g>
        <g id="Group_61644" data-name="Group 61644" transform="translate(42.809 49.372)">
          <g id="Group_61643" data-name="Group 61643">
            <path id="Path_51645" data-name="Path 51645" d="M577.264,358.464c.464-.445.889-.638,1.392-.213.406.348.329.464.445.928a1.308,1.308,0,0,0,.387.715,1.187,1.187,0,0,0,.986.213c.348-.039.754-.271,1.044.1a1.486,1.486,0,0,1,.116.773c.019.58.019,1.276.677,1.488.193.058.406-.039.58.019.232-.1.329-.039.348.213a.873.873,0,0,1,.1.5,1.87,1.87,0,0,0,.619,1.083c.271.251.677-.155.406-.406-.58-.541-.174-1.3-.657-1.778-.5-.5-1.3.232-1.469-.7-.135-.715.135-1.682-.812-1.933-.677-.174-1.392.5-1.759-.425-.155-.387-.1-.812-.367-1.179-.638-.831-1.817-.406-2.455.193-.271.251.155.677.425.406Z" transform="translate(-576.752 -357.402)" fill="#161616"/>
          </g>
        </g>
        <g id="Group_61646" data-name="Group 61646" transform="translate(113.851 84.354)">
          <g id="Group_61645" data-name="Group 61645">
            <path id="Path_51646" data-name="Path 51646" d="M944.933,540.378c-.58-.058.29-1.2.464-1.3a1.121,1.121,0,0,1,1.353.251,1.291,1.291,0,0,1-.909,2.126c-.367.039-.367.619,0,.58a2.023,2.023,0,0,0,1.8-1.508,1.848,1.848,0,0,0-1.083-2.049,1.662,1.662,0,0,0-2.03.657c-.387.58-.483,1.74.425,1.817.348.039.348-.541-.019-.58Z" transform="translate(-944.246 -538.36)" fill="#161616"/>
          </g>
        </g>
        <g id="Group_61648" data-name="Group 61648" transform="translate(109.905 83.779)">
          <g id="Group_61647" data-name="Group 61647">
            <path id="Path_51647" data-name="Path 51647" d="M924.561,536.8c-.406-.367.077-1.1.541-.7.483.406-.174.967-.619.638-.29-.232-.58.271-.29.5a1.093,1.093,0,0,0,1.392-.155,1.015,1.015,0,1,0-1.546-1.315,1.088,1.088,0,0,0,.116,1.411c.271.271.7-.135.406-.387Z" transform="translate(-923.833 -535.386)" fill="#161616"/>
          </g>
        </g>
        <g id="Group_61650" data-name="Group 61650" transform="translate(172.922 60.077)">
          <g id="Group_61649" data-name="Group 61649">
            <path id="Path_51648" data-name="Path 51648" d="M1254.588,413.05a10.074,10.074,0,0,1-4.639,8.989c-.309.193-.02.7.29.5a10.652,10.652,0,0,0,4.93-9.492c-.02-.367-.6-.367-.58,0Z" transform="translate(-1249.816 -412.775)" fill="#161616"/>
          </g>
        </g>
        <g id="Group_61652" data-name="Group 61652" transform="translate(173.25 60.224)">
          <g id="Group_61651" data-name="Group 61651">
            <path id="Path_51649" data-name="Path 51649" d="M1256.344,414.088c1.856,1.353,1.1,3.808.077,5.413-.967,1.527-2.532,3.344-4.543,3.035-.367-.058-.522.5-.155.561,2.417.348,4.253-1.682,5.374-3.576,1.121-1.875,1.547-4.466-.464-5.935-.309-.213-.6.29-.29.5Z" transform="translate(-1251.514 -413.534)" fill="#161616"/>
          </g>
        </g>
        <g id="Group_61654" data-name="Group 61654" transform="translate(15.298 43.138)">
          <g id="Group_61653" data-name="Group 61653">
            <path id="Path_51650" data-name="Path 51650" d="M434.486,325.587a14.741,14.741,0,0,1,2.126,6.573c.039.367.619.367.58,0a15.442,15.442,0,0,0-2.2-6.863c-.213-.329-.715-.039-.5.29Z" transform="translate(-434.434 -325.152)" fill="#e8e8e8"/>
          </g>
        </g>
        <g id="Group_61656" data-name="Group 61656" transform="translate(17.671 42.5)">
          <g id="Group_61655" data-name="Group 61655">
            <path id="Path_51651" data-name="Path 51651" d="M446.749,322.287a13.865,13.865,0,0,1,1.7,5.857c.019.367.6.367.58,0A14.659,14.659,0,0,0,447.252,322c-.174-.329-.677-.039-.5.29Z" transform="translate(-446.713 -321.852)" fill="#e8e8e8"/>
          </g>
        </g>
        <g id="Group_61658" data-name="Group 61658" transform="translate(14.772 44.984)">
          <g id="Group_61657" data-name="Group 61657">
            <path id="Path_51652" data-name="Path 51652" d="M432.138,337a10.458,10.458,0,0,1,5.606-1.72.29.29,0,0,0,0-.58,11.08,11.08,0,0,0-5.9,1.817c-.309.193-.019.7.29.483Z" transform="translate(-431.716 -334.7)" fill="#e8e8e8"/>
          </g>
        </g>
        <g id="Group_61660" data-name="Group 61660" transform="translate(14.714 46.623)">
          <g id="Group_61659" data-name="Group 61659">
            <path id="Path_51653" data-name="Path 51653" d="M431.838,346.2a18.417,18.417,0,0,1,6.843-2.455c.367-.058.213-.619-.155-.561a18.693,18.693,0,0,0-6.979,2.513c-.309.193-.019.7.29.5Z" transform="translate(-431.416 -343.178)" fill="#e8e8e8"/>
          </g>
        </g>
        <g id="Group_61662" data-name="Group 61662" transform="translate(127.754 59.144)">
          <g id="Group_61661" data-name="Group 61661">
            <path id="Path_51654" data-name="Path 51654" d="M1017.06,407.978a1.469,1.469,0,0,0-.483,2.358c.406.406.754.29,1.237.445.309.1.657.29.6.6-.039.213-.251.387-.367.561a2.54,2.54,0,0,0-.5.851,1,1,0,0,0,.309.986c.425.367.986.135,1.45.367.967.464-.793,2.494.7,2.88a.291.291,0,0,0,.155-.561c-.619-.155.155-1.334.213-1.7a1,1,0,0,0-.271-.889c-.657-.638-2.59.039-1.6-1.585.309-.5.87-1.121.5-1.779a.8.8,0,0,0-.541-.387c-.232-.039-.6,0-.831-.019-1.025-.058-1.141-1.2-.271-1.643.329-.135.039-.638-.29-.483Z" transform="translate(-1016.164 -407.949)" fill="#e8e8e8"/>
          </g>
        </g>
        <g id="Group_61664" data-name="Group 61664" transform="translate(132.414 62.4)">
          <g id="Group_61663" data-name="Group 61663">
            <path id="Path_51655" data-name="Path 51655" d="M1040.8,424.813c-.638.251-.657.947-.271,1.469.251.367.657.445.986.7.812.6.1,1.1-.039,1.8-.232,1.2,1.044.793,1.411,1.566.309.638.193,1.353.986,1.643.348.135.5-.425.155-.561-.561-.193-.483-1.256-.792-1.682a1.652,1.652,0,0,0-.367-.367c-.077-.058-.193-.039-.251-.077-.135-.019-.232-.116-.271-.309-.271-.174-.309-.348-.077-.541.174-.541.522-.87.155-1.431a1.892,1.892,0,0,0-.6-.5c-.174-.116-1.43-.889-.851-1.121.329-.155.174-.715-.174-.58Z" transform="translate(-1040.272 -424.792)" fill="#e8e8e8"/>
          </g>
        </g>
        <g id="Group_61666" data-name="Group 61666" transform="translate(168.794 96.77)">
          <g id="Group_61665" data-name="Group 61665">
            <path id="Path_51656" data-name="Path 51656" d="M1229.959,607.266a2.274,2.274,0,0,1,.348-3.886,2.623,2.623,0,0,1,3.344,1.1,2.6,2.6,0,0,1-1.063,3.344,2.629,2.629,0,0,1-3.364-1.025c-.193-.309-.7-.019-.5.29a3.08,3.08,0,1,0,5.181-3.306,3.151,3.151,0,0,0-4.369-.561,2.846,2.846,0,0,0,.155,4.562c.29.193.58-.309.271-.522Z" transform="translate(-1228.463 -602.585)" fill="#e8e8e8"/>
          </g>
        </g>
        <g id="Group_61668" data-name="Group 61668" transform="translate(35.957 99.222)">
          <g id="Group_61667" data-name="Group 61667">
            <path id="Path_51657" data-name="Path 51657" d="M542.211,623.069c.213-.7.522-.889.889-.561.1.039.193.1.271.135a1.179,1.179,0,0,0,.445.058.9.9,0,0,0,.657-.445c.483-.773-.058-1.527-.541-2.126-.251-.29-.715-.677-.657-1.121.077-.851.58-.5,1.005-.561a.888.888,0,0,0,.735-.445,1.289,1.289,0,0,0,.077-.851,4.17,4.17,0,0,1-.077-.483q-.2-.609.58-.754a2.3,2.3,0,0,1,.638.657c.213.309.715.019.5-.29-.522-.734-2.068-1.74-2.32-.213-.116.773.6,1.585-.541,1.779-.561.1-.947.1-1.121.754a1.679,1.679,0,0,0,.387,1.489c.155.193.329.367.483.541a1.834,1.834,0,0,1,.425.657c-.232.232-.445.464-.677.7-.174.039-.619-.329-.87-.348-1.121-.077-1.72,1.431-.6,1.914.367.155.657-.348.309-.483Z" transform="translate(-541.303 -615.273)" fill="#e8e8e8"/>
          </g>
        </g>
        <g id="Group_61670" data-name="Group 61670" transform="translate(40.409 99.645)">
          <g id="Group_61669" data-name="Group 61669">
            <path id="Path_51658" data-name="Path 51658" d="M565.5,624c-.309-.5-.793-1.276-.58-1.914.155-.483.812-.7,1.1-1.083a1.713,1.713,0,0,0-.019-1.991c-.077.155-.174.29-.251.445a2.257,2.257,0,0,0,2.358-1.643c.116-.367-.445-.5-.561-.155a1.686,1.686,0,0,1-1.8,1.218.3.3,0,0,0-.251.445,1.21,1.21,0,0,1,.1,1.3c-.232.348-.541.367-.793.619a1.409,1.409,0,0,0-.445.812,3.369,3.369,0,0,0,.657,2.242c.174.329.677.039.483-.29Z" transform="translate(-564.332 -617.457)" fill="#e8e8e8"/>
          </g>
        </g>
        <g id="Group_61672" data-name="Group 61672" transform="translate(100.54 5.788)">
          <g id="Group_61671" data-name="Group 61671">
            <path id="Path_51659" data-name="Path 51659" d="M875.47,132.454a8.336,8.336,0,0,1,1.933,4.079c.058.367.619.213.561-.155a9.046,9.046,0,0,0-2.088-4.35c-.251-.271-.657.135-.406.425Z" transform="translate(-875.391 -131.94)" fill="#e8e8e8"/>
          </g>
        </g>
        <g id="Group_61674" data-name="Group 61674" transform="translate(100.627 3.306)">
          <g id="Group_61673" data-name="Group 61673">
            <path id="Path_51660" data-name="Path 51660" d="M876.333,122.156c.657-.6,3.286-2.958,4.253-2.281a5.867,5.867,0,0,1,1.218,1.662,11.754,11.754,0,0,1,.947,2.068c.116.348.677.193.561-.155a12.985,12.985,0,0,0-1.256-2.61c-.329-.522-.831-1.411-1.431-1.662-.677-.29-1.508.309-2.068.638a15.089,15.089,0,0,0-2.629,1.933c-.271.251.135.657.406.406Z" transform="translate(-875.838 -119.102)" fill="#e8e8e8"/>
          </g>
        </g>
        <g id="Group_61676" data-name="Group 61676" transform="translate(102.665 7.104)">
          <g id="Group_61675" data-name="Group 61675">
            <path id="Path_51661" data-name="Path 51661" d="M886.89,142.393a20.072,20.072,0,0,1,4.968-3.112c.348-.155.039-.657-.29-.5a20.53,20.53,0,0,0-5.084,3.209c-.29.232.116.638.406.406Z" transform="translate(-886.384 -138.749)" fill="#e8e8e8"/>
          </g>
        </g>
        <g id="Group_61678" data-name="Group 61678" transform="translate(106.032 3.023)">
          <g id="Group_61677" data-name="Group 61677">
            <path id="Path_51662" data-name="Path 51662" d="M904.3,119.913c.735-.619,2.378-2.184,3.286-1.16a10.894,10.894,0,0,1,1.469,2.822c.155.348.657.039.5-.29a21.471,21.471,0,0,0-1.218-2.4c-.232-.406-.522-1.025-1.005-1.2-.561-.193-1.16.213-1.6.483a13.774,13.774,0,0,0-1.836,1.315c-.29.271.135.677.406.425Z" transform="translate(-903.797 -117.639)" fill="#e8e8e8"/>
          </g>
        </g>
        <g id="Group_61680" data-name="Group 61680" transform="translate(104.948 7.104)">
          <g id="Group_61679" data-name="Group 61679">
            <path id="Path_51663" data-name="Path 51663" d="M898.347,140.479a8.144,8.144,0,0,1,2.4,1.643.305.305,0,0,0,.464-.058,8.313,8.313,0,0,1,3.325-2.784c.348-.155.039-.657-.29-.5a8.825,8.825,0,0,0-3.538,2.977l.464-.058a8.306,8.306,0,0,0-2.513-1.72c-.367-.135-.657.348-.309.5Z" transform="translate(-898.191 -138.749)" fill="#e8e8e8"/>
          </g>
        </g>
        <g id="Group_61682" data-name="Group 61682" transform="translate(108.535 25.092)">
          <g id="Group_61681" data-name="Group 61681">
            <path id="Path_51664" data-name="Path 51664" d="M917.532,237.039c-.039-.213-.1-.425-.135-.638a2.47,2.47,0,0,1,.561-.445,4.159,4.159,0,0,0,.367-.251,1.666,1.666,0,0,0,.5-.657,2.118,2.118,0,0,0,.058-1.044c-.019-.116-.039-.251-.058-.367-.019-.135.058-1.7.677-1.2.29.232.7-.174.406-.406a.872.872,0,0,0-1.257.077c-.657.638-.348,1.392-.309,2.165.058,1.16-1.45,1.218-1.585,2.281a.841.841,0,0,0,.638,1.025c.348.077.5-.483.135-.541Z" transform="translate(-916.748 -231.8)" fill="#ec615b"/>
          </g>
        </g>
        <g id="Group_61684" data-name="Group 61684" transform="translate(111.346 24.53)">
          <g id="Group_61683" data-name="Group 61683">
            <path id="Path_51665" data-name="Path 51665" d="M931.385,233.088a.754.754,0,0,0,1.218-.5c.1-.522-.251-1.005-.213-1.527a1.879,1.879,0,0,1,1.2-1.585c.348-.135.193-.7-.155-.561a2.337,2.337,0,0,0-1.411,1.3,2.261,2.261,0,0,0-.213.947,3.18,3.18,0,0,0,.039.445s.29,1.334-.039,1.063c-.309-.213-.715.193-.425.425Z" transform="translate(-931.285 -228.892)" fill="#ec615b"/>
          </g>
        </g>
        <g id="Group_61686" data-name="Group 61686" transform="translate(60.697 90.653)">
          <g id="Group_61685" data-name="Group 61685">
            <path id="Path_51666" data-name="Path 51666" d="M670.157,572.81a.6.6,0,0,1-.135-.928,1.244,1.244,0,0,1,1.083-.348,1.04,1.04,0,0,1,.793.522c.155.348-.077.947-.541.889-.367-.058-.522.5-.155.561a1.167,1.167,0,0,0,1.334-1.025,1.384,1.384,0,0,0-1.121-1.469,1.774,1.774,0,0,0-1.933.638,1.15,1.15,0,0,0,.406,1.662.286.286,0,0,0,.271-.5Z" transform="translate(-669.284 -570.943)" fill="#ec615b"/>
          </g>
        </g>
        <g id="Group_61688" data-name="Group 61688" transform="translate(29.807 19.75)">
          <g id="Group_61687" data-name="Group 61687">
            <path id="Path_51667" data-name="Path 51667" d="M510.709,208.52c.116-.387.232-.793.329-1.179l.348.116a4.346,4.346,0,0,1,.464.155,1.339,1.339,0,0,0,.677.019,1.09,1.09,0,0,0,.657-1.141c0-.483-.174-1.005.213-1.392a1.388,1.388,0,0,1,1.237-.329c1.334.309,1.2,1.991.619,2.9-.193.309.309.6.5.29a2.61,2.61,0,0,0-.251-3.4,1.962,1.962,0,0,0-2.687.309c-.406.541-.135,1.025-.251,1.643-.193,1.025-1.643.077-2.3.309a1.2,1.2,0,0,0,.232,2.3c.406.058.561-.5.213-.6Z" transform="translate(-509.489 -204.164)" fill="#5e70ef"/>
          </g>
        </g>
        <g id="Group_61690" data-name="Group 61690" transform="translate(156.335 105.132)">
          <g id="Group_61689" data-name="Group 61689">
            <path id="Path_51668" data-name="Path 51668" d="M1164.438,649.605a1.16,1.16,0,0,1,1.334-.077.294.294,0,0,0,.426-.329.715.715,0,0,1,.154-.928c.135-.6.445-.638.909-.135.135.271.522.116.541-.155a5.2,5.2,0,0,1,.058-.773c.058-.619.464-.773,1.179-.483.155.348.638.039.5-.29a1.049,1.049,0,0,0-1.392-.5c-.812.329-.908,1.3-.928,2.049.174-.058.367-.1.541-.155a1.128,1.128,0,0,0-1.547-.5,1.669,1.669,0,0,0-.58,2.01c.135-.116.29-.213.425-.329a1.843,1.843,0,0,0-1.914.077c-.309.213-.019.715.29.522Z" transform="translate(-1164.016 -645.844)" fill="#5e70ef"/>
          </g>
        </g>
        <g id="Group_61692" data-name="Group 61692" transform="translate(139.805 28.793)">
          <g id="Group_61691" data-name="Group 61691">
            <path id="Path_51669" data-name="Path 51669" d="M1080.437,250.953a2.7,2.7,0,0,0-1.914,2.3,2.125,2.125,0,0,0,1.643,2.455c.851.077,1.7-.889,1.179-1.682-.561-.87-1.643-.232-2.088.387-1.256,1.8-.135,5.316,2.455,4.485.715-.232,1.6-1.1,1.2-1.933-.5-1.025-1.624.077-1.914.657-.6,1.2-.754,2.919.483,3.77a1.689,1.689,0,0,0,2.61-.909c.077-.251-.29-.522-.483-.29a2.461,2.461,0,0,0,1.856,4.079c.367.019.367-.561,0-.58a1.867,1.867,0,0,1-1.45-3.074c-.155-.1-.329-.193-.483-.29-.29,1.1-1.643.928-2.165.116a2.578,2.578,0,0,1,.116-2.532c.1-.193.619-1.1.928-.522.155.309-.425.754-.619.87a1.55,1.55,0,0,1-1.856-.271,2.538,2.538,0,0,1-.58-1.952,2.99,2.99,0,0,1,.29-1.1c.077-.116.174-.232.251-.348.483-.464.464-.329-.077.425-.387.039-.715-1.025-.735-1.276a2.317,2.317,0,0,1,.077-.735,2.07,2.07,0,0,1,1.43-1.469.3.3,0,0,0-.155-.58Z" transform="translate(-1078.505 -250.942)" fill="#5e70ef"/>
          </g>
        </g>
        <g id="Group_61694" data-name="Group 61694" transform="translate(37.081 34.78)">
          <g id="Group_61693" data-name="Group 61693">
            <path id="Path_51670" data-name="Path 51670" d="M547.773,287.749a1.2,1.2,0,0,1,.271-1.276,1.345,1.345,0,0,1,1.334-.271,1.247,1.247,0,0,0,.947-.1,1.59,1.59,0,0,0,.541-.7,3.3,3.3,0,0,0,.174-.58c.019-.135.058-.271.077-.387.039-.464.367-.657.966-.58-.019.348.464.367.561.077a2.195,2.195,0,0,1,.754-1.179c.6-.406,1.45-.329,1.566.5.058.367.6.213.561-.155a1.435,1.435,0,0,0-1.662-1.179,2.425,2.425,0,0,0-1.759,1.875c.193.019.387.058.561.077a.875.875,0,0,0-1.063-.87c-.909.116-.947,1.141-1.141,1.817-.135.483-.251.851-.928.831-.193,0-.425-.135-.638-.135a1.768,1.768,0,0,0-1.025.348,1.835,1.835,0,0,0-.657,2.049c.116.329.677.193.561-.174Z" transform="translate(-547.119 -281.914)" fill="#5222d0"/>
          </g>
        </g>
        <ellipse id="Ellipse_2254" data-name="Ellipse 2254" cx="2.513" cy="2.687" rx="2.513" ry="2.687" transform="translate(143.438 53.992)" fill="#5222d0"/>
        <ellipse id="Ellipse_2255" data-name="Ellipse 2255" cx="1.662" cy="1.643" rx="1.662" ry="1.643" transform="translate(8.351 56.679)" fill="#5222d0"/>
        <ellipse id="Ellipse_2256" data-name="Ellipse 2256" cx="1.392" cy="1.508" rx="1.392" ry="1.508" transform="translate(33.231 126.929)" fill="#5222d0"/>
        <ellipse id="Ellipse_2257" data-name="Ellipse 2257" cx="2.919" cy="2.764" rx="2.919" ry="2.764" transform="translate(140.113 57.182)" fill="#5e70ef"/>
        <ellipse id="Ellipse_2258" data-name="Ellipse 2258" cx="1.489" cy="1.662" rx="1.489" ry="1.662" transform="translate(83.763 0)" fill="#5e70ef"/>
        <ellipse id="Ellipse_2259" data-name="Ellipse 2259" cx="2.088" cy="2.32" rx="2.088" ry="2.32" transform="translate(164.857 87.3)" fill="#5e70ef"/>
        <ellipse id="Ellipse_2260" data-name="Ellipse 2260" cx="4.176" cy="4.272" rx="4.176" ry="4.272" transform="translate(0 71.41)" fill="#5e70ef"/>
      </g>
    </g>
  </g>
</svg>
