<svg xmlns="http://www.w3.org/2000/svg" width="11.868" height="10.729" viewBox="0 0 11.868 10.729">
  <g id="noun_List_2189525" transform="translate(0.1 0.1)">
    <g id="Group_45486" data-name="Group 45486" transform="translate(0 0)">
      <path id="Path_50815" data-name="Path 50815" d="M1.518,0A1.518,1.518,0,1,1,0,1.518,1.52,1.52,0,0,1,1.518,0Zm0,.619a.9.9,0,1,0,.9.9.9.9,0,0,0-.9-.9Z" transform="translate(0 0)" fill="#2d62ed" stroke="#2d62ed" stroke-width="0.2"/>
      <path id="Path_50816" data-name="Path 50816" d="M1.518,2.051A1.518,1.518,0,1,1,0,3.569,1.52,1.52,0,0,1,1.518,2.051Zm0,.619a.9.9,0,1,0,.9.9.9.9,0,0,0-.9-.9Z" transform="translate(0 1.696)" fill="#2d62ed" stroke="#2d62ed" stroke-width="0.2"/>
      <path id="Path_50817" data-name="Path 50817" d="M1.518,4.1A1.518,1.518,0,1,1,0,5.619,1.519,1.519,0,0,1,1.518,4.1Zm0,.619a.9.9,0,1,0,.9.9.9.9,0,0,0-.9-.9Z" transform="translate(0 3.392)" fill="#2d62ed" stroke="#2d62ed" stroke-width="0.2"/>
      <path id="Path_50818" data-name="Path 50818" d="M2.4.314H9.629a.321.321,0,0,1,.329.31.321.321,0,0,1-.329.31H2.4a.321.321,0,0,1-.329-.31A.321.321,0,0,1,2.4.314Z" transform="translate(1.71 0.26)" fill="#2d62ed" stroke="#2d62ed" stroke-width="0.2" fill-rule="evenodd"/>
      <path id="Path_50819" data-name="Path 50819" d="M2.4,1.009h4.23a.321.321,0,0,1,.33.31.322.322,0,0,1-.33.31H2.4a.322.322,0,0,1-.329-.31A.321.321,0,0,1,2.4,1.009Z" transform="translate(1.71 0.834)" fill="#2d62ed" stroke="#2d62ed" stroke-width="0.2" fill-rule="evenodd"/>
      <path id="Path_50820" data-name="Path 50820" d="M2.4,2.365H9.629a.31.31,0,1,1,0,.619H2.4a.31.31,0,1,1,0-.619Z" transform="translate(1.71 1.956)" fill="#2d62ed" stroke="#2d62ed" stroke-width="0.2" fill-rule="evenodd"/>
      <path id="Path_50821" data-name="Path 50821" d="M2.4,3.059h4.23a.31.31,0,1,1,0,.619H2.4a.31.31,0,1,1,0-.619Z" transform="translate(1.71 2.53)" fill="#2d62ed" stroke="#2d62ed" stroke-width="0.2" fill-rule="evenodd"/>
      <path id="Path_50822" data-name="Path 50822" d="M2.4,4.415H9.629a.31.31,0,1,1,0,.619H2.4a.31.31,0,1,1,0-.619Z" transform="translate(1.71 3.652)" fill="#2d62ed" stroke="#2d62ed" stroke-width="0.2" fill-rule="evenodd"/>
      <path id="Path_50823" data-name="Path 50823" d="M2.4,5.11h4.23a.31.31,0,1,1,0,.619H2.4a.31.31,0,1,1,0-.619Z" transform="translate(1.71 4.226)" fill="#2d62ed" stroke="#2d62ed" stroke-width="0.2" fill-rule="evenodd"/>
    </g>
  </g>
</svg>
