<svg xmlns="http://www.w3.org/2000/svg" width="15.585" height="15.585" viewBox="0 0 15.585 15.585">
  <path id="chatbox_Grey" d="M18.085,5.006a1.152,1.152,0,0,0-1.13-1.169H4.13A1.152,1.152,0,0,0,3,5.006v9.469a1.152,1.152,0,0,0,1.13,1.169h6.111V18.61a.313.313,0,0,0,.174.283.29.29,0,0,0,.127.029.3.3,0,0,0,.194-.073l3.687-3.2h2.531a1.152,1.152,0,0,0,1.13-1.169Zm-.6,9.469a.537.537,0,0,1-.527.545H14.314a.3.3,0,0,0-.194.073L10.844,17.94V15.332a.307.307,0,0,0-.3-.312H4.13a.537.537,0,0,1-.527-.545V5.006a.537.537,0,0,1,.527-.545H16.955a.537.537,0,0,1,.527.545Z" transform="translate(-2.75 -3.587)" fill="#b7b3b3" stroke="#b7b3b3" stroke-width="0.5"/>
</svg>
