<svg xmlns="http://www.w3.org/2000/svg" width="38" height="38" viewBox="0 0 38 38">
  <g id="Group_61631" data-name="Group 61631" transform="translate(-44 -652)">
    <circle id="Ellipse_1768" data-name="Ellipse 1768" cx="19" cy="19" r="19" transform="translate(44 652)" fill="#e9effd"/>
    <g id="Group_61355" data-name="Group 61355" transform="translate(-282.373 9.299)">
      <path id="Path_51362" data-name="Path 51362" d="M21.672,5h-6.6a.388.388,0,0,0-.388.388v.938h-3.3A.388.388,0,0,0,11,6.714v17.3a.388.388,0,0,0,.388.388h13.97a.388.388,0,0,0,.388-.388V6.714a.388.388,0,0,0-.388-.388h-3.3V5.388A.388.388,0,0,0,21.672,5Zm-.388.776V7.231H15.463V6.722s0-.005,0-.008,0-.005,0-.008V5.776ZM24.97,7.1V23.627H11.776V7.1h2.91v.517a.388.388,0,0,0,.388.388h6.6a.388.388,0,0,0,.388-.388V7.1Z" transform="translate(327 647)" fill="#2d62ed" stroke="#2d62ed" stroke-width="0.2"/>
      <g id="Group_61354" data-name="Group 61354" transform="translate(340.301 657.681)">
        <path id="Path_51363" data-name="Path 51363" d="M22,19.64a5.072,5.072,0,1,0,5.072,5.072A5.078,5.078,0,0,0,22,19.64Zm0,9.368a4.3,4.3,0,1,1,4.3-4.3A4.3,4.3,0,0,1,22,29.008Z" transform="translate(-16.93 -19.64)" fill="#2d62ed" stroke="#2d62ed" stroke-width="0.2"/>
        <path id="Path_51364" data-name="Path 51364" d="M27.581,27.011l-3.461,3.461-1.3-1.3a.388.388,0,0,0-.549.549l1.576,1.576a.388.388,0,0,0,.549,0L28.13,27.56a.388.388,0,0,0-.549-.549Z" transform="translate(-20.128 -24.081)" fill="#2d62ed" stroke="#2d62ed" stroke-width="0.2"/>
      </g>
    </g>
  </g>
</svg>
