<svg xmlns="http://www.w3.org/2000/svg" width="30.3" height="35.302" viewBox="0 0 30.3 35.302">
  <g id="Group_61526" data-name="Group 61526" transform="translate(-515.85 -352.85)">
    <g id="Group_61521" data-name="Group 61521" transform="translate(516 353)">
      <path id="Path_51416" data-name="Path 51416" d="M114.29,39.315h21.252a2.659,2.659,0,0,0,1.887-.793,2.71,2.71,0,0,0,.778-1.908V26.589h1.083a2.317,2.317,0,0,0,1.642-.689,2.363,2.363,0,0,0,.682-1.657V17.167a2.361,2.361,0,0,0-.682-1.657,2.319,2.319,0,0,0-1.642-.689h-1.083V12.453h0a.55.55,0,0,0-.179-.4l-7.5-7.574a.648.648,0,0,0-.179-.12.534.534,0,0,0-.222-.044H114.29a2.7,2.7,0,0,0-1.883.8,2.747,2.747,0,0,0-.793,1.9v29.6a2.747,2.747,0,0,0,.793,1.9,2.7,2.7,0,0,0,1.883.8Zm26.219-22.148v7.109a1.264,1.264,0,0,1-.365.884,1.24,1.24,0,0,1-.876.368H130.3a1.235,1.235,0,0,1-.9-.372,1.259,1.259,0,0,1-.357-.913V17.167a1.258,1.258,0,0,1,.363-.885,1.234,1.234,0,0,1,.877-.367h8.987a1.24,1.24,0,0,1,.876.368,1.264,1.264,0,0,1,.365.884ZM130.666,6.185l5.683,5.72h-4.058a1.579,1.579,0,0,1-1.147-.456,1.609,1.609,0,0,1-.478-1.147ZM112.7,7.017a1.615,1.615,0,0,1,.466-1.137,1.585,1.585,0,0,1,1.126-.471h15.293v4.922a2.714,2.714,0,0,0,.807,1.9,2.663,2.663,0,0,0,1.9.768h4.821v1.8H130.3a2.318,2.318,0,0,0-1.66.691,2.363,2.363,0,0,0-.68,1.677v7.109a2.358,2.358,0,0,0,.681,1.659,2.313,2.313,0,0,0,1.643.687h6.831v9.991a1.61,1.61,0,0,1-.457,1.131,1.579,1.579,0,0,1-1.114.477H114.29a1.585,1.585,0,0,1-1.126-.471,1.615,1.615,0,0,1-.466-1.137Z" transform="translate(-111.614 -4.316)" fill="#2d62ed" stroke="#2d62ed" stroke-width="0.3"/>
      <path id="Path_51417" data-name="Path 51417" d="M435.725,221.426l1.389-1.98,1.416,1.98h1.542l-2.166-3.041,2.078-2.909H438.5l-1.318,1.958-1.274-1.958h-1.537l2.007,2.92-2.117,3.03Z" transform="translate(-414.064 -202.072)" fill="#2d62ed" stroke="#2d62ed" stroke-width="0.3"/>
    </g>
    <g id="Group_61525" data-name="Group 61525">
      <path id="Path_51414" data-name="Path 51414" d="M177.123,457.713h17.5a.547.547,0,1,0,0-1.094h-17.5a.547.547,0,0,0,0,1.094Z" transform="translate(343.547 -74.909)" fill="#2d62ed" stroke="#2d62ed" stroke-width="0.3"/>
      <path id="Path_51415" data-name="Path 51415" d="M177.123,395.593h17.5a.547.547,0,1,0,0-1.094h-17.5a.547.547,0,0,0,0,1.094Z" transform="translate(343.547 -16.732)" fill="#2d62ed" stroke="#2d62ed" stroke-width="0.3"/>
      <path id="Path_51418" data-name="Path 51418" d="M177.123,333.653h8.75a.547.547,0,0,0,0-1.094h-8.75a.547.547,0,0,0,0,1.094Z" transform="translate(343.547 41.276)" fill="#2d62ed" stroke="#2d62ed" stroke-width="0.3"/>
      <path id="Path_51419" data-name="Path 51419" d="M177.123,271.7h8.75a.547.547,0,0,0,0-1.094h-8.75a.547.547,0,0,0,0,1.094Z" transform="translate(343.547 99.294)" fill="#2d62ed" stroke="#2d62ed" stroke-width="0.3"/>
      <path id="Path_51420" data-name="Path 51420" d="M177.123,209.673h8.75a.547.547,0,0,0,0-1.094h-8.75a.547.547,0,0,0,0,1.094Z" transform="translate(343.547 157.386)" fill="#2d62ed" stroke="#2d62ed" stroke-width="0.3"/>
      <path id="Path_51421" data-name="Path 51421" d="M177.123,147.553h8.75a.547.547,0,0,0,0-1.094h-8.75a.547.547,0,0,0,0,1.094Z" transform="translate(343.547 215.563)" fill="#2d62ed" stroke="#2d62ed" stroke-width="0.3"/>
      <path id="Path_51422" data-name="Path 51422" d="M177.2,87.243h8.75a.547.547,0,0,0,0-1.094H177.2a.547.547,0,0,0,0,1.094Z" transform="translate(343.472 272.045)" fill="#2d62ed" stroke="#2d62ed" stroke-width="0.3"/>
    </g>
  </g>
</svg>
