<svg xmlns="http://www.w3.org/2000/svg" width="17.995" height="18" viewBox="0 0 17.995 18">
  <path id="help_-_Outline" data-name="help - Outline" d="M2758.849-1817.15a9.006,9.006,0,0,1,9,9,9.01,9.01,0,0,1-9,9,9.011,9.011,0,0,1-9-9A9.008,9.008,0,0,1,2758.849-1817.15Zm0,17.768a8.778,8.778,0,0,0,8.765-8.771,8.775,8.775,0,0,0-8.765-8.765,8.776,8.776,0,0,0-8.768,8.765A8.779,8.779,0,0,0,2758.849-1799.382Zm0-16.445a7.679,7.679,0,0,1,7.67,7.671,7.636,7.636,0,0,1-2.248,5.431,7.615,7.615,0,0,1-5.423,2.249,7.69,7.69,0,0,1-7.682-7.68A7.685,7.685,0,0,1,2758.853-1815.827Zm0,15.12a7.385,7.385,0,0,0,5.259-2.181,7.4,7.4,0,0,0,2.18-5.267,7.447,7.447,0,0,0-7.439-7.439,7.453,7.453,0,0,0-7.451,7.439A7.458,7.458,0,0,0,2758.853-1800.707Zm-.071-12.428a4.318,4.318,0,0,1,.865.092,2.911,2.911,0,0,1,2.281,2.709,2.5,2.5,0,0,1-1.461,2.2l-.064.04-.106.067a1.473,1.473,0,0,0-.761,1.252v.988a.116.116,0,0,1-.116.116h-.985a.116.116,0,0,1-.116-.116v-1.653a1.224,1.224,0,0,1,.65-1.167l0,0,.994-.672,0,0a1.454,1.454,0,0,0,.619-1.077,1.307,1.307,0,0,0-.352-1.039,1.958,1.958,0,0,0-1.364-.523,2.174,2.174,0,0,0-.434.043,1.822,1.822,0,0,0-1.455,2.1.116.116,0,0,1-.116.116h-.982a.116.116,0,0,1-.083-.035.115.115,0,0,1-.033-.084,3.142,3.142,0,0,1,.877-2.473A2.757,2.757,0,0,1,2758.782-1813.136Zm.523,7.235v-.873a1.69,1.69,0,0,1,.865-1.445l.111-.071.064-.04a2.3,2.3,0,0,0,1.352-2.006,2.671,2.671,0,0,0-2.1-2.482,4.085,4.085,0,0,0-.819-.087,2.535,2.535,0,0,0-1.963.813,2.871,2.871,0,0,0-.813,2.2h.747a2.906,2.906,0,0,1,.2-1.137,1.855,1.855,0,0,1,1.437-1.08,2.4,2.4,0,0,1,.48-.048,2.192,2.192,0,0,1,1.526.589,1.54,1.54,0,0,1,.421,1.224,1.686,1.686,0,0,1-.714,1.245l-.012.008-1,.674a1,1,0,0,0-.545.973v1.537Zm-.376,1.075a1.022,1.022,0,0,1,1.02,1.022,1.021,1.021,0,0,1-1.02,1.02,1.026,1.026,0,0,1-1.029-1.02A1.029,1.029,0,0,1,2758.928-1804.825Zm0,1.81a.789.789,0,0,0,.788-.788.79.79,0,0,0-.788-.79.8.8,0,0,0-.8.791A.794.794,0,0,0,2758.928-1803.016Z" transform="translate(-2749.85 1817.15)" fill="#fff"/>
</svg>
