<svg xmlns="http://www.w3.org/2000/svg" width="62" height="48" viewBox="0 0 62 48">
  <g id="Pm_connect_videos" data-name="Pm connect videos" transform="translate(-135 -108)">
    <rect id="Rectangle_12075" data-name="Rectangle 12075" width="62" height="48" rx="3" transform="translate(135 108)" fill="#2d62ed" opacity="0.1"/>
    <path id="Path_51336" data-name="Path 51336" d="M44.789,13.877H10.081a.876.876,0,0,0-.877.877V36.365a.876.876,0,0,0,.877.877H44.789a.876.876,0,0,0,.877-.877V14.753a.876.876,0,0,0-.877-.877Zm-.877,21.611H10.958V15.63H43.913ZM38.56,41.269a.876.876,0,0,1-.877.877h-20.5a.877.877,0,0,1,0-1.753h20.5a.876.876,0,0,1,.877.877ZM22.864,31.09a.878.878,0,0,0,.877,0l8.265-4.772a.877.877,0,0,0,0-1.519l-8.265-4.771a.877.877,0,0,0-1.315.759v9.543a.877.877,0,0,0,.438.759Zm1.315-8.785,5.635,3.253-5.635,3.253Z" transform="translate(138.795 104.123)" fill="#2d62ed"/>
  </g>
</svg>
