<svg xmlns="http://www.w3.org/2000/svg" width="15.641" height="15.063" viewBox="0 0 15.641 15.063">
  <g id="star_grey" transform="translate(0.4 0.4)">
    <path id="Path_50911" data-name="Path 50911" d="M9.831,4.274l4.334.392c.968.231.9.715.254,1.314L11.376,8.815l.83,4.1c.207.945-.161,1.383-1.083.876L7.48,11.72,3.837,13.795c-.945.507-1.291.069-1.083-.876l.83-4.1L.541,5.98C-.1,5.381-.174,4.9.771,4.666l4.357-.392L6.857.286c.323-.715.922-.715,1.245,0ZM7.48,11.259l3.827,2.19c.645.277.669.254.53-.438l-.876-4.334,3.2-2.974c.392-.369.53-.507-.046-.669L9.554,4.643,7.733.447A.8.8,0,0,0,7.572.194a.108.108,0,0,0-.184,0,.536.536,0,0,0-.161.254L5.4,4.643.841,5.035C.264,5.2.4,5.335.794,5.7L4,8.677l-.876,4.334c-.138.692-.115.715.53.438Z" transform="translate(-0.058 0.25)" fill="#bcc0c7" stroke="#bcc0c7" stroke-width="0.8"/>
  </g>
</svg>
