<svg xmlns="http://www.w3.org/2000/svg" width="22.48" height="25" viewBox="0 0 22.48 25">
  <g id="noun_PDF_1696796" transform="translate(-1 -1)">
    <g id="Layer_2" data-name="Layer 2" transform="translate(1.5 1.5)">
      <g id="Group_46172" data-name="Group 46172">
        <path id="Path_50936" data-name="Path 50936" d="M27.379,14.8V8.473L20.3,1.5H9.74V14.8" transform="translate(-7.82 -1.5)" fill="none" stroke="#171e48" stroke-width="1"/>
        <path id="Path_50937" data-name="Path 50937" d="M9.74,90.48v2.568H27.379V90.48" transform="translate(-7.82 -69.048)" fill="none" stroke="#171e48" stroke-width="1"/>
        <path id="Path_50938" data-name="Path 50938" d="M53.45,1.5V8.331h6.831" transform="translate(-40.721 -1.5)" fill="none" stroke="#171e48" stroke-width="1"/>
        <rect id="Rectangle_11223" data-name="Rectangle 11223" width="21.48" height="7.437" transform="translate(0 13.995)" fill="none" stroke="#171e48" stroke-width="1"/>
        <path id="Path_50939" data-name="Path 50939" d="M27.3,71.573V68.266h1.548a1.067,1.067,0,1,1,0,2.133H28v1.165Zm1.939-2.24a.443.443,0,0,0-.487-.447H28v.893h.748a.445.445,0,0,0,.487-.445Z" transform="translate(-21.082 -52.165)" fill="#171e48"/>
        <path id="Path_50940" data-name="Path 50940" d="M40.58,71.577V68.27h1.3a1.657,1.657,0,1,1,0,3.307Zm2.331-1.65a.97.97,0,0,0-1.037-1.037h-.59v2.067h.6a.991.991,0,0,0,1.037-1.03Z" transform="translate(-31.154 -52.169)" fill="#171e48"/>
        <path id="Path_50941" data-name="Path 50941" d="M55.85,71.577V68.27h2.342v.62H56.561v.7h1.6v.62H56.556v1.368Z" transform="translate(-42.758 -52.169)" fill="#171e48"/>
      </g>
    </g>
  </g>
</svg>
