<svg xmlns="http://www.w3.org/2000/svg" width="11.771" height="15.047" viewBox="0 0 11.771 15.047">
  <g id="delet-grey" transform="translate(0.1 0.1)">
    <path id="Path_50913" data-name="Path 50913" d="M214.959,210.615H204.026a.319.319,0,1,0,0,.639h.757v10.974a1.16,1.16,0,0,0,1.158,1.158h7.1a1.16,1.16,0,0,0,1.158-1.158V211.254h.757a.319.319,0,0,0,0-.639Zm-1.4,11.613a.52.52,0,0,1-.52.52h-7.1a.52.52,0,0,1-.52-.52V211.333h8.142Z" transform="translate(-203.707 -208.539)" fill="#bcc0c7" stroke="#bcc0c7" stroke-width="0.2"/>
    <path id="Path_50914" data-name="Path 50914" d="M253.437,179.336a.319.319,0,0,1-.319-.319.511.511,0,0,0-.511-.511h-3.688a.511.511,0,0,0-.511.511.319.319,0,1,1-.639,0,1.15,1.15,0,0,1,1.149-1.149h3.688a1.15,1.15,0,0,1,1.149,1.149A.319.319,0,0,1,253.437,179.336Z" transform="translate(-244.977 -177.868)" fill="#bcc0c7" stroke="#bcc0c7" stroke-width="0.2"/>
    <path id="Path_50915" data-name="Path 50915" d="M290.281,247.423a.319.319,0,0,1-.319-.319v-8.461a.319.319,0,0,1,.639,0V247.1A.319.319,0,0,1,290.281,247.423Z" transform="translate(-284.496 -234.492)" fill="#bcc0c7" stroke="#bcc0c7" stroke-width="0.2"/>
    <path id="Path_50916" data-name="Path 50916" d="M255.016,247.423a.319.319,0,0,1-.319-.319v-8.461a.319.319,0,0,1,.639,0V247.1A.319.319,0,0,1,255.016,247.423Z" transform="translate(-251.465 -234.492)" fill="#bcc0c7" stroke="#bcc0c7" stroke-width="0.2"/>
    <path id="Path_50917" data-name="Path 50917" d="M325.546,247.423a.319.319,0,0,1-.319-.319v-8.461a.319.319,0,0,1,.639,0V247.1A.319.319,0,0,1,325.546,247.423Z" transform="translate(-317.525 -234.492)" fill="#bcc0c7" stroke="#bcc0c7" stroke-width="0.2"/>
  </g>
</svg>
