<svg xmlns="http://www.w3.org/2000/svg" width="20.183" height="22" viewBox="0 0 20.183 22">
  <path id="notification-blue" d="M28.937,17.582h0A4.849,4.849,0,0,1,27.842,14.5V11.93a7.338,7.338,0,0,0-6.391-7.257H19.618a7.338,7.338,0,0,0-6.391,7.257V14.5a4.849,4.849,0,0,1-1.095,3.081l-1.12,1.375a2.406,2.406,0,0,0,1.859,3.921h3.514a4.2,4.2,0,0,0,8.352,0H28.25a2.406,2.406,0,0,0,1.859-3.921Zm-8.4,7.257a2.355,2.355,0,0,1-2.317-1.986h4.634A2.355,2.355,0,0,1,20.534,24.839Zm8.2-4.125a.54.54,0,0,1-.509.331H12.845a.54.54,0,0,1-.509-.331.562.562,0,0,1,.076-.611l1.12-1.375a6.769,6.769,0,0,0,1.5-4.252V11.93A5.487,5.487,0,0,1,26.009,11.9v2.572a6.769,6.769,0,0,0,1.5,4.252l1.12,1.375A.533.533,0,0,1,28.733,20.714Z" transform="translate(-10.468 -4.673)" fill="#5e70ef"/>
</svg>
