<svg xmlns="http://www.w3.org/2000/svg" width="18" height="18" viewBox="0 0 18 18">
  <path id="search-white" d="M1423.766-1280.333a.9.9,0,0,1-.637-.264l-3.307-3.308a8.038,8.038,0,0,1-5.057,1.771,8.048,8.048,0,0,1-5.728-2.372,8.047,8.047,0,0,1-2.372-5.727,8.047,8.047,0,0,1,2.372-5.728,8.048,8.048,0,0,1,5.728-2.372,8.047,8.047,0,0,1,5.728,2.372,8.047,8.047,0,0,1,2.372,5.728,8.04,8.04,0,0,1-1.77,5.056l3.307,3.307a.9.9,0,0,1,.264.637.9.9,0,0,1-.264.636A.9.9,0,0,1,1423.766-1280.333Zm-9-16.2a6.307,6.307,0,0,0-6.3,6.3,6.307,6.307,0,0,0,6.3,6.3,6.259,6.259,0,0,0,4.455-1.846,6.258,6.258,0,0,0,1.845-4.454A6.307,6.307,0,0,0,1414.766-1296.533Z" transform="translate(-1406.667 1298.333)" fill="#fff"/>
</svg>
