<svg xmlns="http://www.w3.org/2000/svg" width="68.951" height="57.32" viewBox="0 0 68.951 57.32">
  <g id="community" transform="translate(-5.428 -12.947)">
    <g id="Group_61116" data-name="Group 61116" transform="translate(5.428 12.947)">
      <path id="Path_51341" data-name="Path 51341" d="M79.425,54.177h-.007a1.163,1.163,0,0,0-1.13.926,25.133,25.133,0,0,1-9.826,14.92,1.164,1.164,0,0,0-.382,1.45h0a1.163,1.163,0,0,0,1.733.43A27.453,27.453,0,0,0,80.557,55.6,1.165,1.165,0,0,0,79.425,54.177Z" transform="translate(-19.594 -22.286)" fill="#2d62ed"/>
      <path id="Path_51342" data-name="Path 51342" d="M59.006,18.439a1.158,1.158,0,0,0,0-2.008,27.313,27.313,0,0,0-26.417-.154,1.157,1.157,0,0,0-.01,2.013l.008,0a1.156,1.156,0,0,0,1.134.008,25,25,0,0,1,24.133.142,1.155,1.155,0,0,0,1.146,0Z" transform="translate(-11.446 -12.947)" fill="#2d62ed"/>
      <path id="Path_51343" data-name="Path 51343" d="M16.2,54.177h-.008A1.165,1.165,0,0,0,15.063,55.6,27.459,27.459,0,0,0,26.136,72.139a1.165,1.165,0,0,0,1.711-.418l0,0a1.163,1.163,0,0,0-.387-1.481A25.131,25.131,0,0,1,17.331,55.1,1.165,1.165,0,0,0,16.2,54.177Z" transform="translate(-7.604 -22.286)" fill="#2d62ed"/>
      <path id="Path_51344" data-name="Path 51344" d="M55.509,61.113a7.792,7.792,0,1,0-7.791,7.792A7.8,7.8,0,0,0,55.509,61.113Zm-13.263,0a5.472,5.472,0,1,1,5.472,5.472A5.478,5.478,0,0,1,42.246,61.113Z" transform="translate(-13.242 -22.092)" fill="#2d62ed"/>
      <path id="Path_51345" data-name="Path 51345" d="M55.9,83.512a1.094,1.094,0,0,0,1.074.954h.156a1.075,1.075,0,0,0,1.08-1.2,8.849,8.849,0,0,0-8.756-7.64H43.739a8.849,8.849,0,0,0-8.755,7.64,1.075,1.075,0,0,0,1.08,1.2h.156a1.094,1.094,0,0,0,1.074-.954,6.525,6.525,0,0,1,6.445-5.561h5.714A6.525,6.525,0,0,1,55.9,83.512Z" transform="translate(-12.121 -27.146)" fill="#2d62ed"/>
      <path id="Path_51346" data-name="Path 51346" d="M25.963,24.855a7.792,7.792,0,1,0-7.792,7.791A7.8,7.8,0,0,0,25.963,24.855Zm-13.264,0a5.472,5.472,0,1,1,5.472,5.472A5.478,5.478,0,0,1,12.7,24.855Z" transform="translate(-6.549 -13.879)" fill="#2d62ed"/>
      <path id="Path_51347" data-name="Path 51347" d="M5.437,47.013a1.075,1.075,0,0,0,1.08,1.2h.156a1.094,1.094,0,0,0,1.074-.954,6.525,6.525,0,0,1,6.445-5.561h5.714a6.526,6.526,0,0,1,6.446,5.561,1.094,1.094,0,0,0,1.074.954h.156a1.075,1.075,0,0,0,1.08-1.2,8.849,8.849,0,0,0-8.756-7.64H14.193A8.85,8.85,0,0,0,5.437,47.013Z" transform="translate(-5.428 -18.933)" fill="#2d62ed"/>
      <path id="Path_51348" data-name="Path 51348" d="M85.056,24.855a7.792,7.792,0,1,0-7.791,7.791A7.8,7.8,0,0,0,85.056,24.855Zm-13.263,0a5.472,5.472,0,1,1,5.472,5.472A5.478,5.478,0,0,1,71.793,24.855Z" transform="translate(-19.935 -13.879)" fill="#2d62ed"/>
      <path id="Path_51349" data-name="Path 51349" d="M86.676,48.208h0a1.075,1.075,0,0,0,1.08-1.2A8.849,8.849,0,0,0,79,39.373H73.286a8.85,8.85,0,0,0-8.756,7.64,1.074,1.074,0,0,0,1.08,1.2h.155a1.1,1.1,0,0,0,1.074-.954,6.526,6.526,0,0,1,6.446-5.561H79a6.526,6.526,0,0,1,6.446,5.561,1.094,1.094,0,0,0,1.074.954h.155Z" transform="translate(-18.814 -18.933)" fill="#2d62ed"/>
    </g>
  </g>
</svg>
