<svg xmlns="http://www.w3.org/2000/svg" width="19.184" height="11.912" viewBox="0 0 19.184 11.912">
  <g id="Group_39679" data-name="Group 39679" transform="translate(-263.408 -377.001)" opacity="0.5">
    <path id="Path_41732" data-name="Path 41732" d="M20.105-19.182c-4.094,0-7.366,3.139-8.6,4.46a1.442,1.442,0,0,0,0,1.99C12.659-11.5,15.6-8.671,19.343-8.307a8.828,8.828,0,0,0,1.521,0c3.744-.361,6.684-3.183,7.842-4.421a1.442,1.442,0,0,0,.005-1.99c-1.232-1.318-4.508-4.465-8.606-4.465Zm0,2.247a3.219,3.219,0,0,1,3.208,3.208,3.218,3.218,0,0,1-3.208,3.207,3.213,3.213,0,0,1-3.2-3.207A3.214,3.214,0,0,1,20.105-16.935Z" transform="translate(252.894 396.683)" fill="none" stroke="rgba(0,0,0,0.9)" stroke-width="1"/>
  </g>
</svg>
