<svg xmlns="http://www.w3.org/2000/svg" width="308.002" height="55" viewBox="0 0 308.002 55">
  <g id="Group_47413" data-name="Group 47413" transform="translate(-49.998 -39)">
    <g id="Group_45676" data-name="Group 45676" transform="translate(180 39)">
      <text id="PM_Connect" data-name="PM Connect" transform="translate(0 30)" font-size="30" font-family="KhmerMN, Khmer MN"><tspan x="0" y="0">PM CONNECT</tspan></text>
    </g>
    <path id="Fill-399" d="M56.393,16.793a9.31,9.31,0,0,0,2.236,3.277H54.455l-3.138-7.35H45l-3.1,7.35H39.441a10.727,10.727,0,0,0,1.6-2.794L48.362,0h.826ZM51.166,11.15,48.477,5.575,45.837,11.15Zm25.479,5.643a9.31,9.31,0,0,0,2.236,3.277H74.707l-3.138-7.35H65.252l-3.1,7.35H59.694a10.817,10.817,0,0,0,1.6-2.794L68.615,0h.825ZM71.42,11.15,68.728,5.575,66.09,11.15Zm16.357-.465s8.843,9,9.226,9.385H93.094a79.878,79.878,0,0,1-7.533-8.094c-.889-1.088-1.518-1.225-1.924-1.249V16.9a7.29,7.29,0,0,0,.543,3.157H79.947a6.867,6.867,0,0,0,.536-3.157V3.158A6.848,6.848,0,0,0,79.947,0H84.1c2.837,0,9.536-.267,9.536,5.5,0,3.044-2.324,4.684-5.05,5.1Zm-3.565-.693s3.212.2,4.115-.25c.055-.027.082-.038.082-.038l-.008.008a4.127,4.127,0,0,0,2.2-4.107c-.062-1.492-.65-4.737-6.392-4.475ZM13.822,18.069l.036-.172a5.6,5.6,0,0,1-2.576.751H3.61V10.781H11.7l.418-1.543H3.61V1.38h7.251a4.738,4.738,0,0,1,1.758.371c.184.085.382.177.631.284L13.227,0H0A6.985,6.985,0,0,1,.524,3.16V16.907A7.013,7.013,0,0,1,0,20.07H13.552l.284-2Zm20.53,2a12.475,12.475,0,0,0,.036-3.522L33.181,7.091,26.6,20.061H25.339l-6.7-13.555-1.3,10.251a14.365,14.365,0,0,0-.064,3.313H14.924a8.925,8.925,0,0,0,.78-3.158L17.833,0h1.086l7.813,15.783L34.536,0h.816l2.2,16.877a9.56,9.56,0,0,0,.822,3.193Z" transform="translate(49.998 47)" fill-rule="evenodd"/>
    <line id="Line_938" data-name="Line 938" y2="21" transform="translate(163.5 46.5)" fill="none" stroke="#707070" stroke-width="1" opacity="0.2"/>
  </g>
</svg>
