<svg xmlns="http://www.w3.org/2000/svg" width="17.1" height="17.1" viewBox="0 0 17.1 17.1">
  <path id="Dashboard-white" d="M2765.111-1257.416a.473.473,0,0,0,.472-.473v-3.777a.473.473,0,0,0-.472-.472h-3.777a.473.473,0,0,0-.472.472v3.777a.473.473,0,0,0,.472.473h3.777m-9.445,0a.473.473,0,0,0,.472-.473v-3.777a.473.473,0,0,0-.472-.472h-3.777a.473.473,0,0,0-.473.472v3.777a.474.474,0,0,0,.473.473h3.777m9.445-9.445a.473.473,0,0,0,.472-.472v-3.777a.473.473,0,0,0-.472-.472h-3.777a.473.473,0,0,0-.472.472v3.777a.473.473,0,0,0,.472.472h3.777m-9.445,0a.473.473,0,0,0,.472-.472v-3.777a.473.473,0,0,0-.472-.472h-3.777a.473.473,0,0,0-.473.472v3.777a.473.473,0,0,0,.473.472h3.777m9.445,10.862h-3.777a1.889,1.889,0,0,1-1.889-1.89v-3.777a1.889,1.889,0,0,1,1.889-1.889h3.777a1.889,1.889,0,0,1,1.889,1.889v3.777A1.889,1.889,0,0,1,2765.111-1256Zm-9.445,0h-3.777a1.889,1.889,0,0,1-1.89-1.89v-3.777a1.889,1.889,0,0,1,1.89-1.889h3.777a1.889,1.889,0,0,1,1.889,1.889v3.777A1.889,1.889,0,0,1,2755.666-1256Zm9.445-9.445h-3.777a1.888,1.888,0,0,1-1.889-1.889v-3.777a1.888,1.888,0,0,1,1.889-1.889h3.777a1.889,1.889,0,0,1,1.889,1.889v3.777A1.888,1.888,0,0,1,2765.111-1265.445Zm-9.445,0h-3.777a1.888,1.888,0,0,1-1.89-1.889v-3.777a1.889,1.889,0,0,1,1.89-1.889h3.777a1.888,1.888,0,0,1,1.889,1.889v3.777A1.888,1.888,0,0,1,2755.666-1265.445Z" transform="translate(-2749.949 1273.05)" fill="#fff" stroke="#fff" stroke-width="0.1"/>
</svg>
