<svg xmlns="http://www.w3.org/2000/svg" width="107" height="64" viewBox="0 0 107 64">
  <g id="Emarlogo_mobileversion" transform="translate(-34.998 -43.388)">
    <g id="Group_45676" data-name="Group 45676" transform="translate(25.418 69.819)">
      <text id="PM_Connect" data-name="PM Connect" transform="translate(9.58 22.568)" font-size="18" font-family="KhmerMN, Khmer MN"><tspan x="0" y="0">PM CONNECT</tspan></text>
    </g>
    <path id="Fill-399" d="M55.228,15.061A8.369,8.369,0,0,0,57.418,18H53.33l-3.073-6.592H44.074L41.039,18H38.626a9.454,9.454,0,0,0,1.57-2.506L47.363,0h.809ZM50.11,10,47.476,5,44.89,10Zm24.953,5.061A8.369,8.369,0,0,0,77.253,18H73.165l-3.074-6.592H63.9L60.872,18H58.462a9.532,9.532,0,0,0,1.568-2.506L67.2,0h.808ZM69.945,10,67.309,5l-2.584,5Zm16.019-.417L95,18H91.172a74.657,74.657,0,0,1-7.377-7.259,2.64,2.64,0,0,0-1.884-1.12v5.536a6.046,6.046,0,0,0,.531,2.831H78.3a5.7,5.7,0,0,0,.525-2.831V2.833A5.679,5.679,0,0,0,78.3,0h4.068C85.143,0,91.7-.238,91.7,4.934c0,2.73-2.276,4.2-4.945,4.574Zm-3.492-.622s3.146.177,4.03-.224c.054-.024.081-.034.081-.034l-.008.007a3.637,3.637,0,0,0,2.157-3.683c-.061-1.338-.637-4.248-6.26-4.014ZM13.537,16.2l.035-.155a5.84,5.84,0,0,1-2.523.674H3.536V9.669h7.921l.41-1.383H3.536V1.238h7.1a5.007,5.007,0,0,1,1.722.333c.18.077.374.158.618.255L12.954,0H0A5.791,5.791,0,0,1,.513,2.834v12.33A5.814,5.814,0,0,1,0,18H13.272l.278-1.8ZM33.643,18a10.256,10.256,0,0,0,.035-3.159L32.5,6.36,26.048,17.992H24.816L18.259,5.835l-1.273,9.194A11.807,11.807,0,0,0,16.923,18H14.615a7.47,7.47,0,0,0,.764-2.832L17.464,0h1.064l7.651,14.155L33.823,0h.8l2.156,15.136a8.011,8.011,0,0,0,.8,2.864Z" transform="translate(41.999 43.388)" fill-rule="evenodd"/>
  </g>
</svg>
