<svg xmlns="http://www.w3.org/2000/svg" width="18.107" height="18.1" viewBox="0 0 18.107 18.1">
  <path id="Request-white" d="M24699.377,17433a3.378,3.378,0,0,1-3.381-3.373v-11.252a3.374,3.374,0,0,1,3.381-3.373h11.246a3.374,3.374,0,0,1,3.379,3.373v8.07a2.256,2.256,0,0,1-.662,1.588l-4.3,4.311a2.246,2.246,0,0,1-1.594.656Zm-2.252-14.625v11.252a2.246,2.246,0,0,0,2.252,2.244h7.871v-3.373a2.251,2.251,0,0,1,2.252-2.246h3.373v-7.877a2.249,2.249,0,0,0-2.25-2.25h-11.246A2.251,2.251,0,0,0,24697.125,17418.375Zm11.252,10.123v2.908l4.031-4.031h-2.908A1.122,1.122,0,0,0,24708.377,17428.5Zm-6.879-4.564a.5.5,0,0,1,0-1h7a.5.5,0,0,1,0,1Zm0-3.4a.5.5,0,0,1,0-1h7a.5.5,0,0,1,0,1Z" transform="translate(-24695.945 -17414.951)" fill="#fff" stroke="#fff" stroke-width="0.1"/>
</svg>
