<svg xmlns="http://www.w3.org/2000/svg" width="22.002" height="22.004" viewBox="0 0 22.002 22.004">
  <path id="Union_156" data-name="Union 156" d="M24700.125,17437a4.128,4.128,0,0,1-4.125-4.127v-13.752a4.126,4.126,0,0,1,4.125-4.125h13.752a4.126,4.126,0,0,1,4.125,4.125v9.863a2.752,2.752,0,0,1-.8,1.941l-5.268,5.268a2.761,2.761,0,0,1-1.941.807Zm-2.748-17.879v13.752a2.751,2.751,0,0,0,2.748,2.75h9.627v-4.127a2.746,2.746,0,0,1,2.748-2.748h4.125v-9.627a2.753,2.753,0,0,0-2.748-2.748h-13.752A2.749,2.749,0,0,0,24697.377,17419.123Zm13.746,12.375v3.555l4.932-4.926h-3.555A1.374,1.374,0,0,0,24711.123,17431.5Zm-8.5-5.445a.627.627,0,0,1,0-1.254h8.752a.627.627,0,0,1,0,1.254Zm0-4.2a.626.626,0,1,1,0-1.252h8.752a.626.626,0,0,1,0,1.252Z" transform="translate(-24696 -17414.998)" fill="#5e70ef"/>
</svg>
