<svg xmlns="http://www.w3.org/2000/svg" width="296.525" height="202.42" viewBox="0 0 296.525 202.42">
  <g id="time_managment" data-name="time managment" transform="translate(-150.7 -67.2)">
    <g id="backfround" transform="translate(150.7 67.2)">
      <g id="Group_61848" data-name="Group 61848" transform="translate(11.897 151.854)">
        <g id="Group_61847" data-name="Group 61847">
          <path id="Path_51801" data-name="Path 51801" d="M207.98,793.928c.564,1.673-.042,3.345-.293,5a5.3,5.3,0,0,0,.732,3.847,6.884,6.884,0,0,1,1.171,2.091c.209.962-.5,1.631-.815,2.467s-.1,2.028.941,2.174a4.88,4.88,0,0,0-.146-.523,1.492,1.492,0,0,0-.188,1.9c.335.46,1.045.5,1.234,1.108a4.506,4.506,0,0,1-.23,1.965c-.4,2.446,1.087,4.579,2.843,6.1,2.049,1.8,4.307,3.261,6.147,5.289a27.937,27.937,0,0,1,4.7,7.129c.167.356.711.042.544-.314a28.9,28.9,0,0,0-8.844-10.892c-2.112-1.589-4.746-3.471-4.85-6.4-.021-.941.439-1.882.314-2.823a1.484,1.484,0,0,0-.335-.815c-.46-.544-1.819-.878-.92-1.84a.316.316,0,0,0-.146-.523c-1.422-.209-.125-2.007.1-2.572a2.53,2.53,0,0,0,.251-1.3c-.1-1.192-1.066-2.091-1.589-3.115-1.338-2.592.857-5.478-.063-8.175-.084-.334-.69-.167-.564.209Z" transform="translate(-207.604 -793.539)" fill="#e8e8e8"/>
        </g>
      </g>
      <g id="Group_61850" data-name="Group 61850" transform="translate(12.546 152.274)">
        <g id="Group_61849" data-name="Group 61849">
          <path id="Path_51802" data-name="Path 51802" d="M210.873,796.124c14.4,6.377,17.938,23.29,20.447,37.214.063.4.669.23.606-.167-2.07-11.561-4.474-24.022-13.276-32.531a25.2,25.2,0,0,0-7.464-5.059c-.355-.167-.69.376-.314.544Z" transform="translate(-210.708 -795.549)" fill="#e8e8e8"/>
        </g>
      </g>
      <g id="Group_61852" data-name="Group 61852" transform="translate(13.682 153.748)">
        <g id="Group_61851" data-name="Group 61851">
          <path id="Path_51803" data-name="Path 51803" d="M216.217,803.163a84.867,84.867,0,0,1,15.973,33.3c.084.4.69.23.606-.167a85.639,85.639,0,0,0-16.119-33.6c-.272-.314-.711.146-.46.46Z" transform="translate(-216.143 -802.598)" fill="#e8e8e8"/>
        </g>
      </g>
      <g id="Group_61854" data-name="Group 61854" transform="translate(15.281 164.212)">
        <g id="Group_61853" data-name="Group 61853">
          <path id="Path_51804" data-name="Path 51804" d="M223.96,853.224a20.831,20.831,0,0,1,10.265,10.244c.167.376.711.042.544-.314a21.281,21.281,0,0,0-10.474-10.474c-.4-.167-.711.376-.334.544Z" transform="translate(-223.791 -852.649)" fill="#e8e8e8"/>
        </g>
      </g>
      <g id="Group_61856" data-name="Group 61856" transform="translate(30.236 146.606)">
        <g id="Group_61855" data-name="Group 61855">
          <path id="Path_51805" data-name="Path 51805" d="M296.153,798.076c-1.38-5.958,3.345-10.767,6.272-15.366a36.429,36.429,0,0,0,3.512-7.129c.439-1.213.753-2.467,1.129-3.7.355-1.171.836-2.488,2.112-2.843-.125-.042-.23-.1-.355-.146a5.447,5.447,0,0,1,.627,3.031c-.063.669-.564,1.4-.5,2.028a8.7,8.7,0,0,0,.5,1.338,8.9,8.9,0,0,1,.314,1.443,12.4,12.4,0,0,1,.125,1.756,9.377,9.377,0,0,0-.146,1.965c-.167-.355-.627-.084-.564.251a105.026,105.026,0,0,1,1.631,10.746c.209,3.6-1.233,6.648-3.052,9.659-3.22,5.331-6.648,11.018-6,17.52.042.4.669.4.627,0-.711-7.129,3.554-12.858,6.836-18.753a15.274,15.274,0,0,0,2.2-8.823c-.272-3.512-1.066-7.025-1.631-10.516l-.565.251.063.125a.283.283,0,0,0,.272.146c.774.021.857-.857.92-1.443a11.367,11.367,0,0,0-.335-4.286,4.732,4.732,0,0,1-.439-1.652c.063-.5.335-1.024.4-1.568a6.021,6.021,0,0,0-.69-3.512.309.309,0,0,0-.355-.146c-2.153.627-2.488,3.178-3.032,5.017a35.382,35.382,0,0,1-4.1,8.948c-3.052,4.788-7.777,9.659-6.335,15.847.063.376.669.209.565-.188Z" transform="translate(-295.322 -768.438)" fill="#e8e8e8"/>
        </g>
      </g>
      <g id="Group_61858" data-name="Group 61858" transform="translate(33.847 152.008)">
        <g id="Group_61857" data-name="Group 61857">
          <path id="Path_51806" data-name="Path 51806" d="M321.442,794.573c-.355,6.314-2.906,12.147-4.976,18.022a71.089,71.089,0,0,0-3.868,18.4c-.021.4.606.4.627,0a72.493,72.493,0,0,1,4.1-18.942c2.028-5.708,4.39-11.373,4.746-17.478.021-.4-.606-.4-.627,0Z" transform="translate(-312.598 -794.275)" fill="#e8e8e8"/>
        </g>
      </g>
      <g id="Group_61860" data-name="Group 61860" transform="translate(33.825 166.373)">
        <g id="Group_61859" data-name="Group 61859">
          <path id="Path_51807" data-name="Path 51807" d="M312.492,863.283a24.056,24.056,0,0,0,2.342,8.216c.188.356.711.042.544-.314a23.2,23.2,0,0,1-2.258-7.882c-.042-.418-.669-.418-.627-.021Z" transform="translate(-312.49 -862.987)" fill="#e8e8e8"/>
        </g>
      </g>
      <g id="Group_61862" data-name="Group 61862" transform="translate(38.263 164.1)">
        <g id="Group_61861" data-name="Group 61861">
          <path id="Path_51808" data-name="Path 51808" d="M334.2,857.674a18.235,18.235,0,0,0,5.478-5.1c.23-.334-.314-.648-.544-.314a17.253,17.253,0,0,1-5.268,4.871.32.32,0,0,0,.335.544Z" transform="translate(-333.719 -852.116)" fill="#e8e8e8"/>
        </g>
      </g>
      <g id="Group_61864" data-name="Group 61864" transform="translate(27.537 188.652)">
        <g id="Group_61863" data-name="Group 61863">
          <path id="Path_51809" data-name="Path 51809" d="M282.452,970.022a21.866,21.866,0,0,1,2.488,7.965c.042.4.669.4.627,0A23.157,23.157,0,0,0,283,969.709c-.188-.355-.732-.042-.544.314Z" transform="translate(-282.413 -969.552)" fill="#e8e8e8"/>
        </g>
      </g>
      <g id="Group_61866" data-name="Group 61866" transform="translate(32.816 188.331)">
        <g id="Group_61865" data-name="Group 61865">
          <path id="Path_51810" data-name="Path 51810" d="M307.67,968.408a42.631,42.631,0,0,1,.857,7.819.314.314,0,0,0,.627,0,42.651,42.651,0,0,0-.878-7.986c-.084-.4-.69-.23-.606.167Z" transform="translate(-307.662 -968.014)" fill="#e8e8e8"/>
        </g>
      </g>
      <g id="Group_61868" data-name="Group 61868" transform="translate(242.037 170.809)">
        <g id="Group_61867" data-name="Group 61867">
          <path id="Path_51811" data-name="Path 51811" d="M1309.215,884.436a18.755,18.755,0,0,0-.774,2.613,1.157,1.157,0,0,0,.146.983,1.822,1.822,0,0,0,1.212.46q1.411.251,2.823.439a88.127,88.127,0,0,0,10.224.711c3.533.063,7.066-.042,10.621-.167a21.259,21.259,0,0,0,2.843-.1c.251-.042.523-.042.69-.272.376-.481-.146-.9-.627-.648a.339.339,0,0,0-.146.355c.021.021.021.063.042.084.146.376.753.209.606-.167-.021-.021-.021-.063-.042-.083-.042.125-.1.23-.146.355l-.376-.251c-.209,0-.4.021-.606.021-.334.021-.669.021-1.024.042l-1.84.063c-1.234.042-2.446.084-3.679.1-2.593.063-5.164.084-7.757,0-2.509-.063-5.017-.23-7.505-.523q-1.976-.22-3.951-.565c-.857-.146-.962-.523-.732-1.338.188-.648.4-1.317.585-1.965.125-.376-.481-.544-.585-.146Z" transform="translate(-1308.4 -884.207)" fill="#e8e8e8"/>
        </g>
      </g>
      <g id="Group_61870" data-name="Group 61870" transform="translate(242.782 169.828)">
        <g id="Group_61869" data-name="Group 61869">
          <path id="Path_51812" data-name="Path 51812" d="M1312.618,881.056c.335-1.024,2.634-.774,3.45-.794,1.15-.042,2.321-.084,3.471-.1,2.446-.042,4.892-.042,7.359.042,2.383.063,4.767.188,7.129.376a23.508,23.508,0,0,1,3.45.314c1.129.272,1.129.815,1.3,1.714l.376,1.944c.084.4.69.23.606-.167-.146-.774-.314-1.568-.46-2.341a2.393,2.393,0,0,0-.5-1.338c-.669-.669-2.112-.5-2.969-.585-3.053-.272-6.1-.46-9.178-.544-2.99-.084-6-.084-8.99.021-1.317.042-2.676.021-3.993.188a1.809,1.809,0,0,0-1.693,1.129c-.084.376.523.523.648.146Z" transform="translate(-1311.962 -879.511)" fill="#e8e8e8"/>
        </g>
      </g>
      <g id="Group_61872" data-name="Group 61872" transform="translate(244.036 174.449)">
        <g id="Group_61871" data-name="Group 61871">
          <path id="Path_51813" data-name="Path 51813" d="M1317.97,902.008a150.4,150.4,0,0,1,1.965,15.283.322.322,0,0,0,.314.314,136.1,136.1,0,0,0,18.461.439c.4-.021.4-.648,0-.627a135.976,135.976,0,0,1-18.461-.439l.314.314a147.964,147.964,0,0,0-1.986-15.45c-.084-.4-.69-.23-.606.167Z" transform="translate(-1317.962 -901.614)" fill="#e8e8e8"/>
        </g>
      </g>
      <g id="Group_61874" data-name="Group 61874" transform="translate(265.085 175.87)">
        <g id="Group_61873" data-name="Group 61873">
          <path id="Path_51814" data-name="Path 51814" d="M1421.748,908.641c-.836,4.767-1.86,9.513-3.094,14.2a.315.315,0,0,0,.606.167c1.213-4.683,2.258-9.429,3.094-14.2.063-.4-.544-.564-.606-.167Z" transform="translate(-1418.642 -908.414)" fill="#e8e8e8"/>
        </g>
      </g>
      <g id="Group_61876" data-name="Group 61876" transform="translate(229.936 136.857)">
        <g id="Group_61875" data-name="Group 61875">
          <path id="Path_51815" data-name="Path 51815" d="M1250.536,722.182a62.977,62.977,0,0,1,3.031,11.5.3.3,0,0,0,.209.209c.669.188,1.338.376,1.986.564-.063-.125-.146-.251-.209-.376-.376,1.714-.544,3.575,1.066,4.662.522.355,1.066.564,1.192,1.254.083.5.042,1,.146,1.505a7.678,7.678,0,0,0,1.275,2.969c1.4,1.944,3.6,2.781,5.561,4.014a13.919,13.919,0,0,1,5,5.666c.167.355.711.042.544-.314a14.4,14.4,0,0,0-3.847-4.892c-1.8-1.464-4.119-2.216-5.812-3.784a7.106,7.106,0,0,1-1.923-3.052,6.623,6.623,0,0,1-.313-1.8,2.134,2.134,0,0,0-.1-.9c-.355-.794-1.38-1.024-1.923-1.652-.815-.941-.5-2.4-.272-3.512a.3.3,0,0,0-.209-.376,6.345,6.345,0,0,1-1.589-.439c-.419-.314-.4-1.15-.481-1.652-.209-1.108-.46-2.2-.732-3.3a61.886,61.886,0,0,0-1.986-6.439c-.125-.4-.732-.23-.606.146Z" transform="translate(-1250.519 -721.807)" fill="#e8e8e8"/>
        </g>
      </g>
      <g id="Group_61878" data-name="Group 61878" transform="translate(230.395 136.629)">
        <g id="Group_61877" data-name="Group 61877">
          <path id="Path_51816" data-name="Path 51816" d="M1252.941,721.342a29.069,29.069,0,0,1,17.039,13.548c.188.355.732.042.544-.314a29.594,29.594,0,0,0-17.415-13.84.314.314,0,0,0-.167.606Z" transform="translate(-1252.714 -720.719)" fill="#e8e8e8"/>
        </g>
      </g>
      <g id="Group_61880" data-name="Group 61880" transform="translate(246.853 149.445)">
        <g id="Group_61879" data-name="Group 61879">
          <path id="Path_51817" data-name="Path 51817" d="M1331.49,782.473a48.982,48.982,0,0,1,7.631,19.088c.063.4.669.23.606-.167a49.416,49.416,0,0,0-7.693-19.234c-.23-.334-.774-.021-.544.314Z" transform="translate(-1331.434 -782.016)" fill="#e8e8e8"/>
        </g>
      </g>
      <g id="Group_61882" data-name="Group 61882" transform="translate(231.906 138.484)">
        <g id="Group_61881" data-name="Group 61881">
          <path id="Path_51818" data-name="Path 51818" d="M1260.036,730.116A108.778,108.778,0,0,1,1279.9,757.9c.188.356.732.042.544-.314a109.214,109.214,0,0,0-19.945-27.91c-.314-.272-.753.167-.46.439Z" transform="translate(-1259.94 -729.591)" fill="#e8e8e8"/>
        </g>
      </g>
      <g id="Group_61884" data-name="Group 61884" transform="translate(233.343 145.736)">
        <g id="Group_61883" data-name="Group 61883">
          <path id="Path_51819" data-name="Path 51819" d="M1266.959,764.866a49.625,49.625,0,0,1,13.8,12.356c.251.314.794,0,.544-.314a49.8,49.8,0,0,0-14.029-12.586c-.334-.209-.648.335-.313.544Z" transform="translate(-1266.816 -764.275)" fill="#e8e8e8"/>
        </g>
      </g>
      <g id="Group_61886" data-name="Group 61886" transform="translate(238.764 140.323)">
        <g id="Group_61885" data-name="Group 61885">
          <path id="Path_51820" data-name="Path 51820" d="M1292.777,738.871a30.651,30.651,0,0,1,2.592,9.324c.042.4.669.4.627,0a31.657,31.657,0,0,0-2.676-9.638c-.188-.376-.711-.063-.543.314Z" transform="translate(-1292.745 -738.387)" fill="#e8e8e8"/>
        </g>
      </g>
      <g id="Group_61888" data-name="Group 61888" transform="translate(252.7 126.19)">
        <g id="Group_61887" data-name="Group 61887">
          <path id="Path_51821" data-name="Path 51821" d="M1360.093,705.306c-.585-13.924,12.648-22.83,18.67-34.015-.188-.063-.4-.1-.586-.167,0,1.756-.021,3.512-.021,5.269,0,.815,0,1.631-.021,2.425,0,.836.313,3.68-1.359,3.157a.318.318,0,0,0-.356.46,5.009,5.009,0,0,1,.523,4.516,6.18,6.18,0,0,0-.648,1.8c-.084.878-.167,1.777-.251,2.655-.167,1.777-.355,3.533-.523,5.31a27.916,27.916,0,0,1-.627,5.122c-.46,1.589-1.777,2.488-3.157,3.262a32.638,32.638,0,0,0-3.533,2.258,8.507,8.507,0,0,0-3.638,6.711.314.314,0,0,0,.627,0c-.084-3.638,2.843-6.084,5.708-7.777a16.545,16.545,0,0,0,3.366-2.237,5.492,5.492,0,0,0,1.463-3.387c.46-3.638.711-7.3,1.066-10.934a6.551,6.551,0,0,1,.585-2.279,6.467,6.467,0,0,0,.46-1.652,5.525,5.525,0,0,0-.9-3.7c-.125.146-.23.314-.355.46,2.049.669,2.133-2.07,2.133-3.345.021-2.7.021-5.394.042-8.112a.318.318,0,0,0-.586-.167c-6.084,11.29-19.36,20.238-18.753,34.329.042.439.669.439.669.042Z" transform="translate(-1359.404 -670.786)" fill="#e8e8e8"/>
        </g>
      </g>
      <g id="Group_61890" data-name="Group 61890" transform="translate(255.772 132.183)">
        <g id="Group_61889" data-name="Group 61889">
          <path id="Path_51822" data-name="Path 51822" d="M1388.608,699.606c-3.178,5.352-6.356,10.7-9.116,16.286-1.338,2.7-2.551,5.436-3.638,8.237a21.293,21.293,0,0,0-1.735,8.718c.021.4.648.4.627,0a21.292,21.292,0,0,1,1.84-8.927c1.108-2.864,2.383-5.687,3.763-8.425,2.676-5.331,5.728-10.474,8.76-15.6.251-.335-.292-.648-.5-.293Z" transform="translate(-1374.098 -699.449)" fill="#e8e8e8"/>
        </g>
      </g>
      <g id="Group_61892" data-name="Group 61892" transform="translate(257.54 147.604)">
        <g id="Group_61891" data-name="Group 61891">
          <path id="Path_51823" data-name="Path 51823" d="M1383.021,773.441a18.138,18.138,0,0,0-.293,6.628c.063.4.669.23.606-.167a17.217,17.217,0,0,1,.293-6.293c.083-.4-.522-.565-.606-.167Z" transform="translate(-1382.551 -773.214)" fill="#e8e8e8"/>
        </g>
      </g>
      <g id="Group_61894" data-name="Group 61894" transform="translate(263.97 136.879)">
        <g id="Group_61893" data-name="Group 61893">
          <path id="Path_51824" data-name="Path 51824" d="M1413.515,722.141a13.676,13.676,0,0,0,.125,5.373c.084.4.69.23.607-.167a12.773,12.773,0,0,1-.125-5.039c.063-.4-.523-.565-.606-.167Z" transform="translate(-1413.307 -721.914)" fill="#e8e8e8"/>
        </g>
      </g>
      <g id="Group_61896" data-name="Group 61896" transform="translate(264.701 138.427)">
        <g id="Group_61895" data-name="Group 61895">
          <path id="Path_51825" data-name="Path 51825" d="M1421.84,742.882a68.53,68.53,0,0,0,8.739-13.067,5.215,5.215,0,0,1-.564-.084,24.041,24.041,0,0,1,.042,11.875c-.418,1.9-.962,3.784-1.547,5.645-.272.857-.564,1.714-.857,2.592-.313.941-.606,2.279-1.756,2.488a.291.291,0,0,0-.23.293,7.979,7.979,0,0,1-.586,3.2c-.606,1.254-1.819,1.589-3.073,1.944-1.882.523-3.805,1.066-5.122,2.593-.272.293.189.753.439.439a7.167,7.167,0,0,1,3.45-2.028,17.293,17.293,0,0,0,3.387-1.087c1.8-1,2.028-3.22,2.112-5.06a3.533,3.533,0,0,1-.23.293c1.631-.272,2.007-2.362,2.446-3.659a68.9,68.9,0,0,0,1.986-6.732,25.541,25.541,0,0,0,.125-12.983.315.315,0,0,0-.565-.083A66.177,66.177,0,0,1,1421.4,742.4c-.272.355.167.794.439.481Z" transform="translate(-1416.802 -729.318)" fill="#e8e8e8"/>
        </g>
      </g>
      <g id="Group_61898" data-name="Group 61898" transform="translate(260.956 145.152)">
        <g id="Group_61897" data-name="Group 61897">
          <path id="Path_51826" data-name="Path 51826" d="M1414.615,761.7a37.9,37.9,0,0,1-7.882,13.882c-2.906,3.22-7.359,6.021-7.84,10.725-.042.4.585.4.627,0,.251-2.572,1.923-4.558,3.68-6.314a71.155,71.155,0,0,0,5.08-5.268,38.344,38.344,0,0,0,6.92-12.858c.146-.376-.46-.544-.585-.167Z" transform="translate(-1398.891 -761.485)" fill="#e8e8e8"/>
        </g>
      </g>
      <g id="Group_61900" data-name="Group 61900" transform="translate(194.607 40.88)">
        <g id="Group_61899" data-name="Group 61899">
          <path id="Path_51827" data-name="Path 51827" d="M1092.838,263.043a65.591,65.591,0,0,1-11.248,29.5c-.23.334.314.648.543.314a66.334,66.334,0,0,0,11.332-29.813c.042-.418-.585-.4-.627,0Z" transform="translate(-1081.534 -262.737)" fill="#e8e8e8"/>
        </g>
      </g>
      <g id="Group_61902" data-name="Group 61902" transform="translate(205.717 40.724)">
        <g id="Group_61901" data-name="Group 61901">
          <path id="Path_51828" data-name="Path 51828" d="M1134.973,262.62a114.769,114.769,0,0,0,27.7.146c.4-.042.4-.669,0-.627a114.769,114.769,0,0,1-27.7-.146c-.4-.042-.4.585,0,.627Z" transform="translate(-1134.675 -261.99)" fill="#e8e8e8"/>
        </g>
      </g>
      <g id="Group_61904" data-name="Group 61904" transform="translate(229.621 41.482)">
        <g id="Group_61903" data-name="Group 61903">
          <path id="Path_51829" data-name="Path 51829" d="M1253.129,266.008a50.771,50.771,0,0,1-4.077,32.844c-.188.355.356.669.544.314a51.378,51.378,0,0,0,4.139-33.325c-.083-.4-.69-.23-.606.167Z" transform="translate(-1249.013 -265.614)" fill="#e8e8e8"/>
        </g>
      </g>
      <g id="Group_61906" data-name="Group 61906" transform="translate(194.848 70.621)">
        <g id="Group_61905" data-name="Group 61905">
          <path id="Path_51830" data-name="Path 51830" d="M1082.9,405.621c11.06,4.1,23.019,3.91,34.642,3.68a.314.314,0,0,0,0-.627c-11.561.23-23.457.418-34.475-3.659-.376-.146-.543.46-.167.606Z" transform="translate(-1082.685 -404.992)" fill="#e8e8e8"/>
        </g>
      </g>
      <g id="Group_61908" data-name="Group 61908" transform="translate(235.072 49.986)">
        <g id="Group_61907" data-name="Group 61907">
          <path id="Path_51831" data-name="Path 51831" d="M1275.465,310.976a59.034,59.034,0,0,1,16.5-4.056l-.314-.314a32.245,32.245,0,0,0,9.074,21.68c.272.293.731-.146.439-.439a31.512,31.512,0,0,1-8.885-21.241.308.308,0,0,0-.313-.314,60.2,60.2,0,0,0-16.663,4.077c-.376.167-.209.774.167.606Z" transform="translate(-1275.085 -306.292)" fill="#e8e8e8"/>
        </g>
      </g>
      <g id="Group_61910" data-name="Group 61910" transform="translate(224.003 74.994)">
        <g id="Group_61909" data-name="Group 61909">
          <path id="Path_51832" data-name="Path 51832" d="M1222.153,426.282c.836,2.864,1.735,5.728,2.8,8.509a14.157,14.157,0,0,0,3.826,5.979c.314.251.753-.188.439-.439a14.36,14.36,0,0,1-3.889-6.314c-.941-2.592-1.777-5.227-2.572-7.882a.312.312,0,0,0-.606.146Z" transform="translate(-1222.141 -425.907)" fill="#e8e8e8"/>
        </g>
      </g>
      <g id="Group_61912" data-name="Group 61912" transform="translate(230.876 72.41)">
        <g id="Group_61911" data-name="Group 61911">
          <path id="Path_51833" data-name="Path 51833" d="M1255.473,431.038a189.6,189.6,0,0,1,29.98-16.914c.376-.167.042-.711-.314-.544a187.056,187.056,0,0,0-29.98,16.914c-.335.23-.021.774.313.544Z" transform="translate(-1255.016 -413.549)" fill="#e8e8e8"/>
        </g>
      </g>
      <g id="Group_61914" data-name="Group 61914" transform="translate(207.599 43.442)">
        <g id="Group_61913" data-name="Group 61913">
          <path id="Path_51834" data-name="Path 51834" d="M1143.973,275.62q11.6,1.443,23.29,2.049c.4.021.4-.606,0-.627q-11.7-.6-23.29-2.049c-.4-.042-.4.585,0,.627Z" transform="translate(-1143.675 -274.99)" fill="#e8e8e8"/>
        </g>
      </g>
      <g id="Group_61916" data-name="Group 61916" transform="translate(207.586 46.575)">
        <g id="Group_61915" data-name="Group 61915">
          <path id="Path_51835" data-name="Path 51835" d="M1143.759,290.566c1.066.648,2.509.544,3.7.627l5.143.376c.4.021.4-.606,0-.627l-4.328-.314c-1.3-.1-3.073.084-4.2-.606-.335-.209-.648.334-.314.544Z" transform="translate(-1143.616 -289.975)" fill="#e8e8e8"/>
        </g>
      </g>
      <g id="Group_61918" data-name="Group 61918" transform="translate(206.344 49.653)">
        <g id="Group_61917" data-name="Group 61917">
          <path id="Path_51836" data-name="Path 51836" d="M1137.973,305.325l11.645.815c3.721.251,7.589.836,11.31.46.4-.042.4-.669,0-.627-3.721.376-7.589-.188-11.31-.46l-11.645-.815c-.4-.021-.4.606,0,.627Z" transform="translate(-1137.675 -304.698)" fill="#e8e8e8"/>
        </g>
      </g>
      <g id="Group_61920" data-name="Group 61920" transform="translate(205.725 54.91)">
        <g id="Group_61919" data-name="Group 61919">
          <path id="Path_51837" data-name="Path 51837" d="M1134.941,330.482a31.781,31.781,0,0,0,10.516,1.15c3.909-.021,7.8-.063,11.708-.1a.314.314,0,0,0,0-.627c-3.784.021-7.547.063-11.331.084-3.617.021-7.255.021-10.725-1.129a.325.325,0,0,0-.167.627Z" transform="translate(-1134.714 -329.842)" fill="#e8e8e8"/>
        </g>
      </g>
      <g id="Group_61922" data-name="Group 61922" transform="translate(201.618 64.722)">
        <g id="Group_61921" data-name="Group 61921">
          <path id="Path_51838" data-name="Path 51838" d="M1115.095,377.073c0,.669-.063,1.38,0,2.07.042.335.188.669.586.69.481.021.857-.523,1.15-.815.481-.5.92-1.024,1.359-1.547.251-.314-.188-.753-.439-.439a18.131,18.131,0,0,1-1.693,1.882,1.87,1.87,0,0,1-.209.188c-.125.125-.167.1-.125-.084a1.836,1.836,0,0,1,0-.585v-1.359a.314.314,0,0,0-.627,0Z" transform="translate(-1115.067 -376.775)" fill="#e8e8e8"/>
        </g>
      </g>
      <g id="Group_61924" data-name="Group 61924" transform="translate(206.478 59.597)">
        <g id="Group_61923" data-name="Group 61923">
          <path id="Path_51839" data-name="Path 51839" d="M1138.541,352.876a74.954,74.954,0,0,0,20.488,1.505c.4-.021.4-.648,0-.627a74.5,74.5,0,0,1-20.321-1.484c-.4-.084-.564.523-.167.606Z" transform="translate(-1138.314 -352.262)" fill="#e8e8e8"/>
        </g>
      </g>
      <g id="Group_61926" data-name="Group 61926" transform="translate(231.1 69.689)">
        <g id="Group_61925" data-name="Group 61925">
          <path id="Path_51840" data-name="Path 51840" d="M1256.465,413.134a116.9,116.9,0,0,0,23.98-12c.335-.23.021-.774-.314-.544a114.5,114.5,0,0,1-23.833,11.938c-.376.146-.209.753.167.606Z" transform="translate(-1256.085 -400.534)" fill="#e8e8e8"/>
        </g>
      </g>
      <g id="Group_61928" data-name="Group 61928" transform="translate(229.15 71.204)">
        <g id="Group_61927" data-name="Group 61927">
          <path id="Path_51841" data-name="Path 51841" d="M1247.142,414.953a159.324,159.324,0,0,0,18.4-6.607c.376-.167.042-.69-.314-.544a152.979,152.979,0,0,1-18.252,6.544c-.376.125-.23.732.167.606Z" transform="translate(-1246.757 -407.778)" fill="#e8e8e8"/>
        </g>
      </g>
      <g id="Group_61930" data-name="Group 61930" transform="translate(231.888 63.773)">
        <g id="Group_61929" data-name="Group 61929">
          <path id="Path_51842" data-name="Path 51842" d="M1260.221,381.823c3.575-1.484,7.15-2.99,10.725-4.474,3.136-1.317,6.356-2.509,9.136-4.516.314-.23.021-.774-.314-.544-2.843,2.049-6.167,3.282-9.366,4.62l-10.349,4.328c-.356.146-.188.753.167.585Z" transform="translate(-1259.857 -372.234)" fill="#e8e8e8"/>
        </g>
      </g>
      <g id="Group_61932" data-name="Group 61932" transform="translate(234.779 64.412)">
        <g id="Group_61931" data-name="Group 61931">
          <path id="Path_51843" data-name="Path 51843" d="M1274.065,377.844c1.547-.648,3.115-1.275,4.662-1.923.376-.146.209-.753-.167-.606-1.547.648-3.115,1.275-4.662,1.923-.376.146-.209.753.167.606Z" transform="translate(-1273.686 -375.292)" fill="#e8e8e8"/>
        </g>
      </g>
      <g id="Group_61934" data-name="Group 61934" transform="translate(235.702 53.942)">
        <g id="Group_61933" data-name="Group 61933">
          <path id="Path_51844" data-name="Path 51844" d="M1278.414,330.124c2.07.063,4.16-.941,6.063-1.693q2.979-1.192,5.833-2.634c.355-.188.042-.732-.314-.544-1.86.941-3.742,1.8-5.687,2.572-1.819.732-3.889,1.735-5.9,1.672-.418-.021-.418.606,0,.627Z" transform="translate(-1278.1 -325.213)" fill="#e8e8e8"/>
        </g>
      </g>
      <g id="Group_61936" data-name="Group 61936" transform="translate(198.441 74.572)">
        <g id="Group_61935" data-name="Group 61935">
          <path id="Path_51845" data-name="Path 51845" d="M1111.483,424.1a53.219,53.219,0,0,1-11.52,19.652.322.322,0,0,0,.23.544c9.659.314,18.607,4.37,27.2,8.467.355.167.69-.376.314-.544-8.7-4.14-17.729-8.216-27.513-8.551.084.188.146.355.23.544a53.788,53.788,0,0,0,11.687-19.924.328.328,0,0,0-.627-.188Z" transform="translate(-1099.874 -423.891)" fill="#e8e8e8"/>
        </g>
      </g>
      <g id="Group_61938" data-name="Group 61938" transform="translate(226.088 86.694)">
        <g id="Group_61937" data-name="Group 61937">
          <path id="Path_51846" data-name="Path 51846" d="M1232.7,498.415q4.234-8.216,9.136-16.077c.209-.334-.334-.669-.544-.314q-4.892,7.84-9.136,16.077c-.188.355.355.69.543.314Z" transform="translate(-1232.113 -481.872)" fill="#e8e8e8"/>
        </g>
      </g>
      <g id="Group_61940" data-name="Group 61940" transform="translate(225.437 95.376)">
        <g id="Group_61939" data-name="Group 61939">
          <path id="Path_51847" data-name="Path 51847" d="M1229.314,524.027a.314.314,0,0,0,0-.627.314.314,0,1,0,0,.627Z" transform="translate(-1229 -523.4)" fill="#e8e8e8"/>
        </g>
      </g>
      <g id="Group_61942" data-name="Group 61942" transform="translate(203.757 90.881)">
        <g id="Group_61941" data-name="Group 61941">
          <path id="Path_51848" data-name="Path 51848" d="M1125.614,502.524c3.261-.23,6.021,1.735,9.011,2.718,1.631.523,3.324.794,4.955,1.338a17.681,17.681,0,0,1,4.62,2.3c.334.23.648-.314.314-.544a18.1,18.1,0,0,0-4.244-2.174c-1.777-.627-3.679-.92-5.478-1.505-3.052-1-5.833-2.99-9.178-2.739a.3.3,0,1,0,0,.606Z" transform="translate(-1125.3 -501.896)" fill="#e8e8e8"/>
        </g>
      </g>
      <g id="Group_61944" data-name="Group 61944" transform="translate(207.147 88.218)">
        <g id="Group_61943" data-name="Group 61943">
          <path id="Path_51849" data-name="Path 51849" d="M1141.741,489.775a52.341,52.341,0,0,1,13.9,5.791.314.314,0,0,0,.314-.544,51.8,51.8,0,0,0-14.049-5.854.315.315,0,0,0-.167.606Z" transform="translate(-1141.514 -489.161)" fill="#e8e8e8"/>
        </g>
      </g>
      <g id="Group_61946" data-name="Group 61946" transform="translate(208.736 84.56)">
        <g id="Group_61945" data-name="Group 61945">
          <path id="Path_51850" data-name="Path 51850" d="M1149.341,472.276a16.779,16.779,0,0,1,6.021,2.592c.335.23.648-.314.314-.544a17.6,17.6,0,0,0-6.168-2.655c-.4-.084-.564.523-.167.606Z" transform="translate(-1149.114 -471.662)" fill="#e8e8e8"/>
        </g>
      </g>
      <g id="Group_61948" data-name="Group 61948" transform="translate(210.041 81.206)">
        <g id="Group_61947" data-name="Group 61947">
          <path id="Path_51851" data-name="Path 51851" d="M1155.575,456.242q5.3,1.976,10.5,4.2c.376.167.69-.376.314-.544-3.512-1.505-7.067-2.948-10.642-4.265-.4-.125-.544.481-.167.606Z" transform="translate(-1155.357 -455.619)" fill="#e8e8e8"/>
        </g>
      </g>
      <g id="Group_61950" data-name="Group 61950" transform="translate(23.121 49.188)">
        <g id="Group_61949" data-name="Group 61949">
          <path id="Path_51852" data-name="Path 51852" d="M270.617,302.773c-.335,4.976-.418,9.993-2.007,14.781a31.407,31.407,0,0,1-7.234,11.9c-.272.293.167.732.439.439a32.093,32.093,0,0,0,7.3-11.854c1.693-4.913,1.777-10.119,2.133-15.262.021-.4-.606-.4-.627,0Z" transform="translate(-261.291 -302.475)" fill="#e8e8e8"/>
        </g>
      </g>
      <g id="Group_61952" data-name="Group 61952" transform="translate(32.588 49.005)">
        <g id="Group_61951" data-name="Group 61951">
          <path id="Path_51853" data-name="Path 51853" d="M306.873,302.266c8.2-.1,16.412-.084,24.607.084,2.091.042,4.181.1,6.251.167,1.066.042,2.7-.272,3.261.857a10.625,10.625,0,0,1,.5,2.948,54.053,54.053,0,0,1,.355,11.624,55.356,55.356,0,0,1-2.572,12.9c-.125.376.481.544.606.167a55.382,55.382,0,0,0,2.279-24.377c-.1-.857-.251-1.714-.4-2.551-.1-.606-.167-1.38-.711-1.777a3.177,3.177,0,0,0-1.861-.355c-1.192-.042-2.362-.084-3.554-.1q-6.774-.188-13.548-.23-7.62-.063-15.22.042c-.4,0-.4.627,0,.606Z" transform="translate(-306.575 -301.596)" fill="#e8e8e8"/>
        </g>
      </g>
      <g id="Group_61954" data-name="Group 61954" transform="translate(23.126 76.318)">
        <g id="Group_61953" data-name="Group 61953">
          <path id="Path_51854" data-name="Path 51854" d="M261.541,432.859a68.136,68.136,0,0,0,32.635.962c.4-.084.23-.69-.167-.606a67.034,67.034,0,0,1-32.3-.962.314.314,0,0,0-.167.606Z" transform="translate(-261.314 -432.241)" fill="#e8e8e8"/>
        </g>
      </g>
      <g id="Group_61956" data-name="Group 61956" transform="translate(58.521 50.882)">
        <g id="Group_61955" data-name="Group 61955">
          <path id="Path_51855" data-name="Path 51855" d="M437.991,310.873a61.618,61.618,0,0,1-7.338,26.092c-.188.355.355.669.544.314a62.474,62.474,0,0,0,7.422-26.405c.021-.4-.606-.4-.627,0Z" transform="translate(-430.613 -310.575)" fill="#e8e8e8"/>
        </g>
      </g>
      <g id="Group_61958" data-name="Group 61958" transform="translate(58.985 52.521)">
        <g id="Group_61957" data-name="Group 61957">
          <path id="Path_51856" data-name="Path 51856" d="M439.747,318.808a21.955,21.955,0,0,1-.146,8.342q-.627,3.606-1.443,7.213c-1.066,4.7-2.509,9.345-5.269,13.339-.23.334.314.648.544.314,2.864-4.14,4.328-8.969,5.415-13.84,1.108-4.976,2.592-10.432,1.505-15.534-.084-.4-.69-.23-.606.167Z" transform="translate(-432.834 -318.414)" fill="#e8e8e8"/>
        </g>
      </g>
      <g id="Group_61960" data-name="Group 61960" transform="translate(61.819 54.624)">
        <g id="Group_61959" data-name="Group 61959">
          <path id="Path_51857" data-name="Path 51857" d="M450.93,328.773a59.856,59.856,0,0,1-4.516,27.827c-.146.376.46.544.606.167a60.519,60.519,0,0,0,4.537-27.994c-.021-.4-.648-.4-.627,0Z" transform="translate(-446.392 -328.475)" fill="#e8e8e8"/>
        </g>
      </g>
      <g id="Group_61962" data-name="Group 61962" transform="translate(27.119 81.344)">
        <g id="Group_61961" data-name="Group 61961">
          <path id="Path_51858" data-name="Path 51858" d="M280.641,457.056a90.825,90.825,0,0,0,31.632-.167c.4-.063.23-.669-.167-.606a89.93,89.93,0,0,1-31.3.167c-.4-.063-.564.544-.167.606Z" transform="translate(-280.414 -456.278)" fill="#e8e8e8"/>
        </g>
      </g>
      <g id="Group_61964" data-name="Group 61964" transform="translate(26.722 78.425)">
        <g id="Group_61963" data-name="Group 61963">
          <path id="Path_51859" data-name="Path 51859" d="M280.52,442.461a6.82,6.82,0,0,1-1.861,2.007c-.335.23-.021.774.314.544a7.468,7.468,0,0,0,2.07-2.216.31.31,0,0,0-.523-.334Z" transform="translate(-278.516 -442.319)" fill="#e8e8e8"/>
        </g>
      </g>
      <g id="Group_61966" data-name="Group 61966" transform="translate(29.153 82.98)">
        <g id="Group_61965" data-name="Group 61965">
          <path id="Path_51860" data-name="Path 51860" d="M291.178,464.274a8.585,8.585,0,0,1-.962,1.484c-.251.314.188.753.439.439a7.328,7.328,0,0,0,1.045-1.61c.188-.355-.335-.69-.523-.314Z" transform="translate(-290.142 -464.108)" fill="#e8e8e8"/>
        </g>
      </g>
      <g id="Group_61968" data-name="Group 61968" transform="translate(29.285 82.883)">
        <g id="Group_61967" data-name="Group 61967">
          <path id="Path_51861" data-name="Path 51861" d="M291.073,466.247a88.222,88.222,0,0,0,31.486-1.986.315.315,0,0,0-.167-.606,87.726,87.726,0,0,1-31.318,1.944c-.4-.021-.4.606,0,.648Z" transform="translate(-290.775 -463.642)" fill="#e8e8e8"/>
        </g>
      </g>
      <g id="Group_61970" data-name="Group 61970" transform="translate(34.311 56.544)">
        <g id="Group_61969" data-name="Group 61969">
          <path id="Path_51862" data-name="Path 51862" d="M315.208,339c9.032-1.234,18.147-.648,27.2-.021.4.021.4-.606,0-.627-9.115-.627-18.273-1.213-27.367.042-.4.042-.23.648.167.606Z" transform="translate(-314.814 -337.658)" fill="#e8e8e8"/>
        </g>
      </g>
      <g id="Group_61972" data-name="Group 61972" transform="translate(31.799 66.63)">
        <g id="Group_61971" data-name="Group 61971">
          <path id="Path_51863" data-name="Path 51863" d="M303.114,386.527q12.7.188,25.339,1.192c.4.042.4-.585,0-.627q-12.638-1.035-25.339-1.192a.314.314,0,1,0,0,.627Z" transform="translate(-302.8 -385.9)" fill="#e8e8e8"/>
        </g>
      </g>
      <g id="Group_61974" data-name="Group 61974" transform="translate(29.285 71.48)">
        <g id="Group_61973" data-name="Group 61973">
          <path id="Path_51864" data-name="Path 51864" d="M291.073,409.725q14.049.659,28.1,1.338c.4.021.4-.606,0-.627q-14.049-.659-28.1-1.338c-.4-.021-.4.606,0,.627Z" transform="translate(-290.775 -409.098)" fill="#e8e8e8"/>
        </g>
      </g>
      <g id="Group_61976" data-name="Group 61976" transform="translate(32.257 63.412)">
        <g id="Group_61975" data-name="Group 61975">
          <path id="Path_51865" data-name="Path 51865" d="M310.053,370.676c-1.777,4.223-3.471,8.467-5.038,12.774-.146.376.46.544.606.167q2.352-6.366,4.976-12.607c.146-.376-.4-.711-.544-.334Z" transform="translate(-304.992 -370.511)" fill="#e8e8e8"/>
        </g>
      </g>
      <g id="Group_61978" data-name="Group 61978" transform="translate(39.12 64.153)">
        <g id="Group_61977" data-name="Group 61977">
          <path id="Path_51866" data-name="Path 51866" d="M343.1,374.209a104.043,104.043,0,0,0-5.268,12.879c-.125.376.481.544.606.167a100.4,100.4,0,0,1,5.206-12.732c.188-.355-.355-.669-.544-.314Z" transform="translate(-337.819 -374.052)" fill="#e8e8e8"/>
        </g>
      </g>
      <g id="Group_61980" data-name="Group 61980" transform="translate(47.07 64.668)">
        <g id="Group_61979" data-name="Group 61979">
          <path id="Path_51867" data-name="Path 51867" d="M381.123,376.659a44.391,44.391,0,0,0-5.269,12.481.315.315,0,0,0,.606.167,43.358,43.358,0,0,1,5.206-12.335c.209-.335-.335-.648-.544-.314Z" transform="translate(-375.842 -376.516)" fill="#e8e8e8"/>
        </g>
      </g>
      <g id="Group_61982" data-name="Group 61982" transform="translate(53.588 64.948)">
        <g id="Group_61981" data-name="Group 61981">
          <path id="Path_51868" data-name="Path 51868" d="M412.053,378.011a85.5,85.5,0,0,0-5.018,11.833c-.125.376.481.544.606.167a84.189,84.189,0,0,1,4.955-11.666c.167-.376-.355-.69-.544-.335Z" transform="translate(-407.019 -377.855)" fill="#e8e8e8"/>
        </g>
      </g>
      <g id="Group_61984" data-name="Group 61984" transform="translate(31.065 68.214)">
        <g id="Group_61983" data-name="Group 61983">
          <path id="Path_51869" data-name="Path 51869" d="M299.457,394.047a7.459,7.459,0,0,1,2.383,1.714c.272.293.711-.146.439-.439a7.735,7.735,0,0,0-2.509-1.819c-.376-.146-.69.376-.314.544Z" transform="translate(-299.287 -393.478)" fill="#e8e8e8"/>
        </g>
      </g>
      <g id="Group_61986" data-name="Group 61986" transform="translate(30.512 67.67)">
        <g id="Group_61985" data-name="Group 61985">
          <path id="Path_51870" data-name="Path 51870" d="M300.208,390.922a13.315,13.315,0,0,0-3.491,2.99c-.251.314.188.753.439.439a12.341,12.341,0,0,1,3.366-2.885.314.314,0,0,0-.314-.544Z" transform="translate(-296.642 -390.875)" fill="#e8e8e8"/>
        </g>
      </g>
      <g id="Group_61988" data-name="Group 61988" transform="translate(42.319 73.691)">
        <g id="Group_61987" data-name="Group 61987">
          <path id="Path_51871" data-name="Path 51871" d="M353.259,420.266a12.033,12.033,0,0,1,3.052,2.572c.251.314.711-.146.439-.439a12.231,12.231,0,0,0-3.178-2.676c-.335-.209-.648.335-.314.544Z" transform="translate(-353.116 -419.675)" fill="#e8e8e8"/>
        </g>
      </g>
      <g id="Group_61990" data-name="Group 61990" transform="translate(42.23 73.348)">
        <g id="Group_61989" data-name="Group 61989">
          <path id="Path_51872" data-name="Path 51872" d="M356.477,418.089a26.888,26.888,0,0,0-3.7,3.366c-.272.293.167.753.439.439a25.313,25.313,0,0,1,3.575-3.282c.314-.209,0-.753-.314-.523Z" transform="translate(-352.691 -418.034)" fill="#e8e8e8"/>
        </g>
      </g>
      <g id="Group_61992" data-name="Group 61992" transform="translate(36.532 67.307)">
        <g id="Group_61991" data-name="Group 61991">
          <path id="Path_51873" data-name="Path 51873" d="M325.535,389.674c1.087,1,2.174,1.986,3.261,2.99.293.272.732-.167.439-.439-1.087-1-2.174-1.986-3.261-2.99a.31.31,0,1,0-.439.439Z" transform="translate(-325.438 -389.138)" fill="#e8e8e8"/>
        </g>
      </g>
      <g id="Group_61994" data-name="Group 61994" transform="translate(36.177 67.294)">
        <g id="Group_61993" data-name="Group 61993">
          <path id="Path_51874" data-name="Path 51874" d="M327.768,389.122a13.666,13.666,0,0,0-3.951,3.387c-.251.314.188.753.439.439a13.414,13.414,0,0,1,3.826-3.282c.355-.209.021-.753-.314-.544Z" transform="translate(-323.742 -389.075)" fill="#e8e8e8"/>
        </g>
      </g>
      <g id="Group_61996" data-name="Group 61996" transform="translate(42.64 66.636)">
        <g id="Group_61995" data-name="Group 61995">
          <path id="Path_51875" data-name="Path 51875" d="M356.545,391.319a2.267,2.267,0,0,1-.272-3.889c1.087-.773,3.3-1.422,4.14,0,.732,1.275-.146,2.822-1.192,3.6-1.631,1.192-2.781-.125-3.533-1.484-.188-.355-.732-.042-.544.314.962,1.735,2.509,3.094,4.432,1.693,1.422-1.024,2.4-3.2,1.192-4.746-1.254-1.589-4.119-.753-5.331.5a2.866,2.866,0,0,0,.794,4.516.3.3,0,1,0,.314-.5Z" transform="translate(-354.654 -385.932)" fill="#e8e8e8"/>
        </g>
      </g>
      <g id="Group_61998" data-name="Group 61998" transform="translate(35.253 50.926)">
        <g id="Group_61997" data-name="Group 61997">
          <path id="Path_51876" data-name="Path 51876" d="M319.735,311a10.816,10.816,0,0,0-.314,4.411c.042.4.69.4.627,0a10.39,10.39,0,0,1,.293-4.244.315.315,0,0,0-.606-.167Z" transform="translate(-319.322 -310.785)" fill="#e8e8e8"/>
        </g>
      </g>
      <g id="Group_62000" data-name="Group 62000" transform="translate(35.766 50.028)">
        <g id="Group_61999" data-name="Group 61999">
          <path id="Path_51877" data-name="Path 51877" d="M322.073,307.979a137.909,137.909,0,0,1,23.687-.606l-.314-.314a14.277,14.277,0,0,1-.125,3.659c-.063.4.544.564.606.167a14.649,14.649,0,0,0,.146-3.826.337.337,0,0,0-.314-.314,137.9,137.9,0,0,0-23.687.606c-.4.042-.4.669,0,.627Z" transform="translate(-321.775 -306.493)" fill="#e8e8e8"/>
        </g>
      </g>
      <g id="Group_62002" data-name="Group 62002" transform="translate(36.372 54.211)">
        <g id="Group_62001" data-name="Group 62001">
          <path id="Path_51878" data-name="Path 51878" d="M324.973,327.629l22.579-.5a.314.314,0,0,0,0-.627l-22.579.5c-.4.021-.4.648,0,.627Z" transform="translate(-324.675 -326.5)" fill="#e8e8e8"/>
        </g>
      </g>
      <g id="Group_62004" data-name="Group 62004" transform="translate(161.87 176.975)">
        <g id="Group_62003" data-name="Group 62003">
          <path id="Path_51879" data-name="Path 51879" d="M925.859,915.582h35.228a.941.941,0,0,0,0-1.882H925.859a.941.941,0,0,0,0,1.882Z" transform="translate(-924.95 -913.7)" fill="#161616"/>
        </g>
      </g>
      <g id="Group_62006" data-name="Group 62006" transform="translate(201.363 176.975)">
        <g id="Group_62005" data-name="Group 62005">
          <path id="Path_51880" data-name="Path 51880" d="M1114.76,915.582h7.568a.941.941,0,0,0,0-1.882h-7.568a.941.941,0,0,0,0,1.882Z" transform="translate(-1113.85 -913.7)" fill="#161616"/>
        </g>
      </g>
      <g id="Group_62008" data-name="Group 62008" transform="translate(216.52 175.658)">
        <g id="Group_62007" data-name="Group 62007">
          <path id="Path_51881" data-name="Path 51881" d="M1187.259,909.282h4.6a.941.941,0,0,0,0-1.882h-4.6a.941.941,0,0,0,0,1.882Z" transform="translate(-1186.35 -907.4)" fill="#161616"/>
        </g>
      </g>
      <g id="Group_62010" data-name="Group 62010" transform="translate(201.698 192.781)">
        <g id="Group_62009" data-name="Group 62009">
          <path id="Path_51882" data-name="Path 51882" d="M1116.359,991.182h42.148a.941.941,0,0,0,0-1.882h-42.148a.941.941,0,0,0,0,1.882Z" transform="translate(-1115.45 -989.3)" fill="#161616"/>
        </g>
      </g>
      <g id="Group_62012" data-name="Group 62012" transform="translate(246.48 192.781)">
        <g id="Group_62011" data-name="Group 62011">
          <path id="Path_51883" data-name="Path 51883" d="M1330.559,991.182H1341.1a.941.941,0,0,0,0-1.882h-10.537a.941.941,0,0,0,0,1.882Z" transform="translate(-1329.65 -989.3)" fill="#161616"/>
        </g>
      </g>
      <g id="Group_62014" data-name="Group 62014" transform="translate(263.602 192.467)">
        <g id="Group_62013" data-name="Group 62013">
          <path id="Path_51884" data-name="Path 51884" d="M1412.459,989.682h15.471a.941.941,0,0,0,0-1.882h-15.471a.941.941,0,0,0,0,1.882Z" transform="translate(-1411.55 -987.8)" fill="#161616"/>
        </g>
      </g>
      <g id="Group_62016" data-name="Group 62016" transform="translate(285.325 191.464)">
        <g id="Group_62015" data-name="Group 62015">
          <path id="Path_51885" data-name="Path 51885" d="M1516.359,984.882h3.282a.941.941,0,0,0,0-1.882h-3.282a.941.941,0,0,0,0,1.882Z" transform="translate(-1515.45 -983)" fill="#161616"/>
        </g>
      </g>
      <g id="Group_62018" data-name="Group 62018" transform="translate(0 196.983)">
        <g id="Group_62017" data-name="Group 62017">
          <path id="Path_51886" data-name="Path 51886" d="M151.014,1011.093q25.4-.627,50.8-.92c4.85-.063,9.722-.1,14.572-.146a.314.314,0,0,0,0-.627q-25.4.188-50.8.732c-4.85.1-9.722.209-14.572.335-.418.021-.418.648,0,.627Z" transform="translate(-150.7 -1009.4)" fill="#161616"/>
        </g>
      </g>
      <g id="Group_62020" data-name="Group 62020" transform="translate(45.723 201.187)">
        <g id="Group_62019" data-name="Group 62019">
          <path id="Path_51887" data-name="Path 51887" d="M369.714,1030.49q19.255-.815,38.51.251c.4.021.4-.606,0-.627q-19.224-1.066-38.51-.251c-.418.021-.418.648,0,.627Z" transform="translate(-369.4 -1029.51)" fill="#161616"/>
        </g>
      </g>
      <g id="Group_62022" data-name="Group 62022" transform="translate(245.725 175.843)">
        <g id="Group_62021" data-name="Group 62021">
          <path id="Path_51888" data-name="Path 51888" d="M1329.316,908.5a22.3,22.3,0,0,1-3.2,5.331c-.251.314.188.753.439.439a22.817,22.817,0,0,0,3.366-5.6c.146-.376-.46-.543-.606-.167Z" transform="translate(-1326.042 -908.285)" fill="#e8e8e8"/>
        </g>
      </g>
      <g id="Group_62024" data-name="Group 62024" transform="translate(245.892 175.439)">
        <g id="Group_62023" data-name="Group 62023">
          <path id="Path_51889" data-name="Path 51889" d="M1333.9,906.508a30.113,30.113,0,0,1-6.962,9.68c-.293.272.146.711.439.439a30.474,30.474,0,0,0,7.067-9.805c.167-.355-.376-.669-.543-.314Z" transform="translate(-1326.838 -906.352)" fill="#e8e8e8"/>
        </g>
      </g>
      <g id="Group_62026" data-name="Group 62026" transform="translate(245.922 175.648)">
        <g id="Group_62025" data-name="Group 62025">
          <path id="Path_51890" data-name="Path 51890" d="M1338.11,907.506a39.337,39.337,0,0,1-11.018,13.61c-.314.251.125.69.439.439a40.075,40.075,0,0,0,11.1-13.756c.188-.335-.356-.648-.523-.293Z" transform="translate(-1326.984 -907.349)" fill="#e8e8e8"/>
        </g>
      </g>
      <g id="Group_62028" data-name="Group 62028" transform="translate(250.222 175.816)">
        <g id="Group_62027" data-name="Group 62027">
          <path id="Path_51891" data-name="Path 51891" d="M1358.2,908.309a61.754,61.754,0,0,1-10.558,14.028c-.293.293.167.732.439.439a61.736,61.736,0,0,0,10.642-14.154.3.3,0,1,0-.523-.314Z" transform="translate(-1347.551 -908.152)" fill="#e8e8e8"/>
        </g>
      </g>
      <g id="Group_62030" data-name="Group 62030" transform="translate(254.119 175.669)">
        <g id="Group_62029" data-name="Group 62029">
          <path id="Path_51892" data-name="Path 51892" d="M1376.354,907.609a67.727,67.727,0,0,1-10.077,14.551c-.272.293.167.753.439.439a68.449,68.449,0,0,0,10.182-14.677c.188-.355-.355-.669-.544-.314Z" transform="translate(-1366.191 -907.452)" fill="#e8e8e8"/>
        </g>
      </g>
      <g id="Group_62032" data-name="Group 62032" transform="translate(257.318 175.68)">
        <g id="Group_62031" data-name="Group 62031">
          <path id="Path_51893" data-name="Path 51893" d="M1391.214,907.671a60.239,60.239,0,0,1-9.638,14.614c-.272.293.167.753.439.439a60.863,60.863,0,0,0,9.743-14.76c.188-.334-.356-.669-.544-.293Z" transform="translate(-1381.491 -907.505)" fill="#e8e8e8"/>
        </g>
      </g>
      <g id="Group_62034" data-name="Group 62034" transform="translate(260.193 179.746)">
        <g id="Group_62033" data-name="Group 62033">
          <path id="Path_51894" data-name="Path 51894" d="M1402.425,927.109a56.548,56.548,0,0,1-7.108,10.871c-.251.314.188.753.439.439a56.994,56.994,0,0,0,7.213-11c.188-.355-.355-.669-.544-.314Z" transform="translate(-1395.242 -926.952)" fill="#e8e8e8"/>
        </g>
      </g>
      <g id="Group_62036" data-name="Group 62036" transform="translate(84.693 0)">
        <g id="Group_62035" data-name="Group 62035">
          <path id="Path_51895" data-name="Path 51895" d="M555.8,67.514V78.155a.314.314,0,0,0,.627,0V67.514a.314.314,0,0,0-.627,0Z" transform="translate(-555.8 -67.2)" fill="#e8e8e8"/>
        </g>
      </g>
      <g id="Group_62038" data-name="Group 62038" transform="translate(72.964 10.913)">
        <g id="Group_62037" data-name="Group 62037">
          <path id="Path_51896" data-name="Path 51896" d="M500.014,120.027h31.4a.314.314,0,0,0,0-.627h-31.4a.314.314,0,1,0,0,.627Z" transform="translate(-499.7 -119.4)" fill="#e8e8e8"/>
        </g>
      </g>
      <g id="Group_62040" data-name="Group 62040" transform="translate(95.356 12.016)">
        <g id="Group_62039" data-name="Group 62039">
          <path id="Path_51897" data-name="Path 51897" d="M606.8,124.973V134.8a.314.314,0,0,0,.627,0v-9.826a.314.314,0,0,0-.627,0Z" transform="translate(-606.8 -124.675)" fill="#e8e8e8"/>
        </g>
      </g>
      <g id="Group_62042" data-name="Group 62042" transform="translate(78.709 22.663)">
        <g id="Group_62041" data-name="Group 62041">
          <path id="Path_51898" data-name="Path 51898" d="M527.473,176.227h30.587a.314.314,0,0,0,0-.627H527.473a.314.314,0,0,0,0,.627Z" transform="translate(-527.175 -175.6)" fill="#e8e8e8"/>
        </g>
      </g>
      <g id="Group_62044" data-name="Group 62044" transform="translate(78.421 23.214)">
        <g id="Group_62043" data-name="Group 62043">
          <path id="Path_51899" data-name="Path 51899" d="M525.8,178.543v7.38a.314.314,0,0,0,.627,0v-7.38a.314.314,0,0,0-.627,0Z" transform="translate(-525.8 -178.237)" fill="#e8e8e8"/>
        </g>
      </g>
      <g id="Group_62046" data-name="Group 62046" transform="translate(229.807 109.948)">
        <g id="Group_62045" data-name="Group 62045">
          <path id="Path_51900" data-name="Path 51900" d="M1250.214,593.727H1269.2a.314.314,0,0,0,0-.627h-18.983a.314.314,0,0,0,0,.627Z" transform="translate(-1249.9 -593.1)" fill="#e8e8e8"/>
        </g>
      </g>
      <g id="Group_62048" data-name="Group 62048" transform="translate(240.156 110.529)">
        <g id="Group_62047" data-name="Group 62047">
          <path id="Path_51901" data-name="Path 51901" d="M1299.4,596.173v7.484a.314.314,0,0,0,.627,0v-7.484a.314.314,0,0,0-.627,0Z" transform="translate(-1299.4 -595.875)" fill="#e8e8e8"/>
        </g>
      </g>
      <g id="Group_62050" data-name="Group 62050" transform="translate(228.38 117.998)">
        <g id="Group_62049" data-name="Group 62049">
          <path id="Path_51902" data-name="Path 51902" d="M1243.373,632.227h21.868a.314.314,0,0,0,0-.627h-21.868a.314.314,0,0,0,0,.627Z" transform="translate(-1243.075 -631.6)" fill="#e8e8e8"/>
        </g>
      </g>
      <g id="Group_62052" data-name="Group 62052" transform="translate(234.406 118.29)">
        <g id="Group_62051" data-name="Group 62051">
          <path id="Path_51903" data-name="Path 51903" d="M1271.9,633.314v6.335a.314.314,0,0,0,.627,0v-6.335a.314.314,0,1,0-.627,0Z" transform="translate(-1271.9 -633)" fill="#e8e8e8"/>
        </g>
      </g>
      <g id="Group_62054" data-name="Group 62054" transform="translate(248.205 118.578)">
        <g id="Group_62053" data-name="Group 62053">
          <path id="Path_51904" data-name="Path 51904" d="M1337.9,634.673v6.335a.314.314,0,0,0,.627,0v-6.335a.314.314,0,0,0-.627,0Z" transform="translate(-1337.9 -634.375)" fill="#e8e8e8"/>
        </g>
      </g>
      <g id="Group_62056" data-name="Group 62056" transform="translate(43.716 178.481)">
        <g id="Group_62055" data-name="Group 62055">
          <path id="Path_51905" data-name="Path 51905" d="M360.114,921.527h28.475a.314.314,0,0,0,0-.627H360.114a.314.314,0,1,0,0,.627Z" transform="translate(-359.8 -920.9)" fill="#e8e8e8"/>
        </g>
      </g>
      <g id="Group_62058" data-name="Group 62058" transform="translate(0 178.878)">
        <g id="Group_62057" data-name="Group 62057">
          <path id="Path_51906" data-name="Path 51906" d="M151.014,923.427h17.938a.314.314,0,0,0,0-.627H151.014a.314.314,0,1,0,0,.627Z" transform="translate(-150.7 -922.8)" fill="#e8e8e8"/>
        </g>
      </g>
      <g id="Group_62060" data-name="Group 62060" transform="translate(37.737 129.245)">
        <g id="Group_62059" data-name="Group 62059">
          <path id="Path_51907" data-name="Path 51907" d="M331.514,686.027h28.475a.314.314,0,0,0,0-.627H331.514a.314.314,0,0,0,0,.627Z" transform="translate(-331.2 -685.4)" fill="#e8e8e8"/>
        </g>
      </g>
      <g id="Group_62062" data-name="Group 62062" transform="translate(53.96 129.826)">
        <g id="Group_62061" data-name="Group 62061">
          <path id="Path_51908" data-name="Path 51908" d="M408.8,688.473v6.544a.314.314,0,0,0,.627,0v-6.544a.314.314,0,0,0-.627,0Z" transform="translate(-408.8 -688.175)" fill="#e8e8e8"/>
        </g>
      </g>
      <g id="Group_62064" data-name="Group 62064" transform="translate(48.274 136.354)">
        <g id="Group_62063" data-name="Group 62063">
          <path id="Path_51909" data-name="Path 51909" d="M381.914,720.027h22.2a.314.314,0,0,0,0-.627h-22.2a.314.314,0,0,0,0,.627Z" transform="translate(-381.6 -719.4)" fill="#e8e8e8"/>
        </g>
      </g>
      <g id="Group_62066" data-name="Group 62066" transform="translate(65.354 136.934)">
        <g id="Group_62065" data-name="Group 62065">
          <path id="Path_51910" data-name="Path 51910" d="M463.3,722.473v7.108a.314.314,0,0,0,.627,0v-7.108a.314.314,0,0,0-.627,0Z" transform="translate(-463.3 -722.175)" fill="#e8e8e8"/>
        </g>
      </g>
      <g id="Group_62068" data-name="Group 62068" transform="translate(218.643 180.718)">
        <g id="Group_62067" data-name="Group 62067">
          <path id="Path_51911" data-name="Path 51911" d="M1196.814,932.227h24.126a.314.314,0,0,0,0-.627h-24.126a.314.314,0,1,0,0,.627Z" transform="translate(-1196.5 -931.6)" fill="#e8e8e8"/>
        </g>
      </g>
      <g id="Group_62070" data-name="Group 62070" transform="translate(270.298 178.439)">
        <g id="Group_62069" data-name="Group 62069">
          <path id="Path_51912" data-name="Path 51912" d="M1443.873,921.327H1469.5a.314.314,0,0,0,0-.627h-25.632a.314.314,0,0,0,0,.627Z" transform="translate(-1443.575 -920.7)" fill="#e8e8e8"/>
        </g>
      </g>
      <g id="Group_62072" data-name="Group 62072" transform="translate(188.474 119.273)">
        <g id="Group_62071" data-name="Group 62071">
          <path id="Path_51913" data-name="Path 51913" d="M1052.2,638.014v12.063a.314.314,0,0,0,.627,0V638.014a.314.314,0,0,0-.627,0Z" transform="translate(-1052.2 -637.7)" fill="#e8e8e8"/>
        </g>
      </g>
      <g id="Group_62074" data-name="Group 62074" transform="translate(188.866 124.918)">
        <g id="Group_62073" data-name="Group 62073">
          <path id="Path_51914" data-name="Path 51914" d="M1054.373,665.327h11.311a.314.314,0,0,0,0-.627h-11.311a.314.314,0,0,0,0,.627Z" transform="translate(-1054.075 -664.7)" fill="#e8e8e8"/>
        </g>
      </g>
      <g id="Group_62076" data-name="Group 62076" transform="translate(199.785 120.778)">
        <g id="Group_62075" data-name="Group 62075">
          <path id="Path_51915" data-name="Path 51915" d="M1106.3,645.214v11.31a.314.314,0,0,0,.627,0v-11.31a.314.314,0,0,0-.627,0Z" transform="translate(-1106.3 -644.9)" fill="#e8e8e8"/>
        </g>
      </g>
      <g id="Group_62078" data-name="Group 62078" transform="translate(192.258 132.841)">
        <g id="Group_62077" data-name="Group 62077">
          <path id="Path_51916" data-name="Path 51916" d="M1070.614,703.227h17.708a.314.314,0,0,0,0-.627h-17.708a.314.314,0,1,0,0,.627Z" transform="translate(-1070.3 -702.6)" fill="#e8e8e8"/>
        </g>
      </g>
      <g id="Group_62080" data-name="Group 62080" transform="translate(204.698 133.97)">
        <g id="Group_62079" data-name="Group 62079">
          <path id="Path_51917" data-name="Path 51917" d="M1129.8,708.314v8.676a.314.314,0,0,0,.627,0v-8.676a.314.314,0,1,0-.627,0Z" transform="translate(-1129.8 -708)" fill="#e8e8e8"/>
        </g>
      </g>
      <g id="Group_62082" data-name="Group 62082" transform="translate(156.989 15.926)">
        <g id="Group_62081" data-name="Group 62081">
          <path id="Path_51918" data-name="Path 51918" d="M901.6,143.673V163.3a.314.314,0,0,0,.627,0V143.673a.314.314,0,0,0-.627,0Z" transform="translate(-901.6 -143.375)" fill="#e8e8e8"/>
        </g>
      </g>
      <g id="Group_62084" data-name="Group 62084" transform="translate(157.339 15.555)">
        <g id="Group_62083" data-name="Group 62083">
          <path id="Path_51919" data-name="Path 51919" d="M903.573,142.227H934.41a.314.314,0,0,0,0-.627H903.573a.314.314,0,0,0,0,.627Z" transform="translate(-903.275 -141.6)" fill="#e8e8e8"/>
        </g>
      </g>
      <g id="Group_62086" data-name="Group 62086" transform="translate(188.202 15.821)">
        <g id="Group_62085" data-name="Group 62085">
          <path id="Path_51920" data-name="Path 51920" d="M1050.9,143.173V162.6a.314.314,0,0,0,.627,0V143.173a.314.314,0,0,0-.627,0Z" transform="translate(-1050.9 -142.875)" fill="#e8e8e8"/>
        </g>
      </g>
      <g id="Group_62088" data-name="Group 62088" transform="translate(157.276 35.751)">
        <g id="Group_62087" data-name="Group 62087">
          <path id="Path_51921" data-name="Path 51921" d="M903.273,238.827h31.193a.314.314,0,0,0,0-.627H903.273a.314.314,0,0,0,0,.627Z" transform="translate(-902.975 -238.2)" fill="#e8e8e8"/>
        </g>
      </g>
      <g id="Group_62090" data-name="Group 62090" transform="translate(170.252 11.979)">
        <g id="Group_62089" data-name="Group 62089">
          <path id="Path_51922" data-name="Path 51922" d="M965.765,128.052a4.612,4.612,0,0,1-.021-1.693c.1-.5.355-1.505.941-.878.293.314.314,1,.4,1.4.1.523.209,1.066.314,1.589.084.4.69.23.606-.167a16.213,16.213,0,0,0-.627-2.822c-.188-.46-.543-1-1.108-.983-.627.021-.878.69-1.025,1.213a4.942,4.942,0,0,0-.084,2.467c.063.439.669.272.606-.125Z" transform="translate(-965.043 -124.497)" fill="#e8e8e8"/>
        </g>
      </g>
      <g id="Group_62092" data-name="Group 62092" transform="translate(158.807 18.168)">
        <g id="Group_62091" data-name="Group 62091">
          <path id="Path_51923" data-name="Path 51923" d="M910.3,154.414v15.241a.314.314,0,0,0,.627,0V154.414a.314.314,0,1,0-.627,0Z" transform="translate(-910.3 -154.1)" fill="#e8e8e8"/>
        </g>
      </g>
      <g id="Group_62094" data-name="Group 62094" transform="translate(158.99 17.813)">
        <g id="Group_62093" data-name="Group 62093">
          <path id="Path_51924" data-name="Path 51924" d="M911.473,153.027h27.074a.314.314,0,0,0,0-.627H911.473a.314.314,0,0,0,0,.627Z" transform="translate(-911.175 -152.4)" fill="#e8e8e8"/>
        </g>
      </g>
      <g id="Group_62096" data-name="Group 62096" transform="translate(186.404 17.661)">
        <g id="Group_62095" data-name="Group 62095">
          <path id="Path_51925" data-name="Path 51925" d="M1042.3,151.973v16.245a.314.314,0,0,0,.627,0V151.973a.314.314,0,0,0-.627,0Z" transform="translate(-1042.3 -151.675)" fill="#e8e8e8"/>
        </g>
      </g>
      <g id="Group_62098" data-name="Group 62098" transform="translate(159.325 33.555)">
        <g id="Group_62097" data-name="Group 62097">
          <path id="Path_51926" data-name="Path 51926" d="M913.073,228.327H939.98a.314.314,0,0,0,0-.627H913.073a.314.314,0,0,0,0,.627Z" transform="translate(-912.775 -227.7)" fill="#e8e8e8"/>
        </g>
      </g>
      <g id="Group_62100" data-name="Group 62100" transform="translate(158.877 26.656)">
        <g id="Group_62099" data-name="Group 62099">
          <path id="Path_51927" data-name="Path 51927" d="M911.025,196.769c4.1-1.108,8.2-2.07,12.4-.878,3.471,1,6.648,2.864,10.244,3.471.4.063.565-.544.167-.606-3.826-.648-7.171-2.718-10.913-3.638-4.077-1-8.112-.021-12.042,1.045a.312.312,0,1,0,.146.606Z" transform="translate(-910.635 -194.699)" fill="#e8e8e8"/>
        </g>
      </g>
      <g id="Group_62102" data-name="Group 62102" transform="translate(173.353 26.679)">
        <g id="Group_62101" data-name="Group 62101">
          <path id="Path_51928" data-name="Path 51928" d="M980.173,196.816c3.868-.439,7.715-1.965,11.624-1.15.4.084.564-.523.167-.606-3.993-.836-7.861.669-11.791,1.108-.4.063-.4.711,0,.648Z" transform="translate(-979.875 -194.811)" fill="#e8e8e8"/>
        </g>
      </g>
      <g id="Group_62104" data-name="Group 62104" transform="translate(173.298 21.574)">
        <g id="Group_62103" data-name="Group 62103">
          <path id="Path_51929" data-name="Path 51929" d="M980.632,173.048a1.206,1.206,0,0,1-.021-1.735,1.338,1.338,0,0,1,1.944.23,1.535,1.535,0,0,1-.23,2.007,1.5,1.5,0,0,1-2.091-.481c-.23-.314-.794,0-.544.314a2.118,2.118,0,0,0,2.906.753,2.18,2.18,0,0,0,.376-3.031,1.99,1.99,0,0,0-2.718-.314,1.856,1.856,0,0,0-.083,2.739c.314.23.753-.209.46-.481Z" transform="translate(-979.61 -170.391)" fill="#e8e8e8"/>
        </g>
      </g>
    </g>
    <g id="feet" transform="translate(342.77 221.181)">
      <path id="Path_51930" data-name="Path 51930" d="M1103.445,836.271c.669-1.38,1.777-3.073,3.575-3.575,2.76-.774,4.725,1.986,8.844,3.993,7.443,3.638,13.924.92,14.53,2.948.481,1.61-3.387,4.223-5.9,5.478-5.039,2.509-14.551,4.537-18.942-.836C1104.908,843.484,1103.11,841,1103.445,836.271Z" transform="translate(-1096.295 -826.531)" fill="#161616" stroke="#161616" stroke-miterlimit="10" stroke-width="3"/>
      <path id="Path_51931" data-name="Path 51931" d="M1070.864,816.172a5.288,5.288,0,0,1-1.464-2.739c1.568-5.248,4.829-9.241,8.634-9.68,2.446-.272,4.85.941,6.732,1.9,3.073,1.547,3.136,2.572,6.1,4.411,5,3.115,8.551,2.551,8.843,4.2.272,1.547-2.529,3.68-5.268,4.641-5.5,1.923-7.234-2.07-15.785-1.693C1075.63,817.364,1072.808,818.012,1070.864,816.172Z" transform="translate(-1069.4 -803.715)" fill="#161616" stroke="#161616" stroke-miterlimit="10" stroke-width="3"/>
    </g>
    <g id="legs" transform="translate(295.741 186.013)">
      <path id="Path_51932" data-name="Path 51932" d="M855.23,649.006c.418,2.593,1.066,6.795,1.735,11.98,2.551,19.485,1.526,22.328,4.578,26.384,7.046,9.366,22.746,7.777,23.98,7.631a32.432,32.432,0,0,0,17.436-7.84c-1.38-2.4-2.76-4.788-4.139-7.192-6.9.063-13.8.146-20.719.209a63.092,63.092,0,0,0-4.161-44.678,105.443,105.443,0,0,0-19.4,3.261c-3.45.92-6.648,1.965-9.6,3.052-.146,3.951-.334,9.575-.439,16.349-.355,25.632,1.108,30.9,4.788,33.576,1.8,1.3,4.934,1.4,11.122,1.526,10.767.23,19.882-2.592,30.524-5.9,2.4-.753,4.349-1.4,5.54-1.8-.606-4.788-1.233-9.554-1.84-14.342q-6.366,1.725-13.276,3.282-6.617,1.474-12.858,2.613" transform="translate(-844.453 -635.5)" fill="#e4e3e3"/>
      <g id="Group_62106" data-name="Group 62106" transform="translate(8.286 16.201)">
        <g id="Group_62105" data-name="Group 62105">
          <path id="Path_51933" data-name="Path 51933" d="M884.3,713.6c2.174.815,2.551,3.554,2.76,5.561.293,2.7.46,5.394.627,8.112a84.708,84.708,0,0,0,2.007,15.743.315.315,0,0,0,.606-.167c-1.505-5.875-1.735-11.938-2.132-17.938a53.572,53.572,0,0,0-.774-7.756c-.376-1.756-1.15-3.47-2.927-4.139-.376-.146-.544.46-.167.585Z" transform="translate(-884.085 -712.992)" fill="#281472"/>
        </g>
      </g>
      <g id="Group_62108" data-name="Group 62108" transform="translate(18.324 52.455)">
        <g id="Group_62107" data-name="Group 62107">
          <path id="Path_51934" data-name="Path 51934" d="M932.2,886.924a50.535,50.535,0,0,0,4.976,4.223,15.5,15.5,0,0,0,5.854,1.944c.4.084.565-.523.167-.606a15.327,15.327,0,0,1-5.708-1.882,50.05,50.05,0,0,1-4.85-4.119c-.293-.272-.753.188-.439.439Z" transform="translate(-932.097 -886.402)" fill="#281472"/>
        </g>
      </g>
      <g id="Group_62110" data-name="Group 62110" transform="translate(33.691 41.897)">
        <g id="Group_62109" data-name="Group 62109">
          <path id="Path_51935" data-name="Path 51935" d="M1005.914,836.525a20.439,20.439,0,0,1,6.627,1.233c.376.146.544-.46.167-.606a21,21,0,0,0-6.795-1.254c-.418-.021-.418.606,0,.627Z" transform="translate(-1005.6 -835.898)" fill="#281472"/>
        </g>
      </g>
      <path id="Path_51936" data-name="Path 51936" d="M844.841,715.8a5.417,5.417,0,0,1,3.261-4.474,5.829,5.829,0,0,1,5.666.878c2.509,1.965,2.3,5.666,2.4,10.14.188,8.175.418,17.98,5.227,24.524a19.4,19.4,0,0,0,6.753,5.666,19.562,19.562,0,0,1-9.492,1.965c-1.84-.1-6.795-.418-10.349-4.035-1.735-1.756-3.241-4.432-3.7-17.332C844.465,728.718,844.423,722.8,844.841,715.8Z" transform="translate(-844.497 -695.163)" fill="#c3c0c0" opacity="0.58"/>
      <path id="Path_51937" data-name="Path 51937" d="M1007.327,810.214l15.617-4.014c.314,2.885.606,5.791.92,8.676a78.807,78.807,0,0,0-7.944-1.735,75.863,75.863,0,0,0-9.22-.92Z" transform="translate(-972.779 -770.512)" fill="#d0cece" opacity="0.59"/>
    </g>
    <g id="torso" transform="translate(278.267 136.726)">
      <path id="Path_51938" data-name="Path 51938" d="M780.134,403.568c-.063-1.463.1-3.073,1.066-3.617,3.45-1.923,16.056,10.474,22.245,24.21a57.124,57.124,0,0,1,4.746,26.761q-14.363,2.634-28.7,5.289a61.52,61.52,0,0,0-8.635-11.29c-4.244-4.39-5.854-4.725-7.673-7.924-3.889-6.857-1.8-14.656-1.275-16.621a22.521,22.521,0,0,1,7.422-12.272A21.211,21.211,0,0,1,780.134,403.568Z" transform="translate(-760.873 -399.754)" fill="#fff" stroke="#161616" stroke-miterlimit="10" stroke-width="1"/>
      <path id="Path_51939" data-name="Path 51939" d="M851.3,412.645a36.809,36.809,0,0,1,12.168,47c5.478-.92,10.976-1.819,16.454-2.739A58.895,58.895,0,0,0,857.8,407C855.628,408.882,853.474,410.763,851.3,412.645Z" transform="translate(-832.395 -405.485)" fill="#828181" opacity="0.36"/>
      <path id="Path_51940" data-name="Path 51940" d="M926.64,502.8a68.376,68.376,0,0,1,.941,8.634c.293,6.418.523,11-1.735,15.68a20.9,20.9,0,0,1-7.046,8.07c4.788-.878,9.554-1.735,14.342-2.613a57.214,57.214,0,0,0-6.5-29.771Z" transform="translate(-885.783 -481.256)" fill="#828181" opacity="0.4"/>
    </g>
    <g id="head" transform="translate(251.609 112.45)">
      <path id="Path_51941" data-name="Path 51941" d="M658.7,359.159c1.464,2.132,2.781,3.889,3.847,5.227,2.613,3.324,3.617,4.181,5.018,4.474a7.147,7.147,0,0,0,2.99-.1,13.232,13.232,0,0,0,3.847-1.714c1.631-.753,2.279-.376,7.568-.314,3.826.042,3.408-.167,6.837-.1,3.011.063,5.5.251,7.255.418-.5-.4-1-.774-1.484-1.171a8.124,8.124,0,0,1-5.979-6.837,3.115,3.115,0,0,0,1.714-1.171c1.045-1.547-.042-3.659-.418-4.37-.46-.878-1.3-2.467-2.446-2.342-.857.084-1.673,1.087-1.924,2.446a13.08,13.08,0,0,1-8.007.209c-5.791-1.9-6.983-7.924-10.14-8.007C665.327,345.779,662.421,348.162,658.7,359.159Z" transform="translate(-653.402 -332.803)" fill="#fff"/>
      <g id="Group_62112" data-name="Group 62112" transform="translate(4.702 24.924)">
        <g id="Group_62111" data-name="Group 62111">
          <path id="Path_51942" data-name="Path 51942" d="M655.88,403.322a26.8,26.8,0,0,0,7.317,9.784c.314.251.753-.188.439-.439a26.554,26.554,0,0,1-7.234-9.659c-.146-.355-.69-.042-.523.314Z" transform="translate(-655.849 -402.852)" fill="#161616"/>
        </g>
      </g>
      <g id="Group_62114" data-name="Group 62114" transform="translate(14.76 29.52)">
        <g id="Group_62113" data-name="Group 62113">
          <path id="Path_51943" data-name="Path 51943" d="M703.97,425.225c.188,1.066.418,2.112.69,3.157a12.9,12.9,0,0,0,.9,2.8c.648,1.15,2.718-.272,3.387-.794.314-.251-.125-.69-.439-.439-.46.355-1.38,1.066-2.007.983-.69-.084-.857-1.443-1.024-1.965a34.958,34.958,0,0,1-.9-3.889c-.084-.418-.69-.251-.606.146Z" transform="translate(-703.962 -424.835)" fill="#161616"/>
        </g>
      </g>
      <g id="Group_62116" data-name="Group 62116" transform="translate(9.731 26.979)">
        <g id="Group_62115" data-name="Group 62115">
          <path id="Path_51944" data-name="Path 51944" d="M682.08,415.736c-.794-.669-1.819-1.526-1.443-2.7a4.887,4.887,0,0,0-.523.146,7.6,7.6,0,0,1,1.84,2.8c.063-.125.146-.251.209-.376a4.868,4.868,0,0,0-.4-.293.315.315,0,0,0-.606.167.969.969,0,0,0,1.171.732.292.292,0,0,0,.209-.376,8.341,8.341,0,0,0-2.007-3.073.316.316,0,0,0-.523.146c-.439,1.4.606,2.488,1.61,3.3.314.209.774-.23.46-.481Z" transform="translate(-679.907 -412.679)" fill="#161616"/>
        </g>
      </g>
      <g id="Group_62118" data-name="Group 62118" transform="translate(9.892 27.245)">
        <g id="Group_62117" data-name="Group 62117">
          <path id="Path_51945" data-name="Path 51945" d="M680.722,414.422l1.505,2.321c.209.335.753.021.544-.314l-1.505-2.321a.314.314,0,0,0-.544.314Z" transform="translate(-680.675 -413.952)" fill="#161616"/>
        </g>
      </g>
      <g id="Group_62120" data-name="Group 62120" transform="translate(17.677 23.865)">
        <g id="Group_62119" data-name="Group 62119">
          <path id="Path_51946" data-name="Path 51946" d="M719.626,400.76a4.746,4.746,0,0,1-.962-1.505,1.519,1.519,0,0,1-.084-.523c.042-.272.1-.293.23-.084.209.084.4.481.523.669a5.529,5.529,0,0,1,.711,1.4c.084.272.188.314-.1.188a2.558,2.558,0,0,1-.711-.627c-.272-.314-.711.146-.439.439.334.376,1.422,1.484,1.861.627.4-.774-.585-2.132-1.024-2.7-.376-.481-1.275-1.443-1.631-.376s.543,2.174,1.171,2.906c.272.334.711-.1.46-.418Z" transform="translate(-717.915 -397.789)" fill="#161616"/>
        </g>
      </g>
      <g id="Group_62122" data-name="Group 62122" transform="translate(17.962 24.373)">
        <g id="Group_62121" data-name="Group 62121">
          <path id="Path_51947" data-name="Path 51947" d="M719.322,400.673l1.443,2.321c.209.334.753.021.543-.314a21.792,21.792,0,0,1-1.171-2.174l-.5.376a4.254,4.254,0,0,1,1.066,1.631c.146.376.753.209.606-.167a4.989,4.989,0,0,0-1.233-1.9.318.318,0,0,0-.5.376,19.69,19.69,0,0,0,1.171,2.174c.188-.1.355-.209.544-.314l-1.443-2.321c-.188-.334-.732-.021-.523.314Z" transform="translate(-719.275 -400.216)" fill="#161616"/>
        </g>
      </g>
      <g id="Group_62124" data-name="Group 62124" transform="translate(34.465 27.783)">
        <g id="Group_62123" data-name="Group 62123">
          <path id="Path_51948" data-name="Path 51948" d="M798.5,416.9a6.224,6.224,0,0,1-.251,5.143c-.188.355.355.669.544.314a6.863,6.863,0,0,0,.314-5.624c-.146-.355-.753-.209-.606.167Z" transform="translate(-798.213 -416.529)" fill="#161616"/>
        </g>
      </g>
      <path id="Path_51949" data-name="Path 51949" d="M635.585,296.487a11.354,11.354,0,0,0,5.122,17.394,14.13,14.13,0,0,1,.941-8.049,14.327,14.327,0,0,1,6.314-6.878,14.809,14.809,0,0,0,17.624,5.5c.23-.376,1.108-1.673,2.216-1.631,1.589.063,3.157,2.948,2.216,4.913a3.659,3.659,0,0,1-2.342,1.756,10.015,10.015,0,0,0,1.756,3.617,11.618,11.618,0,0,0,5.373,3.742c1.3.5,11.9,4.537,18.21-2.112,3.408-3.575,5.039-9.7,2.8-13.9-1.819-3.387-5.018-3.408-13.652-7.234-10.349-4.6-8.927-6-15.053-7.944-3.2-1.024-14.969-4.767-24.168,1.631A21.511,21.511,0,0,0,635.585,296.487Z" transform="translate(-633.361 -283.637)" fill="#2d62ed"/>
    </g>
    <g id="hand_l" transform="translate(249.247 147.876)">
      <path id="Path_51950" data-name="Path 51950" d="M622.095,466.008a12.407,12.407,0,0,1,2.154-7.9c3.491-4.892,9.513-5,10.537-5.018,1.819-.042,4.223.272,9.784,3.324a70.187,70.187,0,0,1,13.861,9.973,13.2,13.2,0,0,1,5.833,1.693c2.425,1.38,6.92,5.018,5.958,8.927-.543,2.216-2.781,4.369-4.913,4.265-3.429-.167-5.645-6.063-6.356-5.708-.565.272,1.15,3.784.4,4.265-.69.439-3.408-1.672-4.662-4.537a9.924,9.924,0,0,1-.648-5.707,47.234,47.234,0,0,0-31.946-3.575Z" transform="translate(-622.067 -453.084)" fill="#fff" stroke="#161616" stroke-miterlimit="10" stroke-width="1"/>
      <path id="Path_51951" data-name="Path 51951" d="M622.4,479.815c.753-4.056,2.53-5.917,3.554-6.732,6.418-5.185,18.586,1.066,22.2,2.906a44.556,44.556,0,0,1,9.011,6.188c3.094,2.739,2.321,2.906,6.544,6.92,2.906,2.76,4.976,4.328,4.558,5.457-.355.92-2.112,1-2.279,1-4.077.146-6.878-6.168-7-6.46,1,3.659.815,4.767.355,5-.878.46-3.471-1.965-4.558-4.829a9.945,9.945,0,0,1-.355-5.561,54.3,54.3,0,0,0-11.729-3.721A55.824,55.824,0,0,0,622.4,479.815Z" transform="translate(-622.33 -467.309)" fill="#828181" opacity="0.34"/>
    </g>
    <g id="gift" transform="translate(193.653 136.224)">
      <g id="Path_51706" data-name="Path 51706" transform="translate(1.456 37.071)" fill="#fff" stroke-miterlimit="10">
        <path d="M.37,1.6Q.449,8.49.53,15.386t.163,13.8q.082,6.9.163,13.8T1.016,56.8l13.535,4.5,13.9,4.619,14.28,4.746,14.68,4.882q-.012-8.431-.026-16.862t-.029-16.861q-.015-8.43-.029-16.86T57.3,8.106Q49.817,7.243,42.472,6.4q-7.277-.836-14.421-1.652-7.079-.809-14.029-1.6Q7.133,2.363.37,1.6Z" stroke="none"/>
        <path d="M 57.81628799438477 76.19969177246094 L 57.32036209106445 76.03443145751953 C 54.83852767944336 75.20743560791016 52.35808181762695 74.38124084472656 49.88679885864258 73.55815887451172 C 47.42689514160156 72.73894500732422 44.97603607177734 71.92293548583984 42.54170608520508 71.11250305175781 C 40.11852645874023 70.30572509765625 37.71158599853516 69.50455474853516 35.32815933227539 68.71123504638672 C 32.95549774169922 67.92151641845703 30.60600471496582 67.13963317871094 28.2867603302002 66.36772155761719 C 25.9906063079834 65.60350799560547 23.68514060974121 64.83619689941406 21.37772560119629 64.06821441650391 C 19.08056449890137 63.30364227294922 16.78155326843262 62.5383415222168 14.48792266845703 61.77469253540039 C 12.20448875427246 61.01449203491211 9.926321983337402 60.25597381591797 7.66044807434082 59.50140762329102 C 5.404595375061035 58.75012588500977 3.160895109176636 58.00268936157227 0.9361324906349182 57.26132965087891 L 0.6568828821182251 57.16826248168945 L 0.6525700092315674 56.79263687133789 C 0.6260233521461487 54.4759407043457 0.5991865396499634 52.14996337890625 0.5721473693847656 49.82201385498047 C 0.5450804233551025 47.49418258666992 0.5178400874137878 45.16431045532227 0.4905430376529694 42.83963394165039 C 0.4632473886013031 40.51513290405273 0.4359241425991058 38.19565582275391 0.4086606204509735 35.88853073120117 C 0.3813985586166382 33.5815315246582 0.3541961908340454 31.28688430786133 0.3272573947906494 29.01169776916504 C 0.3006986081600189 26.76569747924805 0.2738500237464905 24.50065231323242 0.2469445914030075 22.22379112243652 C 0.2200697511434555 19.94705200195312 0.1930507272481918 17.6585521697998 0.1661205291748047 15.36540603637695 C 0.139162614941597 13.07237911224365 0.1122934818267822 10.77470207214355 0.08560042083263397 8.47965145111084 C 0.05890877172350883 6.184664249420166 0.03245136514306068 3.892242908477783 0.006286379415541887 1.609604120254517 L 0.0001746205962263048 1.074789762496948 L 0.4057479500770569 1.120581746101379 C 4.960681915283203 1.634969830513 9.556621551513672 2.155004262924194 14.18607234954834 2.679913759231567 C 18.85765647888184 3.209660053253174 23.5635986328125 3.744397401809692 28.29595375061035 4.283310413360596 C 33.07174301147461 4.827169418334961 37.87449645996094 5.375170707702637 42.69578552246094 5.926386833190918 C 47.56156921386719 6.482747554779053 52.44622802734375 7.042375564575195 57.3408317565918 7.604351997375488 L 57.70481109619141 7.646129131317139 L 57.70545959472656 8.100737571716309 C 57.7093620300293 10.91152191162109 57.71359252929688 13.73408222198486 57.71800994873047 16.55955696105957 C 57.72237014770508 19.38511848449707 57.72692489624023 22.21365928649902 57.73160552978516 25.03631973266602 C 57.73635101318359 27.85906791687012 57.7411003112793 30.67587661743164 57.74591445922852 33.47806549072266 C 57.75072479248047 36.28022003173828 57.75560760498047 39.0677604675293 57.76041793823242 41.83181381225586 C 57.76523208618164 44.5959587097168 57.77010726928711 47.38369369506836 57.77498626708984 50.18610000610352 C 57.77980041503906 52.98859024047852 57.78454971313477 55.80574798583984 57.7892951965332 58.62882995605469 C 57.79397964477539 61.45187759399414 57.79853057861328 64.28097534179688 57.80289459228516 67.10713195800781 C 57.80724716186523 69.93317413330078 57.81147384643555 72.75640869140625 57.81537628173828 75.56789398193359 L 57.81628799438477 76.19969177246094 Z M 1.375985860824585 56.42885589599609 C 3.57996678352356 57.16112518310547 5.802294254302979 57.89924621582031 8.036286354064941 58.64106750488281 C 10.28013324737549 59.38615036010742 12.53580665588379 60.13504409790039 14.79651069641113 60.88548278808594 C 17.06723785400391 61.63923645019531 19.34304046630859 62.39460754394531 21.6169319152832 63.14926147460938 C 23.90089988708496 63.90730667114258 26.18288230895996 64.66455841064453 28.45571136474609 65.41880035400391 C 30.73711585998535 66.17589569091797 33.04778671264648 66.94271850585938 35.38093185424805 67.71704864501953 C 37.72455215454102 68.49491119384766 40.09103393554688 69.28032684326172 42.47345733642578 70.07117462158203 C 44.86665344238281 70.86553955078125 47.27611923217773 71.66545867919922 49.69461059570312 72.46853637695312 C 52.12416458129883 73.27534484863281 54.56285858154297 74.08529663085938 57.00345611572266 74.89608764648438 C 56.99956130981445 72.13777923583984 56.99546813964844 69.36876678466797 56.99105834960938 66.59737396240234 C 56.98677062988281 63.82599639892578 56.98228454589844 61.0523567199707 56.97773742675781 58.28458023071289 C 56.97312927246094 55.51689147949219 56.96844863891602 52.75523376464844 56.96371078491211 50.00787353515625 C 56.95891189575195 47.26060104370117 56.95416641235352 44.52760696411133 56.94948959350586 41.8173942565918 C 56.94474411010742 39.09268569946289 56.93994522094727 36.34507751464844 56.93520355224609 33.58316421508789 C 56.93046569824219 30.82115745544434 56.92572021484375 28.04484558105469 56.92111206054688 25.26247787475586 C 56.91650772094727 22.48025703430176 56.91196060180664 19.69203567504883 56.9076042175293 16.9063606262207 C 56.9033203125 14.1208324432373 56.89916229248047 11.33772563934326 56.89520263671875 8.565648078918457 C 52.0693359375 8.007033348083496 47.25338363647461 7.450703620910645 42.4559211730957 6.897586345672607 C 37.70169448852539 6.349574565887451 32.96561813354492 5.804661750793457 28.25576400756836 5.263900279998779 C 23.58815956115723 4.727989673614502 18.94620323181152 4.196089267730713 14.33757400512695 3.669081211090088 C 9.769918441772461 3.146761894226074 5.234723091125488 2.629224061965942 0.7391843199729919 2.117364168167114 C 0.7648916840553284 4.358443737030029 0.7909501791000366 6.608377456665039 0.8172140121459961 8.860409736633301 C 0.843450129032135 11.11255741119385 0.8698624968528748 13.36680603027344 0.8962761759757996 15.61627769470215 C 0.9227203726768494 17.86592483520508 0.9492243528366089 20.11079788208008 0.9756713509559631 22.34419059753418 C 1.002090573310852 24.57769966125488 1.02842378616333 26.79973030090332 1.054495811462402 29.00339698791504 C 1.081123232841492 31.2494945526123 1.107956290245056 33.51459884643555 1.134878277778625 35.79177474975586 C 1.161801815032959 38.06907272338867 1.188872456550598 40.35843276977539 1.215827941894531 42.65299224853516 C 1.242755770683289 44.94766998291016 1.269684910774231 47.24753570556641 1.296440362930298 49.54576873779297 C 1.323168158531189 51.84406280517578 1.349693059921265 54.14071655273438 1.375985860824585 56.42885589599609 Z" stroke="none" fill="#161616"/>
      </g>
      <g id="Path_51707" data-name="Path 51707" transform="translate(58.444 30.808)" fill="#fff" stroke-miterlimit="10">
        <path d="M45.978.665q-.032,8.379-.064,16.757t-.064,16.755q-.032,8.377-.064,16.753t-.064,16.751q-5.863,1.838-11.646,3.647L22.668,74.895l-11.175,3.5Q5.982,80.114.547,81.817.53,73.29.512,64.767T.477,47.721Q.459,39.2.441,30.676T.406,13.628q5.48-1.552,11.039-3.129,5.6-1.588,11.272-3.2,5.715-1.625,11.51-3.277Q40.062,2.356,45.978.665Z" stroke="none"/>
        <path d="M 0.1431520134210587 82.46921539306641 L 0.1417990177869797 81.79768371582031 L 0.07144822925329208 47.79278182983398 L 0.0007992819882929325 13.63396835327148 L -6.148318061605096e-05 13.22743034362793 L 0.3196236193180084 13.13673305511475 C 4.286071300506592 12.01146984100342 8.18614387512207 10.90393447875977 12.03114795684814 9.810821533203125 C 15.9036283493042 8.709943771362305 19.7192440032959 7.623980522155762 23.48979377746582 6.549654006958008 C 27.28647804260254 5.467863082885742 31.03664588928223 4.398105621337891 34.75263977050781 3.336760997772217 C 38.49394607543945 2.268224000930786 42.19996643066406 1.208461403846741 45.88345718383789 0.1537624001502991 L 46.42196655273438 -0.0003207602712791413 L 46.41949081420898 0.6569156050682068 L 46.29152297973633 34.19873428344727 L 46.16372299194336 67.6982421875 L 46.16224670410156 68.08944702148438 L 45.84734344482422 68.18801116943359 C 43.88822174072266 68.80123138427734 41.92766952514648 69.41453552246094 39.97175979614258 70.02610778808594 C 38.02259063720703 70.63540649414062 36.07822036743164 71.24305725097656 34.14440155029297 71.84718322753906 C 32.21732711791992 72.44918060302734 30.30094718933105 73.04765319824219 28.40106773376465 73.64085388183594 C 26.50780487060547 74.23200988769531 24.63077926635742 74.81796264648438 22.77601051330566 75.39697265625 C 20.9293098449707 75.97352600097656 19.07324028015137 76.55298614501953 17.21382713317871 77.13358306884766 C 15.36075687408447 77.71215057373047 13.50428771972656 78.29190826416016 11.65051555633545 78.87096405029297 C 9.803080558776855 79.44810485839844 7.958267688751221 80.02456665039062 6.121801853179932 80.5987548828125 C 4.291587352752686 81.17101287841797 2.469690322875977 81.74098205566406 0.6617223024368286 82.30690765380859 L 0.1431520134210587 82.46921539306641 Z M 0.8126869797706604 14.02875709533691 L 0.8825810551643372 47.8066291809082 L 0.9516220092773438 81.16522216796875 C 2.718671083450317 80.61038970947266 4.498508453369141 80.05196380615234 6.285819530487061 79.49141693115234 C 8.079028129577637 78.92900085449219 9.879916191101074 78.36452484130859 11.6830005645752 77.79948425292969 C 13.49205780029297 77.23256683349609 15.30331802368164 76.66513824462891 17.11138343811035 76.09886169433594 C 18.92548561096191 75.53068542480469 20.73613548278809 74.96359252929688 22.53794860839844 74.39930725097656 C 24.36708068847656 73.82642364501953 26.21783828735352 73.24685668945312 28.08445739746094 72.66217803955078 C 29.9575080871582 72.0755615234375 31.8468074798584 71.48371887207031 33.74640655517578 70.88843536376953 C 35.65263748168945 70.29103851318359 37.56948471069336 69.69023132324219 39.49094772338867 69.08765411376953 C 41.41921997070312 68.48286437988281 43.35234832763672 67.87636566162109 45.28406524658203 67.26982116699219 L 45.41013717651367 34.18761444091797 L 45.53542327880859 1.329007744789124 C 41.91890716552734 2.360852718353271 38.28012084960938 3.397858619689941 34.60702133178711 4.443286418914795 C 30.95820045471191 5.481803894042969 27.27606964111328 6.528523921966553 23.54906845092773 7.586884021759033 C 19.84731292724609 8.638011932373047 16.10206413269043 9.700281143188477 12.30220603942871 10.7768611907959 C 8.528796195983887 11.84592914581299 4.702470302581787 12.92890644073486 0.8126869797706604 14.02875709533691 Z" stroke="none" fill="#161616"/>
      </g>
      <g id="Path_51708" data-name="Path 51708" transform="translate(0 22.97)" fill="#fff" stroke-miterlimit="10">
        <path d="M58.348,22.017,43.694,20.294,29.44,18.618,15.569,16.987,2.064,15.4l8.859-3.121L19.94,9.1l9.176-3.233,9.341-3.291L54.1,4.014,70.218,5.5,86.833,7.029q8.478.783,17.13,1.586Q98.038,10.35,92.2,12.065L80.679,15.448,69.4,18.766Z" stroke="none"/>
        <path d="M 58.37314224243164 22.52626037597656 L 58.30661773681641 22.51840209960938 C 53.37623977661133 21.93660354614258 48.49216842651367 21.36010360717773 43.65335464477539 20.78882598876953 C 38.8586311340332 20.22280120849609 34.10792922973633 19.66191482543945 29.40055274963379 19.10602951049805 C 24.73542022705078 18.55513000488281 20.11233329772949 18.00915718078613 15.53060150146484 17.46803855895996 C 10.98935127258301 16.93170928955078 6.488367080688477 16.40004730224609 2.026828527450562 15.87310981750488 L 0.000232492689974606 15.63379669189453 L 1.974689483642578 14.93718528747559 L 38.36077499389648 2.100339651107788 L 38.4266471862793 2.077062368392944 L 38.49432373046875 2.083290338516235 L 43.21871948242188 2.515166282653809 C 47.94968032836914 2.947681188583374 52.76406097412109 3.387772560119629 57.64803695678711 3.834556102752686 C 62.57706451416016 4.28546142578125 67.57791137695312 4.743140697479248 72.63591003417969 5.206710815429688 C 77.74156951904297 5.674586772918701 82.90612030029297 6.14846134185791 88.11405944824219 6.627196788787842 C 93.37181854248047 7.110512256622314 98.67412567138672 7.598816871643066 104.0047378540039 8.090961456298828 L 106.7325210571289 8.342795372009277 L 104.0596008300781 9.124550819396973 C 100.1313095092773 10.27354335784912 96.21422576904297 11.42047500610352 92.32064819335938 12.5614595413208 C 88.45435333251953 13.69457340240479 84.61109924316406 14.82179832458496 80.802490234375 15.9394645690918 C 77.02033233642578 17.04932594299316 73.27204895019531 18.1499080657959 69.56888580322266 19.23750114440918 C 65.890869140625 20.31768989562988 62.25693130493164 21.38525390625 58.67787933349609 22.43674278259277 L 58.43830490112305 22.5070972442627 L 58.37314224243164 22.52626037597656 Z M 4.136860847473145 15.16107749938965 C 8.440728187561035 15.66533184051514 12.78118419647217 16.17387580871582 17.1589412689209 16.6867733001709 C 21.57429885864258 17.20401763916016 26.02789497375488 17.7257251739502 30.52050971984863 18.25201988220215 C 35.05225372314453 18.78289794921875 39.62410354614258 19.31830024719238 44.23675918579102 19.85841941833496 C 48.89009094238281 20.40336036682129 53.58545684814453 20.95314598083496 58.32358932495117 21.50778198242188 L 58.49787521362305 21.45644187927246 C 61.87361907958984 20.46147727966309 65.29820251464844 19.4520435333252 68.76248931884766 18.43123626708984 C 72.24922180175781 17.40377426147461 75.77667236328125 16.36467742919922 79.33528900146484 15.31677722930908 C 82.91727447509766 14.26205253601074 86.53131103515625 13.19839477539062 90.16744232177734 12.12899398803711 C 93.8277587890625 11.0524845123291 97.51065063476562 9.970178604125977 101.2059555053711 8.885204315185547 C 96.11851501464844 8.411109924316406 91.0594482421875 7.940760612487793 86.04306793212891 7.475109100341797 C 81.07206726074219 7.013614177703857 76.14263153076172 6.556763172149658 71.26808166503906 6.105508804321289 C 66.43711853027344 5.658345222473145 61.65962219238281 5.216563701629639 56.94837188720703 4.781124114990234 C 52.27832412719727 4.349553108215332 47.67258834838867 3.92414116859436 43.1433219909668 3.505793333053589 L 38.48730850219727 3.075741052627563 L 4.136860847473145 15.16107749938965 Z" stroke="none" fill="#161616"/>
      </g>
      <g id="Group_61762" data-name="Group 61762" transform="translate(4.569 47.587)">
        <g id="Group_61761" data-name="Group 61761">
          <path id="Path_51715" data-name="Path 51715" d="M.2,1.015c1.614.024,3.234.036,4.861.046s3.269.019,4.912.034,3.3.039,4.956.08,3.327.1,4.995.186q2.538.129,5.081.4t5.112.665q2.568.391,5.145.88t5.182,1.047q1.468.318,2.941.65t2.957.678q1.484.345,2.974.7t2.991.716a.2.2,0,0,0,.186-.045.339.339,0,0,0,.1-.18.358.358,0,0,0-.013-.208.213.213,0,0,0-.147-.132Q49.813,5.909,47.206,5.3T42.019,4.122q-2.58-.564-5.151-1.07T31.75,2.128q-2.576-.418-5.137-.7T21.521.983Q18.99.811,16.468.725C14.792.665,13.119.627,11.447.6L8.614.569,5.793.532,2.988.494.2.46A.177.177,0,0,0,.05.548.361.361,0,0,0,0,.739a.356.356,0,0,0,.05.19A.173.173,0,0,0,.2,1.015Z" fill="#161616"/>
        </g>
      </g>
      <g id="Group_61764" data-name="Group 61764" transform="translate(62.529 42.862)">
        <g id="Group_61763" data-name="Group 61763">
          <path id="Path_51716" data-name="Path 51716" d="M.287,11.519q4.55-1.7,9.2-3.235,4.672-1.541,9.438-2.907Q23.714,4,28.6,2.81q4.917-1.2,9.927-2.216a.213.213,0,0,0,.16-.128A.346.346,0,0,0,38.7.253.365.365,0,0,0,38.6.063a.228.228,0,0,0-.2-.055q-5,1.017-9.915,2.221Q23.6,3.425,18.8,4.8,14.036,6.17,9.362,7.713,4.715,9.248.16,10.953a.227.227,0,0,0-.14.144.389.389,0,0,0-.01.213.327.327,0,0,0,.1.176.174.174,0,0,0,.18.033Z" transform="translate(0 0)" fill="#161616"/>
        </g>
      </g>
      <g id="Group_61766" data-name="Group 61766" transform="translate(41.513 80.549)">
        <g id="Group_61765" data-name="Group 61765">
          <path id="Path_51717" data-name="Path 51717" d="M0,.273v17.4a.3.3,0,0,0,.071.208.223.223,0,0,0,.157.074.206.206,0,0,0,.157-.062.281.281,0,0,0,.071-.2V.283A.3.3,0,0,0,.384.077.219.219,0,0,0,.228.005.209.209,0,0,0,.071.07.286.286,0,0,0,0,.273Z" transform="translate(0 0)" fill="#161616"/>
        </g>
      </g>
      <g id="Group_61768" data-name="Group 61768" transform="translate(43.018 94.521)">
        <g id="Group_61767" data-name="Group 61767">
          <path id="Path_51718" data-name="Path 51718" d="M0,.288V9a.3.3,0,0,0,.071.208.225.225,0,0,0,.157.075.206.206,0,0,0,.157-.061.28.28,0,0,0,.071-.2V.3A.327.327,0,0,0,.385.086.217.217,0,0,0,.228.008.2.2,0,0,0,.071.075.307.307,0,0,0,0,.288Z" transform="translate(0)" fill="#161616"/>
        </g>
      </g>
      <g id="Group_61770" data-name="Group 61770" transform="translate(75.488 66.058)">
        <g id="Group_61769" data-name="Group 61769">
          <path id="Path_51719" data-name="Path 51719" d="M0,.282V14.645a.3.3,0,0,0,.076.213.237.237,0,0,0,.167.074.227.227,0,0,0,.167-.067.29.29,0,0,0,.076-.21V.286A.3.3,0,0,0,.41.074.233.233,0,0,0,.243,0,.23.23,0,0,0,.076.071.293.293,0,0,0,0,.282Z" fill="#161616"/>
        </g>
      </g>
      <g id="Group_61772" data-name="Group 61772" transform="translate(76.362 86.003)">
        <g id="Group_61771" data-name="Group 61771">
          <path id="Path_51720" data-name="Path 51720" d="M0,.282v9.7a.306.306,0,0,0,.076.214.241.241,0,0,0,.167.077A.224.224,0,0,0,.41,10.21.286.286,0,0,0,.486,10V.3A.3.3,0,0,0,.41.082.239.239,0,0,0,.243.007.226.226,0,0,0,.076.073.289.289,0,0,0,0,.282Z" transform="translate(0 0)" fill="#161616"/>
        </g>
      </g>
      <g id="Group_61774" data-name="Group 61774" transform="translate(20.224 64.863)">
        <g id="Group_61773" data-name="Group 61773">
          <path id="Path_51721" data-name="Path 51721" d="M0,.268v7.38a.293.293,0,0,0,.068.2.207.207,0,0,0,.15.069.2.2,0,0,0,.15-.065.286.286,0,0,0,.068-.2V.271A.291.291,0,0,0,.369.07.2.2,0,0,0,.219,0a.2.2,0,0,0-.15.066A.287.287,0,0,0,0,.268Z" transform="translate(0 0)" fill="#161616"/>
        </g>
      </g>
      <g id="Group_61776" data-name="Group 61776" transform="translate(18.987 74.212)">
        <g id="Group_61775" data-name="Group 61775">
          <path id="Path_51722" data-name="Path 51722" d="M0,.267V6.231a.3.3,0,0,0,.068.2.208.208,0,0,0,.15.07.2.2,0,0,0,.15-.063.283.283,0,0,0,.068-.2V.275a.294.294,0,0,0-.068-.2A.207.207,0,0,0,.218,0a.2.2,0,0,0-.15.064A.285.285,0,0,0,0,.267Z" transform="translate(0 0)" fill="#161616"/>
        </g>
      </g>
      <path id="Path_51723" data-name="Path 51723" d="M44.295,65.767q-5.746,1.872-11.414,3.721L21.7,73.138,10.74,76.714Q5.334,78.477,0,80.215v-67.1L10.8,9.929l11.02-3.246,11.247-3.31Q38.769,1.7,44.55,0q-.025,8.22-.054,16.44t-.061,16.44q-.032,8.22-.067,16.442T44.295,65.767Z" transform="translate(59.038 32.608)" fill="#666" opacity="0.21"/>
      <path id="Path_51724" data-name="Path 51724" d="M45.457,45.858,33.812,49.221l-11.4,3.293L11.243,55.741.3,58.9Q.263,51.556.227,44.213T.155,29.531Q.118,22.191.08,14.851T0,.169L4.81,5.626l4.856,5.508q2.443,2.772,4.9,5.562t4.942,5.618l6.33-2.453,6.407-2.482,6.483-2.511,6.556-2.541q.025,4.188.048,8.38t.043,8.385q.021,4.193.04,8.385T45.457,45.858Z" transform="translate(58.897 52.819)" fill="#666" opacity="0.21"/>
      <path id="Path_51725" data-name="Path 51725" d="M22.6.038c-.2-.039-.4.352-.637,1.049s-.5,1.7-.831,2.881-.719,2.544-1.2,3.96a35.531,35.531,0,0,1-1.743,4.283,25.519,25.519,0,0,1-2.394,3.921,26.079,26.079,0,0,1-3.634,3.955,30.426,30.426,0,0,1-5.173,3.679A40.023,40.023,0,0,1,0,26.864c.344-.049.733-.111,1.161-.192s.9-.181,1.4-.3,1.041-.272,1.608-.45,1.163-.386,1.783-.629c.644-.249,1.808-.7,3.24-1.406a32.273,32.273,0,0,0,4.863-2.936,24.912,24.912,0,0,0,4.961-4.782A19.811,19.811,0,0,0,22.5,9.236a21.913,21.913,0,0,0,.616-3.3,21.9,21.9,0,0,0,.13-2.924A11.564,11.564,0,0,0,23.028.9C22.913.381,22.762.07,22.6.038Z" transform="translate(56.8 0)" fill="#666" opacity="0.14"/>
      <path id="Path_51726" data-name="Path 51726" d="M0,.176l3.3,2.78,3.32,2.8L9.956,8.569,13.315,11.4l-3.088-.656L7.161,10.1,4.111,9.452,1.077,8.806q.063,3.838.225,7.907t.449,8.355q.286,4.287.709,8.784t1.006,9.2q.383,3.088.811,6.071t.894,5.861q.466,2.878.967,5.647t1.031,5.427l-1.624-.643-1.622-.643-1.617-.645Q1.5,63.8.7,63.476.612,55.561.526,47.645T.354,31.815Q.268,23.9.179,15.991T0,.176Z" transform="translate(40.619 42.904)" fill="#666" opacity="0.2"/>
      <path id="Path_51727" data-name="Path 51727" d="M0,5.276l4.863-.944,4.911-.953,4.957-.962,5-.971-2.2-.329L15.331.79,13.144.469Q12.053.31,10.966.155q-.749.362-1.428.668t-1.279.563q-.6.256-1.117.465c-.344.139-.659.264-.943.374s-.565.211-.831.31-.525.2-.788.3-.53.214-.813.34-.58.266-.9.429c-.309.153-.6.308-.879.46s-.536.3-.776.445-.462.281-.664.41S.159,5.168,0,5.276Z" transform="translate(41.68 37.962)" fill="#666" opacity="0.13"/>
    </g>
    <g id="hand_r" transform="translate(246.776 145.049)">
      <path id="Path_51990" data-name="Path 51990" d="M621.381,449.169c-6.544,4.767-11.582,10.642-11.1,11.227.23.293,1.505-.084,6.23-3.115a8.788,8.788,0,0,0-3.742,4.119c-.293.711-1.254,2.7-.376,3.993.941,1.359,3.429,1.233,5.039.69,3.115-1.045,4.6-4.286,4.767-4.16.251.167-3.22,5.122-2.718,5.519.523.439,5.958-4.181,10.119-10.662a40.5,40.5,0,0,0,2.739-5,95.764,95.764,0,0,1,13.464,1.254c9.366,1.526,12.941,3.533,19.318,2.488,3.91-.627,10.244-2.634,10.474-5.6.293-3.68-8.864-7.066-10.851-7.8-15.095-5.582-29.249-.418-31.548.46A49.8,49.8,0,0,0,621.381,449.169Z" transform="translate(-610.248 -439.565)" fill="#fff" stroke="#161616" stroke-miterlimit="10" stroke-width="1"/>
      <g id="Group_62196" data-name="Group 62196" transform="translate(1.582 18.387)">
        <g id="Group_62195" data-name="Group 62195">
          <path id="Path_51991" data-name="Path 51991" d="M617.852,534.619a.777.777,0,0,0,.355.376.315.315,0,0,0,.376-.042c2.07-2.467,3.868-5.331,6.816-6.857.355-.188.042-.732-.314-.544-3.011,1.547-4.83,4.432-6.941,6.962a2.309,2.309,0,0,1,.376-.042c-.042-.063-.084-.1-.125-.167-.188-.355-.732-.042-.544.314Z" transform="translate(-617.813 -527.513)" fill="#161616"/>
        </g>
      </g>
      <g id="Group_62198" data-name="Group 62198" transform="translate(3.359 20.665)">
        <g id="Group_62197" data-name="Group 62197">
          <path id="Path_51992" data-name="Path 51992" d="M626.541,544.846c1.275.293,2.446-1.443,3.2-2.258a17.314,17.314,0,0,1,4.014-3.6.314.314,0,0,0-.314-.544,13.47,13.47,0,0,0-3.136,2.613c-.481.523-.941,1.045-1.442,1.568-.46.5-1.422,1.777-2.154,1.61-.4-.084-.564.523-.167.606Z" transform="translate(-626.314 -538.408)" fill="#161616"/>
        </g>
      </g>
      <path id="Path_51993" data-name="Path 51993" d="M617.614,491.08c5.018-3.533,6.23-4.349,6.251-4.307a18.146,18.146,0,0,0-3.7,3.575,15.639,15.639,0,0,0-1.8,3.157,1.586,1.586,0,0,0,.627.669,1.631,1.631,0,0,0,1.066.188,4.245,4.245,0,0,0,.523-.314,6.2,6.2,0,0,0,1.338-1.233c.084-.1,1.4-1.756,2.007-2.4a7.381,7.381,0,0,1,2.969-1.882c-1.234,1.882-2.488,3.784-3.721,5.666a9.307,9.307,0,0,0,2.634-1.882,25.2,25.2,0,0,0,1.631-2.007c.878-1.087,1.526-1.777,1.777-2.07,2.2-2.509,5.477-8.488,7.568-10.5,4.474-4.328,11.687-.794,25.924-.69a84.4,84.4,0,0,0,17.248-1.652,3.224,3.224,0,0,1,1.275,1.735,3.732,3.732,0,0,1-.481,2.592c-.878,1.631-5.269,4.558-14.614,4.307-7.631-.209-9.952-2.3-20.175-3.45-3.429-.376-6.251-.481-8.049-.523a40.39,40.39,0,0,1-5.164,8.948c-3.366,4.411-7.171,7.485-7.735,7.066a.589.589,0,0,1-.209-.314,1.437,1.437,0,0,1,.335-1.15c.314-.5.711-1.171,1.213-2.132a6.381,6.381,0,0,1-1.672,1.463c-2.154,1.317-5.666,1.735-6.857.021C617.656,493.756,617.112,492.878,617.614,491.08Z" transform="translate(-615.91 -467.908)" fill="#828181" opacity="0.33"/>
      <path id="Path_51994" data-name="Path 51994" d="M729.5,482.177c.021-.188,4.809-.063,10.1.209,13.736.711,17.332,1.714,22.642-.209a23.4,23.4,0,0,0,7.025-4.077,4.369,4.369,0,0,1,.5,3.073c-.774,2.8-5.268,3.721-8.174,4.307a29.122,29.122,0,0,1-8.676.355c-3.847-.314-5.373-.941-9.45-1.8A129.193,129.193,0,0,0,729.5,482.177Z" transform="translate(-704.568 -470.044)" fill="#828181" opacity="0.51"/>
    </g>
  </g>
</svg>
