<svg xmlns="http://www.w3.org/2000/svg" xmlns:xlink="http://www.w3.org/1999/xlink" width="30" height="35" viewBox="0 0 30 35">
  <defs>
    <clipPath id="clip-path">
      <rect id="Rectangle_12159" data-name="Rectangle 12159" width="30" height="35" transform="translate(180 304)" fill="#fff"/>
    </clipPath>
  </defs>
  <g id="Mask_Group_371" data-name="Mask Group 371" transform="translate(-180 -304)" clip-path="url(#clip-path)">
    <path id="Path_51404" data-name="Path 51404" d="M157.694,31.239a4.647,4.647,0,0,1-1.789.043,8.771,8.771,0,0,1-2.259-.649,6.951,6.951,0,0,1,3.26.173,3.6,3.6,0,0,1,.788.433m-7.456-1.182-.161.042c-.36.094-.709.186-1.047.268l-.455.111c-.915.223-1.85.451-2.773.722.351-.816.677-1.641,1-2.447.236-.6.478-1.207.727-1.809q.19.3.4.606a11.955,11.955,0,0,0,2.316,2.506m-2.326-9.2a7.353,7.353,0,0,1-.5,2.9,4.5,4.5,0,0,1-.088-3.441,1.97,1.97,0,0,1,.307-.476,2.17,2.17,0,0,1,.278,1.013m-4.774,12.751c-.229.394-.462.764-.7,1.112-.578.839-1.522,1.737-2.007,1.737a.242.242,0,0,1-.19-.093.171.171,0,0,1-.06-.148,2.759,2.759,0,0,1,1.055-1.367,10.414,10.414,0,0,1,1.9-1.241m16.1-2.327c-.074-1.027-1.869-1.687-1.886-1.693a7.03,7.03,0,0,0-2.3-.352,14.289,14.289,0,0,0-3.175.414,10.841,10.841,0,0,1-2.834-2.808c-.322-.473-.611-.944-.864-1.405a10.1,10.1,0,0,0,1.07-4.655c-.081-1.37-.722-2.291-1.594-2.291-.6,0-1.113.427-1.532,1.27-.747,1.5-.551,3.426.583,5.72-.408.925-.788,1.883-1.155,2.811-.457,1.154-.928,2.344-1.459,3.477a13,13,0,0,0-3.73,2.1,3.7,3.7,0,0,0-1.518,2.279,1.428,1.428,0,0,0,.426,1.1,1.6,1.6,0,0,0,1.16.5c1.455,0,2.856-1.927,3.122-2.314a20.728,20.728,0,0,0,1.526-2.643c1.235-.43,2.552-.751,3.828-1.062l.457-.112c.344-.084.7-.177,1.067-.274.388-.1.786-.206,1.192-.305a10.786,10.786,0,0,0,4.093,1.519,5.088,5.088,0,0,0,2.881-.282,1.015,1.015,0,0,0,.646-.993m2.819,8.835a1.943,1.943,0,0,1-2.068,2h-22.2a1.924,1.924,0,0,1-2.066-2V11.691a1.942,1.942,0,0,1,2.066-2h15l.008.008v5.64a3.209,3.209,0,0,0,3.4,3.275h5.814l.05.048Zm-1.378-22.789h-4.485a1.916,1.916,0,0,1-2.065-1.989v-4.35Zm2.712,22.789V18.131l-9.262-8.964V9.125h-.044l-.744-.72h-15.55a3.234,3.234,0,0,0-3.4,3.287V40.117a3.216,3.216,0,0,0,3.4,3.287h22.2a3.234,3.234,0,0,0,3.4-3.287" transform="translate(46.609 295.596)" fill="#2d62ed"/>
  </g>
</svg>
